%TF.GenerationSoftware,KiCad,Pcbnew,8.0.6*%
%TF.CreationDate,2026-01-22T01:40:21+10:00*%
%TF.ProjectId,TEV-AAPL-FPC-00001,5445562d-4141-4504-9c2d-4650432d3030,A*%
%TF.SameCoordinates,PX39ef8b0PY80befc0*%
%TF.FileFunction,Paste,Top*%
%TF.FilePolarity,Positive*%
%FSLAX46Y46*%
G04 Gerber Fmt 4.6, Leading zero omitted, Abs format (unit mm)*
G04 Created by KiCad (PCBNEW 8.0.6) date 2026-01-22 01:40:21*
%MOMM*%
%LPD*%
G01*
G04 APERTURE LIST*
%ADD10C,0.000000*%
G04 APERTURE END LIST*
D10*
%TO.C,J2*%
G36*
X4115000Y32360000D02*
G01*
X2550000Y32360000D01*
X2550000Y33120000D01*
X4115000Y33120000D01*
X4115000Y32360000D01*
G37*
G36*
X4115000Y31090000D02*
G01*
X2550000Y31090000D01*
X2550000Y31850000D01*
X4115000Y31850000D01*
X4115000Y31090000D01*
G37*
G36*
X4115000Y29820000D02*
G01*
X2550000Y29820000D01*
X2550000Y30580000D01*
X4115000Y30580000D01*
X4115000Y29820000D01*
G37*
G36*
X4115000Y28550000D02*
G01*
X2550000Y28550000D01*
X2550000Y29310000D01*
X4115000Y29310000D01*
X4115000Y28550000D01*
G37*
G36*
X4115000Y27280000D02*
G01*
X2550000Y27280000D01*
X2550000Y28040000D01*
X4115000Y28040000D01*
X4115000Y27280000D01*
G37*
G36*
X4115000Y26010000D02*
G01*
X2550000Y26010000D01*
X2550000Y26770000D01*
X4115000Y26770000D01*
X4115000Y26010000D01*
G37*
G36*
X4115000Y24740000D02*
G01*
X2550000Y24740000D01*
X2550000Y25500000D01*
X4115000Y25500000D01*
X4115000Y24740000D01*
G37*
G36*
X4115000Y23470000D02*
G01*
X2550000Y23470000D01*
X2550000Y24230000D01*
X4115000Y24230000D01*
X4115000Y23470000D01*
G37*
G36*
X4115000Y22200000D02*
G01*
X2550000Y22200000D01*
X2550000Y22960000D01*
X4115000Y22960000D01*
X4115000Y22200000D01*
G37*
G36*
X4115000Y20930000D02*
G01*
X2550000Y20930000D01*
X2550000Y21690000D01*
X4115000Y21690000D01*
X4115000Y20930000D01*
G37*
G36*
X4115000Y19660000D02*
G01*
X2550000Y19660000D01*
X2550000Y20420000D01*
X4115000Y20420000D01*
X4115000Y19660000D01*
G37*
G36*
X4115000Y18390000D02*
G01*
X2550000Y18390000D01*
X2550000Y19150000D01*
X4115000Y19150000D01*
X4115000Y18390000D01*
G37*
G36*
X4115000Y17120000D02*
G01*
X2550000Y17120000D01*
X2550000Y17880000D01*
X4115000Y17880000D01*
X4115000Y17120000D01*
G37*
G36*
X4115000Y15850000D02*
G01*
X2550000Y15850000D01*
X2550000Y16610000D01*
X4115000Y16610000D01*
X4115000Y15850000D01*
G37*
G36*
X4115000Y14580000D02*
G01*
X2550000Y14580000D01*
X2550000Y15340000D01*
X4115000Y15340000D01*
X4115000Y14580000D01*
G37*
G36*
X4115000Y13310000D02*
G01*
X2550000Y13310000D01*
X2550000Y14070000D01*
X4115000Y14070000D01*
X4115000Y13310000D01*
G37*
G36*
X4115000Y12040000D02*
G01*
X2550000Y12040000D01*
X2550000Y12800000D01*
X4115000Y12800000D01*
X4115000Y12040000D01*
G37*
G36*
X4115000Y10770000D02*
G01*
X2550000Y10770000D01*
X2550000Y11530000D01*
X4115000Y11530000D01*
X4115000Y10770000D01*
G37*
G36*
X4115000Y9500000D02*
G01*
X2550000Y9500000D01*
X2550000Y10260000D01*
X4115000Y10260000D01*
X4115000Y9500000D01*
G37*
G36*
X4115000Y8230000D02*
G01*
X2550000Y8230000D01*
X2550000Y8990000D01*
X4115000Y8990000D01*
X4115000Y8230000D01*
G37*
G36*
X4115000Y6960000D02*
G01*
X2550000Y6960000D01*
X2550000Y7720000D01*
X4115000Y7720000D01*
X4115000Y6960000D01*
G37*
G36*
X4115000Y5690000D02*
G01*
X2550000Y5690000D01*
X2550000Y6450000D01*
X4115000Y6450000D01*
X4115000Y5690000D01*
G37*
G36*
X4115000Y4420000D02*
G01*
X2550000Y4420000D01*
X2550000Y5180000D01*
X4115000Y5180000D01*
X4115000Y4420000D01*
G37*
G36*
X4115000Y3150000D02*
G01*
X2550000Y3150000D01*
X2550000Y3910000D01*
X4115000Y3910000D01*
X4115000Y3150000D01*
G37*
G36*
X4115000Y1880000D02*
G01*
X2550000Y1880000D01*
X2550000Y2640000D01*
X4115000Y2640000D01*
X4115000Y1880000D01*
G37*
G36*
X7450000Y32359999D02*
G01*
X5885000Y32360000D01*
X5885000Y33120000D01*
X7450000Y33120001D01*
X7450000Y32359999D01*
G37*
G36*
X7450000Y31089999D02*
G01*
X5885000Y31090000D01*
X5885000Y31850000D01*
X7450000Y31850001D01*
X7450000Y31089999D01*
G37*
G36*
X7450000Y29819999D02*
G01*
X5885000Y29820000D01*
X5885000Y30580000D01*
X7450000Y30580001D01*
X7450000Y29819999D01*
G37*
G36*
X7450000Y28549999D02*
G01*
X5885000Y28550000D01*
X5885000Y29310000D01*
X7450000Y29310001D01*
X7450000Y28549999D01*
G37*
G36*
X7450000Y27279999D02*
G01*
X5885000Y27280000D01*
X5885000Y28040000D01*
X7450000Y28040001D01*
X7450000Y27279999D01*
G37*
G36*
X7450000Y26009999D02*
G01*
X5885000Y26010000D01*
X5885000Y26770000D01*
X7450000Y26770001D01*
X7450000Y26009999D01*
G37*
G36*
X7450000Y24739999D02*
G01*
X5885000Y24740000D01*
X5885000Y25500000D01*
X7450000Y25500001D01*
X7450000Y24739999D01*
G37*
G36*
X7450000Y23469999D02*
G01*
X5885000Y23470000D01*
X5885000Y24230000D01*
X7450000Y24230001D01*
X7450000Y23469999D01*
G37*
G36*
X7450000Y22199999D02*
G01*
X5885000Y22200000D01*
X5885000Y22960000D01*
X7450000Y22960001D01*
X7450000Y22199999D01*
G37*
G36*
X7450000Y20929999D02*
G01*
X5885000Y20930000D01*
X5885000Y21690000D01*
X7450000Y21690001D01*
X7450000Y20929999D01*
G37*
G36*
X7450000Y19659999D02*
G01*
X5885000Y19660000D01*
X5885000Y20420000D01*
X7450000Y20420001D01*
X7450000Y19659999D01*
G37*
G36*
X7450000Y18389999D02*
G01*
X5885000Y18390000D01*
X5885000Y19150000D01*
X7450000Y19150001D01*
X7450000Y18389999D01*
G37*
G36*
X7450000Y17119999D02*
G01*
X5885000Y17120000D01*
X5885000Y17880000D01*
X7450000Y17880001D01*
X7450000Y17119999D01*
G37*
G36*
X7450000Y15849999D02*
G01*
X5885000Y15850000D01*
X5885000Y16610000D01*
X7450000Y16610001D01*
X7450000Y15849999D01*
G37*
G36*
X7450000Y14579999D02*
G01*
X5885000Y14580000D01*
X5885000Y15340000D01*
X7450000Y15340001D01*
X7450000Y14579999D01*
G37*
G36*
X7450000Y13309999D02*
G01*
X5885000Y13310000D01*
X5885000Y14070000D01*
X7450000Y14070001D01*
X7450000Y13309999D01*
G37*
G36*
X7450000Y12039999D02*
G01*
X5885000Y12040000D01*
X5885000Y12800000D01*
X7450000Y12800001D01*
X7450000Y12039999D01*
G37*
G36*
X7450000Y10769999D02*
G01*
X5885000Y10770000D01*
X5885000Y11530000D01*
X7450000Y11530001D01*
X7450000Y10769999D01*
G37*
G36*
X7450000Y9499999D02*
G01*
X5885000Y9500000D01*
X5885000Y10260000D01*
X7450000Y10260001D01*
X7450000Y9499999D01*
G37*
G36*
X7450000Y8229999D02*
G01*
X5885000Y8230000D01*
X5885000Y8990000D01*
X7450000Y8990001D01*
X7450000Y8229999D01*
G37*
G36*
X7450000Y6959999D02*
G01*
X5885000Y6960000D01*
X5885000Y7720000D01*
X7450000Y7720001D01*
X7450000Y6959999D01*
G37*
G36*
X7450000Y5689999D02*
G01*
X5885000Y5690000D01*
X5885000Y6450000D01*
X7450000Y6450001D01*
X7450000Y5689999D01*
G37*
G36*
X7450000Y4419999D02*
G01*
X5885000Y4420000D01*
X5885000Y5180000D01*
X7450000Y5180001D01*
X7450000Y4419999D01*
G37*
G36*
X7450000Y3149999D02*
G01*
X5885000Y3150000D01*
X5885000Y3910000D01*
X7450000Y3910001D01*
X7450000Y3149999D01*
G37*
G36*
X7450000Y1879999D02*
G01*
X5885000Y1880000D01*
X5885000Y2640000D01*
X7450000Y2640001D01*
X7450000Y1879999D01*
G37*
%TD*%
M02*
