%TF.GenerationSoftware,KiCad,Pcbnew,8.0.6*%
%TF.CreationDate,2026-01-22T01:40:21+10:00*%
%TF.ProjectId,TEV-AAPL-FPC-00001,5445562d-4141-4504-9c2d-4650432d3030,A*%
%TF.SameCoordinates,PX39ef8b0PY80befc0*%
%TF.FileFunction,Legend,Top*%
%TF.FilePolarity,Positive*%
%FSLAX46Y46*%
G04 Gerber Fmt 4.6, Leading zero omitted, Abs format (unit mm)*
G04 Created by KiCad (PCBNEW 8.0.6) date 2026-01-22 01:40:21*
%MOMM*%
%LPD*%
G01*
G04 APERTURE LIST*
%ADD10C,0.150000*%
%ADD11C,0.200000*%
%ADD12C,0.250000*%
%ADD13C,0.160000*%
G04 APERTURE END LIST*
D10*
X29525000Y17700000D02*
X29600000Y17750000D01*
X31229423Y18028109D02*
X31404423Y17725000D01*
X30450002Y17578108D02*
X30625000Y17275000D01*
X30612019Y16245818D02*
X30730321Y16350722D01*
X31894615Y18767340D02*
X31900418Y18677388D01*
X30109807Y18767341D02*
X30104005Y18677387D01*
X31392404Y16245816D02*
X31274103Y16350720D01*
X29875000Y17850000D02*
X30100000Y17900000D01*
X29450000Y17650000D02*
X29525000Y17700000D01*
X30301314Y18935641D02*
X30369615Y18917339D01*
X31579423Y17421891D02*
X31404423Y17725000D01*
X31659807Y16082662D02*
X31579007Y16122612D01*
X29600000Y17250000D02*
X29725000Y17200000D01*
X30959150Y18297068D02*
X30775000Y18028108D01*
X32400000Y17750000D02*
X32275000Y17800000D01*
X31901314Y16164359D02*
X31919616Y16232659D01*
X31887020Y18454183D02*
X31855321Y18299279D01*
X32475000Y17300000D02*
X32400000Y17250000D01*
X32625000Y17475000D02*
X32600000Y17400000D01*
X29375000Y17475000D02*
X29400000Y17400000D01*
X30202211Y18907291D02*
X30223862Y18919792D01*
X30073205Y16412564D02*
X30092403Y16545817D01*
X31880321Y16700723D02*
X31811121Y16920577D01*
X30984151Y16702935D02*
X30799998Y16971892D01*
X29875000Y17150000D02*
X30100000Y17100000D01*
X30799998Y16971892D02*
X30625000Y17275000D01*
X32550000Y17650000D02*
X32475000Y17700000D01*
X30084808Y16232661D02*
X30079006Y16322612D01*
X31367404Y18754182D02*
X31249102Y18649278D01*
X31045272Y18297067D02*
X31229423Y18028109D01*
X31786121Y18079422D02*
X31695272Y17872067D01*
X30344615Y16082660D02*
X30425417Y16122612D01*
X28150000Y14150000D02*
X34550000Y14150000D01*
X30775000Y18028108D02*
X30600000Y17725000D01*
X29375000Y17525000D02*
X29400000Y17600000D01*
X30650000Y17950000D02*
X31000000Y17950000D01*
X30506218Y16162564D02*
X30612019Y16245818D01*
X32600000Y17400000D02*
X32550000Y17350000D01*
X31350000Y17950000D02*
X31000000Y17950000D01*
X31823863Y18894792D02*
X31876314Y18835641D01*
X31695272Y17872067D02*
X31554423Y17578109D01*
X29600000Y17750000D02*
X29725000Y17800000D01*
X30531218Y18837435D02*
X30637019Y18754184D01*
X30103108Y16164359D02*
X30084808Y16232661D01*
X30177212Y16092708D02*
X30155561Y16105210D01*
X30124102Y16700721D02*
X30193301Y16920578D01*
X30198862Y16080209D02*
X30276314Y16064359D01*
X29525000Y17300000D02*
X29600000Y17250000D01*
X31579007Y16122612D02*
X31498205Y16162565D01*
X32275000Y17200000D02*
X32125000Y17150000D01*
X32625000Y17500000D02*
X32625000Y17525000D01*
X29400000Y17600000D02*
X29450000Y17650000D01*
X29450000Y17350000D02*
X29525000Y17300000D01*
X31498205Y16162565D02*
X31392404Y16245816D01*
X30128110Y18835642D02*
X30109807Y18767341D01*
X31900000Y17900000D02*
X31675000Y17925000D01*
X30730321Y16350722D02*
X30886121Y16520578D01*
D11*
X9500000Y35000000D02*
X11700000Y35000000D01*
X12500000Y35000000D02*
X14700000Y35000000D01*
X15500000Y35000000D02*
X17700000Y35000000D01*
X18500000Y35000000D02*
X20500000Y35000000D01*
D12*
X31125000Y17500000D02*
G75*
G02*
X30875000Y17500000I-125000J0D01*
G01*
X30875000Y17500000D02*
G75*
G02*
X31125000Y17500000I125000J0D01*
G01*
D10*
X31811121Y16920577D02*
X31720272Y17127933D01*
X29400000Y17400000D02*
X29450000Y17350000D01*
X31827213Y16092708D02*
X31805559Y16080209D01*
X31703110Y18935640D02*
X31634808Y18917340D01*
X29375000Y17500000D02*
X29375000Y17525000D01*
X31249102Y18649278D02*
X31093302Y18479423D01*
X30104005Y18677387D02*
X30098206Y18587436D01*
X30177212Y16092708D02*
X30198862Y16080209D01*
X30450417Y18877389D02*
X30531218Y18837435D01*
X31473206Y18837435D02*
X31367404Y18754182D01*
X30193301Y16920578D02*
X30284151Y17127933D01*
X31876314Y18835641D02*
X31894615Y18767340D01*
X31274103Y16350720D02*
X31118301Y16520578D01*
X30149103Y18299277D02*
X30218301Y18079424D01*
X31906218Y18587435D02*
X31887020Y18454183D01*
X30325000Y17075000D02*
X30650000Y17050000D01*
X29725000Y17200000D02*
X29875000Y17150000D01*
X30325000Y17925000D02*
X30650000Y17950000D01*
X32125000Y17850000D02*
X31900000Y17900000D01*
X30098206Y18587436D02*
X30117405Y18454181D01*
X31912018Y16545819D02*
X31880321Y16700723D01*
X31827213Y16092708D02*
X31848861Y16105210D01*
X31931219Y16412565D02*
X31912018Y16545819D01*
X31675000Y17075000D02*
X31350000Y17050000D01*
X31805559Y16080209D02*
X31728110Y16064358D01*
X29725000Y17800000D02*
X29875000Y17850000D01*
X30425000Y17421892D02*
X30600000Y17725000D01*
X31855321Y18299279D02*
X31786121Y18079422D01*
X32550000Y17350000D02*
X32475000Y17300000D01*
X30369615Y18917339D02*
X30450417Y18877389D01*
X31554006Y18877388D02*
X31473206Y18837435D01*
D11*
X9500000Y39000000D02*
X11700000Y39000000D01*
X12500000Y39000000D02*
X14700000Y39000000D01*
X15500000Y39000000D02*
X17700000Y39000000D01*
X18500000Y39000000D02*
X20500000Y39000000D01*
D10*
X30180562Y18894792D02*
X30128110Y18835642D01*
X31919616Y16232659D02*
X31925417Y16322613D01*
X30276314Y16064359D02*
X30344615Y16082660D01*
X31020272Y16702933D02*
X31204423Y16971891D01*
X30775000Y16350000D02*
G75*
G02*
X30675000Y16350000I-50000J0D01*
G01*
X30675000Y16350000D02*
G75*
G02*
X30775000Y16350000I50000J0D01*
G01*
X32625000Y17500000D02*
X32625000Y17475000D01*
X31802211Y18907291D02*
X31823863Y18894792D01*
X31802211Y18907291D02*
X31780562Y18919791D01*
X30425417Y16122612D02*
X30506218Y16162564D01*
X30755321Y18649280D02*
X30911122Y18479422D01*
X30284151Y17127933D02*
X30425000Y17421892D01*
X30100000Y17100000D02*
X30325000Y17075000D01*
X32125000Y17150000D02*
X31900000Y17100000D01*
X32600000Y17600000D02*
X32550000Y17650000D01*
X32400000Y17250000D02*
X32275000Y17200000D01*
X32625000Y17525000D02*
X32600000Y17600000D01*
X31900418Y18677388D02*
X31906218Y18587435D01*
X31350000Y17050000D02*
X31000000Y17050000D01*
X31848861Y16105210D02*
X31901314Y16164359D01*
X31780562Y18919791D02*
X31703110Y18935640D01*
X35300000Y13200000D02*
X34900000Y13200000D01*
X34700000Y13800000D01*
X34650000Y14100000D01*
X34400000Y14650000D01*
X34300000Y15300000D01*
X34200000Y15750000D01*
X34100000Y16150000D01*
X33950000Y16550000D01*
X33750000Y16950000D01*
X33600000Y17200000D01*
X33350000Y17450000D01*
X33150000Y17750000D01*
X32900000Y18100000D01*
X32300000Y18850000D01*
X31800000Y19650000D01*
X31700000Y20050000D01*
X31550000Y21250000D01*
X31450000Y21800000D01*
X35300000Y21800000D01*
X35300000Y13200000D01*
G36*
X35300000Y13200000D02*
G01*
X34900000Y13200000D01*
X34700000Y13800000D01*
X34650000Y14100000D01*
X34400000Y14650000D01*
X34300000Y15300000D01*
X34200000Y15750000D01*
X34100000Y16150000D01*
X33950000Y16550000D01*
X33750000Y16950000D01*
X33600000Y17200000D01*
X33350000Y17450000D01*
X33150000Y17750000D01*
X32900000Y18100000D01*
X32300000Y18850000D01*
X31800000Y19650000D01*
X31700000Y20050000D01*
X31550000Y21250000D01*
X31450000Y21800000D01*
X35300000Y21800000D01*
X35300000Y13200000D01*
G37*
X31093302Y18479423D02*
X30959150Y18297068D01*
X31925417Y16322613D02*
X31931219Y16412565D01*
X32475000Y17700000D02*
X32400000Y17750000D01*
X31634808Y18917340D02*
X31554006Y18877388D01*
X30650000Y17050000D02*
X31000000Y17050000D01*
X30218301Y18079424D02*
X30309149Y17872066D01*
X30079006Y16322612D02*
X30073205Y16412564D01*
X31554423Y17578109D02*
X31379423Y17275000D01*
X30911122Y18479422D02*
X31045272Y18297067D01*
X29375000Y17500000D02*
X29375000Y17475000D01*
X31675000Y17925000D02*
X31350000Y17950000D01*
X31204423Y16971891D02*
X31379423Y17275000D01*
X27450000Y15450000D02*
X28150000Y14150000D01*
X30309149Y17872066D02*
X30450002Y17578108D01*
X31900000Y17100000D02*
X31675000Y17075000D01*
X30117405Y18454181D02*
X30149103Y18299277D01*
X30100000Y17900000D02*
X30325000Y17925000D01*
X31450000Y21800000D02*
X27450000Y15450000D01*
X30223862Y18919792D02*
X30301314Y18935641D01*
X30092403Y16545817D02*
X30124102Y16700721D01*
X30155561Y16105210D02*
X30103108Y16164359D01*
X31118301Y16520578D02*
X30984151Y16702935D01*
X31728110Y16064358D02*
X31659807Y16082662D01*
X32275000Y17800000D02*
X32125000Y17850000D01*
X30202211Y18907291D02*
X30180562Y18894792D01*
X30637019Y18754184D02*
X30755321Y18649280D01*
X30200000Y18300000D02*
G75*
G02*
X30100000Y18300000I-50000J0D01*
G01*
X30100000Y18300000D02*
G75*
G02*
X30200000Y18300000I50000J0D01*
G01*
X30886121Y16520578D02*
X31020272Y16702933D01*
X31720272Y17127933D02*
X31579423Y17421891D01*
X32175000Y17825000D02*
G75*
G02*
X32075000Y17825000I-50000J0D01*
G01*
X32075000Y17825000D02*
G75*
G02*
X32175000Y17825000I50000J0D01*
G01*
X27450000Y15450000D02*
X34200000Y15450000D01*
D13*
G36*
X37362500Y8836585D02*
G01*
X36096345Y8836585D01*
X36096345Y8388522D01*
X35838424Y8388522D01*
X35838424Y9588731D01*
X36096345Y9588731D01*
X36096345Y9141767D01*
X37362500Y9141767D01*
X37362500Y8836585D01*
G37*
G36*
X35838424Y10065371D02*
G01*
X36393100Y10065371D01*
X36340060Y10119785D01*
X36292050Y10188151D01*
X36258976Y10261777D01*
X36240839Y10340661D01*
X36237028Y10400228D01*
X36243196Y10478227D01*
X36261698Y10549696D01*
X36274398Y10580479D01*
X36313939Y10647004D01*
X36366055Y10698799D01*
X36369652Y10701379D01*
X36434775Y10737350D01*
X36498246Y10757067D01*
X36574732Y10767335D01*
X36655785Y10771369D01*
X36716966Y10772088D01*
X37362500Y10772088D01*
X37362500Y10482660D01*
X36773386Y10482660D01*
X36693816Y10481629D01*
X36616829Y10477443D01*
X36551003Y10466173D01*
X36489009Y10424984D01*
X36475898Y10407922D01*
X36450257Y10337096D01*
X36448054Y10303508D01*
X36459414Y10227181D01*
X36483958Y10174547D01*
X36535414Y10120284D01*
X36591303Y10091383D01*
X36667318Y10073601D01*
X36745541Y10066616D01*
X36803794Y10065371D01*
X37362500Y10065371D01*
X37362500Y9775943D01*
X35838424Y9775943D01*
X35838424Y10065371D01*
G37*
G36*
X36893553Y11996843D02*
G01*
X36893553Y11271442D01*
X36971105Y11279535D01*
X37043023Y11302900D01*
X37100915Y11341418D01*
X37148831Y11401333D01*
X37172319Y11472132D01*
X37174921Y11508480D01*
X37163168Y11581345D01*
X37141582Y11622419D01*
X37084023Y11671707D01*
X37034237Y11692761D01*
X37081132Y11981456D01*
X37151245Y11949582D01*
X37219502Y11904090D01*
X37276516Y11848397D01*
X37308278Y11805601D01*
X37345823Y11733431D01*
X37368881Y11661252D01*
X37382230Y11581516D01*
X37385947Y11505549D01*
X37381376Y11419879D01*
X37367664Y11341472D01*
X37344811Y11270328D01*
X37305321Y11194542D01*
X37252668Y11129215D01*
X37198735Y11082765D01*
X37129266Y11040652D01*
X37052295Y11008883D01*
X36980347Y10989885D01*
X36902887Y10978487D01*
X36819914Y10974687D01*
X36737403Y10978157D01*
X36660689Y10988569D01*
X36576282Y11010224D01*
X36500221Y11041875D01*
X36432507Y11083520D01*
X36392001Y11116836D01*
X36339334Y11172796D01*
X36297564Y11234062D01*
X36266691Y11300634D01*
X36246714Y11372513D01*
X36237634Y11449698D01*
X36237028Y11476606D01*
X36237949Y11493825D01*
X36448054Y11493825D01*
X36461308Y11417360D01*
X36501068Y11353376D01*
X36517297Y11337388D01*
X36582017Y11297481D01*
X36656249Y11279106D01*
X36705975Y11276571D01*
X36705975Y11709247D01*
X36632917Y11701655D01*
X36560926Y11677338D01*
X36514000Y11644401D01*
X36468920Y11585106D01*
X36448634Y11510214D01*
X36448054Y11493825D01*
X36237949Y11493825D01*
X36240973Y11550342D01*
X36256120Y11632190D01*
X36282627Y11706800D01*
X36320494Y11774171D01*
X36369721Y11834303D01*
X36398595Y11861655D01*
X36465223Y11909496D01*
X36543933Y11946955D01*
X36618753Y11970241D01*
X36701963Y11986318D01*
X36793563Y11995185D01*
X36872884Y11997088D01*
X36893553Y11996843D01*
G37*
G36*
X37362500Y12812370D02*
G01*
X35838424Y12812370D01*
X35838424Y13932346D01*
X36096345Y13932346D01*
X36096345Y13117552D01*
X36424607Y13117552D01*
X36424607Y13875926D01*
X36682527Y13875926D01*
X36682527Y13117552D01*
X37104579Y13117552D01*
X37104579Y13961289D01*
X37362500Y13961289D01*
X37362500Y12812370D01*
G37*
G36*
X37362500Y14209684D02*
G01*
X35838424Y14209684D01*
X35838424Y14499478D01*
X37362500Y14499478D01*
X37362500Y14209684D01*
G37*
G36*
X36893553Y15730828D02*
G01*
X36893553Y15005427D01*
X36971105Y15013520D01*
X37043023Y15036885D01*
X37100915Y15075402D01*
X37148831Y15135318D01*
X37172319Y15206117D01*
X37174921Y15242464D01*
X37163168Y15315330D01*
X37141582Y15356404D01*
X37084023Y15405691D01*
X37034237Y15426746D01*
X37081132Y15715441D01*
X37151245Y15683567D01*
X37219502Y15638075D01*
X37276516Y15582382D01*
X37308278Y15539586D01*
X37345823Y15467416D01*
X37368881Y15395237D01*
X37382230Y15315501D01*
X37385947Y15239534D01*
X37381376Y15153864D01*
X37367664Y15075457D01*
X37344811Y15004313D01*
X37305321Y14928527D01*
X37252668Y14863199D01*
X37198735Y14816749D01*
X37129266Y14774637D01*
X37052295Y14742868D01*
X36980347Y14723870D01*
X36902887Y14712471D01*
X36819914Y14708672D01*
X36737403Y14712142D01*
X36660689Y14722553D01*
X36576282Y14744209D01*
X36500221Y14775859D01*
X36432507Y14817505D01*
X36392001Y14850821D01*
X36339334Y14906780D01*
X36297564Y14968046D01*
X36266691Y15034619D01*
X36246714Y15106498D01*
X36237634Y15183683D01*
X36237028Y15210591D01*
X36237949Y15227810D01*
X36448054Y15227810D01*
X36461308Y15151344D01*
X36501068Y15087361D01*
X36517297Y15071372D01*
X36582017Y15031466D01*
X36656249Y15013090D01*
X36705975Y15010556D01*
X36705975Y15443232D01*
X36632917Y15435640D01*
X36560926Y15411323D01*
X36514000Y15378386D01*
X36468920Y15319090D01*
X36448634Y15244199D01*
X36448054Y15227810D01*
X36237949Y15227810D01*
X36240973Y15284327D01*
X36256120Y15366175D01*
X36282627Y15440785D01*
X36320494Y15508155D01*
X36369721Y15568288D01*
X36398595Y15595640D01*
X36465223Y15643480D01*
X36543933Y15680940D01*
X36618753Y15704225D01*
X36701963Y15720302D01*
X36793563Y15729170D01*
X36872884Y15731073D01*
X36893553Y15730828D01*
G37*
G36*
X36565291Y16915284D02*
G01*
X36612185Y16629886D01*
X36540653Y16606347D01*
X36489453Y16564307D01*
X36455978Y16497395D01*
X36448054Y16432049D01*
X36459286Y16357122D01*
X36496801Y16289788D01*
X36527922Y16259492D01*
X36595515Y16222781D01*
X36669687Y16204079D01*
X36749875Y16196019D01*
X36795001Y16195012D01*
X36868748Y16197304D01*
X36943944Y16205774D01*
X37015585Y16223096D01*
X37083692Y16256212D01*
X37089192Y16260224D01*
X37141433Y16315694D01*
X37169563Y16383735D01*
X37174921Y16436079D01*
X37163106Y16511001D01*
X37127660Y16570901D01*
X37067956Y16613518D01*
X36998516Y16637758D01*
X36963895Y16645273D01*
X37010790Y16929572D01*
X37087706Y16906286D01*
X37155927Y16875215D01*
X37223247Y16830176D01*
X37279209Y16774969D01*
X37291425Y16759579D01*
X37332778Y16691389D01*
X37359270Y16622933D01*
X37376716Y16546272D01*
X37385116Y16461406D01*
X37385947Y16422524D01*
X37380602Y16335949D01*
X37364566Y16256200D01*
X37337840Y16183278D01*
X37300424Y16117182D01*
X37252317Y16057913D01*
X37233906Y16039673D01*
X37172657Y15991240D01*
X37103217Y15952828D01*
X37025585Y15924436D01*
X36939761Y15906065D01*
X36861984Y15898410D01*
X36812587Y15897157D01*
X36730464Y15900655D01*
X36654227Y15911147D01*
X36570512Y15932970D01*
X36495271Y15964865D01*
X36428505Y16006832D01*
X36388703Y16040406D01*
X36337158Y16097679D01*
X36296276Y16162062D01*
X36266060Y16233554D01*
X36246508Y16312157D01*
X36237621Y16397869D01*
X36237028Y16428019D01*
X36240920Y16511465D01*
X36252596Y16587091D01*
X36275471Y16663948D01*
X36308512Y16730592D01*
X36318361Y16745657D01*
X36370628Y16806769D01*
X36428377Y16852284D01*
X36496749Y16889510D01*
X36565291Y16915284D01*
G37*
G36*
X36260476Y17630793D02*
G01*
X36471502Y17630793D01*
X36471502Y17432956D01*
X36949973Y17432956D01*
X37029035Y17433493D01*
X37103218Y17436311D01*
X37119600Y17438452D01*
X37159534Y17464464D01*
X37174921Y17513190D01*
X37161761Y17585573D01*
X37147077Y17629694D01*
X37347845Y17654607D01*
X37369538Y17581972D01*
X37382226Y17503104D01*
X37385947Y17425996D01*
X37379169Y17351440D01*
X37358836Y17284579D01*
X37318793Y17219149D01*
X37288860Y17192255D01*
X37219505Y17161518D01*
X37172723Y17151589D01*
X37094229Y17144719D01*
X37018287Y17142752D01*
X36962796Y17142430D01*
X36471502Y17142430D01*
X36471502Y17009439D01*
X36260476Y17009439D01*
X36260476Y17142430D01*
X36049450Y17142430D01*
X35885319Y17432956D01*
X36260476Y17432956D01*
X36260476Y17630793D01*
G37*
G36*
X37362500Y18105235D02*
G01*
X37362500Y17815807D01*
X36260476Y17815807D01*
X36260476Y18084718D01*
X36416181Y18084718D01*
X36354664Y18126407D01*
X36296837Y18176536D01*
X36271467Y18208550D01*
X36242712Y18279539D01*
X36237028Y18334213D01*
X36245375Y18407371D01*
X36270413Y18478468D01*
X36296379Y18524722D01*
X36566024Y18434963D01*
X36531838Y18368604D01*
X36518396Y18299042D01*
X36532596Y18227109D01*
X36551369Y18195727D01*
X36613336Y18150074D01*
X36670437Y18129415D01*
X36751671Y18115648D01*
X36826582Y18109863D01*
X36905162Y18106746D01*
X36980780Y18105447D01*
X37030573Y18105235D01*
X37362500Y18105235D01*
G37*
G36*
X36884334Y19702695D02*
G01*
X36969788Y19687652D01*
X37049267Y19661325D01*
X37122768Y19623715D01*
X37190294Y19574823D01*
X37221816Y19546146D01*
X37277595Y19483197D01*
X37321833Y19414426D01*
X37354531Y19339834D01*
X37375689Y19259420D01*
X37385306Y19173184D01*
X37385947Y19143145D01*
X37381688Y19068727D01*
X37368911Y18996050D01*
X37347616Y18925112D01*
X37317803Y18855915D01*
X37279587Y18791847D01*
X37227123Y18729515D01*
X37164633Y18677499D01*
X37117402Y18648553D01*
X37047861Y18617458D01*
X36971131Y18595247D01*
X36898094Y18583101D01*
X36819552Y18577756D01*
X36796100Y18577478D01*
X36715246Y18583101D01*
X36635899Y18599967D01*
X36566633Y18624399D01*
X36515465Y18648553D01*
X36451695Y18687800D01*
X36389533Y18740820D01*
X36337514Y18803230D01*
X36308469Y18850053D01*
X36277214Y18917144D01*
X36254889Y18987990D01*
X36241494Y19062590D01*
X36237028Y19140947D01*
X36237086Y19142046D01*
X36448054Y19142046D01*
X36459137Y19068459D01*
X36496506Y18997859D01*
X36541844Y18951536D01*
X36608319Y18910771D01*
X36681973Y18886991D01*
X36758440Y18876121D01*
X36811488Y18874233D01*
X36894446Y18879065D01*
X36967101Y18893559D01*
X37036521Y18921415D01*
X37081498Y18951536D01*
X37134687Y19008925D01*
X37167531Y19081207D01*
X37174921Y19142046D01*
X37163882Y19215546D01*
X37126659Y19285854D01*
X37081498Y19331822D01*
X37014615Y19372394D01*
X36940288Y19396061D01*
X36862979Y19406881D01*
X36809289Y19408759D01*
X36727315Y19403950D01*
X36655416Y19389525D01*
X36586573Y19361801D01*
X36541844Y19331822D01*
X36488446Y19274851D01*
X36455473Y19202826D01*
X36448054Y19142046D01*
X36237086Y19142046D01*
X36240982Y19216379D01*
X36256163Y19301112D01*
X36282730Y19379534D01*
X36320683Y19451645D01*
X36370022Y19517444D01*
X36398961Y19547977D01*
X36462700Y19601889D01*
X36532467Y19644646D01*
X36608261Y19676249D01*
X36690084Y19696698D01*
X36762874Y19705219D01*
X36808557Y19706613D01*
X36884334Y19702695D01*
G37*
G36*
X37362500Y20921843D02*
G01*
X37362500Y20632416D01*
X36793536Y20632416D01*
X36711195Y20631248D01*
X36637612Y20627142D01*
X36563240Y20614881D01*
X36559795Y20613731D01*
X36495734Y20575286D01*
X36477363Y20553647D01*
X36450373Y20484903D01*
X36448054Y20453263D01*
X36459945Y20377522D01*
X36490186Y20318075D01*
X36542420Y20265172D01*
X36601561Y20236009D01*
X36677230Y20221777D01*
X36752356Y20216174D01*
X36834753Y20214113D01*
X36857650Y20214028D01*
X37362500Y20214028D01*
X37362500Y19924600D01*
X36260476Y19924600D01*
X36260476Y20193511D01*
X36421310Y20193511D01*
X36358683Y20249831D01*
X36309013Y20311355D01*
X36272301Y20378082D01*
X36248546Y20450012D01*
X36237748Y20527146D01*
X36237028Y20554014D01*
X36242773Y20629222D01*
X36261806Y20703995D01*
X36271833Y20729136D01*
X36308648Y20795135D01*
X36360493Y20849303D01*
X36425718Y20887170D01*
X36482859Y20905723D01*
X36559785Y20917294D01*
X36640104Y20921450D01*
X36678497Y20921843D01*
X37362500Y20921843D01*
G37*
G36*
X37362500Y22179572D02*
G01*
X35838424Y21639551D01*
X35838424Y21970378D01*
X36963895Y22352496D01*
X35838424Y22722524D01*
X35838424Y23046023D01*
X37362500Y22505270D01*
X37362500Y22179572D01*
G37*
G36*
X37362500Y23740650D02*
G01*
X37290938Y23717833D01*
X37273107Y23712806D01*
X37237569Y23702548D01*
X37288093Y23645327D01*
X37330967Y23580081D01*
X37348944Y23543546D01*
X37372902Y23473147D01*
X37384646Y23398878D01*
X37385947Y23363295D01*
X37380131Y23283313D01*
X37359684Y23204008D01*
X37324515Y23136004D01*
X37292890Y23096948D01*
X37236634Y23049839D01*
X37164949Y23015579D01*
X37092174Y23001018D01*
X37057318Y22999495D01*
X36984203Y23006811D01*
X36913036Y23031054D01*
X36889523Y23043825D01*
X36831430Y23089416D01*
X36786661Y23148611D01*
X36776317Y23168023D01*
X36748307Y23237867D01*
X36727091Y23311261D01*
X36709648Y23389124D01*
X36707807Y23398466D01*
X36691079Y23481303D01*
X36672607Y23561376D01*
X36652646Y23632847D01*
X36635633Y23679834D01*
X36846659Y23679834D01*
X36865984Y23607935D01*
X36882763Y23532733D01*
X36888790Y23503612D01*
X36905328Y23430616D01*
X36929073Y23359678D01*
X36936418Y23346076D01*
X36992059Y23297275D01*
X37033138Y23289289D01*
X37105285Y23310762D01*
X37133155Y23334718D01*
X37169048Y23401093D01*
X37174921Y23450123D01*
X37162739Y23526693D01*
X37129192Y23595151D01*
X37126195Y23599600D01*
X37073186Y23651063D01*
X37035336Y23668476D01*
X36961721Y23678492D01*
X36901247Y23679834D01*
X36846659Y23679834D01*
X36635633Y23679834D01*
X36605957Y23679834D01*
X36532868Y23669484D01*
X36484324Y23638434D01*
X36454997Y23569089D01*
X36448090Y23490169D01*
X36448054Y23483096D01*
X36457907Y23406795D01*
X36479195Y23362196D01*
X36536583Y23314597D01*
X36588738Y23292220D01*
X36541844Y23029537D01*
X36469212Y23055686D01*
X36399544Y23094629D01*
X36342627Y23143657D01*
X36311767Y23181945D01*
X36275638Y23251232D01*
X36253450Y23326738D01*
X36241700Y23403549D01*
X36237320Y23477369D01*
X36237028Y23503612D01*
X36239237Y23583652D01*
X36247171Y23663491D01*
X36262995Y23738475D01*
X36283190Y23791941D01*
X36321315Y23855173D01*
X36374650Y23908889D01*
X36400427Y23925298D01*
X36470202Y23948963D01*
X36544510Y23959543D01*
X36626375Y23963791D01*
X36660912Y23964132D01*
X37000898Y23960835D01*
X37076478Y23961936D01*
X37152481Y23966273D01*
X37214855Y23974757D01*
X37286204Y23994724D01*
X37357586Y24024423D01*
X37362500Y24026781D01*
X37362500Y23740650D01*
G37*
G36*
X37362500Y24963940D02*
G01*
X37198735Y24963940D01*
X37259099Y24913846D01*
X37308850Y24853138D01*
X37336121Y24806770D01*
X37364489Y24738681D01*
X37382006Y24661341D01*
X37385947Y24601240D01*
X37379095Y24521951D01*
X37358538Y24448947D01*
X37337220Y24403769D01*
X37291160Y24340607D01*
X37232161Y24293408D01*
X37200566Y24277007D01*
X37124918Y24253119D01*
X37047473Y24241635D01*
X36966577Y24237845D01*
X36956934Y24237806D01*
X36260476Y24237806D01*
X36260476Y24527234D01*
X36772287Y24527234D01*
X36853963Y24527788D01*
X36933103Y24529834D01*
X37009301Y24534680D01*
X37060249Y24542988D01*
X37124920Y24579598D01*
X37144146Y24601240D01*
X37171916Y24670238D01*
X37174921Y24708584D01*
X37163237Y24782873D01*
X37133522Y24841208D01*
X37080688Y24895742D01*
X37030940Y24921808D01*
X36951606Y24935804D01*
X36873633Y24940870D01*
X36787187Y24943086D01*
X36730155Y24943424D01*
X36260476Y24943424D01*
X36260476Y25232852D01*
X37362500Y25232852D01*
X37362500Y24963940D01*
G37*
G36*
X37362500Y25525943D02*
G01*
X35838424Y25525943D01*
X35838424Y25815737D01*
X37362500Y25815737D01*
X37362500Y25525943D01*
G37*
G36*
X36260476Y26611114D02*
G01*
X36471502Y26611114D01*
X36471502Y26413277D01*
X36949973Y26413277D01*
X37029035Y26413814D01*
X37103218Y26416632D01*
X37119600Y26418773D01*
X37159534Y26444785D01*
X37174921Y26493511D01*
X37161761Y26565894D01*
X37147077Y26610015D01*
X37347845Y26634928D01*
X37369538Y26562293D01*
X37382226Y26483425D01*
X37385947Y26406317D01*
X37379169Y26331761D01*
X37358836Y26264900D01*
X37318793Y26199470D01*
X37288860Y26172576D01*
X37219505Y26141839D01*
X37172723Y26131910D01*
X37094229Y26125040D01*
X37018287Y26123073D01*
X36962796Y26122751D01*
X36471502Y26122751D01*
X36471502Y25989760D01*
X36260476Y25989760D01*
X36260476Y26122751D01*
X36049450Y26122751D01*
X35885319Y26413277D01*
X36260476Y26413277D01*
X36260476Y26611114D01*
G37*
G36*
X39368709Y15207423D02*
G01*
X39435201Y15163270D01*
X39487925Y15106909D01*
X39525679Y15040540D01*
X39547761Y14965859D01*
X39554237Y14890754D01*
X39548785Y14816761D01*
X39529202Y14739795D01*
X39495376Y14670936D01*
X39447308Y14610183D01*
X39440298Y14603158D01*
X39377764Y14554592D01*
X39304468Y14519902D01*
X39231506Y14500931D01*
X39150305Y14492584D01*
X39125591Y14492150D01*
X39046214Y14496980D01*
X38972491Y14511470D01*
X38897924Y14538566D01*
X38891484Y14541609D01*
X38826854Y14580764D01*
X38770371Y14635229D01*
X38737611Y14684125D01*
X38706579Y14757283D01*
X38690715Y14829776D01*
X38686687Y14892953D01*
X38692769Y14968100D01*
X38713509Y15041341D01*
X38748968Y15104711D01*
X38800020Y15158687D01*
X38861157Y15200018D01*
X38928172Y15230914D01*
X38944607Y15236969D01*
X38968054Y15069906D01*
X38900900Y15034398D01*
X38860710Y14995168D01*
X38831310Y14927804D01*
X38827370Y14886724D01*
X38840975Y14811180D01*
X38881787Y14748679D01*
X38898445Y14733218D01*
X38962759Y14696827D01*
X39041537Y14678224D01*
X39120095Y14673500D01*
X39198712Y14678137D01*
X39271312Y14694166D01*
X39337936Y14728512D01*
X39342479Y14732119D01*
X39391065Y14787968D01*
X39412929Y14857922D01*
X39413553Y14873169D01*
X39402187Y14948679D01*
X39381313Y14992604D01*
X39327352Y15044634D01*
X39272869Y15071006D01*
X39296317Y15236969D01*
X39368709Y15207423D01*
G37*
G36*
X39196729Y15664862D02*
G01*
X39271656Y15653811D01*
X39345243Y15635393D01*
X39417492Y15609607D01*
X39488400Y15576454D01*
X39511739Y15563765D01*
X39578646Y15521699D01*
X39639783Y15473812D01*
X39695150Y15420102D01*
X39744747Y15360571D01*
X39788573Y15295218D01*
X39801899Y15272140D01*
X39837259Y15201403D01*
X39865303Y15129326D01*
X39886031Y15055910D01*
X39899444Y14981155D01*
X39905540Y14905060D01*
X39905947Y14879397D01*
X39902289Y14802843D01*
X39891315Y14727602D01*
X39873026Y14653675D01*
X39847420Y14581062D01*
X39814499Y14509763D01*
X39801899Y14486288D01*
X39759996Y14419106D01*
X39712323Y14357694D01*
X39658880Y14302053D01*
X39599666Y14252181D01*
X39534682Y14208080D01*
X39511739Y14194662D01*
X39441277Y14159178D01*
X39369475Y14131035D01*
X39296334Y14110234D01*
X39221853Y14096774D01*
X39146033Y14090656D01*
X39120462Y14090248D01*
X39043757Y14093996D01*
X38968341Y14105241D01*
X38894212Y14123981D01*
X38821371Y14150218D01*
X38749819Y14183950D01*
X38726254Y14196860D01*
X38658690Y14239648D01*
X38597231Y14288051D01*
X38541877Y14342069D01*
X38492628Y14401704D01*
X38449484Y14466954D01*
X38436460Y14489952D01*
X38401971Y14560461D01*
X38374619Y14632130D01*
X38354401Y14704958D01*
X38341320Y14778945D01*
X38335373Y14854091D01*
X38334977Y14879397D01*
X38499108Y14879397D01*
X38504100Y14798843D01*
X38519075Y14719845D01*
X38544033Y14642405D01*
X38578975Y14566522D01*
X38623237Y14495608D01*
X38676154Y14432707D01*
X38737726Y14377821D01*
X38798701Y14336370D01*
X38807953Y14330950D01*
X38873747Y14297688D01*
X38950701Y14269679D01*
X39029532Y14252339D01*
X39110241Y14245670D01*
X39120462Y14245587D01*
X39200375Y14250830D01*
X39278548Y14266561D01*
X39354981Y14292779D01*
X39429673Y14329484D01*
X39499260Y14375738D01*
X39560740Y14430234D01*
X39614115Y14492974D01*
X39654168Y14554634D01*
X39659384Y14563957D01*
X39691503Y14630518D01*
X39718551Y14708262D01*
X39735295Y14787791D01*
X39741735Y14869107D01*
X39741816Y14879397D01*
X39736664Y14960913D01*
X39721208Y15040597D01*
X39695448Y15118450D01*
X39664455Y15185068D01*
X39659384Y15194470D01*
X39620217Y15257157D01*
X39567855Y15320984D01*
X39507388Y15376477D01*
X39438815Y15423635D01*
X39429673Y15428943D01*
X39354981Y15465809D01*
X39278548Y15492141D01*
X39200375Y15507941D01*
X39120462Y15513207D01*
X39039953Y15507849D01*
X38961093Y15491775D01*
X38883882Y15464985D01*
X38817675Y15432752D01*
X38808319Y15427478D01*
X38746254Y15387029D01*
X38683480Y15333202D01*
X38629407Y15271269D01*
X38584035Y15201231D01*
X38578975Y15191906D01*
X38544033Y15116183D01*
X38519075Y15038857D01*
X38504100Y14959928D01*
X38499108Y14879397D01*
X38334977Y14879397D01*
X38338545Y14954930D01*
X38349248Y15029303D01*
X38367087Y15102517D01*
X38392061Y15174572D01*
X38424171Y15245468D01*
X38436460Y15268842D01*
X38477568Y15335964D01*
X38524782Y15397470D01*
X38578101Y15453361D01*
X38637525Y15503636D01*
X38703054Y15548295D01*
X38726254Y15561934D01*
X38797377Y15598165D01*
X38869789Y15626900D01*
X38943488Y15648139D01*
X39018475Y15661882D01*
X39094750Y15668129D01*
X39120462Y15668546D01*
X39196729Y15664862D01*
G37*
G36*
X39601132Y17296302D02*
G01*
X39882500Y17296302D01*
X39882500Y16281107D01*
X39807853Y16293472D01*
X39735221Y16314080D01*
X39664604Y16342931D01*
X39596003Y16380025D01*
X39532472Y16423785D01*
X39471292Y16473545D01*
X39415567Y16523650D01*
X39355530Y16581608D01*
X39291182Y16647419D01*
X39236599Y16705723D01*
X39182895Y16763271D01*
X39125983Y16822554D01*
X39069971Y16878238D01*
X39014390Y16928502D01*
X38991502Y16946058D01*
X38925041Y16982448D01*
X38853739Y17002918D01*
X38815647Y17005775D01*
X38740143Y16995818D01*
X38674632Y16960051D01*
X38668002Y16953752D01*
X38627695Y16887309D01*
X38616345Y16810137D01*
X38628259Y16733168D01*
X38667231Y16669169D01*
X38670566Y16665789D01*
X38737178Y16625545D01*
X38813187Y16607607D01*
X38850818Y16603874D01*
X38822241Y16315179D01*
X38748158Y16325885D01*
X38668302Y16345841D01*
X38598312Y16373550D01*
X38529127Y16415677D01*
X38473371Y16468358D01*
X38466502Y16476745D01*
X38424389Y16539614D01*
X38392621Y16608970D01*
X38371195Y16684812D01*
X38360113Y16767140D01*
X38358424Y16817098D01*
X38362649Y16897542D01*
X38375323Y16971263D01*
X38400788Y17048773D01*
X38437753Y17117131D01*
X38478592Y17168441D01*
X38533827Y17218262D01*
X38603866Y17260216D01*
X38681277Y17286188D01*
X38755061Y17295803D01*
X38777178Y17296302D01*
X38851951Y17291150D01*
X38924045Y17275694D01*
X38970619Y17259666D01*
X39040600Y17226212D01*
X39107013Y17185046D01*
X39162960Y17143895D01*
X39221212Y17092478D01*
X39275720Y17038362D01*
X39331957Y16979069D01*
X39354935Y16954118D01*
X39405595Y16898975D01*
X39458982Y16842194D01*
X39512768Y16788213D01*
X39521264Y16780461D01*
X39579113Y16734988D01*
X39601132Y16721110D01*
X39601132Y17296302D01*
G37*
G36*
X39211073Y18464799D02*
G01*
X39285343Y18460887D01*
X39377758Y18451613D01*
X39462617Y18437703D01*
X39539920Y18419156D01*
X39609667Y18395972D01*
X39686224Y18360471D01*
X39750975Y18317726D01*
X39811359Y18259420D01*
X39856913Y18191892D01*
X39887635Y18115144D01*
X39902163Y18042020D01*
X39905947Y17975908D01*
X39899970Y17896202D01*
X39882042Y17822499D01*
X39852160Y17754797D01*
X39810326Y17693098D01*
X39756539Y17637400D01*
X39735954Y17620168D01*
X39662843Y17574350D01*
X39587611Y17543409D01*
X39499374Y17519052D01*
X39419421Y17504305D01*
X39331144Y17493772D01*
X39234544Y17487453D01*
X39156632Y17485478D01*
X39129621Y17485346D01*
X39051493Y17486650D01*
X38977577Y17490562D01*
X38885574Y17499836D01*
X38801058Y17513746D01*
X38724030Y17532294D01*
X38654489Y17555478D01*
X38578093Y17590978D01*
X38513396Y17633724D01*
X38453012Y17692047D01*
X38407458Y17759627D01*
X38376736Y17836463D01*
X38362208Y17909690D01*
X38358424Y17975908D01*
X38616345Y17975908D01*
X38634686Y17903505D01*
X38648951Y17882119D01*
X38709745Y17837811D01*
X38765455Y17818371D01*
X38838633Y17803849D01*
X38911817Y17795840D01*
X38985877Y17791263D01*
X39070396Y17788799D01*
X39132552Y17788329D01*
X39209322Y17788982D01*
X39291033Y17791490D01*
X39372004Y17796791D01*
X39445609Y17805985D01*
X39487559Y17815074D01*
X39559597Y17841140D01*
X39616153Y17882485D01*
X39646034Y17950423D01*
X39648026Y17975908D01*
X39629685Y18048311D01*
X39615420Y18069697D01*
X39554626Y18114004D01*
X39498916Y18133444D01*
X39426241Y18147967D01*
X39353286Y18155976D01*
X39279312Y18160553D01*
X39194777Y18163017D01*
X39132552Y18163486D01*
X39055896Y18162833D01*
X38974323Y18160326D01*
X38893512Y18155024D01*
X38820090Y18145831D01*
X38778278Y18136742D01*
X38705919Y18110605D01*
X38648951Y18068964D01*
X38618382Y18001370D01*
X38616345Y17975908D01*
X38358424Y17975908D01*
X38363950Y18054716D01*
X38380526Y18126827D01*
X38413833Y18202491D01*
X38462181Y18269039D01*
X38515594Y18318825D01*
X38579730Y18361254D01*
X38655815Y18396491D01*
X38743849Y18424537D01*
X38822881Y18441797D01*
X38909561Y18454453D01*
X39003888Y18462508D01*
X39079652Y18465528D01*
X39132552Y18466103D01*
X39211073Y18464799D01*
G37*
G36*
X39601132Y19632241D02*
G01*
X39882500Y19632241D01*
X39882500Y18617045D01*
X39807853Y18629410D01*
X39735221Y18650018D01*
X39664604Y18678869D01*
X39596003Y18715964D01*
X39532472Y18759724D01*
X39471292Y18809484D01*
X39415567Y18859588D01*
X39355530Y18917547D01*
X39291182Y18983358D01*
X39236599Y19041662D01*
X39182895Y19099210D01*
X39125983Y19158492D01*
X39069971Y19214176D01*
X39014390Y19264440D01*
X38991502Y19281996D01*
X38925041Y19318387D01*
X38853739Y19338856D01*
X38815647Y19341714D01*
X38740143Y19331756D01*
X38674632Y19295990D01*
X38668002Y19289690D01*
X38627695Y19223248D01*
X38616345Y19146075D01*
X38628259Y19069107D01*
X38667231Y19005107D01*
X38670566Y19001728D01*
X38737178Y18961483D01*
X38813187Y18943546D01*
X38850818Y18939812D01*
X38822241Y18651117D01*
X38748158Y18661824D01*
X38668302Y18681779D01*
X38598312Y18709488D01*
X38529127Y18751615D01*
X38473371Y18804296D01*
X38466502Y18812684D01*
X38424389Y18875553D01*
X38392621Y18944908D01*
X38371195Y19020750D01*
X38360113Y19103079D01*
X38358424Y19153036D01*
X38362649Y19233480D01*
X38375323Y19307201D01*
X38400788Y19384711D01*
X38437753Y19453070D01*
X38478592Y19504380D01*
X38533827Y19554200D01*
X38603866Y19596155D01*
X38681277Y19622127D01*
X38755061Y19631741D01*
X38777178Y19632241D01*
X38851951Y19627089D01*
X38924045Y19611633D01*
X38970619Y19595604D01*
X39040600Y19562151D01*
X39107013Y19520985D01*
X39162960Y19479833D01*
X39221212Y19428416D01*
X39275720Y19374301D01*
X39331957Y19315007D01*
X39354935Y19290056D01*
X39405595Y19234914D01*
X39458982Y19178132D01*
X39512768Y19124151D01*
X39521264Y19116400D01*
X39579113Y19070927D01*
X39601132Y19057049D01*
X39601132Y19632241D01*
G37*
G36*
X39487014Y20826206D02*
G01*
X39562589Y20811871D01*
X39642784Y20783067D01*
X39714388Y20741255D01*
X39768927Y20695063D01*
X39822316Y20631899D01*
X39862593Y20561336D01*
X39889756Y20483375D01*
X39902602Y20410664D01*
X39905947Y20345918D01*
X39899687Y20262924D01*
X39880908Y20185674D01*
X39849610Y20114169D01*
X39805792Y20048408D01*
X39749455Y19988391D01*
X39727894Y19969662D01*
X39666574Y19927233D01*
X39594128Y19891996D01*
X39510555Y19863950D01*
X39435685Y19846690D01*
X39353693Y19834034D01*
X39264581Y19825979D01*
X39168347Y19822528D01*
X39143176Y19822384D01*
X39067117Y19823733D01*
X38972065Y19829729D01*
X38884284Y19840523D01*
X38803772Y19856113D01*
X38730531Y19876501D01*
X38649203Y19908731D01*
X38579234Y19948457D01*
X38542705Y19975890D01*
X38480079Y20036675D01*
X38430409Y20103900D01*
X38393697Y20177565D01*
X38369942Y20257670D01*
X38359144Y20344215D01*
X38358424Y20374495D01*
X38364698Y20456881D01*
X38383520Y20531848D01*
X38414890Y20599397D01*
X38458808Y20659526D01*
X38514678Y20710817D01*
X38581906Y20751850D01*
X38650047Y20779339D01*
X38726884Y20798974D01*
X38750434Y20803141D01*
X38780476Y20522872D01*
X38707569Y20504371D01*
X38656645Y20469383D01*
X38621107Y20401440D01*
X38616345Y20356909D01*
X38632543Y20282167D01*
X38676594Y20222432D01*
X38700975Y20201937D01*
X38771171Y20166904D01*
X38852572Y20145471D01*
X38928350Y20133244D01*
X39016749Y20124314D01*
X39049021Y20122070D01*
X38993082Y20179406D01*
X38953125Y20243336D01*
X38929151Y20313861D01*
X38925829Y20345918D01*
X39179080Y20345918D01*
X39191316Y20273243D01*
X39231341Y20208145D01*
X39234767Y20204502D01*
X39298223Y20163216D01*
X39371971Y20147881D01*
X39398166Y20146983D01*
X39474079Y20154645D01*
X39547162Y20183459D01*
X39583180Y20211829D01*
X39627509Y20272146D01*
X39647456Y20344709D01*
X39648026Y20360207D01*
X39634746Y20434029D01*
X39594904Y20494296D01*
X39529865Y20532689D01*
X39456389Y20546479D01*
X39420148Y20547785D01*
X39342181Y20540945D01*
X39270465Y20515224D01*
X39237332Y20489899D01*
X39195520Y20429616D01*
X39179308Y20356613D01*
X39179080Y20345918D01*
X38925829Y20345918D01*
X38921160Y20390981D01*
X38927629Y20467832D01*
X38947036Y20539705D01*
X38979380Y20606599D01*
X39024663Y20668514D01*
X39056348Y20701658D01*
X39119119Y20752050D01*
X39189464Y20790065D01*
X39267382Y20815703D01*
X39340197Y20827827D01*
X39405127Y20830985D01*
X39487014Y20826206D01*
G37*
G36*
X21353464Y9102485D02*
G01*
X21422042Y9072890D01*
X21455702Y9043352D01*
X21495315Y8977635D01*
X21498110Y8969567D01*
X21511882Y8894377D01*
X21516954Y8819229D01*
X21518396Y8736568D01*
X21518396Y8569505D01*
X21096345Y8569505D01*
X21096345Y8716784D01*
X21096835Y8783635D01*
X21099240Y8860829D01*
X21106603Y8936236D01*
X21127662Y9000244D01*
X21172548Y9058968D01*
X21232357Y9095238D01*
X21306271Y9107328D01*
X21353464Y9102485D01*
G37*
G36*
X24382979Y10304193D02*
G01*
X24460288Y10293374D01*
X24534615Y10269707D01*
X24601498Y10229135D01*
X24646659Y10183167D01*
X24683882Y10112859D01*
X24694921Y10039359D01*
X24687531Y9978520D01*
X24654687Y9906237D01*
X24601498Y9848849D01*
X24556521Y9818728D01*
X24487101Y9790872D01*
X24414446Y9776378D01*
X24331488Y9771546D01*
X24278440Y9773434D01*
X24201973Y9784304D01*
X24128319Y9808084D01*
X24061844Y9848849D01*
X24016506Y9895172D01*
X23979137Y9965772D01*
X23968054Y10039359D01*
X23975473Y10100139D01*
X24008446Y10172164D01*
X24061844Y10229135D01*
X24106573Y10259113D01*
X24175416Y10286838D01*
X24247315Y10301263D01*
X24329289Y10306072D01*
X24382979Y10304193D01*
G37*
G36*
X21862979Y10424361D02*
G01*
X21940288Y10413542D01*
X22014615Y10389875D01*
X22081498Y10349303D01*
X22126659Y10303334D01*
X22163882Y10233027D01*
X22174921Y10159526D01*
X22167531Y10098688D01*
X22134687Y10026405D01*
X22081498Y9969017D01*
X22036521Y9938896D01*
X21967101Y9911040D01*
X21894446Y9896546D01*
X21811488Y9891714D01*
X21758440Y9893601D01*
X21681973Y9904472D01*
X21608319Y9928252D01*
X21541844Y9969017D01*
X21496506Y10015340D01*
X21459137Y10085939D01*
X21448054Y10159526D01*
X21455473Y10220307D01*
X21488446Y10292332D01*
X21541844Y10349303D01*
X21586573Y10379281D01*
X21655416Y10407005D01*
X21727315Y10421431D01*
X21809289Y10426240D01*
X21862979Y10424361D01*
G37*
G36*
X21872805Y11657338D02*
G01*
X21949048Y11647446D01*
X22021630Y11625808D01*
X22085894Y11588713D01*
X22116150Y11561429D01*
X22160228Y11495156D01*
X22174921Y11419087D01*
X22174805Y11411265D01*
X22160895Y11339065D01*
X22118816Y11272291D01*
X22056219Y11223082D01*
X22015459Y11204238D01*
X21940383Y11185348D01*
X21866051Y11177036D01*
X21790605Y11174722D01*
X21749252Y11175809D01*
X21674513Y11184511D01*
X21603132Y11204700D01*
X21534150Y11244331D01*
X21500603Y11276380D01*
X21460161Y11344366D01*
X21448054Y11416889D01*
X21452227Y11461530D01*
X21482115Y11534669D01*
X21535249Y11590912D01*
X21585578Y11620725D01*
X21658730Y11644082D01*
X21738449Y11655795D01*
X21819548Y11659055D01*
X21872805Y11657338D01*
G37*
G36*
X24386278Y13453702D02*
G01*
X24468641Y13444274D01*
X24544878Y13423650D01*
X24609192Y13388294D01*
X24638326Y13362079D01*
X24680772Y13296973D01*
X24694921Y13220500D01*
X24687531Y13163876D01*
X24654687Y13096222D01*
X24601498Y13042080D01*
X24548398Y13010184D01*
X24473388Y12985193D01*
X24393137Y12972662D01*
X24312437Y12969174D01*
X24271066Y12970267D01*
X24196190Y12979014D01*
X24124491Y12999310D01*
X24054883Y13039149D01*
X24016895Y13076404D01*
X23980265Y13140787D01*
X23968054Y13215370D01*
X23972297Y13258352D01*
X24002687Y13329802D01*
X24056714Y13386096D01*
X24106769Y13416390D01*
X24177203Y13440125D01*
X24252365Y13452026D01*
X24327824Y13455339D01*
X24386278Y13453702D01*
G37*
G36*
X21799764Y12968441D02*
G01*
X21302974Y13315388D01*
X21799764Y13315388D01*
X21799764Y12968441D01*
G37*
G36*
X24481721Y14575804D02*
G01*
X24555336Y14565789D01*
X24593186Y14548375D01*
X24646195Y14496913D01*
X24649192Y14492463D01*
X24682739Y14424006D01*
X24694921Y14347436D01*
X24689048Y14298406D01*
X24653155Y14232031D01*
X24625285Y14208075D01*
X24553138Y14186602D01*
X24512059Y14194588D01*
X24456418Y14243389D01*
X24449073Y14256991D01*
X24425328Y14327929D01*
X24408790Y14400925D01*
X24402763Y14430045D01*
X24385984Y14505247D01*
X24366659Y14577146D01*
X24421247Y14577146D01*
X24481721Y14575804D01*
G37*
G36*
X21705975Y18392098D02*
G01*
X21656249Y18394632D01*
X21582017Y18413008D01*
X21517297Y18452914D01*
X21501068Y18468903D01*
X21461308Y18532886D01*
X21448054Y18609352D01*
X21448634Y18625741D01*
X21468920Y18700632D01*
X21514000Y18759928D01*
X21560926Y18792865D01*
X21632917Y18817182D01*
X21705975Y18824774D01*
X21705975Y18392098D01*
G37*
G36*
X24481721Y19476293D02*
G01*
X24555336Y19466278D01*
X24593186Y19448864D01*
X24646195Y19397401D01*
X24649192Y19392952D01*
X24682739Y19324495D01*
X24694921Y19247925D01*
X24689048Y19198895D01*
X24653155Y19132520D01*
X24625285Y19108563D01*
X24553138Y19087091D01*
X24512059Y19095076D01*
X24456418Y19143877D01*
X24449073Y19157480D01*
X24425328Y19228417D01*
X24408790Y19301414D01*
X24402763Y19330534D01*
X24385984Y19405736D01*
X24366659Y19477635D01*
X24421247Y19477635D01*
X24481721Y19476293D01*
G37*
G36*
X21705975Y20842342D02*
G01*
X21656249Y20844877D01*
X21582017Y20863252D01*
X21517297Y20903159D01*
X21501068Y20919147D01*
X21461308Y20983131D01*
X21448054Y21059596D01*
X21448634Y21075985D01*
X21468920Y21150877D01*
X21514000Y21210172D01*
X21560926Y21243109D01*
X21632917Y21267426D01*
X21705975Y21275018D01*
X21705975Y20842342D01*
G37*
G36*
X21961721Y23211743D02*
G01*
X22035336Y23201728D01*
X22073186Y23184314D01*
X22126195Y23132852D01*
X22129192Y23128402D01*
X22162739Y23059945D01*
X22174921Y22983375D01*
X22169048Y22934345D01*
X22133155Y22867970D01*
X22105285Y22844013D01*
X22033138Y22822541D01*
X21992059Y22830527D01*
X21936418Y22879328D01*
X21929073Y22892930D01*
X21905328Y22963868D01*
X21888790Y23036864D01*
X21882763Y23065984D01*
X21865984Y23141186D01*
X21846659Y23213085D01*
X21901247Y23213085D01*
X21961721Y23211743D01*
G37*
G36*
X24225975Y25158113D02*
G01*
X24176249Y25160647D01*
X24102017Y25179023D01*
X24037297Y25218929D01*
X24021068Y25234918D01*
X23981308Y25298901D01*
X23968054Y25375367D01*
X23968634Y25391756D01*
X23988920Y25466648D01*
X24034000Y25525943D01*
X24080926Y25558880D01*
X24152917Y25583197D01*
X24225975Y25590789D01*
X24225975Y25158113D01*
G37*
G36*
X21862979Y25821919D02*
G01*
X21940288Y25811100D01*
X22014615Y25787433D01*
X22081498Y25746861D01*
X22126659Y25700892D01*
X22163882Y25630584D01*
X22174921Y25557084D01*
X22167531Y25496245D01*
X22134687Y25423963D01*
X22081498Y25366575D01*
X22036521Y25336454D01*
X21967101Y25308597D01*
X21894446Y25294103D01*
X21811488Y25289272D01*
X21758440Y25291159D01*
X21681973Y25302030D01*
X21608319Y25325809D01*
X21541844Y25366575D01*
X21496506Y25412897D01*
X21459137Y25483497D01*
X21448054Y25557084D01*
X21455473Y25617865D01*
X21488446Y25689890D01*
X21541844Y25746861D01*
X21586573Y25776839D01*
X21655416Y25804563D01*
X21727315Y25818989D01*
X21809289Y25823797D01*
X21862979Y25821919D01*
G37*
G36*
X25471218Y7512207D02*
G01*
X20648310Y7512207D01*
X20648310Y7678874D01*
X20838424Y7678874D01*
X21096345Y7678874D01*
X21260476Y7678874D01*
X22362500Y7678874D01*
X22362500Y7968668D01*
X21260476Y7968668D01*
X21260476Y7678874D01*
X21096345Y7678874D01*
X21096345Y7968668D01*
X20838424Y7968668D01*
X20838424Y7678874D01*
X20648310Y7678874D01*
X20648310Y8753787D01*
X20838424Y8753787D01*
X20838424Y8716784D01*
X20838424Y8264324D01*
X22362500Y8264324D01*
X22362500Y8569505D01*
X21776317Y8569505D01*
X21776317Y8681613D01*
X23334977Y8681613D01*
X23336793Y8623200D01*
X23344864Y8548662D01*
X23364034Y8460867D01*
X23393293Y8379047D01*
X23432642Y8303201D01*
X23482079Y8233331D01*
X23541606Y8169435D01*
X23568088Y8145878D01*
X23640001Y8093633D01*
X23720071Y8050888D01*
X23790001Y8023531D01*
X23865152Y8002253D01*
X23945523Y7987055D01*
X24031115Y7977936D01*
X24121927Y7974896D01*
X24143855Y7975085D01*
X24228645Y7979619D01*
X24308764Y7990197D01*
X24384213Y8006821D01*
X24454990Y8029490D01*
X24536892Y8066327D01*
X24611496Y8112609D01*
X24678801Y8168336D01*
X24715204Y8205615D01*
X24767919Y8271926D01*
X24810688Y8343460D01*
X24843510Y8420217D01*
X24866387Y8502199D01*
X24879317Y8589403D01*
X24882500Y8662928D01*
X24882026Y8693003D01*
X24874920Y8779226D01*
X24859288Y8859447D01*
X24835130Y8933666D01*
X24802445Y9001882D01*
X24761233Y9064097D01*
X24728907Y9102256D01*
X24672883Y9154214D01*
X24607818Y9199835D01*
X24533711Y9239119D01*
X24465048Y9267015D01*
X24390106Y9290510D01*
X24296317Y8994854D01*
X24347221Y8981740D01*
X24419441Y8955734D01*
X24487112Y8919087D01*
X24545444Y8869191D01*
X24587176Y8811138D01*
X24615228Y8739594D01*
X24624579Y8659997D01*
X24617046Y8581435D01*
X24594446Y8510612D01*
X24556779Y8447529D01*
X24504045Y8392185D01*
X24480009Y8373787D01*
X24412755Y8337896D01*
X24342662Y8314974D01*
X24261080Y8299290D01*
X24184319Y8291750D01*
X24099579Y8289236D01*
X24019510Y8291786D01*
X23932991Y8301574D01*
X23856905Y8318705D01*
X23781323Y8347969D01*
X23712332Y8393650D01*
X23660079Y8449979D01*
X23622756Y8514184D01*
X23600362Y8586266D01*
X23592897Y8666225D01*
X23599659Y8738668D01*
X23622718Y8810091D01*
X23662140Y8872855D01*
X23710318Y8920289D01*
X23774637Y8959326D01*
X23850818Y8984596D01*
X23803923Y9286480D01*
X23780230Y9279823D01*
X23702802Y9253366D01*
X23633930Y9222000D01*
X23565695Y9180143D01*
X23508633Y9131874D01*
X23487605Y9109851D01*
X23440968Y9051224D01*
X23402811Y8987498D01*
X23373134Y8918674D01*
X23351935Y8844752D01*
X23339216Y8765732D01*
X23334977Y8681613D01*
X21776317Y8681613D01*
X21776317Y8768441D01*
X21775282Y8854321D01*
X21772179Y8930839D01*
X21766100Y9006826D01*
X21754701Y9084614D01*
X21748320Y9109730D01*
X21721032Y9179293D01*
X21683260Y9242883D01*
X21657752Y9275566D01*
X21600055Y9329379D01*
X21534883Y9371111D01*
X21522896Y9377233D01*
X21450828Y9403845D01*
X21376296Y9417670D01*
X21301875Y9421669D01*
X21226348Y9417479D01*
X21147803Y9402429D01*
X21077547Y9376435D01*
X21008417Y9334108D01*
X20974876Y9305707D01*
X20924328Y9249357D01*
X20886416Y9186284D01*
X20861139Y9116487D01*
X20854595Y9085414D01*
X20845611Y9005591D01*
X20841108Y8922268D01*
X20838979Y8836058D01*
X20838424Y8753787D01*
X20648310Y8753787D01*
X20648310Y10158427D01*
X21237028Y10158427D01*
X21241494Y10080071D01*
X21254889Y10005470D01*
X21277214Y9934625D01*
X21308469Y9867534D01*
X21337514Y9820711D01*
X21389533Y9758301D01*
X21451695Y9705281D01*
X21515465Y9666034D01*
X21566633Y9641879D01*
X21635899Y9617448D01*
X21715246Y9600581D01*
X21796100Y9594959D01*
X21819552Y9595237D01*
X21898094Y9600581D01*
X21971131Y9612728D01*
X22047861Y9634939D01*
X22117402Y9666034D01*
X22164633Y9694979D01*
X22227123Y9746995D01*
X22279587Y9809328D01*
X22317803Y9873396D01*
X22347616Y9942593D01*
X22368911Y10013530D01*
X22373259Y10038260D01*
X23757028Y10038260D01*
X23761494Y9959903D01*
X23774889Y9885302D01*
X23797214Y9814457D01*
X23828469Y9747366D01*
X23857514Y9700543D01*
X23909533Y9638133D01*
X23971695Y9585113D01*
X24035465Y9545866D01*
X24086633Y9521712D01*
X24155899Y9497280D01*
X24235246Y9480413D01*
X24316100Y9474791D01*
X24339552Y9475069D01*
X24418094Y9480413D01*
X24491131Y9492560D01*
X24567861Y9514771D01*
X24637402Y9545866D01*
X24684633Y9574812D01*
X24747123Y9626827D01*
X24799587Y9689160D01*
X24837803Y9753228D01*
X24867616Y9822425D01*
X24888911Y9893362D01*
X24901688Y9966040D01*
X24905947Y10040458D01*
X24905306Y10070497D01*
X24895689Y10156733D01*
X24874531Y10237147D01*
X24841833Y10311739D01*
X24797595Y10380510D01*
X24741816Y10443458D01*
X24710294Y10472136D01*
X24642768Y10521028D01*
X24569267Y10558638D01*
X24489788Y10584964D01*
X24404334Y10600008D01*
X24328557Y10603926D01*
X24282874Y10602532D01*
X24210084Y10594011D01*
X24128261Y10573562D01*
X24052467Y10541959D01*
X23982700Y10499202D01*
X23918961Y10445290D01*
X23890022Y10414757D01*
X23840683Y10348958D01*
X23802730Y10276847D01*
X23776163Y10198425D01*
X23760982Y10113692D01*
X23757086Y10039359D01*
X23757028Y10038260D01*
X22373259Y10038260D01*
X22381688Y10086208D01*
X22385947Y10160626D01*
X22385306Y10190665D01*
X22375689Y10276900D01*
X22354531Y10357314D01*
X22321833Y10431907D01*
X22277595Y10500677D01*
X22221816Y10563626D01*
X22190294Y10592304D01*
X22122768Y10641196D01*
X22049267Y10678806D01*
X21969788Y10705132D01*
X21884334Y10720176D01*
X21808557Y10724094D01*
X21762874Y10722700D01*
X21690084Y10714179D01*
X21608261Y10693730D01*
X21532467Y10662127D01*
X21462700Y10619369D01*
X21398961Y10565458D01*
X21370022Y10534925D01*
X21320683Y10469125D01*
X21282730Y10397015D01*
X21256163Y10318593D01*
X21240982Y10233859D01*
X21237086Y10159526D01*
X21237028Y10158427D01*
X20648310Y10158427D01*
X20648310Y11658323D01*
X20838424Y11658323D01*
X21389436Y11658323D01*
X21353715Y11624028D01*
X21302665Y11560292D01*
X21266200Y11491823D01*
X21244321Y11418621D01*
X21244159Y11416889D01*
X21237028Y11340685D01*
X21239301Y11291838D01*
X21254215Y11211508D01*
X21283049Y11137735D01*
X21325802Y11070518D01*
X21382475Y11009858D01*
X21420932Y10979204D01*
X21486474Y10940886D01*
X21561444Y10911764D01*
X21645842Y10891839D01*
X21723376Y10882259D01*
X21807458Y10879066D01*
X21873901Y10881167D01*
X21951659Y10889702D01*
X22023531Y10904802D01*
X22102009Y10931588D01*
X22172012Y10967828D01*
X22233539Y11013522D01*
X22269260Y11047983D01*
X22320310Y11112367D01*
X22356775Y11181940D01*
X22378654Y11256703D01*
X22385947Y11336655D01*
X22383790Y11377137D01*
X22368344Y11451945D01*
X22340884Y11520570D01*
X22311505Y11569971D01*
X22260431Y11629889D01*
X22201666Y11678839D01*
X22362500Y11678839D01*
X22362500Y11947750D01*
X20838424Y11947750D01*
X20838424Y11658323D01*
X20648310Y11658323D01*
X20648310Y12053263D01*
X23757028Y12053263D01*
X23758484Y12018204D01*
X23771623Y11944893D01*
X23798428Y11875210D01*
X23821600Y11834154D01*
X23866320Y11775233D01*
X23922991Y11719505D01*
X23897926Y11703369D01*
X23842466Y11655054D01*
X23798428Y11592743D01*
X23782297Y11557591D01*
X23762850Y11485238D01*
X23757028Y11410294D01*
X23763108Y11338024D01*
X23785568Y11258561D01*
X23824577Y11184321D01*
X23871185Y11124846D01*
X23929952Y11069209D01*
X23780476Y11069209D01*
X23780476Y10802129D01*
X24882500Y10802129D01*
X24882500Y11091923D01*
X24340647Y11091923D01*
X24266115Y11093366D01*
X24188985Y11099226D01*
X24110936Y11115004D01*
X24060058Y11139013D01*
X24005057Y11191941D01*
X23981099Y11237638D01*
X23968054Y11312474D01*
X23968618Y11329304D01*
X23991135Y11400402D01*
X23998938Y11410171D01*
X24061477Y11448396D01*
X24118923Y11458358D01*
X24197284Y11462821D01*
X24271404Y11463783D01*
X24882500Y11463783D01*
X24882500Y11753211D01*
X24347241Y11753211D01*
X24265321Y11755065D01*
X24190002Y11761477D01*
X24116798Y11776658D01*
X24059486Y11803175D01*
X24005790Y11853961D01*
X23982795Y11895331D01*
X23968054Y11968633D01*
X23981900Y12037364D01*
X24031069Y12092098D01*
X24095894Y12112634D01*
X24169761Y12120262D01*
X24245392Y12122139D01*
X24882500Y12122139D01*
X24882500Y12411934D01*
X24178714Y12411934D01*
X24096997Y12409557D01*
X24022379Y12401343D01*
X23950835Y12381892D01*
X23916738Y12365010D01*
X23853994Y12318183D01*
X23806488Y12257328D01*
X23782579Y12207415D01*
X23762873Y12131758D01*
X23757028Y12053263D01*
X20648310Y12053263D01*
X20648310Y13595657D01*
X20861871Y13595657D01*
X20861871Y13352757D01*
X20915408Y13315388D01*
X21800863Y12697332D01*
X22057684Y12697332D01*
X22057684Y13293772D01*
X23757028Y13293772D01*
X23760211Y13240398D01*
X23765750Y13215370D01*
X23776921Y13164887D01*
X23807953Y13094837D01*
X23831740Y13057355D01*
X23879534Y13001422D01*
X23941310Y12952687D01*
X23780476Y12952687D01*
X23780476Y12682677D01*
X25304551Y12682677D01*
X25304551Y12972105D01*
X24746212Y12972105D01*
X24777244Y13002334D01*
X24828489Y13061170D01*
X24870043Y13127077D01*
X24876459Y13141098D01*
X24899075Y13215549D01*
X24905947Y13291574D01*
X24902226Y13349828D01*
X24884515Y13426694D01*
X24852217Y13498091D01*
X24805334Y13564018D01*
X24753539Y13616173D01*
X24713428Y13647600D01*
X24646070Y13686884D01*
X24570082Y13716740D01*
X24485465Y13737168D01*
X24408359Y13746989D01*
X24325259Y13750262D01*
X24276016Y13749093D01*
X24198566Y13741950D01*
X24113253Y13724807D01*
X24036261Y13698313D01*
X23967589Y13662468D01*
X23907238Y13617272D01*
X23872032Y13583126D01*
X23821718Y13519045D01*
X23785779Y13449459D01*
X23764216Y13374368D01*
X23757028Y13293772D01*
X22057684Y13293772D01*
X22057684Y13315388D01*
X22362500Y13315388D01*
X22362500Y13595657D01*
X22057684Y13595657D01*
X22057684Y13783235D01*
X21799764Y13783235D01*
X21799764Y13595657D01*
X20861871Y13595657D01*
X20648310Y13595657D01*
X20648310Y14281491D01*
X20885319Y14281491D01*
X21049450Y13990964D01*
X21260476Y13990964D01*
X21260476Y13857974D01*
X21471502Y13857974D01*
X21471502Y13990964D01*
X21962796Y13990964D01*
X22018287Y13991286D01*
X22094229Y13993254D01*
X22172723Y14000123D01*
X22219505Y14010052D01*
X22288860Y14040790D01*
X22318793Y14067683D01*
X22358836Y14133113D01*
X22379169Y14199975D01*
X22385947Y14274530D01*
X22382226Y14351638D01*
X22374297Y14400925D01*
X23757028Y14400925D01*
X23757320Y14374682D01*
X23761700Y14300862D01*
X23773450Y14224051D01*
X23795638Y14148545D01*
X23831767Y14079257D01*
X23862627Y14040969D01*
X23919544Y13991942D01*
X23989212Y13952999D01*
X24061844Y13926850D01*
X24108738Y14189533D01*
X24056583Y14211910D01*
X23999195Y14259509D01*
X23977907Y14304108D01*
X23968054Y14380409D01*
X23968090Y14387481D01*
X23974997Y14466401D01*
X24004324Y14535747D01*
X24052868Y14566797D01*
X24125957Y14577146D01*
X24155633Y14577146D01*
X24172646Y14530160D01*
X24192607Y14458689D01*
X24211079Y14378616D01*
X24227807Y14295779D01*
X24229648Y14286437D01*
X24247091Y14208574D01*
X24268307Y14135179D01*
X24296317Y14065336D01*
X24306661Y14045924D01*
X24351430Y13986729D01*
X24409523Y13941138D01*
X24433036Y13928367D01*
X24504203Y13904124D01*
X24577318Y13896808D01*
X24612174Y13898331D01*
X24684949Y13912892D01*
X24756634Y13947152D01*
X24812890Y13994261D01*
X24844515Y14033317D01*
X24879684Y14101320D01*
X24900131Y14180626D01*
X24905947Y14260608D01*
X24904646Y14296191D01*
X24892902Y14370460D01*
X24868944Y14440859D01*
X24850967Y14477394D01*
X24808093Y14542640D01*
X24757569Y14599861D01*
X24793107Y14610119D01*
X24810938Y14615146D01*
X24882500Y14637963D01*
X24882500Y14924093D01*
X24877586Y14921736D01*
X24806204Y14892037D01*
X24734855Y14872070D01*
X24672481Y14863586D01*
X24596478Y14859249D01*
X24520898Y14858148D01*
X24180912Y14861445D01*
X24146375Y14861104D01*
X24064510Y14856856D01*
X23990202Y14846275D01*
X23920427Y14822611D01*
X23894650Y14806201D01*
X23841315Y14752486D01*
X23803190Y14689254D01*
X23782995Y14635788D01*
X23767171Y14560804D01*
X23759237Y14480965D01*
X23757028Y14400925D01*
X22374297Y14400925D01*
X22369538Y14430507D01*
X22347845Y14503141D01*
X22147077Y14478228D01*
X22161761Y14434107D01*
X22174921Y14361725D01*
X22159534Y14312998D01*
X22119600Y14286986D01*
X22103218Y14284845D01*
X22029035Y14282027D01*
X21949973Y14281491D01*
X21471502Y14281491D01*
X21471502Y14479328D01*
X21260476Y14479328D01*
X21260476Y14281491D01*
X20885319Y14281491D01*
X20648310Y14281491D01*
X20648310Y14965127D01*
X20838424Y14965127D01*
X20838424Y14675699D01*
X22362500Y14675699D01*
X22362500Y14965127D01*
X21803794Y14965127D01*
X21745541Y14966371D01*
X21667318Y14973357D01*
X21591303Y14991138D01*
X21535414Y15020040D01*
X21483958Y15074303D01*
X21459414Y15126936D01*
X21448054Y15203263D01*
X21450257Y15236851D01*
X21475898Y15307677D01*
X21489009Y15324740D01*
X21551003Y15365929D01*
X21616829Y15377199D01*
X21693816Y15381385D01*
X21773386Y15382415D01*
X22362500Y15382415D01*
X22362500Y15608096D01*
X23757028Y15608096D01*
X23757621Y15577945D01*
X23766508Y15492233D01*
X23786060Y15413631D01*
X23816276Y15342138D01*
X23857158Y15277755D01*
X23908703Y15220482D01*
X23948505Y15186908D01*
X24015271Y15144941D01*
X24090512Y15113046D01*
X24174227Y15091223D01*
X24250464Y15080731D01*
X24332587Y15077234D01*
X24381984Y15078486D01*
X24459761Y15086141D01*
X24545585Y15104512D01*
X24623217Y15132904D01*
X24692657Y15171316D01*
X24753906Y15219749D01*
X24772317Y15237989D01*
X24820424Y15297258D01*
X24857840Y15363354D01*
X24884566Y15436276D01*
X24900602Y15516025D01*
X24905947Y15602600D01*
X24905116Y15641483D01*
X24896716Y15726348D01*
X24879270Y15803009D01*
X24852778Y15871466D01*
X24811425Y15939655D01*
X24799209Y15955045D01*
X24743247Y16010252D01*
X24675927Y16055292D01*
X24607706Y16086362D01*
X24530790Y16109648D01*
X24483895Y15825350D01*
X24518516Y15817834D01*
X24587956Y15793594D01*
X24647660Y15750978D01*
X24683106Y15691077D01*
X24694921Y15616156D01*
X24689563Y15563811D01*
X24661433Y15495771D01*
X24609192Y15440301D01*
X24603692Y15436289D01*
X24535585Y15403173D01*
X24463944Y15385851D01*
X24388748Y15377380D01*
X24315001Y15375088D01*
X24269875Y15376095D01*
X24189687Y15384155D01*
X24115515Y15402857D01*
X24047922Y15439568D01*
X24016801Y15469864D01*
X23979286Y15537198D01*
X23968054Y15612126D01*
X23975978Y15677471D01*
X24009453Y15744383D01*
X24060653Y15786423D01*
X24132185Y15809962D01*
X24085291Y16095360D01*
X24016749Y16069587D01*
X23948377Y16032361D01*
X23890628Y15986846D01*
X23838361Y15925733D01*
X23828512Y15910668D01*
X23795471Y15844024D01*
X23772596Y15767168D01*
X23760920Y15691541D01*
X23757028Y15608096D01*
X22362500Y15608096D01*
X22362500Y15671843D01*
X21716966Y15671843D01*
X21655785Y15671124D01*
X21574732Y15667091D01*
X21498246Y15656822D01*
X21434775Y15637105D01*
X21369652Y15601135D01*
X21366055Y15598555D01*
X21313939Y15546760D01*
X21274398Y15480235D01*
X21261698Y15449452D01*
X21243196Y15377983D01*
X21237028Y15299984D01*
X21240839Y15240417D01*
X21258976Y15161532D01*
X21292050Y15087907D01*
X21340060Y15019540D01*
X21393100Y14965127D01*
X20838424Y14965127D01*
X20648310Y14965127D01*
X20648310Y17241714D01*
X20814977Y17241714D01*
X20816156Y17188780D01*
X20822347Y17113522D01*
X20836277Y17032005D01*
X20857429Y16957255D01*
X20890448Y16880113D01*
X20903103Y16856657D01*
X20945105Y16790582D01*
X20993160Y16730948D01*
X21047269Y16677754D01*
X21107431Y16630999D01*
X21173647Y16590685D01*
X21196890Y16578706D01*
X21269108Y16547408D01*
X21345062Y16523065D01*
X21424750Y16505677D01*
X21508174Y16495244D01*
X21595333Y16491766D01*
X21622545Y16492113D01*
X21702655Y16497308D01*
X21780471Y16508737D01*
X21855995Y16526399D01*
X21929227Y16550296D01*
X22000165Y16580427D01*
X22011691Y16586053D01*
X22059101Y16613033D01*
X23405319Y16613033D01*
X23569450Y16322506D01*
X23780476Y16322506D01*
X23780476Y16189516D01*
X23991502Y16189516D01*
X23991502Y16322506D01*
X24482796Y16322506D01*
X24538287Y16322828D01*
X24614229Y16324796D01*
X24692723Y16331665D01*
X24739505Y16341594D01*
X24808860Y16372331D01*
X24838793Y16399225D01*
X24878836Y16464655D01*
X24899169Y16531517D01*
X24905947Y16606072D01*
X24902226Y16683180D01*
X24889538Y16762049D01*
X24867845Y16834683D01*
X24667077Y16809770D01*
X24681761Y16765649D01*
X24694921Y16693266D01*
X24679534Y16644540D01*
X24639600Y16618528D01*
X24623218Y16616387D01*
X24549035Y16613569D01*
X24469973Y16613033D01*
X23991502Y16613033D01*
X23991502Y16810869D01*
X23780476Y16810869D01*
X23780476Y16613033D01*
X23405319Y16613033D01*
X22059101Y16613033D01*
X22077327Y16623405D01*
X22136936Y16666914D01*
X22198861Y16725455D01*
X22245409Y16782303D01*
X22285929Y16845308D01*
X22298041Y16867573D01*
X22329687Y16937220D01*
X22354301Y17011142D01*
X22354577Y17012370D01*
X23358424Y17012370D01*
X24882500Y17012370D01*
X24882500Y17317185D01*
X24225975Y17317185D01*
X24225975Y17947698D01*
X23968054Y17947698D01*
X23968054Y17317185D01*
X23616345Y17317185D01*
X23616345Y18047715D01*
X23358424Y18047715D01*
X23358424Y17012370D01*
X22354577Y17012370D01*
X22371882Y17089341D01*
X22382431Y17171816D01*
X22385947Y17258567D01*
X22384859Y17305112D01*
X22377722Y17386209D01*
X22363922Y17466849D01*
X22343461Y17547034D01*
X22316338Y17626763D01*
X22311943Y17638037D01*
X22279976Y17712263D01*
X22245906Y17778285D01*
X22204392Y17843693D01*
X22154405Y17904467D01*
X21541844Y17904467D01*
X21541844Y17246843D01*
X21799764Y17246843D01*
X21799764Y17596355D01*
X21996135Y17596355D01*
X22019389Y17564764D01*
X22058389Y17499211D01*
X22089558Y17430758D01*
X22104547Y17388638D01*
X22121678Y17316596D01*
X22128026Y17238783D01*
X22125897Y17191488D01*
X22111922Y17114286D01*
X22084904Y17044167D01*
X22044843Y16981130D01*
X21991739Y16925175D01*
X21964987Y16903831D01*
X21893250Y16862192D01*
X21821379Y16835599D01*
X21739926Y16817404D01*
X21664729Y16808657D01*
X21582876Y16805741D01*
X21567176Y16805856D01*
X21492334Y16809888D01*
X21410576Y16822330D01*
X21337603Y16843067D01*
X21263569Y16877743D01*
X21201491Y16923710D01*
X21171352Y16954485D01*
X21128278Y17014511D01*
X21097511Y17082391D01*
X21079051Y17158126D01*
X21072897Y17241714D01*
X21079659Y17319853D01*
X21102718Y17395888D01*
X21142140Y17461533D01*
X21195675Y17515568D01*
X21261073Y17556269D01*
X21330818Y17581700D01*
X21283923Y17884683D01*
X21256818Y17878564D01*
X21179967Y17854916D01*
X21109814Y17823335D01*
X21046359Y17783819D01*
X20989601Y17736369D01*
X20939541Y17680985D01*
X20903656Y17628626D01*
X20868622Y17557837D01*
X20842347Y17478368D01*
X20827141Y17405512D01*
X20818018Y17326627D01*
X20814977Y17241714D01*
X20648310Y17241714D01*
X20648310Y18592133D01*
X21237028Y18592133D01*
X21237634Y18565225D01*
X21246714Y18488040D01*
X21266691Y18416161D01*
X21297564Y18349588D01*
X21339334Y18288322D01*
X21392001Y18232363D01*
X21432507Y18199047D01*
X21500221Y18157402D01*
X21576282Y18125751D01*
X21660689Y18104096D01*
X21737403Y18093684D01*
X21819914Y18090214D01*
X21902887Y18094013D01*
X21980347Y18105412D01*
X22052295Y18124410D01*
X22129266Y18156179D01*
X22198735Y18198291D01*
X22252668Y18244742D01*
X22289345Y18290248D01*
X23358424Y18290248D01*
X24882500Y18290248D01*
X24882500Y18580042D01*
X23358424Y18580042D01*
X23358424Y18290248D01*
X22289345Y18290248D01*
X22305321Y18310069D01*
X22344811Y18385855D01*
X22367664Y18456999D01*
X22381376Y18535406D01*
X22385947Y18621076D01*
X22382230Y18697043D01*
X22368881Y18776779D01*
X22345823Y18848958D01*
X22308278Y18921128D01*
X22276516Y18963924D01*
X22219502Y19019617D01*
X22151245Y19065109D01*
X22081132Y19096983D01*
X22034237Y18808288D01*
X22084023Y18787233D01*
X22141582Y18737946D01*
X22163168Y18696872D01*
X22174921Y18624007D01*
X22172319Y18587659D01*
X22148831Y18516860D01*
X22100915Y18456944D01*
X22043023Y18418427D01*
X21971105Y18395062D01*
X21893553Y18386969D01*
X21893553Y19112370D01*
X21872884Y19112615D01*
X21793563Y19110712D01*
X21701963Y19101844D01*
X21618753Y19085768D01*
X21543933Y19062482D01*
X21465223Y19025022D01*
X21398595Y18977182D01*
X21369721Y18949830D01*
X21320494Y18889698D01*
X21282627Y18822327D01*
X21256120Y18747717D01*
X21240973Y18665869D01*
X21237949Y18609352D01*
X21237028Y18592133D01*
X20648310Y18592133D01*
X20648310Y19301414D01*
X23757028Y19301414D01*
X23757320Y19275170D01*
X23761700Y19201350D01*
X23773450Y19124539D01*
X23795638Y19049034D01*
X23831767Y18979746D01*
X23862627Y18941458D01*
X23919544Y18892430D01*
X23989212Y18853488D01*
X24061844Y18827338D01*
X24108738Y19090022D01*
X24056583Y19112398D01*
X23999195Y19159997D01*
X23977907Y19204596D01*
X23968054Y19280897D01*
X23968090Y19287970D01*
X23974997Y19366890D01*
X24004324Y19436236D01*
X24052868Y19467285D01*
X24125957Y19477635D01*
X24155633Y19477635D01*
X24172646Y19430649D01*
X24192607Y19359178D01*
X24211079Y19279104D01*
X24227807Y19196267D01*
X24229648Y19186925D01*
X24247091Y19109062D01*
X24268307Y19035668D01*
X24296317Y18965824D01*
X24306661Y18946412D01*
X24351430Y18887217D01*
X24409523Y18841627D01*
X24433036Y18828856D01*
X24504203Y18804613D01*
X24577318Y18797297D01*
X24612174Y18798819D01*
X24684949Y18813380D01*
X24756634Y18847641D01*
X24812890Y18894749D01*
X24844515Y18933806D01*
X24879684Y19001809D01*
X24900131Y19081114D01*
X24905947Y19161096D01*
X24904646Y19196679D01*
X24892902Y19270948D01*
X24868944Y19341347D01*
X24850967Y19377882D01*
X24808093Y19443128D01*
X24757569Y19500350D01*
X24793107Y19510608D01*
X24810938Y19515635D01*
X24882500Y19538451D01*
X24882500Y19824582D01*
X24877586Y19822224D01*
X24806204Y19792525D01*
X24734855Y19772558D01*
X24672481Y19764075D01*
X24596478Y19759738D01*
X24520898Y19758636D01*
X24180912Y19761934D01*
X24146375Y19761592D01*
X24064510Y19757345D01*
X23990202Y19746764D01*
X23920427Y19723099D01*
X23894650Y19706690D01*
X23841315Y19652975D01*
X23803190Y19589742D01*
X23782995Y19536276D01*
X23767171Y19461292D01*
X23759237Y19381453D01*
X23757028Y19301414D01*
X20648310Y19301414D01*
X20648310Y19970029D01*
X21237028Y19970029D01*
X21237748Y19943161D01*
X21248546Y19866027D01*
X21272301Y19794097D01*
X21309013Y19727370D01*
X21358683Y19665846D01*
X21421310Y19609526D01*
X21260476Y19609526D01*
X21260476Y19340615D01*
X22362500Y19340615D01*
X22362500Y19630043D01*
X21857650Y19630043D01*
X21834753Y19630129D01*
X21752356Y19632189D01*
X21677230Y19637792D01*
X21601561Y19652025D01*
X21542420Y19681187D01*
X21490186Y19734090D01*
X21459945Y19793537D01*
X21448054Y19869279D01*
X21450373Y19900918D01*
X21477363Y19969662D01*
X21495734Y19991301D01*
X21559795Y20029746D01*
X21563240Y20030896D01*
X21637612Y20043158D01*
X21711195Y20047263D01*
X21793536Y20048431D01*
X22362500Y20048431D01*
X22362500Y20337859D01*
X21678497Y20337859D01*
X21640104Y20337465D01*
X21559785Y20333309D01*
X21482859Y20321739D01*
X21425718Y20303186D01*
X21360493Y20265318D01*
X21308648Y20211150D01*
X21271833Y20145151D01*
X21261806Y20120010D01*
X21242773Y20045237D01*
X21237028Y19970029D01*
X20648310Y19970029D01*
X20648310Y20440440D01*
X23757028Y20440440D01*
X23758551Y20383385D01*
X23766545Y20305036D01*
X23784532Y20224601D01*
X23811846Y20155981D01*
X23854481Y20092028D01*
X23885939Y20059731D01*
X23948198Y20015392D01*
X24017701Y19988788D01*
X24094450Y19979920D01*
X24151491Y19984480D01*
X24227876Y20008417D01*
X24293248Y20052873D01*
X24342112Y20109613D01*
X24370793Y20162918D01*
X24400736Y20240766D01*
X24422897Y20311398D01*
X24445702Y20394553D01*
X24464409Y20470093D01*
X24483529Y20553647D01*
X24490226Y20580055D01*
X24521631Y20650733D01*
X24576219Y20671250D01*
X24588086Y20670654D01*
X24653522Y20633148D01*
X24665448Y20614051D01*
X24689099Y20540555D01*
X24694921Y20464254D01*
X24694758Y20451654D01*
X24684480Y20373396D01*
X24653155Y20305252D01*
X24601681Y20258266D01*
X24530790Y20230147D01*
X24577684Y19939620D01*
X24649561Y19965380D01*
X24713514Y20002360D01*
X24769545Y20050560D01*
X24817653Y20109980D01*
X24847659Y20162174D01*
X24874820Y20231369D01*
X24893530Y20309505D01*
X24902843Y20383595D01*
X24905947Y20464254D01*
X24902134Y20552340D01*
X24890697Y20631951D01*
X24871635Y20703088D01*
X24839758Y20775368D01*
X24797503Y20836114D01*
X24755231Y20878819D01*
X24694300Y20922016D01*
X24619512Y20951836D01*
X24538117Y20961777D01*
X24457345Y20952940D01*
X24382381Y20922805D01*
X24321962Y20871285D01*
X24298624Y20839149D01*
X24263740Y20773593D01*
X24235695Y20701956D01*
X24213498Y20629948D01*
X24193002Y20548151D01*
X24183319Y20506493D01*
X24162355Y20422414D01*
X24141186Y20348821D01*
X24111303Y20277775D01*
X24058913Y20248832D01*
X23999928Y20281805D01*
X23992458Y20295183D01*
X23972537Y20368959D01*
X23968054Y20445569D01*
X23974997Y20516756D01*
X24004324Y20584788D01*
X24039054Y20619476D01*
X24108738Y20651466D01*
X24061844Y20924774D01*
X24016481Y20910278D01*
X23943934Y20875757D01*
X23883096Y20830397D01*
X23833965Y20774198D01*
X23815933Y20745101D01*
X23787082Y20676087D01*
X23769726Y20603866D01*
X23759733Y20520601D01*
X23757028Y20440440D01*
X20648310Y20440440D01*
X20648310Y21042377D01*
X21237028Y21042377D01*
X21237634Y21015469D01*
X21246714Y20938284D01*
X21266691Y20866405D01*
X21297564Y20799832D01*
X21339334Y20738567D01*
X21392001Y20682607D01*
X21432507Y20649291D01*
X21500221Y20607646D01*
X21576282Y20575995D01*
X21660689Y20554340D01*
X21737403Y20543928D01*
X21819914Y20540458D01*
X21902887Y20544258D01*
X21980347Y20555656D01*
X22052295Y20574654D01*
X22129266Y20606423D01*
X22198735Y20648535D01*
X22252668Y20694986D01*
X22305321Y20760313D01*
X22344811Y20836099D01*
X22367664Y20907243D01*
X22381376Y20985650D01*
X22385947Y21071320D01*
X22382230Y21147287D01*
X22368881Y21227023D01*
X22345823Y21299202D01*
X22308278Y21371372D01*
X22276516Y21414168D01*
X22219502Y21469861D01*
X22177081Y21498134D01*
X23358424Y21498134D01*
X23358424Y21208706D01*
X24882500Y21208706D01*
X24882500Y21498134D01*
X24323794Y21498134D01*
X24265541Y21499379D01*
X24187318Y21506364D01*
X24111303Y21524146D01*
X24055414Y21553047D01*
X24003958Y21607310D01*
X23979414Y21659944D01*
X23968054Y21736271D01*
X23970257Y21769858D01*
X23995898Y21840685D01*
X24009009Y21857747D01*
X24071003Y21898936D01*
X24136829Y21910206D01*
X24213816Y21914392D01*
X24293386Y21915423D01*
X24882500Y21915423D01*
X24882500Y22204851D01*
X24236966Y22204851D01*
X24175785Y22204132D01*
X24094732Y22200098D01*
X24018246Y22189830D01*
X23954775Y22170113D01*
X23889652Y22134142D01*
X23886055Y22131562D01*
X23833939Y22079767D01*
X23794398Y22013242D01*
X23781698Y21982459D01*
X23763196Y21910990D01*
X23757028Y21832991D01*
X23760839Y21773424D01*
X23778976Y21694540D01*
X23812050Y21620914D01*
X23860060Y21552548D01*
X23913100Y21498134D01*
X23358424Y21498134D01*
X22177081Y21498134D01*
X22151245Y21515353D01*
X22081132Y21547227D01*
X22034237Y21258532D01*
X22084023Y21237478D01*
X22141582Y21188190D01*
X22163168Y21147116D01*
X22174921Y21074251D01*
X22172319Y21037903D01*
X22148831Y20967104D01*
X22100915Y20907189D01*
X22043023Y20868671D01*
X21971105Y20845306D01*
X21893553Y20837213D01*
X21893553Y21562614D01*
X21872884Y21562859D01*
X21793563Y21560956D01*
X21701963Y21552089D01*
X21618753Y21536012D01*
X21543933Y21512726D01*
X21465223Y21475267D01*
X21398595Y21427426D01*
X21369721Y21400074D01*
X21320494Y21339942D01*
X21282627Y21272571D01*
X21256120Y21197961D01*
X21240973Y21116113D01*
X21237949Y21059596D01*
X21237028Y21042377D01*
X20648310Y21042377D01*
X20648310Y22299007D01*
X21237028Y22299007D01*
X21242712Y22244333D01*
X21271467Y22173344D01*
X21296837Y22141330D01*
X21354664Y22091201D01*
X21416181Y22049512D01*
X21260476Y22049512D01*
X21260476Y21780601D01*
X22362500Y21780601D01*
X22362500Y22070029D01*
X22030573Y22070029D01*
X21980780Y22070241D01*
X21905162Y22071540D01*
X21826582Y22074657D01*
X21751671Y22080442D01*
X21670437Y22094209D01*
X21613336Y22114868D01*
X21551369Y22160521D01*
X21532596Y22191903D01*
X21518396Y22263836D01*
X21531838Y22333398D01*
X21566024Y22399757D01*
X21296379Y22489516D01*
X21270413Y22443262D01*
X21245375Y22372165D01*
X21237028Y22299007D01*
X20648310Y22299007D01*
X20648310Y23036864D01*
X21237028Y23036864D01*
X21237320Y23010620D01*
X21241700Y22936801D01*
X21253450Y22859990D01*
X21275638Y22784484D01*
X21311767Y22715196D01*
X21342627Y22676908D01*
X21399544Y22627881D01*
X21469212Y22588938D01*
X21541844Y22562789D01*
X21588738Y22825472D01*
X21536583Y22847849D01*
X21479195Y22895448D01*
X21457907Y22940047D01*
X21448054Y23016348D01*
X21448090Y23023420D01*
X21454997Y23102340D01*
X21484324Y23171686D01*
X21532868Y23202736D01*
X21605957Y23213085D01*
X21635633Y23213085D01*
X21652646Y23166099D01*
X21672607Y23094628D01*
X21691079Y23014555D01*
X21707807Y22931718D01*
X21709648Y22922376D01*
X21727091Y22844513D01*
X21748307Y22771118D01*
X21776317Y22701275D01*
X21786661Y22681863D01*
X21831430Y22622668D01*
X21889523Y22577077D01*
X21913036Y22564306D01*
X21984203Y22540063D01*
X22057318Y22532747D01*
X22092174Y22534270D01*
X22164949Y22548830D01*
X22236634Y22583091D01*
X22292890Y22630200D01*
X22324515Y22669256D01*
X22359684Y22737259D01*
X22380131Y22816565D01*
X22385947Y22896547D01*
X22384646Y22932130D01*
X22372902Y23006399D01*
X22348944Y23076798D01*
X22347682Y23079362D01*
X23358424Y23079362D01*
X24882500Y23079362D01*
X24882500Y23384177D01*
X24225975Y23384177D01*
X24225975Y24014690D01*
X23968054Y24014690D01*
X23968054Y23384177D01*
X23616345Y23384177D01*
X23616345Y24114708D01*
X23358424Y24114708D01*
X23358424Y23079362D01*
X22347682Y23079362D01*
X22330967Y23113333D01*
X22288093Y23178578D01*
X22237569Y23235800D01*
X22273107Y23246058D01*
X22290938Y23251085D01*
X22362500Y23273902D01*
X22362500Y23560032D01*
X22357586Y23557675D01*
X22286204Y23527975D01*
X22214855Y23508009D01*
X22152481Y23499525D01*
X22076478Y23495188D01*
X22000898Y23494087D01*
X21660912Y23497384D01*
X21626375Y23497043D01*
X21544510Y23492795D01*
X21470202Y23482214D01*
X21400427Y23458549D01*
X21374650Y23442140D01*
X21321315Y23388425D01*
X21283190Y23325193D01*
X21262995Y23271727D01*
X21247171Y23196742D01*
X21239237Y23116904D01*
X21237028Y23036864D01*
X20648310Y23036864D01*
X20648310Y24081002D01*
X20885319Y24081002D01*
X21049450Y23790475D01*
X21260476Y23790475D01*
X21260476Y23657485D01*
X21471502Y23657485D01*
X21471502Y23790475D01*
X21962796Y23790475D01*
X22018287Y23790797D01*
X22094229Y23792765D01*
X22172723Y23799635D01*
X22219505Y23809564D01*
X22288860Y23840301D01*
X22318793Y23867194D01*
X22358836Y23932625D01*
X22379169Y23999486D01*
X22385947Y24074041D01*
X22382226Y24151150D01*
X22369538Y24230018D01*
X22347845Y24302653D01*
X22147077Y24277740D01*
X22161761Y24233619D01*
X22174921Y24161236D01*
X22159534Y24112510D01*
X22119600Y24086498D01*
X22103218Y24084357D01*
X22029035Y24081539D01*
X21949973Y24081002D01*
X21471502Y24081002D01*
X21471502Y24278839D01*
X21260476Y24278839D01*
X21260476Y24081002D01*
X20885319Y24081002D01*
X20648310Y24081002D01*
X20648310Y24357241D01*
X23358424Y24357241D01*
X24882500Y24357241D01*
X24882500Y24647035D01*
X23358424Y24647035D01*
X23358424Y24357241D01*
X20648310Y24357241D01*
X20648310Y24475943D01*
X20838424Y24475943D01*
X21096345Y24475943D01*
X21260476Y24475943D01*
X22362500Y24475943D01*
X22362500Y24765737D01*
X21260476Y24765737D01*
X21260476Y24475943D01*
X21096345Y24475943D01*
X21096345Y24765737D01*
X20838424Y24765737D01*
X20838424Y24475943D01*
X20648310Y24475943D01*
X20648310Y25555985D01*
X21237028Y25555985D01*
X21241494Y25477629D01*
X21254889Y25403028D01*
X21277214Y25332182D01*
X21308469Y25265092D01*
X21337514Y25218269D01*
X21389533Y25155859D01*
X21451695Y25102838D01*
X21515465Y25063591D01*
X21566633Y25039437D01*
X21635899Y25015005D01*
X21715246Y24998139D01*
X21796100Y24992517D01*
X21819552Y24992794D01*
X21898094Y24998139D01*
X21971131Y25010285D01*
X22047861Y25032496D01*
X22117402Y25063591D01*
X22164633Y25092537D01*
X22227123Y25144553D01*
X22279587Y25206886D01*
X22317803Y25270953D01*
X22347616Y25340151D01*
X22353019Y25358148D01*
X23757028Y25358148D01*
X23757634Y25331240D01*
X23766714Y25254055D01*
X23786691Y25182176D01*
X23817564Y25115603D01*
X23859334Y25054337D01*
X23912001Y24998378D01*
X23952507Y24965062D01*
X24020221Y24923417D01*
X24096282Y24891766D01*
X24180689Y24870111D01*
X24257403Y24859699D01*
X24339914Y24856229D01*
X24422887Y24860028D01*
X24500347Y24871427D01*
X24572295Y24890425D01*
X24649266Y24922194D01*
X24718735Y24964306D01*
X24772668Y25010757D01*
X24825321Y25076084D01*
X24864811Y25151870D01*
X24887664Y25223014D01*
X24901376Y25301421D01*
X24905947Y25387091D01*
X24902230Y25463058D01*
X24888881Y25542794D01*
X24865823Y25614973D01*
X24828278Y25687143D01*
X24796516Y25729939D01*
X24739502Y25785632D01*
X24671245Y25831124D01*
X24601132Y25862998D01*
X24554237Y25574303D01*
X24604023Y25553248D01*
X24661582Y25503961D01*
X24683168Y25462887D01*
X24694921Y25390022D01*
X24692319Y25353674D01*
X24668831Y25282875D01*
X24620915Y25222959D01*
X24563023Y25184442D01*
X24491105Y25161077D01*
X24413553Y25152984D01*
X24413553Y25878385D01*
X24392884Y25878630D01*
X24313563Y25876727D01*
X24221963Y25867859D01*
X24138753Y25851783D01*
X24063933Y25828497D01*
X23985223Y25791037D01*
X23918595Y25743197D01*
X23889721Y25715845D01*
X23840494Y25655713D01*
X23802627Y25588342D01*
X23776120Y25513732D01*
X23760973Y25431884D01*
X23757949Y25375367D01*
X23757028Y25358148D01*
X22353019Y25358148D01*
X22368911Y25411088D01*
X22381688Y25483765D01*
X22385947Y25558183D01*
X22385306Y25588222D01*
X22375689Y25674458D01*
X22354531Y25754872D01*
X22321833Y25829464D01*
X22277595Y25898235D01*
X22221816Y25961184D01*
X22190294Y25989861D01*
X22122768Y26038754D01*
X22049267Y26076363D01*
X21969788Y26102690D01*
X21884334Y26117734D01*
X21808557Y26121651D01*
X21762874Y26120257D01*
X21690084Y26111737D01*
X21608261Y26091287D01*
X21532467Y26059684D01*
X21462700Y26016927D01*
X21398961Y25963016D01*
X21370022Y25932483D01*
X21320683Y25866683D01*
X21282730Y25794572D01*
X21256163Y25716150D01*
X21240982Y25631417D01*
X21237086Y25557084D01*
X21237028Y25555985D01*
X20648310Y25555985D01*
X20648310Y26969052D01*
X21237028Y26969052D01*
X21237748Y26942184D01*
X21248546Y26865050D01*
X21272301Y26793120D01*
X21309013Y26726393D01*
X21358683Y26664869D01*
X21421310Y26608549D01*
X21260476Y26608549D01*
X21260476Y26339638D01*
X22362500Y26339638D01*
X22362500Y26629066D01*
X21857650Y26629066D01*
X21834753Y26629152D01*
X21752356Y26631213D01*
X21677230Y26636815D01*
X21601561Y26651048D01*
X21542420Y26680210D01*
X21490186Y26733113D01*
X21459945Y26792560D01*
X21448054Y26868302D01*
X21450373Y26899941D01*
X21477363Y26968686D01*
X21495734Y26990324D01*
X21559795Y27028769D01*
X21563240Y27029919D01*
X21637612Y27042181D01*
X21711195Y27046286D01*
X21793536Y27047454D01*
X22362500Y27047454D01*
X22362500Y27077129D01*
X23780476Y27077129D01*
X23780476Y26737143D01*
X24083459Y26533078D01*
X23780476Y26339271D01*
X23780476Y25986096D01*
X24315001Y26364184D01*
X24882500Y25969610D01*
X24882500Y26308497D01*
X24541048Y26533078D01*
X24882500Y26755828D01*
X24882500Y27111201D01*
X24302545Y26706368D01*
X23780476Y27077129D01*
X22362500Y27077129D01*
X22362500Y27336882D01*
X21678497Y27336882D01*
X21640104Y27336488D01*
X21559785Y27332332D01*
X21482859Y27320762D01*
X21425718Y27302209D01*
X21360493Y27264341D01*
X21308648Y27210173D01*
X21271833Y27144174D01*
X21261806Y27119033D01*
X21242773Y27044260D01*
X21237028Y26969052D01*
X20648310Y26969052D01*
X20648310Y27503549D01*
X25471218Y27503549D01*
X25471218Y7512207D01*
G37*
D10*
X454819Y17166667D02*
X1169104Y17166667D01*
X1169104Y17166667D02*
X1311961Y17119048D01*
X1311961Y17119048D02*
X1407200Y17023810D01*
X1407200Y17023810D02*
X1454819Y16880953D01*
X1454819Y16880953D02*
X1454819Y16785715D01*
X550057Y17595239D02*
X502438Y17642858D01*
X502438Y17642858D02*
X454819Y17738096D01*
X454819Y17738096D02*
X454819Y17976191D01*
X454819Y17976191D02*
X502438Y18071429D01*
X502438Y18071429D02*
X550057Y18119048D01*
X550057Y18119048D02*
X645295Y18166667D01*
X645295Y18166667D02*
X740533Y18166667D01*
X740533Y18166667D02*
X883390Y18119048D01*
X883390Y18119048D02*
X1454819Y17547620D01*
X1454819Y17547620D02*
X1454819Y18166667D01*
X8550057Y1498096D02*
X8502438Y1545715D01*
X8502438Y1545715D02*
X8454819Y1640953D01*
X8454819Y1640953D02*
X8454819Y1879048D01*
X8454819Y1879048D02*
X8502438Y1974286D01*
X8502438Y1974286D02*
X8550057Y2021905D01*
X8550057Y2021905D02*
X8645295Y2069524D01*
X8645295Y2069524D02*
X8740533Y2069524D01*
X8740533Y2069524D02*
X8883390Y2021905D01*
X8883390Y2021905D02*
X9454819Y1450477D01*
X9454819Y1450477D02*
X9454819Y2069524D01*
X8454819Y2926667D02*
X8454819Y2736191D01*
X8454819Y2736191D02*
X8502438Y2640953D01*
X8502438Y2640953D02*
X8550057Y2593334D01*
X8550057Y2593334D02*
X8692914Y2498096D01*
X8692914Y2498096D02*
X8883390Y2450477D01*
X8883390Y2450477D02*
X9264342Y2450477D01*
X9264342Y2450477D02*
X9359580Y2498096D01*
X9359580Y2498096D02*
X9407200Y2545715D01*
X9407200Y2545715D02*
X9454819Y2640953D01*
X9454819Y2640953D02*
X9454819Y2831429D01*
X9454819Y2831429D02*
X9407200Y2926667D01*
X9407200Y2926667D02*
X9359580Y2974286D01*
X9359580Y2974286D02*
X9264342Y3021905D01*
X9264342Y3021905D02*
X9026247Y3021905D01*
X9026247Y3021905D02*
X8931009Y2974286D01*
X8931009Y2974286D02*
X8883390Y2926667D01*
X8883390Y2926667D02*
X8835771Y2831429D01*
X8835771Y2831429D02*
X8835771Y2640953D01*
X8835771Y2640953D02*
X8883390Y2545715D01*
X8883390Y2545715D02*
X8931009Y2498096D01*
X8931009Y2498096D02*
X9026247Y2450477D01*
X550057Y31978096D02*
X502438Y32025715D01*
X502438Y32025715D02*
X454819Y32120953D01*
X454819Y32120953D02*
X454819Y32359048D01*
X454819Y32359048D02*
X502438Y32454286D01*
X502438Y32454286D02*
X550057Y32501905D01*
X550057Y32501905D02*
X645295Y32549524D01*
X645295Y32549524D02*
X740533Y32549524D01*
X740533Y32549524D02*
X883390Y32501905D01*
X883390Y32501905D02*
X1454819Y31930477D01*
X1454819Y31930477D02*
X1454819Y32549524D01*
X454819Y33454286D02*
X454819Y32978096D01*
X454819Y32978096D02*
X931009Y32930477D01*
X931009Y32930477D02*
X883390Y32978096D01*
X883390Y32978096D02*
X835771Y33073334D01*
X835771Y33073334D02*
X835771Y33311429D01*
X835771Y33311429D02*
X883390Y33406667D01*
X883390Y33406667D02*
X931009Y33454286D01*
X931009Y33454286D02*
X1026247Y33501905D01*
X1026247Y33501905D02*
X1264342Y33501905D01*
X1264342Y33501905D02*
X1359580Y33454286D01*
X1359580Y33454286D02*
X1407200Y33406667D01*
X1407200Y33406667D02*
X1454819Y33311429D01*
X1454819Y33311429D02*
X1454819Y33073334D01*
X1454819Y33073334D02*
X1407200Y32978096D01*
X1407200Y32978096D02*
X1359580Y32930477D01*
X8454819Y32501905D02*
X8454819Y32025715D01*
X8454819Y32025715D02*
X8931009Y31978096D01*
X8931009Y31978096D02*
X8883390Y32025715D01*
X8883390Y32025715D02*
X8835771Y32120953D01*
X8835771Y32120953D02*
X8835771Y32359048D01*
X8835771Y32359048D02*
X8883390Y32454286D01*
X8883390Y32454286D02*
X8931009Y32501905D01*
X8931009Y32501905D02*
X9026247Y32549524D01*
X9026247Y32549524D02*
X9264342Y32549524D01*
X9264342Y32549524D02*
X9359580Y32501905D01*
X9359580Y32501905D02*
X9407200Y32454286D01*
X9407200Y32454286D02*
X9454819Y32359048D01*
X9454819Y32359048D02*
X9454819Y32120953D01*
X9454819Y32120953D02*
X9407200Y32025715D01*
X9407200Y32025715D02*
X9359580Y31978096D01*
X8454819Y33168572D02*
X8454819Y33263810D01*
X8454819Y33263810D02*
X8502438Y33359048D01*
X8502438Y33359048D02*
X8550057Y33406667D01*
X8550057Y33406667D02*
X8645295Y33454286D01*
X8645295Y33454286D02*
X8835771Y33501905D01*
X8835771Y33501905D02*
X9073866Y33501905D01*
X9073866Y33501905D02*
X9264342Y33454286D01*
X9264342Y33454286D02*
X9359580Y33406667D01*
X9359580Y33406667D02*
X9407200Y33359048D01*
X9407200Y33359048D02*
X9454819Y33263810D01*
X9454819Y33263810D02*
X9454819Y33168572D01*
X9454819Y33168572D02*
X9407200Y33073334D01*
X9407200Y33073334D02*
X9359580Y33025715D01*
X9359580Y33025715D02*
X9264342Y32978096D01*
X9264342Y32978096D02*
X9073866Y32930477D01*
X9073866Y32930477D02*
X8835771Y32930477D01*
X8835771Y32930477D02*
X8645295Y32978096D01*
X8645295Y32978096D02*
X8550057Y33025715D01*
X8550057Y33025715D02*
X8502438Y33073334D01*
X8502438Y33073334D02*
X8454819Y33168572D01*
X1454819Y2545715D02*
X1454819Y1974287D01*
X1454819Y2260001D02*
X454819Y2260001D01*
X454819Y2260001D02*
X597676Y2164763D01*
X597676Y2164763D02*
X692914Y2069525D01*
X692914Y2069525D02*
X740533Y1974287D01*
M02*
