ISO-10303-21;
HEADER;
/* Generated by software containing ST-Developer
 * from STEP Tools, Inc. (www.steptools.com) 
 */

FILE_DESCRIPTION(
/* description */ (''),
/* implementation_level */ '2;1');

FILE_NAME(
/* name */ '',
/* time_stamp */ '',
/* author */ (''),
/* organization */ (''),
/* preprocessor_version */ '',
/* originating_system */ '',
/* authorisation */ '');

FILE_SCHEMA (('AUTOMOTIVE_DESIGN { 1 0 10303 214 3 1 1 }'));
ENDSEC;

DATA;
#10=MECHANICAL_DESIGN_GEOMETRIC_PRESENTATION_REPRESENTATION('',(#457,#458,
#455,#456,#459,#460,#461,#478,#480,#479,#477,#475,#476,#468,#470,#464,#462,
#465,#466,#467,#469,#463,#472,#471,#473,#474),#816);
#11=SHAPE_REPRESENTATION_RELATIONSHIP('SRR','None',#825,#12);
#12=ADVANCED_BREP_SHAPE_REPRESENTATION('',(#13),#815);
#13=MANIFOLD_SOLID_BREP('Solid1',#506);
#14=FACE_BOUND('',#70,.T.);
#15=CYLINDRICAL_SURFACE('',#516,1.);
#16=CYLINDRICAL_SURFACE('',#519,0.15);
#17=CYLINDRICAL_SURFACE('',#522,0.15);
#18=CYLINDRICAL_SURFACE('',#525,0.15);
#19=CYLINDRICAL_SURFACE('',#528,0.15);
#20=FACE_OUTER_BOUND('',#45,.T.);
#21=FACE_OUTER_BOUND('',#46,.T.);
#22=FACE_OUTER_BOUND('',#47,.T.);
#23=FACE_OUTER_BOUND('',#48,.T.);
#24=FACE_OUTER_BOUND('',#49,.T.);
#25=FACE_OUTER_BOUND('',#50,.T.);
#26=FACE_OUTER_BOUND('',#51,.T.);
#27=FACE_OUTER_BOUND('',#52,.T.);
#28=FACE_OUTER_BOUND('',#53,.T.);
#29=FACE_OUTER_BOUND('',#54,.T.);
#30=FACE_OUTER_BOUND('',#55,.T.);
#31=FACE_OUTER_BOUND('',#56,.T.);
#32=FACE_OUTER_BOUND('',#57,.T.);
#33=FACE_OUTER_BOUND('',#58,.T.);
#34=FACE_OUTER_BOUND('',#59,.T.);
#35=FACE_OUTER_BOUND('',#60,.T.);
#36=FACE_OUTER_BOUND('',#61,.T.);
#37=FACE_OUTER_BOUND('',#62,.T.);
#38=FACE_OUTER_BOUND('',#63,.T.);
#39=FACE_OUTER_BOUND('',#64,.T.);
#40=FACE_OUTER_BOUND('',#65,.T.);
#41=FACE_OUTER_BOUND('',#66,.T.);
#42=FACE_OUTER_BOUND('',#67,.T.);
#43=FACE_OUTER_BOUND('',#68,.T.);
#44=FACE_OUTER_BOUND('',#69,.T.);
#45=EDGE_LOOP('',(#303,#304));
#46=EDGE_LOOP('',(#305,#306,#307,#308));
#47=EDGE_LOOP('',(#309,#310));
#48=EDGE_LOOP('',(#311,#312,#313,#314));
#49=EDGE_LOOP('',(#315,#316,#317,#318));
#50=EDGE_LOOP('',(#319,#320,#321,#322));
#51=EDGE_LOOP('',(#323,#324,#325,#326));
#52=EDGE_LOOP('',(#327,#328,#329,#330));
#53=EDGE_LOOP('',(#331,#332,#333,#334));
#54=EDGE_LOOP('',(#335,#336,#337,#338,#339,#340));
#55=EDGE_LOOP('',(#341,#342,#343,#344));
#56=EDGE_LOOP('',(#345,#346,#347,#348,#349,#350,#351,#352,#353,#354,#355,
#356,#357,#358,#359,#360));
#57=EDGE_LOOP('',(#361,#362,#363,#364));
#58=EDGE_LOOP('',(#365,#366,#367,#368));
#59=EDGE_LOOP('',(#369,#370,#371,#372));
#60=EDGE_LOOP('',(#373,#374,#375,#376));
#61=EDGE_LOOP('',(#377,#378,#379,#380));
#62=EDGE_LOOP('',(#381,#382,#383,#384));
#63=EDGE_LOOP('',(#385,#386,#387,#388));
#64=EDGE_LOOP('',(#389,#390,#391,#392));
#65=EDGE_LOOP('',(#393,#394,#395,#396));
#66=EDGE_LOOP('',(#397,#398,#399,#400,#401,#402,#403,#404,#405,#406,#407,
#408,#409,#410,#411,#412));
#67=EDGE_LOOP('',(#413,#414,#415,#416));
#68=EDGE_LOOP('',(#417,#418,#419,#420,#421,#422));
#69=EDGE_LOOP('',(#423,#424,#425,#426,#427,#428,#429,#430));
#70=EDGE_LOOP('',(#431,#432,#433,#434));
#71=LINE('',#682,#127);
#72=LINE('',#685,#128);
#73=LINE('',#688,#129);
#74=LINE('',#690,#130);
#75=LINE('',#694,#131);
#76=LINE('',#698,#132);
#77=LINE('',#703,#133);
#78=LINE('',#707,#134);
#79=LINE('',#712,#135);
#80=LINE('',#716,#136);
#81=LINE('',#721,#137);
#82=LINE('',#725,#138);
#83=LINE('',#728,#139);
#84=LINE('',#729,#140);
#85=LINE('',#731,#141);
#86=LINE('',#732,#142);
#87=LINE('',#735,#143);
#88=LINE('',#737,#144);
#89=LINE('',#738,#145);
#90=LINE('',#742,#146);
#91=LINE('',#744,#147);
#92=LINE('',#746,#148);
#93=LINE('',#747,#149);
#94=LINE('',#749,#150);
#95=LINE('',#751,#151);
#96=LINE('',#753,#152);
#97=LINE('',#754,#153);
#98=LINE('',#756,#154);
#99=LINE('',#758,#155);
#100=LINE('',#760,#156);
#101=LINE('',#762,#157);
#102=LINE('',#764,#158);
#103=LINE('',#766,#159);
#104=LINE('',#768,#160);
#105=LINE('',#769,#161);
#106=LINE('',#772,#162);
#107=LINE('',#773,#163);
#108=LINE('',#776,#164);
#109=LINE('',#778,#165);
#110=LINE('',#779,#166);
#111=LINE('',#782,#167);
#112=LINE('',#784,#168);
#113=LINE('',#785,#169);
#114=LINE('',#787,#170);
#115=LINE('',#790,#171);
#116=LINE('',#791,#172);
#117=LINE('',#794,#173);
#118=LINE('',#795,#174);
#119=LINE('',#798,#175);
#120=LINE('',#799,#176);
#121=LINE('',#802,#177);
#122=LINE('',#803,#178);
#123=LINE('',#805,#179);
#124=LINE('',#807,#180);
#125=LINE('',#808,#181);
#126=LINE('',#809,#182);
#127=VECTOR('',#555,10.);
#128=VECTOR('',#558,10.);
#129=VECTOR('',#561,10.);
#130=VECTOR('',#564,10.);
#131=VECTOR('',#567,10.);
#132=VECTOR('',#570,10.);
#133=VECTOR('',#575,10.);
#134=VECTOR('',#578,10.);
#135=VECTOR('',#583,10.);
#136=VECTOR('',#586,10.);
#137=VECTOR('',#591,10.);
#138=VECTOR('',#594,10.);
#139=VECTOR('',#599,10.);
#140=VECTOR('',#600,10.);
#141=VECTOR('',#603,10.);
#142=VECTOR('',#604,10.);
#143=VECTOR('',#607,10.);
#144=VECTOR('',#608,10.);
#145=VECTOR('',#609,10.);
#146=VECTOR('',#612,10.);
#147=VECTOR('',#613,10.);
#148=VECTOR('',#614,10.);
#149=VECTOR('',#615,10.);
#150=VECTOR('',#618,10.);
#151=VECTOR('',#619,10.);
#152=VECTOR('',#620,10.);
#153=VECTOR('',#621,10.);
#154=VECTOR('',#622,10.);
#155=VECTOR('',#623,10.);
#156=VECTOR('',#624,10.);
#157=VECTOR('',#625,10.);
#158=VECTOR('',#626,10.);
#159=VECTOR('',#627,10.);
#160=VECTOR('',#628,10.);
#161=VECTOR('',#629,10.);
#162=VECTOR('',#632,10.);
#163=VECTOR('',#633,10.);
#164=VECTOR('',#636,10.);
#165=VECTOR('',#637,10.);
#166=VECTOR('',#638,10.);
#167=VECTOR('',#641,10.);
#168=VECTOR('',#642,10.);
#169=VECTOR('',#643,10.);
#170=VECTOR('',#646,10.);
#171=VECTOR('',#649,10.);
#172=VECTOR('',#650,10.);
#173=VECTOR('',#653,10.);
#174=VECTOR('',#654,10.);
#175=VECTOR('',#657,10.);
#176=VECTOR('',#658,10.);
#177=VECTOR('',#661,10.);
#178=VECTOR('',#662,10.);
#179=VECTOR('',#665,10.);
#180=VECTOR('',#668,10.);
#181=VECTOR('',#669,10.);
#182=VECTOR('',#670,10.);
#183=CIRCLE('',#515,1.);
#184=CIRCLE('',#517,1.);
#185=CIRCLE('',#520,0.15);
#186=CIRCLE('',#521,0.15);
#187=CIRCLE('',#523,0.15);
#188=CIRCLE('',#524,0.15);
#189=CIRCLE('',#526,0.15);
#190=CIRCLE('',#527,0.15);
#191=CIRCLE('',#529,0.15);
#192=CIRCLE('',#530,0.15);
#193=VERTEX_POINT('',#679);
#194=VERTEX_POINT('',#680);
#195=VERTEX_POINT('',#684);
#196=VERTEX_POINT('',#686);
#197=VERTEX_POINT('',#692);
#198=VERTEX_POINT('',#693);
#199=VERTEX_POINT('',#695);
#200=VERTEX_POINT('',#697);
#201=VERTEX_POINT('',#701);
#202=VERTEX_POINT('',#702);
#203=VERTEX_POINT('',#704);
#204=VERTEX_POINT('',#706);
#205=VERTEX_POINT('',#710);
#206=VERTEX_POINT('',#711);
#207=VERTEX_POINT('',#713);
#208=VERTEX_POINT('',#715);
#209=VERTEX_POINT('',#719);
#210=VERTEX_POINT('',#720);
#211=VERTEX_POINT('',#722);
#212=VERTEX_POINT('',#724);
#213=VERTEX_POINT('',#734);
#214=VERTEX_POINT('',#736);
#215=VERTEX_POINT('',#740);
#216=VERTEX_POINT('',#741);
#217=VERTEX_POINT('',#743);
#218=VERTEX_POINT('',#745);
#219=VERTEX_POINT('',#750);
#220=VERTEX_POINT('',#752);
#221=VERTEX_POINT('',#755);
#222=VERTEX_POINT('',#757);
#223=VERTEX_POINT('',#759);
#224=VERTEX_POINT('',#761);
#225=VERTEX_POINT('',#763);
#226=VERTEX_POINT('',#765);
#227=VERTEX_POINT('',#767);
#228=VERTEX_POINT('',#771);
#229=VERTEX_POINT('',#775);
#230=VERTEX_POINT('',#777);
#231=VERTEX_POINT('',#781);
#232=VERTEX_POINT('',#783);
#233=VERTEX_POINT('',#789);
#234=VERTEX_POINT('',#793);
#235=VERTEX_POINT('',#797);
#236=VERTEX_POINT('',#801);
#237=EDGE_CURVE('',#193,#194,#183,.T.);
#238=EDGE_CURVE('',#193,#194,#71,.T.);
#239=EDGE_CURVE('',#195,#194,#72,.T.);
#240=EDGE_CURVE('',#195,#196,#184,.T.);
#241=EDGE_CURVE('',#193,#196,#73,.T.);
#242=EDGE_CURVE('',#196,#195,#74,.T.);
#243=EDGE_CURVE('',#197,#198,#75,.T.);
#244=EDGE_CURVE('',#199,#197,#185,.T.);
#245=EDGE_CURVE('',#200,#199,#76,.T.);
#246=EDGE_CURVE('',#198,#200,#186,.T.);
#247=EDGE_CURVE('',#201,#202,#77,.T.);
#248=EDGE_CURVE('',#203,#201,#187,.T.);
#249=EDGE_CURVE('',#204,#203,#78,.T.);
#250=EDGE_CURVE('',#202,#204,#188,.T.);
#251=EDGE_CURVE('',#205,#206,#79,.T.);
#252=EDGE_CURVE('',#207,#205,#189,.T.);
#253=EDGE_CURVE('',#208,#207,#80,.T.);
#254=EDGE_CURVE('',#206,#208,#190,.T.);
#255=EDGE_CURVE('',#209,#210,#81,.T.);
#256=EDGE_CURVE('',#211,#209,#191,.T.);
#257=EDGE_CURVE('',#212,#211,#82,.T.);
#258=EDGE_CURVE('',#210,#212,#192,.T.);
#259=EDGE_CURVE('',#202,#205,#83,.T.);
#260=EDGE_CURVE('',#201,#206,#84,.T.);
#261=EDGE_CURVE('',#198,#209,#85,.T.);
#262=EDGE_CURVE('',#197,#210,#86,.T.);
#263=EDGE_CURVE('',#200,#213,#87,.T.);
#264=EDGE_CURVE('',#213,#214,#88,.T.);
#265=EDGE_CURVE('',#211,#214,#89,.T.);
#266=EDGE_CURVE('',#215,#216,#90,.T.);
#267=EDGE_CURVE('',#217,#215,#91,.T.);
#268=EDGE_CURVE('',#218,#217,#92,.T.);
#269=EDGE_CURVE('',#216,#218,#93,.T.);
#270=EDGE_CURVE('',#207,#212,#94,.T.);
#271=EDGE_CURVE('',#214,#219,#95,.T.);
#272=EDGE_CURVE('',#219,#220,#96,.T.);
#273=EDGE_CURVE('',#220,#217,#97,.T.);
#274=EDGE_CURVE('',#215,#221,#98,.T.);
#275=EDGE_CURVE('',#221,#222,#99,.T.);
#276=EDGE_CURVE('',#222,#223,#100,.T.);
#277=EDGE_CURVE('',#223,#224,#101,.T.);
#278=EDGE_CURVE('',#224,#225,#102,.T.);
#279=EDGE_CURVE('',#225,#226,#103,.T.);
#280=EDGE_CURVE('',#226,#227,#104,.T.);
#281=EDGE_CURVE('',#227,#208,#105,.T.);
#282=EDGE_CURVE('',#228,#216,#106,.T.);
#283=EDGE_CURVE('',#228,#221,#107,.T.);
#284=EDGE_CURVE('',#229,#224,#108,.T.);
#285=EDGE_CURVE('',#230,#229,#109,.T.);
#286=EDGE_CURVE('',#230,#225,#110,.T.);
#287=EDGE_CURVE('',#227,#231,#111,.T.);
#288=EDGE_CURVE('',#226,#232,#112,.T.);
#289=EDGE_CURVE('',#231,#232,#113,.T.);
#290=EDGE_CURVE('',#232,#230,#114,.T.);
#291=EDGE_CURVE('',#222,#233,#115,.T.);
#292=EDGE_CURVE('',#233,#228,#116,.T.);
#293=EDGE_CURVE('',#223,#234,#117,.T.);
#294=EDGE_CURVE('',#234,#233,#118,.T.);
#295=EDGE_CURVE('',#220,#235,#119,.T.);
#296=EDGE_CURVE('',#218,#235,#120,.T.);
#297=EDGE_CURVE('',#236,#213,#121,.T.);
#298=EDGE_CURVE('',#236,#219,#122,.T.);
#299=EDGE_CURVE('',#235,#236,#123,.T.);
#300=EDGE_CURVE('',#204,#199,#124,.T.);
#301=EDGE_CURVE('',#231,#203,#125,.T.);
#302=EDGE_CURVE('',#234,#229,#126,.T.);
#303=ORIENTED_EDGE('',*,*,#237,.F.);
#304=ORIENTED_EDGE('',*,*,#238,.T.);
#305=ORIENTED_EDGE('',*,*,#237,.T.);
#306=ORIENTED_EDGE('',*,*,#239,.F.);
#307=ORIENTED_EDGE('',*,*,#240,.T.);
#308=ORIENTED_EDGE('',*,*,#241,.F.);
#309=ORIENTED_EDGE('',*,*,#240,.F.);
#310=ORIENTED_EDGE('',*,*,#242,.F.);
#311=ORIENTED_EDGE('',*,*,#243,.F.);
#312=ORIENTED_EDGE('',*,*,#244,.F.);
#313=ORIENTED_EDGE('',*,*,#245,.F.);
#314=ORIENTED_EDGE('',*,*,#246,.F.);
#315=ORIENTED_EDGE('',*,*,#247,.F.);
#316=ORIENTED_EDGE('',*,*,#248,.F.);
#317=ORIENTED_EDGE('',*,*,#249,.F.);
#318=ORIENTED_EDGE('',*,*,#250,.F.);
#319=ORIENTED_EDGE('',*,*,#251,.F.);
#320=ORIENTED_EDGE('',*,*,#252,.F.);
#321=ORIENTED_EDGE('',*,*,#253,.F.);
#322=ORIENTED_EDGE('',*,*,#254,.F.);
#323=ORIENTED_EDGE('',*,*,#255,.F.);
#324=ORIENTED_EDGE('',*,*,#256,.F.);
#325=ORIENTED_EDGE('',*,*,#257,.F.);
#326=ORIENTED_EDGE('',*,*,#258,.F.);
#327=ORIENTED_EDGE('',*,*,#247,.T.);
#328=ORIENTED_EDGE('',*,*,#259,.T.);
#329=ORIENTED_EDGE('',*,*,#251,.T.);
#330=ORIENTED_EDGE('',*,*,#260,.F.);
#331=ORIENTED_EDGE('',*,*,#243,.T.);
#332=ORIENTED_EDGE('',*,*,#261,.T.);
#333=ORIENTED_EDGE('',*,*,#255,.T.);
#334=ORIENTED_EDGE('',*,*,#262,.F.);
#335=ORIENTED_EDGE('',*,*,#246,.T.);
#336=ORIENTED_EDGE('',*,*,#263,.T.);
#337=ORIENTED_EDGE('',*,*,#264,.T.);
#338=ORIENTED_EDGE('',*,*,#265,.F.);
#339=ORIENTED_EDGE('',*,*,#256,.T.);
#340=ORIENTED_EDGE('',*,*,#261,.F.);
#341=ORIENTED_EDGE('',*,*,#266,.F.);
#342=ORIENTED_EDGE('',*,*,#267,.F.);
#343=ORIENTED_EDGE('',*,*,#268,.F.);
#344=ORIENTED_EDGE('',*,*,#269,.F.);
#345=ORIENTED_EDGE('',*,*,#270,.T.);
#346=ORIENTED_EDGE('',*,*,#257,.T.);
#347=ORIENTED_EDGE('',*,*,#265,.T.);
#348=ORIENTED_EDGE('',*,*,#271,.T.);
#349=ORIENTED_EDGE('',*,*,#272,.T.);
#350=ORIENTED_EDGE('',*,*,#273,.T.);
#351=ORIENTED_EDGE('',*,*,#267,.T.);
#352=ORIENTED_EDGE('',*,*,#274,.T.);
#353=ORIENTED_EDGE('',*,*,#275,.T.);
#354=ORIENTED_EDGE('',*,*,#276,.T.);
#355=ORIENTED_EDGE('',*,*,#277,.T.);
#356=ORIENTED_EDGE('',*,*,#278,.T.);
#357=ORIENTED_EDGE('',*,*,#279,.T.);
#358=ORIENTED_EDGE('',*,*,#280,.T.);
#359=ORIENTED_EDGE('',*,*,#281,.T.);
#360=ORIENTED_EDGE('',*,*,#253,.T.);
#361=ORIENTED_EDGE('',*,*,#266,.T.);
#362=ORIENTED_EDGE('',*,*,#282,.F.);
#363=ORIENTED_EDGE('',*,*,#283,.T.);
#364=ORIENTED_EDGE('',*,*,#274,.F.);
#365=ORIENTED_EDGE('',*,*,#284,.F.);
#366=ORIENTED_EDGE('',*,*,#285,.F.);
#367=ORIENTED_EDGE('',*,*,#286,.T.);
#368=ORIENTED_EDGE('',*,*,#278,.F.);
#369=ORIENTED_EDGE('',*,*,#287,.F.);
#370=ORIENTED_EDGE('',*,*,#280,.F.);
#371=ORIENTED_EDGE('',*,*,#288,.T.);
#372=ORIENTED_EDGE('',*,*,#289,.F.);
#373=ORIENTED_EDGE('',*,*,#286,.F.);
#374=ORIENTED_EDGE('',*,*,#290,.F.);
#375=ORIENTED_EDGE('',*,*,#288,.F.);
#376=ORIENTED_EDGE('',*,*,#279,.F.);
#377=ORIENTED_EDGE('',*,*,#291,.F.);
#378=ORIENTED_EDGE('',*,*,#275,.F.);
#379=ORIENTED_EDGE('',*,*,#283,.F.);
#380=ORIENTED_EDGE('',*,*,#292,.F.);
#381=ORIENTED_EDGE('',*,*,#293,.F.);
#382=ORIENTED_EDGE('',*,*,#276,.F.);
#383=ORIENTED_EDGE('',*,*,#291,.T.);
#384=ORIENTED_EDGE('',*,*,#294,.F.);
#385=ORIENTED_EDGE('',*,*,#268,.T.);
#386=ORIENTED_EDGE('',*,*,#273,.F.);
#387=ORIENTED_EDGE('',*,*,#295,.T.);
#388=ORIENTED_EDGE('',*,*,#296,.F.);
#389=ORIENTED_EDGE('',*,*,#264,.F.);
#390=ORIENTED_EDGE('',*,*,#297,.F.);
#391=ORIENTED_EDGE('',*,*,#298,.T.);
#392=ORIENTED_EDGE('',*,*,#271,.F.);
#393=ORIENTED_EDGE('',*,*,#295,.F.);
#394=ORIENTED_EDGE('',*,*,#272,.F.);
#395=ORIENTED_EDGE('',*,*,#298,.F.);
#396=ORIENTED_EDGE('',*,*,#299,.F.);
#397=ORIENTED_EDGE('',*,*,#300,.F.);
#398=ORIENTED_EDGE('',*,*,#249,.T.);
#399=ORIENTED_EDGE('',*,*,#301,.F.);
#400=ORIENTED_EDGE('',*,*,#289,.T.);
#401=ORIENTED_EDGE('',*,*,#290,.T.);
#402=ORIENTED_EDGE('',*,*,#285,.T.);
#403=ORIENTED_EDGE('',*,*,#302,.F.);
#404=ORIENTED_EDGE('',*,*,#294,.T.);
#405=ORIENTED_EDGE('',*,*,#292,.T.);
#406=ORIENTED_EDGE('',*,*,#282,.T.);
#407=ORIENTED_EDGE('',*,*,#269,.T.);
#408=ORIENTED_EDGE('',*,*,#296,.T.);
#409=ORIENTED_EDGE('',*,*,#299,.T.);
#410=ORIENTED_EDGE('',*,*,#297,.T.);
#411=ORIENTED_EDGE('',*,*,#263,.F.);
#412=ORIENTED_EDGE('',*,*,#245,.T.);
#413=ORIENTED_EDGE('',*,*,#284,.T.);
#414=ORIENTED_EDGE('',*,*,#277,.F.);
#415=ORIENTED_EDGE('',*,*,#293,.T.);
#416=ORIENTED_EDGE('',*,*,#302,.T.);
#417=ORIENTED_EDGE('',*,*,#248,.T.);
#418=ORIENTED_EDGE('',*,*,#260,.T.);
#419=ORIENTED_EDGE('',*,*,#254,.T.);
#420=ORIENTED_EDGE('',*,*,#281,.F.);
#421=ORIENTED_EDGE('',*,*,#287,.T.);
#422=ORIENTED_EDGE('',*,*,#301,.T.);
#423=ORIENTED_EDGE('',*,*,#300,.T.);
#424=ORIENTED_EDGE('',*,*,#244,.T.);
#425=ORIENTED_EDGE('',*,*,#262,.T.);
#426=ORIENTED_EDGE('',*,*,#258,.T.);
#427=ORIENTED_EDGE('',*,*,#270,.F.);
#428=ORIENTED_EDGE('',*,*,#252,.T.);
#429=ORIENTED_EDGE('',*,*,#259,.F.);
#430=ORIENTED_EDGE('',*,*,#250,.T.);
#431=ORIENTED_EDGE('',*,*,#241,.T.);
#432=ORIENTED_EDGE('',*,*,#242,.T.);
#433=ORIENTED_EDGE('',*,*,#239,.T.);
#434=ORIENTED_EDGE('',*,*,#238,.F.);
#435=PLANE('',#514);
#436=PLANE('',#518);
#437=PLANE('',#531);
#438=PLANE('',#532);
#439=PLANE('',#533);
#440=PLANE('',#534);
#441=PLANE('',#535);
#442=PLANE('',#536);
#443=PLANE('',#537);
#444=PLANE('',#538);
#445=PLANE('',#539);
#446=PLANE('',#540);
#447=PLANE('',#541);
#448=PLANE('',#542);
#449=PLANE('',#543);
#450=PLANE('',#544);
#451=PLANE('',#545);
#452=PLANE('',#546);
#453=PLANE('',#547);
#454=PLANE('',#548);
#455=STYLED_ITEM('',(#835),#481);
#456=STYLED_ITEM('',(#835),#482);
#457=STYLED_ITEM('',(#835),#483);
#458=STYLED_ITEM('',(#836),#484);
#459=STYLED_ITEM('',(#836),#485);
#460=STYLED_ITEM('',(#836),#486);
#461=STYLED_ITEM('',(#836),#487);
#462=STYLED_ITEM('',(#837),#488);
#463=STYLED_ITEM('',(#837),#489);
#464=STYLED_ITEM('',(#836),#490);
#465=STYLED_ITEM('',(#838),#491);
#466=STYLED_ITEM('',(#837),#492);
#467=STYLED_ITEM('',(#838),#493);
#468=STYLED_ITEM('',(#836),#494);
#469=STYLED_ITEM('',(#836),#495);
#470=STYLED_ITEM('',(#837),#496);
#471=STYLED_ITEM('',(#837),#497);
#472=STYLED_ITEM('',(#836),#498);
#473=STYLED_ITEM('',(#838),#499);
#474=STYLED_ITEM('',(#836),#500);
#475=STYLED_ITEM('',(#837),#501);
#476=STYLED_ITEM('',(#837),#502);
#477=STYLED_ITEM('',(#836),#503);
#478=STYLED_ITEM('',(#836),#504);
#479=STYLED_ITEM('',(#836),#505);
#480=STYLED_ITEM('',(#834),#13);
#481=ADVANCED_FACE('',(#20),#435,.F.);
#482=ADVANCED_FACE('',(#21),#15,.T.);
#483=ADVANCED_FACE('',(#22),#436,.T.);
#484=ADVANCED_FACE('',(#23),#16,.F.);
#485=ADVANCED_FACE('',(#24),#17,.F.);
#486=ADVANCED_FACE('',(#25),#18,.F.);
#487=ADVANCED_FACE('',(#26),#19,.F.);
#488=ADVANCED_FACE('',(#27),#437,.T.);
#489=ADVANCED_FACE('',(#28),#438,.T.);
#490=ADVANCED_FACE('',(#29),#439,.T.);
#491=ADVANCED_FACE('',(#30),#440,.F.);
#492=ADVANCED_FACE('',(#31),#441,.T.);
#493=ADVANCED_FACE('',(#32),#442,.T.);
#494=ADVANCED_FACE('',(#33),#443,.T.);
#495=ADVANCED_FACE('',(#34),#444,.T.);
#496=ADVANCED_FACE('',(#35),#445,.F.);
#497=ADVANCED_FACE('',(#36),#446,.F.);
#498=ADVANCED_FACE('',(#37),#447,.T.);
#499=ADVANCED_FACE('',(#38),#448,.T.);
#500=ADVANCED_FACE('',(#39),#449,.F.);
#501=ADVANCED_FACE('',(#40),#450,.F.);
#502=ADVANCED_FACE('',(#41),#451,.F.);
#503=ADVANCED_FACE('',(#42),#452,.T.);
#504=ADVANCED_FACE('',(#43),#453,.T.);
#505=ADVANCED_FACE('',(#44,#14),#454,.T.);
#506=CLOSED_SHELL('',(#481,#482,#483,#484,#485,#486,#487,#488,#489,#490,
#491,#492,#493,#494,#495,#496,#497,#498,#499,#500,#501,#502,#503,#504,#505));
#507=DATE_TIME_ROLE('creation_date');
#508=APPLIED_DATE_AND_TIME_ASSIGNMENT(#509,#507,(#827));
#509=DATE_AND_TIME(#510,#511);
#510=CALENDAR_DATE(2025,17,10);
#511=LOCAL_TIME(9,31,17.,#512);
#512=COORDINATED_UNIVERSAL_TIME_OFFSET(0,0,.BEHIND.);
#513=AXIS2_PLACEMENT_3D('placement',#677,#549,#550);
#514=AXIS2_PLACEMENT_3D('',#678,#551,#552);
#515=AXIS2_PLACEMENT_3D('',#681,#553,#554);
#516=AXIS2_PLACEMENT_3D('',#683,#556,#557);
#517=AXIS2_PLACEMENT_3D('',#687,#559,#560);
#518=AXIS2_PLACEMENT_3D('',#689,#562,#563);
#519=AXIS2_PLACEMENT_3D('',#691,#565,#566);
#520=AXIS2_PLACEMENT_3D('',#696,#568,#569);
#521=AXIS2_PLACEMENT_3D('',#699,#571,#572);
#522=AXIS2_PLACEMENT_3D('',#700,#573,#574);
#523=AXIS2_PLACEMENT_3D('',#705,#576,#577);
#524=AXIS2_PLACEMENT_3D('',#708,#579,#580);
#525=AXIS2_PLACEMENT_3D('',#709,#581,#582);
#526=AXIS2_PLACEMENT_3D('',#714,#584,#585);
#527=AXIS2_PLACEMENT_3D('',#717,#587,#588);
#528=AXIS2_PLACEMENT_3D('',#718,#589,#590);
#529=AXIS2_PLACEMENT_3D('',#723,#592,#593);
#530=AXIS2_PLACEMENT_3D('',#726,#595,#596);
#531=AXIS2_PLACEMENT_3D('',#727,#597,#598);
#532=AXIS2_PLACEMENT_3D('',#730,#601,#602);
#533=AXIS2_PLACEMENT_3D('',#733,#605,#606);
#534=AXIS2_PLACEMENT_3D('',#739,#610,#611);
#535=AXIS2_PLACEMENT_3D('',#748,#616,#617);
#536=AXIS2_PLACEMENT_3D('',#770,#630,#631);
#537=AXIS2_PLACEMENT_3D('',#774,#634,#635);
#538=AXIS2_PLACEMENT_3D('',#780,#639,#640);
#539=AXIS2_PLACEMENT_3D('',#786,#644,#645);
#540=AXIS2_PLACEMENT_3D('',#788,#647,#648);
#541=AXIS2_PLACEMENT_3D('',#792,#651,#652);
#542=AXIS2_PLACEMENT_3D('',#796,#655,#656);
#543=AXIS2_PLACEMENT_3D('',#800,#659,#660);
#544=AXIS2_PLACEMENT_3D('',#804,#663,#664);
#545=AXIS2_PLACEMENT_3D('',#806,#666,#667);
#546=AXIS2_PLACEMENT_3D('',#810,#671,#672);
#547=AXIS2_PLACEMENT_3D('',#811,#673,#674);
#548=AXIS2_PLACEMENT_3D('',#812,#675,#676);
#549=DIRECTION('axis',(0.,0.,1.));
#550=DIRECTION('refdir',(1.,0.,0.));
#551=DIRECTION('center_axis',(0.,1.,0.));
#552=DIRECTION('ref_axis',(0.,0.,1.));
#553=DIRECTION('center_axis',(0.,1.,0.));
#554=DIRECTION('ref_axis',(-0.866025403784438,0.,-0.5));
#555=DIRECTION('',(1.,0.,-6.93889390390723E-17));
#556=DIRECTION('center_axis',(0.,1.,0.));
#557=DIRECTION('ref_axis',(-0.866025403784438,0.,-0.5));
#558=DIRECTION('',(0.,-1.,0.));
#559=DIRECTION('center_axis',(0.,-1.,0.));
#560=DIRECTION('ref_axis',(-0.866025403784438,0.,-0.5));
#561=DIRECTION('',(0.,1.,0.));
#562=DIRECTION('center_axis',(0.,1.,0.));
#563=DIRECTION('ref_axis',(0.,0.,1.));
#564=DIRECTION('',(1.,0.,-6.93889390390723E-17));
#565=DIRECTION('center_axis',(0.,0.,1.));
#566=DIRECTION('ref_axis',(-1.,0.,0.));
#567=DIRECTION('',(0.,0.,-1.));
#568=DIRECTION('center_axis',(-4.33680868994202E-17,0.,-1.));
#569=DIRECTION('ref_axis',(-1.,0.,0.));
#570=DIRECTION('',(0.,0.,1.));
#571=DIRECTION('center_axis',(6.23416249179165E-17,0.,1.));
#572=DIRECTION('ref_axis',(-1.,0.,0.));
#573=DIRECTION('center_axis',(0.,0.,1.));
#574=DIRECTION('ref_axis',(-1.,0.,0.));
#575=DIRECTION('',(0.,0.,1.));
#576=DIRECTION('center_axis',(6.23416249179165E-17,0.,1.));
#577=DIRECTION('ref_axis',(-1.,0.,0.));
#578=DIRECTION('',(0.,0.,-1.));
#579=DIRECTION('center_axis',(-4.33680868994202E-17,0.,-1.));
#580=DIRECTION('ref_axis',(-1.,0.,0.));
#581=DIRECTION('center_axis',(0.,0.,1.));
#582=DIRECTION('ref_axis',(-1.,0.,0.));
#583=DIRECTION('',(0.,0.,-1.));
#584=DIRECTION('center_axis',(-4.33680868994202E-17,0.,-1.));
#585=DIRECTION('ref_axis',(-1.,0.,0.));
#586=DIRECTION('',(0.,0.,1.));
#587=DIRECTION('center_axis',(6.23416249179165E-17,0.,1.));
#588=DIRECTION('ref_axis',(-1.,0.,0.));
#589=DIRECTION('center_axis',(0.,0.,1.));
#590=DIRECTION('ref_axis',(-1.,0.,0.));
#591=DIRECTION('',(0.,0.,1.));
#592=DIRECTION('center_axis',(6.23416249179165E-17,0.,1.));
#593=DIRECTION('ref_axis',(-1.,0.,0.));
#594=DIRECTION('',(0.,0.,-1.));
#595=DIRECTION('center_axis',(-4.33680868994202E-17,0.,-1.));
#596=DIRECTION('ref_axis',(-1.,0.,0.));
#597=DIRECTION('center_axis',(-1.,0.,0.));
#598=DIRECTION('ref_axis',(0.,0.,1.));
#599=DIRECTION('',(0.,1.,0.));
#600=DIRECTION('',(0.,1.,0.));
#601=DIRECTION('center_axis',(1.,0.,0.));
#602=DIRECTION('ref_axis',(0.,0.,-1.));
#603=DIRECTION('',(0.,1.,0.));
#604=DIRECTION('',(0.,1.,0.));
#605=DIRECTION('center_axis',(-6.23416249179165E-17,0.,-1.));
#606=DIRECTION('ref_axis',(-1.,0.,6.23416249179165E-17));
#607=DIRECTION('',(-1.,0.,6.23416249179165E-17));
#608=DIRECTION('',(0.,1.,0.));
#609=DIRECTION('',(-1.,0.,6.23416249179165E-17));
#610=DIRECTION('center_axis',(0.,0.,1.));
#611=DIRECTION('ref_axis',(1.,0.,0.));
#612=DIRECTION('',(0.,-1.,0.));
#613=DIRECTION('',(-1.,0.,0.));
#614=DIRECTION('',(0.,1.,0.));
#615=DIRECTION('',(1.,0.,0.));
#616=DIRECTION('center_axis',(0.,1.,0.));
#617=DIRECTION('ref_axis',(0.,0.,1.));
#618=DIRECTION('',(1.,0.,-4.33680868994202E-17));
#619=DIRECTION('',(0.,0.,1.));
#620=DIRECTION('',(-1.,0.,0.));
#621=DIRECTION('',(0.,0.,-1.));
#622=DIRECTION('',(0.,0.,1.));
#623=DIRECTION('',(-1.,0.,0.));
#624=DIRECTION('',(0.,0.,-1.));
#625=DIRECTION('',(-1.,0.,6.23416249179165E-17));
#626=DIRECTION('',(0.,0.,1.));
#627=DIRECTION('',(-1.,0.,0.));
#628=DIRECTION('',(0.,0.,-1.));
#629=DIRECTION('',(-1.,0.,6.23416249179165E-17));
#630=DIRECTION('center_axis',(-1.,0.,0.));
#631=DIRECTION('ref_axis',(0.,-1.,0.));
#632=DIRECTION('',(0.,0.,-1.));
#633=DIRECTION('',(0.,1.,0.));
#634=DIRECTION('center_axis',(-1.,0.,0.));
#635=DIRECTION('ref_axis',(0.,-1.,0.));
#636=DIRECTION('',(0.,1.,0.));
#637=DIRECTION('',(0.,0.,-1.));
#638=DIRECTION('',(0.,1.,0.));
#639=DIRECTION('center_axis',(1.,0.,0.));
#640=DIRECTION('ref_axis',(0.,1.,0.));
#641=DIRECTION('',(0.,-1.,0.));
#642=DIRECTION('',(0.,-1.,0.));
#643=DIRECTION('',(0.,0.,1.));
#644=DIRECTION('center_axis',(0.,0.,1.));
#645=DIRECTION('ref_axis',(1.,0.,0.));
#646=DIRECTION('',(1.,0.,0.));
#647=DIRECTION('center_axis',(0.,0.,1.));
#648=DIRECTION('ref_axis',(1.,0.,0.));
#649=DIRECTION('',(0.,-1.,0.));
#650=DIRECTION('',(1.,0.,0.));
#651=DIRECTION('center_axis',(1.,0.,0.));
#652=DIRECTION('ref_axis',(0.,1.,0.));
#653=DIRECTION('',(0.,-1.,0.));
#654=DIRECTION('',(0.,0.,1.));
#655=DIRECTION('center_axis',(1.,0.,0.));
#656=DIRECTION('ref_axis',(0.,1.,0.));
#657=DIRECTION('',(0.,-1.,0.));
#658=DIRECTION('',(0.,0.,1.));
#659=DIRECTION('center_axis',(1.,0.,0.));
#660=DIRECTION('ref_axis',(0.,1.,0.));
#661=DIRECTION('',(0.,0.,-1.));
#662=DIRECTION('',(0.,1.,0.));
#663=DIRECTION('center_axis',(0.,0.,1.));
#664=DIRECTION('ref_axis',(1.,0.,0.));
#665=DIRECTION('',(1.,0.,0.));
#666=DIRECTION('center_axis',(0.,1.,0.));
#667=DIRECTION('ref_axis',(0.,0.,1.));
#668=DIRECTION('',(1.,0.,-4.33680868994202E-17));
#669=DIRECTION('',(-1.,0.,6.23416249179165E-17));
#670=DIRECTION('',(-1.,0.,6.23416249179165E-17));
#671=DIRECTION('center_axis',(-6.23416249179165E-17,0.,-1.));
#672=DIRECTION('ref_axis',(-1.,0.,6.23416249179165E-17));
#673=DIRECTION('center_axis',(-6.23416249179165E-17,0.,-1.));
#674=DIRECTION('ref_axis',(-1.,0.,6.23416249179165E-17));
#675=DIRECTION('center_axis',(4.33680868994202E-17,0.,1.));
#676=DIRECTION('ref_axis',(1.,0.,-4.44089209850063E-17));
#677=CARTESIAN_POINT('',(0.,0.,0.));
#678=CARTESIAN_POINT('Origin',(2.32499625723492E-17,0.00100000000000031,
0.844340099291508));
#679=CARTESIAN_POINT('',(-1.,0.00100000000000003,0.5));
#680=CARTESIAN_POINT('',(1.,0.00100000000000003,0.5));
#681=CARTESIAN_POINT('Origin',(0.,0.00100000000000031,0.5));
#682=CARTESIAN_POINT('',(1.,0.00100000000000003,0.5));
#683=CARTESIAN_POINT('Origin',(0.,0.,0.5));
#684=CARTESIAN_POINT('',(1.,0.999,0.5));
#685=CARTESIAN_POINT('',(1.,0.,0.5));
#686=CARTESIAN_POINT('',(-1.,0.999,0.5));
#687=CARTESIAN_POINT('Origin',(0.,0.999,0.5));
#688=CARTESIAN_POINT('',(-1.,0.,0.5));
#689=CARTESIAN_POINT('Origin',(2.32499625723492E-17,0.999,0.844340099291508));
#690=CARTESIAN_POINT('',(1.,0.999,0.5));
#691=CARTESIAN_POINT('Origin',(1.6,0.,0.));
#692=CARTESIAN_POINT('',(1.6,0.15,0.5));
#693=CARTESIAN_POINT('',(1.6,0.15,-1.73472347597681E-16));
#694=CARTESIAN_POINT('',(1.6,0.15,0.));
#695=CARTESIAN_POINT('',(1.45,0.,0.5));
#696=CARTESIAN_POINT('Origin',(1.6,0.,0.5));
#697=CARTESIAN_POINT('',(1.45,0.,0.));
#698=CARTESIAN_POINT('',(1.45,0.,0.));
#699=CARTESIAN_POINT('Origin',(1.6,0.,-1.73472347597681E-16));
#700=CARTESIAN_POINT('Origin',(-1.6,0.,0.));
#701=CARTESIAN_POINT('',(-1.6,0.15,2.60208521396521E-17));
#702=CARTESIAN_POINT('',(-1.6,0.15,0.5));
#703=CARTESIAN_POINT('',(-1.6,0.15,0.));
#704=CARTESIAN_POINT('',(-1.45,1.83697019872103E-17,0.));
#705=CARTESIAN_POINT('Origin',(-1.6,0.,-1.73472347597681E-16));
#706=CARTESIAN_POINT('',(-1.45,0.,0.5));
#707=CARTESIAN_POINT('',(-1.45,0.,0.));
#708=CARTESIAN_POINT('Origin',(-1.6,0.,0.5));
#709=CARTESIAN_POINT('Origin',(-1.6,1.,0.));
#710=CARTESIAN_POINT('',(-1.6,0.85,0.5));
#711=CARTESIAN_POINT('',(-1.6,0.85,2.60208521396521E-17));
#712=CARTESIAN_POINT('',(-1.6,0.85,0.));
#713=CARTESIAN_POINT('',(-1.45,1.,0.5));
#714=CARTESIAN_POINT('Origin',(-1.6,1.,0.5));
#715=CARTESIAN_POINT('',(-1.45,1.,0.));
#716=CARTESIAN_POINT('',(-1.45,1.,0.));
#717=CARTESIAN_POINT('Origin',(-1.6,1.,-1.73472347597681E-16));
#718=CARTESIAN_POINT('Origin',(1.6,1.,0.));
#719=CARTESIAN_POINT('',(1.6,0.85,-1.73472347597681E-16));
#720=CARTESIAN_POINT('',(1.6,0.85,0.5));
#721=CARTESIAN_POINT('',(1.6,0.85,0.));
#722=CARTESIAN_POINT('',(1.45,1.,0.));
#723=CARTESIAN_POINT('Origin',(1.6,1.,-1.73472347597681E-16));
#724=CARTESIAN_POINT('',(1.45,1.,0.5));
#725=CARTESIAN_POINT('',(1.45,1.,0.));
#726=CARTESIAN_POINT('Origin',(1.6,1.,0.5));
#727=CARTESIAN_POINT('Origin',(-1.6,0.,2.60208521396521E-17));
#728=CARTESIAN_POINT('',(-1.6,0.,0.5));
#729=CARTESIAN_POINT('',(-1.6,0.,2.60208521396521E-17));
#730=CARTESIAN_POINT('Origin',(1.6,0.,0.5));
#731=CARTESIAN_POINT('',(1.6,0.,-1.73472347597681E-16));
#732=CARTESIAN_POINT('',(1.6,0.,0.5));
#733=CARTESIAN_POINT('Origin',(1.6,0.,-1.73472347597681E-16));
#734=CARTESIAN_POINT('',(1.,0.,-1.36067372646931E-16));
#735=CARTESIAN_POINT('',(1.6,0.,-1.73472347597681E-16));
#736=CARTESIAN_POINT('',(1.,1.,-1.36067372646931E-16));
#737=CARTESIAN_POINT('',(1.,0.,-1.36067372646931E-16));
#738=CARTESIAN_POINT('',(1.6,1.,-1.73472347597681E-16));
#739=CARTESIAN_POINT('Origin',(0.7,0.5,0.0174999999999999));
#740=CARTESIAN_POINT('',(0.575,1.,0.0174999999999999));
#741=CARTESIAN_POINT('',(0.575,0.,0.0174999999999999));
#742=CARTESIAN_POINT('',(0.575,0.75,0.0174999999999999));
#743=CARTESIAN_POINT('',(0.825,1.,0.0174999999999999));
#744=CARTESIAN_POINT('',(0.35,1.,0.0174999999999999));
#745=CARTESIAN_POINT('',(0.825,0.,0.0174999999999999));
#746=CARTESIAN_POINT('',(0.825,0.25,0.0174999999999999));
#747=CARTESIAN_POINT('',(0.35,0.,0.0174999999999999));
#748=CARTESIAN_POINT('Origin',(-1.49662856494096E-16,1.,0.588848277175218));
#749=CARTESIAN_POINT('',(-1.6,1.,0.5));
#750=CARTESIAN_POINT('',(1.,1.,0.0349999999999999));
#751=CARTESIAN_POINT('',(1.,1.,0.294424138587609));
#752=CARTESIAN_POINT('',(0.825,1.,0.0349999999999999));
#753=CARTESIAN_POINT('',(0.45625,1.,0.0349999999999999));
#754=CARTESIAN_POINT('',(0.825,1.,0.294424138587609));
#755=CARTESIAN_POINT('',(0.575,1.,0.0349999999999999));
#756=CARTESIAN_POINT('',(0.575,1.,0.294424138587609));
#757=CARTESIAN_POINT('',(0.4,1.,0.0349999999999999));
#758=CARTESIAN_POINT('',(0.45625,1.,0.0349999999999999));
#759=CARTESIAN_POINT('',(0.4,1.,-9.86623976961809E-17));
#760=CARTESIAN_POINT('',(0.4,1.,0.294424138587609));
#761=CARTESIAN_POINT('',(-0.4,1.,-4.87890977618477E-17));
#762=CARTESIAN_POINT('',(1.6,1.,-1.73472347597681E-16));
#763=CARTESIAN_POINT('',(-0.4,1.,0.035));
#764=CARTESIAN_POINT('',(-0.4,1.,0.294424138587609));
#765=CARTESIAN_POINT('',(-1.,1.,0.035));
#766=CARTESIAN_POINT('',(0.45625,1.,0.0349999999999999));
#767=CARTESIAN_POINT('',(-1.,1.,-1.13841228110978E-17));
#768=CARTESIAN_POINT('',(-1.,1.,0.294424138587609));
#769=CARTESIAN_POINT('',(1.6,1.,-1.73472347597681E-16));
#770=CARTESIAN_POINT('Origin',(0.575,1.,-1.09572182056816E-16));
#771=CARTESIAN_POINT('',(0.575,0.,0.0349999999999999));
#772=CARTESIAN_POINT('',(0.575,0.,0.125));
#773=CARTESIAN_POINT('',(0.575,0.75,0.0349999999999999));
#774=CARTESIAN_POINT('Origin',(-0.4,1.,-4.87890977618477E-17));
#775=CARTESIAN_POINT('',(-0.4,0.,-4.87890977618477E-17));
#776=CARTESIAN_POINT('',(-0.4,0.5,-4.87890977618477E-17));
#777=CARTESIAN_POINT('',(-0.4,0.,0.035));
#778=CARTESIAN_POINT('',(-0.4,0.,0.125));
#779=CARTESIAN_POINT('',(-0.4,0.75,0.0349999999999999));
#780=CARTESIAN_POINT('Origin',(-1.,0.,-1.13841228110978E-17));
#781=CARTESIAN_POINT('',(-1.,0.,-1.13841228110978E-17));
#782=CARTESIAN_POINT('',(-1.,0.,-1.13841228110978E-17));
#783=CARTESIAN_POINT('',(-1.,0.,0.035));
#784=CARTESIAN_POINT('',(-1.,0.25,0.0349999999999999));
#785=CARTESIAN_POINT('',(-1.,0.,0.125));
#786=CARTESIAN_POINT('Origin',(0.9125,0.5,0.0349999999999999));
#787=CARTESIAN_POINT('',(0.45625,0.,0.0349999999999999));
#788=CARTESIAN_POINT('Origin',(0.9125,0.5,0.0349999999999999));
#789=CARTESIAN_POINT('',(0.4,0.,0.0349999999999999));
#790=CARTESIAN_POINT('',(0.4,0.25,0.0349999999999999));
#791=CARTESIAN_POINT('',(0.45625,0.,0.0349999999999999));
#792=CARTESIAN_POINT('Origin',(0.4,0.,-9.86623976961809E-17));
#793=CARTESIAN_POINT('',(0.4,0.,-9.86623976961809E-17));
#794=CARTESIAN_POINT('',(0.4,0.,-9.86623976961809E-17));
#795=CARTESIAN_POINT('',(0.4,0.,0.125));
#796=CARTESIAN_POINT('Origin',(0.825,0.,-1.25157588286295E-16));
#797=CARTESIAN_POINT('',(0.825,0.,0.0349999999999999));
#798=CARTESIAN_POINT('',(0.825,0.25,0.0349999999999999));
#799=CARTESIAN_POINT('',(0.825,0.,0.125));
#800=CARTESIAN_POINT('Origin',(1.,0.,-1.36067372646931E-16));
#801=CARTESIAN_POINT('',(1.,0.,0.0349999999999999));
#802=CARTESIAN_POINT('',(1.,0.,0.125));
#803=CARTESIAN_POINT('',(1.,1.,0.0349999999999999));
#804=CARTESIAN_POINT('Origin',(0.9125,0.5,0.0349999999999999));
#805=CARTESIAN_POINT('',(0.45625,0.,0.0349999999999999));
#806=CARTESIAN_POINT('Origin',(0.,0.,0.25));
#807=CARTESIAN_POINT('',(-1.6,0.,0.5));
#808=CARTESIAN_POINT('',(1.6,0.,-1.73472347597681E-16));
#809=CARTESIAN_POINT('',(1.6,0.,-1.73472347597681E-16));
#810=CARTESIAN_POINT('Origin',(1.6,0.,-1.73472347597681E-16));
#811=CARTESIAN_POINT('Origin',(1.6,0.,-1.73472347597681E-16));
#812=CARTESIAN_POINT('Origin',(-1.6,0.,0.5));
#813=UNCERTAINTY_MEASURE_WITH_UNIT(LENGTH_MEASURE(0.01),#817,
'DISTANCE_ACCURACY_VALUE',
'Maximum model space distance between geometric entities at asserted c
onnectivities');
#814=UNCERTAINTY_MEASURE_WITH_UNIT(LENGTH_MEASURE(1.E-6),#817,
'DISTANCE_ACCURACY_VALUE',
'Maximum model space distance between geometric entities at asserted c
onnectivities');
#815=(
GEOMETRIC_REPRESENTATION_CONTEXT(3)
GLOBAL_UNCERTAINTY_ASSIGNED_CONTEXT((#813))
GLOBAL_UNIT_ASSIGNED_CONTEXT((#817,#820,#818))
REPRESENTATION_CONTEXT('','3D')
);
#816=(
GEOMETRIC_REPRESENTATION_CONTEXT(3)
GLOBAL_UNCERTAINTY_ASSIGNED_CONTEXT((#814))
GLOBAL_UNIT_ASSIGNED_CONTEXT((#817,#820,#818))
REPRESENTATION_CONTEXT('','3D')
);
#817=(
LENGTH_UNIT()
NAMED_UNIT(*)
SI_UNIT(.MILLI.,.METRE.)
);
#818=(
NAMED_UNIT(*)
SI_UNIT($,.STERADIAN.)
SOLID_ANGLE_UNIT()
);
#819=DIMENSIONAL_EXPONENTS(0.,0.,0.,0.,0.,0.,0.);
#820=(
CONVERSION_BASED_UNIT('degree',#822)
NAMED_UNIT(#819)
PLANE_ANGLE_UNIT()
);
#821=(
NAMED_UNIT(*)
PLANE_ANGLE_UNIT()
SI_UNIT($,.RADIAN.)
);
#822=PLANE_ANGLE_MEASURE_WITH_UNIT(PLANE_ANGLE_MEASURE(0.01745329252),#821);
#823=SHAPE_DEFINITION_REPRESENTATION(#824,#825);
#824=PRODUCT_DEFINITION_SHAPE('',$,#827);
#825=SHAPE_REPRESENTATION('',(#513),#815);
#826=PRODUCT_DEFINITION_CONTEXT('part definition',#831,'design');
#827=PRODUCT_DEFINITION('Broadcom HSMx-C110','Broadcom HSMx-C110',#828,
#826);
#828=PRODUCT_DEFINITION_FORMATION('',$,#833);
#829=PRODUCT_RELATED_PRODUCT_CATEGORY('Broadcom HSMx-C110',
'Broadcom HSMx-C110',(#833));
#830=APPLICATION_PROTOCOL_DEFINITION('international standard',
'automotive_design',2009,#831);
#831=APPLICATION_CONTEXT(
'Core Data for Automotive Mechanical Design Process');
#832=PRODUCT_CONTEXT('part definition',#831,'mechanical');
#833=PRODUCT('Broadcom HSMx-C110','Broadcom HSMx-C110',$,(#832));
#834=PRESENTATION_STYLE_ASSIGNMENT((#839));
#835=PRESENTATION_STYLE_ASSIGNMENT((#840));
#836=PRESENTATION_STYLE_ASSIGNMENT((#841));
#837=PRESENTATION_STYLE_ASSIGNMENT((#842));
#838=PRESENTATION_STYLE_ASSIGNMENT((#843));
#839=SURFACE_STYLE_USAGE(.BOTH.,#844);
#840=SURFACE_STYLE_USAGE(.BOTH.,#845);
#841=SURFACE_STYLE_USAGE(.BOTH.,#846);
#842=SURFACE_STYLE_USAGE(.BOTH.,#847);
#843=SURFACE_STYLE_USAGE(.BOTH.,#848);
#844=SURFACE_SIDE_STYLE('',(#849));
#845=SURFACE_SIDE_STYLE('',(#850));
#846=SURFACE_SIDE_STYLE('',(#851));
#847=SURFACE_SIDE_STYLE('',(#852));
#848=SURFACE_SIDE_STYLE('',(#853));
#849=SURFACE_STYLE_FILL_AREA(#854);
#850=SURFACE_STYLE_FILL_AREA(#855);
#851=SURFACE_STYLE_FILL_AREA(#856);
#852=SURFACE_STYLE_FILL_AREA(#857);
#853=SURFACE_STYLE_FILL_AREA(#858);
#854=FILL_AREA_STYLE('',(#859));
#855=FILL_AREA_STYLE('',(#860));
#856=FILL_AREA_STYLE('',(#861));
#857=FILL_AREA_STYLE('',(#862));
#858=FILL_AREA_STYLE('',(#863));
#859=FILL_AREA_STYLE_COLOUR('',#864);
#860=FILL_AREA_STYLE_COLOUR('',#865);
#861=FILL_AREA_STYLE_COLOUR('',#866);
#862=FILL_AREA_STYLE_COLOUR('',#867);
#863=FILL_AREA_STYLE_COLOUR('',#868);
#864=COLOUR_RGB('',0.749019607843137,0.749019607843137,0.749019607843137);
#865=COLOUR_RGB('',0.925490196078431,0.945098039215686,0.937254901960784);
#866=COLOUR_RGB('',0.701960784313725,0.552941176470588,0.00392156862745098);
#867=COLOUR_RGB('',1.,0.968627450980392,0.725490196078431);
#868=COLOUR_RGB('',0.0509803921568627,0.615686274509804,0.0509803921568627);
ENDSEC;
END-ISO-10303-21;
