%TF.GenerationSoftware,KiCad,Pcbnew,8.0.6*%
%TF.CreationDate,2026-01-06T14:32:24+10:00*%
%TF.ProjectId,Cinema Display Barrel Jack Adapter,43696e65-6d61-4204-9469-73706c617920,A*%
%TF.SameCoordinates,Original*%
%TF.FileFunction,Copper,L2,Bot*%
%TF.FilePolarity,Positive*%
%FSLAX46Y46*%
G04 Gerber Fmt 4.6, Leading zero omitted, Abs format (unit mm)*
G04 Created by KiCad (PCBNEW 8.0.6) date 2026-01-06 14:32:24*
%MOMM*%
%LPD*%
G01*
G04 APERTURE LIST*
G04 Aperture macros list*
%AMRoundRect*
0 Rectangle with rounded corners*
0 $1 Rounding radius*
0 $2 $3 $4 $5 $6 $7 $8 $9 X,Y pos of 4 corners*
0 Add a 4 corners polygon primitive as box body*
4,1,4,$2,$3,$4,$5,$6,$7,$8,$9,$2,$3,0*
0 Add four circle primitives for the rounded corners*
1,1,$1+$1,$2,$3*
1,1,$1+$1,$4,$5*
1,1,$1+$1,$6,$7*
1,1,$1+$1,$8,$9*
0 Add four rect primitives between the rounded corners*
20,1,$1+$1,$2,$3,$4,$5,0*
20,1,$1+$1,$4,$5,$6,$7,0*
20,1,$1+$1,$6,$7,$8,$9,0*
20,1,$1+$1,$8,$9,$2,$3,0*%
G04 Aperture macros list end*
%TA.AperFunction,ComponentPad*%
%ADD10C,2.000000*%
%TD*%
%TA.AperFunction,ComponentPad*%
%ADD11R,1.600000X2.600000*%
%TD*%
%TA.AperFunction,ComponentPad*%
%ADD12R,1.600000X2.100000*%
%TD*%
%TA.AperFunction,ComponentPad*%
%ADD13R,1.600000X2.400000*%
%TD*%
%TA.AperFunction,SMDPad,CuDef*%
%ADD14RoundRect,0.200000X-0.200000X-1.800000X0.200000X-1.800000X0.200000X1.800000X-0.200000X1.800000X0*%
%TD*%
%TA.AperFunction,SMDPad,CuDef*%
%ADD15RoundRect,0.200000X-0.200000X-2.300000X0.200000X-2.300000X0.200000X2.300000X-0.200000X2.300000X0*%
%TD*%
%TA.AperFunction,ViaPad*%
%ADD16C,0.600000*%
%TD*%
%TA.AperFunction,Conductor*%
%ADD17C,0.800000*%
%TD*%
%TA.AperFunction,Conductor*%
%ADD18C,0.400000*%
%TD*%
G04 APERTURE END LIST*
D10*
%TO.P,J2,A,A*%
%TO.N,PP_24V*%
X110960000Y-116599999D03*
D11*
%TO.P,J2,B,B*%
%TO.N,GND*%
X118060000Y-113700000D03*
D12*
%TO.P,J2,C,C*%
X105460000Y-113900000D03*
D13*
%TO.P,J2,D,D*%
X118260001Y-107100000D03*
X105259999Y-107100000D03*
%TD*%
D14*
%TO.P,J1,1,1*%
%TO.N,PP_24V*%
X108860000Y-123500000D03*
D15*
%TO.P,J1,2,2*%
%TO.N,GND*%
X110310000Y-124000000D03*
%TO.P,J1,3,3*%
%TO.N,/ID*%
X111760000Y-124000000D03*
%TO.P,J1,4,4*%
%TO.N,GND*%
X113210000Y-124000000D03*
D14*
%TO.P,J1,5,5*%
%TO.N,PP_24V*%
X114660000Y-123500000D03*
%TD*%
D16*
%TO.N,GND*%
X113210000Y-119000000D03*
X111760000Y-118000000D03*
X110310000Y-119000000D03*
X110310000Y-121000000D03*
X113210000Y-121000000D03*
X113210000Y-120000000D03*
X110310000Y-120000000D03*
%TO.N,/ID*%
X111760000Y-121000000D03*
%TO.N,PP_24V*%
X114660000Y-120000000D03*
X108860000Y-119000000D03*
X108860000Y-121000000D03*
X108860000Y-120000000D03*
X114660000Y-121000000D03*
X114660000Y-119000000D03*
%TD*%
D17*
%TO.N,GND*%
X113210000Y-119000000D02*
X113210000Y-124000000D01*
X113210000Y-119000000D02*
X111760000Y-119000000D01*
X110310000Y-119000000D02*
X110310000Y-124000000D01*
X110310000Y-119000000D02*
X111760000Y-119000000D01*
X111760000Y-118000000D02*
X111760000Y-119000000D01*
D18*
%TO.N,/ID*%
X111760000Y-121000000D02*
X111760000Y-124000000D01*
D17*
%TO.N,PP_24V*%
X114660000Y-121000000D02*
X114660000Y-119000000D01*
X108860000Y-121000000D02*
X108860000Y-119000000D01*
X114660000Y-121000000D02*
X114660000Y-123500000D01*
X108860000Y-121000000D02*
X108860000Y-123500000D01*
%TD*%
%TA.AperFunction,Conductor*%
%TO.N,GND*%
G36*
X106352539Y-104270185D02*
G01*
X106398294Y-104322989D01*
X106409500Y-104374500D01*
X106409500Y-114155830D01*
X106409500Y-114200000D01*
X106409500Y-114273918D01*
X106409500Y-114273920D01*
X106409499Y-114273920D01*
X106438340Y-114418907D01*
X106438343Y-114418917D01*
X106494912Y-114555488D01*
X106494919Y-114555501D01*
X106577048Y-114678415D01*
X106577051Y-114678419D01*
X106681580Y-114782948D01*
X106681584Y-114782951D01*
X106804498Y-114865080D01*
X106804511Y-114865087D01*
X106941082Y-114921656D01*
X106941087Y-114921658D01*
X106941091Y-114921658D01*
X106941092Y-114921659D01*
X107086079Y-114950500D01*
X107086082Y-114950500D01*
X116433920Y-114950500D01*
X116531462Y-114931096D01*
X116578913Y-114921658D01*
X116715495Y-114865084D01*
X116838416Y-114782951D01*
X116942951Y-114678416D01*
X117025084Y-114555495D01*
X117081658Y-114418913D01*
X117110500Y-114273918D01*
X117110500Y-114200000D01*
X117110500Y-114155830D01*
X117110500Y-104374500D01*
X117130185Y-104307461D01*
X117182989Y-104261706D01*
X117234500Y-104250500D01*
X118715830Y-104250500D01*
X118753908Y-104250500D01*
X118766061Y-104251097D01*
X118776635Y-104252138D01*
X118894069Y-104263704D01*
X118917897Y-104268443D01*
X119035140Y-104304008D01*
X119057589Y-104313308D01*
X119116123Y-104344595D01*
X119165630Y-104371057D01*
X119185840Y-104384561D01*
X119280535Y-104462274D01*
X119297725Y-104479464D01*
X119375438Y-104574159D01*
X119388942Y-104594369D01*
X119446690Y-104702407D01*
X119455993Y-104724865D01*
X119491554Y-104842093D01*
X119496296Y-104865935D01*
X119508903Y-104993938D01*
X119509500Y-105006092D01*
X119509500Y-121376000D01*
X119489815Y-121443039D01*
X119437011Y-121488794D01*
X119385500Y-121500000D01*
X117610994Y-121500000D01*
X117543955Y-121480315D01*
X117498200Y-121427511D01*
X117489378Y-121400196D01*
X117473973Y-121322749D01*
X117402322Y-121149769D01*
X117402321Y-121149768D01*
X117402318Y-121149762D01*
X117298302Y-120994092D01*
X117298299Y-120994088D01*
X117165911Y-120861700D01*
X117165907Y-120861697D01*
X117010237Y-120757681D01*
X117010228Y-120757676D01*
X116837251Y-120686027D01*
X116837243Y-120686025D01*
X116653620Y-120649500D01*
X116653616Y-120649500D01*
X116466384Y-120649500D01*
X116466379Y-120649500D01*
X116282756Y-120686025D01*
X116282748Y-120686027D01*
X116109771Y-120757676D01*
X116109762Y-120757681D01*
X115954092Y-120861697D01*
X115954088Y-120861700D01*
X115821700Y-120994088D01*
X115821697Y-120994092D01*
X115717681Y-121149762D01*
X115717676Y-121149771D01*
X115646027Y-121322748D01*
X115646027Y-121322749D01*
X115630622Y-121400192D01*
X115598239Y-121462102D01*
X115537524Y-121496676D01*
X115509006Y-121500000D01*
X115336500Y-121500000D01*
X115269461Y-121480315D01*
X115223706Y-121427511D01*
X115212500Y-121376000D01*
X115212500Y-118927264D01*
X115212500Y-118927262D01*
X115174848Y-118786743D01*
X115102110Y-118660757D01*
X114999243Y-118557890D01*
X114873257Y-118485152D01*
X114732738Y-118447500D01*
X114587262Y-118447500D01*
X114446743Y-118485152D01*
X114446741Y-118485153D01*
X114446740Y-118485153D01*
X114320760Y-118557888D01*
X114320754Y-118557892D01*
X114217892Y-118660754D01*
X114217888Y-118660760D01*
X114145153Y-118786740D01*
X114145153Y-118786741D01*
X114145152Y-118786743D01*
X114107500Y-118927262D01*
X114107500Y-118927264D01*
X114107500Y-121376000D01*
X114087815Y-121443039D01*
X114035011Y-121488794D01*
X113983500Y-121500000D01*
X112309872Y-121500000D01*
X112242833Y-121480315D01*
X112222191Y-121463681D01*
X112160891Y-121402381D01*
X112127406Y-121341058D01*
X112132390Y-121271366D01*
X112144264Y-121247649D01*
X112144575Y-121247163D01*
X112144582Y-121247156D01*
X112161221Y-121210722D01*
X112198633Y-121128801D01*
X112198635Y-121128794D01*
X112217153Y-121000000D01*
X112198635Y-120871205D01*
X112198634Y-120871201D01*
X112146791Y-120757681D01*
X112144582Y-120752844D01*
X112059372Y-120654507D01*
X111949908Y-120584159D01*
X111861720Y-120558264D01*
X111825061Y-120547500D01*
X111825060Y-120547500D01*
X111694940Y-120547500D01*
X111694939Y-120547500D01*
X111643040Y-120562739D01*
X111570092Y-120584159D01*
X111570090Y-120584159D01*
X111570090Y-120584160D01*
X111460629Y-120654506D01*
X111375419Y-120752842D01*
X111375417Y-120752845D01*
X111321365Y-120871201D01*
X111321364Y-120871205D01*
X111302847Y-121000000D01*
X111321364Y-121128794D01*
X111321366Y-121128801D01*
X111375416Y-121247154D01*
X111375741Y-121247659D01*
X111375909Y-121248234D01*
X111379102Y-121255224D01*
X111378097Y-121255682D01*
X111395427Y-121314698D01*
X111375744Y-121381738D01*
X111359109Y-121402381D01*
X111352338Y-121409151D01*
X111352338Y-121409152D01*
X111297807Y-121463682D01*
X111236487Y-121497166D01*
X111210128Y-121500000D01*
X109536500Y-121500000D01*
X109469461Y-121480315D01*
X109423706Y-121427511D01*
X109412500Y-121376000D01*
X109412500Y-118927264D01*
X109412500Y-118927262D01*
X109374848Y-118786743D01*
X109302110Y-118660757D01*
X109199243Y-118557890D01*
X109073257Y-118485152D01*
X108932738Y-118447500D01*
X108787262Y-118447500D01*
X108646743Y-118485152D01*
X108646741Y-118485153D01*
X108646740Y-118485153D01*
X108520760Y-118557888D01*
X108520754Y-118557892D01*
X108417892Y-118660754D01*
X108417888Y-118660760D01*
X108345153Y-118786740D01*
X108345153Y-118786741D01*
X108345152Y-118786743D01*
X108307500Y-118927262D01*
X108307500Y-118927264D01*
X108307500Y-121376000D01*
X108287815Y-121443039D01*
X108235011Y-121488794D01*
X108183500Y-121500000D01*
X108010994Y-121500000D01*
X107943955Y-121480315D01*
X107898200Y-121427511D01*
X107889378Y-121400196D01*
X107873973Y-121322749D01*
X107802322Y-121149769D01*
X107802321Y-121149768D01*
X107802318Y-121149762D01*
X107698302Y-120994092D01*
X107698299Y-120994088D01*
X107565911Y-120861700D01*
X107565907Y-120861697D01*
X107410237Y-120757681D01*
X107410228Y-120757676D01*
X107237251Y-120686027D01*
X107237243Y-120686025D01*
X107053620Y-120649500D01*
X107053616Y-120649500D01*
X106866384Y-120649500D01*
X106866379Y-120649500D01*
X106682756Y-120686025D01*
X106682748Y-120686027D01*
X106509771Y-120757676D01*
X106509762Y-120757681D01*
X106354092Y-120861697D01*
X106354088Y-120861700D01*
X106221700Y-120994088D01*
X106221697Y-120994092D01*
X106117681Y-121149762D01*
X106117676Y-121149771D01*
X106046027Y-121322748D01*
X106046027Y-121322749D01*
X106030622Y-121400192D01*
X105998239Y-121462102D01*
X105937524Y-121496676D01*
X105909006Y-121500000D01*
X104134500Y-121500000D01*
X104067461Y-121480315D01*
X104021706Y-121427511D01*
X104010500Y-121376000D01*
X104010500Y-116599999D01*
X109802563Y-116599999D01*
X109822270Y-116812672D01*
X109822270Y-116812674D01*
X109822271Y-116812677D01*
X109880722Y-117018113D01*
X109975927Y-117209311D01*
X110104644Y-117379759D01*
X110262488Y-117523654D01*
X110262490Y-117523655D01*
X110262491Y-117523656D01*
X110444082Y-117636092D01*
X110444088Y-117636095D01*
X110466513Y-117644782D01*
X110643252Y-117713252D01*
X110853205Y-117752499D01*
X110853207Y-117752499D01*
X111066793Y-117752499D01*
X111066795Y-117752499D01*
X111276748Y-117713252D01*
X111475914Y-117636094D01*
X111657512Y-117523654D01*
X111815356Y-117379759D01*
X111944073Y-117209311D01*
X112039278Y-117018113D01*
X112097729Y-116812677D01*
X112117437Y-116599999D01*
X112097729Y-116387321D01*
X112039278Y-116181885D01*
X111944073Y-115990687D01*
X111815356Y-115820239D01*
X111657512Y-115676344D01*
X111657509Y-115676342D01*
X111657508Y-115676341D01*
X111475917Y-115563905D01*
X111475911Y-115563902D01*
X111392482Y-115531581D01*
X111276748Y-115486746D01*
X111066795Y-115447499D01*
X110853205Y-115447499D01*
X110643252Y-115486746D01*
X110595406Y-115505281D01*
X110444088Y-115563902D01*
X110444082Y-115563905D01*
X110262491Y-115676341D01*
X110104643Y-115820239D01*
X109975927Y-115990686D01*
X109880723Y-116181881D01*
X109822270Y-116387325D01*
X109802563Y-116599999D01*
X104010500Y-116599999D01*
X104010500Y-105006092D01*
X104011097Y-104993939D01*
X104015407Y-104950172D01*
X104023704Y-104865928D01*
X104028442Y-104842104D01*
X104064010Y-104724855D01*
X104073306Y-104702413D01*
X104131061Y-104594363D01*
X104144556Y-104574165D01*
X104222279Y-104479458D01*
X104239458Y-104462279D01*
X104334165Y-104384556D01*
X104354363Y-104371061D01*
X104462413Y-104313306D01*
X104484855Y-104304010D01*
X104602104Y-104268442D01*
X104625928Y-104263704D01*
X104744614Y-104252015D01*
X104753939Y-104251097D01*
X104766092Y-104250500D01*
X104804170Y-104250500D01*
X106285500Y-104250500D01*
X106352539Y-104270185D01*
G37*
%TD.AperFunction*%
%TD*%
M02*
