%TF.GenerationSoftware,KiCad,Pcbnew,8.0.6*%
%TF.CreationDate,2026-01-06T16:13:32+10:00*%
%TF.ProjectId,Cinema Display Barrel Jack Adapter,43696e65-6d61-4204-9469-73706c617920,A*%
%TF.SameCoordinates,PX6a95280PY791ddc0*%
%TF.FileFunction,Legend,Top*%
%TF.FilePolarity,Positive*%
%FSLAX46Y46*%
G04 Gerber Fmt 4.6, Leading zero omitted, Abs format (unit mm)*
G04 Created by KiCad (PCBNEW 8.0.6) date 2026-01-06 16:13:32*
%MOMM*%
%LPD*%
G01*
G04 APERTURE LIST*
%ADD10C,0.200000*%
%ADD11C,0.150000*%
G04 APERTURE END LIST*
D10*
X-5306258Y7574436D02*
X-5349115Y7488721D01*
X-5349115Y7488721D02*
X-5349115Y7317293D01*
X-5349115Y7317293D02*
X-5306258Y7231578D01*
X-5306258Y7231578D02*
X-5220543Y7145864D01*
X-5220543Y7145864D02*
X-5134829Y7103007D01*
X-5134829Y7103007D02*
X-4963400Y7103007D01*
X-4963400Y7103007D02*
X-4877686Y7145864D01*
X-4877686Y7145864D02*
X-4791972Y7231578D01*
X-4791972Y7231578D02*
X-4749115Y7317293D01*
X-4749115Y7317293D02*
X-4749115Y7488721D01*
X-4749115Y7488721D02*
X-4791972Y7574436D01*
X-5649115Y7403007D02*
X-5606258Y7188721D01*
X-5606258Y7188721D02*
X-5477686Y6974436D01*
X-5477686Y6974436D02*
X-5263400Y6845864D01*
X-5263400Y6845864D02*
X-5049115Y6803007D01*
X-5049115Y6803007D02*
X-4834829Y6845864D01*
X-4834829Y6845864D02*
X-4620543Y6974436D01*
X-4620543Y6974436D02*
X-4491972Y7188721D01*
X-4491972Y7188721D02*
X-4449115Y7403007D01*
X-4449115Y7403007D02*
X-4491972Y7617293D01*
X-4491972Y7617293D02*
X-4620543Y7831578D01*
X-4620543Y7831578D02*
X-4834829Y7960150D01*
X-4834829Y7960150D02*
X-5049115Y8003007D01*
X-5049115Y8003007D02*
X-5263400Y7960150D01*
X-5263400Y7960150D02*
X-5477686Y7831578D01*
X-5477686Y7831578D02*
X-5606258Y7617293D01*
X-5606258Y7617293D02*
X-5649115Y7403007D01*
X-5434829Y8345864D02*
X-5477686Y8388721D01*
X-5477686Y8388721D02*
X-5520543Y8474435D01*
X-5520543Y8474435D02*
X-5520543Y8688721D01*
X-5520543Y8688721D02*
X-5477686Y8774435D01*
X-5477686Y8774435D02*
X-5434829Y8817293D01*
X-5434829Y8817293D02*
X-5349115Y8860150D01*
X-5349115Y8860150D02*
X-5263400Y8860150D01*
X-5263400Y8860150D02*
X-5134829Y8817293D01*
X-5134829Y8817293D02*
X-4620543Y8303007D01*
X-4620543Y8303007D02*
X-4620543Y8860150D01*
X-5520543Y9417293D02*
X-5520543Y9503007D01*
X-5520543Y9503007D02*
X-5477686Y9588721D01*
X-5477686Y9588721D02*
X-5434829Y9631578D01*
X-5434829Y9631578D02*
X-5349115Y9674436D01*
X-5349115Y9674436D02*
X-5177686Y9717293D01*
X-5177686Y9717293D02*
X-4963400Y9717293D01*
X-4963400Y9717293D02*
X-4791972Y9674436D01*
X-4791972Y9674436D02*
X-4706258Y9631578D01*
X-4706258Y9631578D02*
X-4663400Y9588721D01*
X-4663400Y9588721D02*
X-4620543Y9503007D01*
X-4620543Y9503007D02*
X-4620543Y9417293D01*
X-4620543Y9417293D02*
X-4663400Y9331578D01*
X-4663400Y9331578D02*
X-4706258Y9288721D01*
X-4706258Y9288721D02*
X-4791972Y9245864D01*
X-4791972Y9245864D02*
X-4963400Y9203007D01*
X-4963400Y9203007D02*
X-5177686Y9203007D01*
X-5177686Y9203007D02*
X-5349115Y9245864D01*
X-5349115Y9245864D02*
X-5434829Y9288721D01*
X-5434829Y9288721D02*
X-5477686Y9331578D01*
X-5477686Y9331578D02*
X-5520543Y9417293D01*
X-5434829Y10060150D02*
X-5477686Y10103007D01*
X-5477686Y10103007D02*
X-5520543Y10188721D01*
X-5520543Y10188721D02*
X-5520543Y10403007D01*
X-5520543Y10403007D02*
X-5477686Y10488721D01*
X-5477686Y10488721D02*
X-5434829Y10531579D01*
X-5434829Y10531579D02*
X-5349115Y10574436D01*
X-5349115Y10574436D02*
X-5263400Y10574436D01*
X-5263400Y10574436D02*
X-5134829Y10531579D01*
X-5134829Y10531579D02*
X-4620543Y10017293D01*
X-4620543Y10017293D02*
X-4620543Y10574436D01*
X-5520543Y11345864D02*
X-5520543Y11174436D01*
X-5520543Y11174436D02*
X-5477686Y11088722D01*
X-5477686Y11088722D02*
X-5434829Y11045864D01*
X-5434829Y11045864D02*
X-5306258Y10960150D01*
X-5306258Y10960150D02*
X-5134829Y10917293D01*
X-5134829Y10917293D02*
X-4791972Y10917293D01*
X-4791972Y10917293D02*
X-4706258Y10960150D01*
X-4706258Y10960150D02*
X-4663400Y11003007D01*
X-4663400Y11003007D02*
X-4620543Y11088722D01*
X-4620543Y11088722D02*
X-4620543Y11260150D01*
X-4620543Y11260150D02*
X-4663400Y11345864D01*
X-4663400Y11345864D02*
X-4706258Y11388722D01*
X-4706258Y11388722D02*
X-4791972Y11431579D01*
X-4791972Y11431579D02*
X-5006258Y11431579D01*
X-5006258Y11431579D02*
X-5091972Y11388722D01*
X-5091972Y11388722D02*
X-5134829Y11345864D01*
X-5134829Y11345864D02*
X-5177686Y11260150D01*
X-5177686Y11260150D02*
X-5177686Y11088722D01*
X-5177686Y11088722D02*
X-5134829Y11003007D01*
X-5134829Y11003007D02*
X-5091972Y10960150D01*
X-5091972Y10960150D02*
X-5006258Y10917293D01*
X-7220543Y-1182707D02*
X-7220543Y-668422D01*
X-6320543Y-925564D02*
X-7220543Y-925564D01*
X-6320543Y-368422D02*
X-7220543Y-368422D01*
X-6320543Y17292D02*
X-6791972Y17292D01*
X-6791972Y17292D02*
X-6877686Y-25565D01*
X-6877686Y-25565D02*
X-6920543Y-111279D01*
X-6920543Y-111279D02*
X-6920543Y-239850D01*
X-6920543Y-239850D02*
X-6877686Y-325565D01*
X-6877686Y-325565D02*
X-6834829Y-368422D01*
X-6363400Y788721D02*
X-6320543Y703007D01*
X-6320543Y703007D02*
X-6320543Y531578D01*
X-6320543Y531578D02*
X-6363400Y445864D01*
X-6363400Y445864D02*
X-6449115Y403007D01*
X-6449115Y403007D02*
X-6791972Y403007D01*
X-6791972Y403007D02*
X-6877686Y445864D01*
X-6877686Y445864D02*
X-6920543Y531578D01*
X-6920543Y531578D02*
X-6920543Y703007D01*
X-6920543Y703007D02*
X-6877686Y788721D01*
X-6877686Y788721D02*
X-6791972Y831578D01*
X-6791972Y831578D02*
X-6706258Y831578D01*
X-6706258Y831578D02*
X-6620543Y403007D01*
X-6791972Y1903007D02*
X-6791972Y2203007D01*
X-6320543Y2331579D02*
X-6320543Y1903007D01*
X-6320543Y1903007D02*
X-7220543Y1903007D01*
X-7220543Y1903007D02*
X-7220543Y2331579D01*
X-6320543Y2845865D02*
X-6363400Y2760150D01*
X-6363400Y2760150D02*
X-6449115Y2717293D01*
X-6449115Y2717293D02*
X-7220543Y2717293D01*
X-6363400Y3531579D02*
X-6320543Y3445865D01*
X-6320543Y3445865D02*
X-6320543Y3274436D01*
X-6320543Y3274436D02*
X-6363400Y3188722D01*
X-6363400Y3188722D02*
X-6449115Y3145865D01*
X-6449115Y3145865D02*
X-6791972Y3145865D01*
X-6791972Y3145865D02*
X-6877686Y3188722D01*
X-6877686Y3188722D02*
X-6920543Y3274436D01*
X-6920543Y3274436D02*
X-6920543Y3445865D01*
X-6920543Y3445865D02*
X-6877686Y3531579D01*
X-6877686Y3531579D02*
X-6791972Y3574436D01*
X-6791972Y3574436D02*
X-6706258Y3574436D01*
X-6706258Y3574436D02*
X-6620543Y3145865D01*
X-6363400Y4345865D02*
X-6320543Y4260151D01*
X-6320543Y4260151D02*
X-6320543Y4088723D01*
X-6320543Y4088723D02*
X-6363400Y4003008D01*
X-6363400Y4003008D02*
X-6406258Y3960151D01*
X-6406258Y3960151D02*
X-6491972Y3917294D01*
X-6491972Y3917294D02*
X-6749115Y3917294D01*
X-6749115Y3917294D02*
X-6834829Y3960151D01*
X-6834829Y3960151D02*
X-6877686Y4003008D01*
X-6877686Y4003008D02*
X-6920543Y4088723D01*
X-6920543Y4088723D02*
X-6920543Y4260151D01*
X-6920543Y4260151D02*
X-6877686Y4345865D01*
X-6920543Y4603009D02*
X-6920543Y4945866D01*
X-7220543Y4731580D02*
X-6449115Y4731580D01*
X-6449115Y4731580D02*
X-6363400Y4774437D01*
X-6363400Y4774437D02*
X-6320543Y4860152D01*
X-6320543Y4860152D02*
X-6320543Y4945866D01*
X-6320543Y5245866D02*
X-6920543Y5245866D01*
X-6749115Y5245866D02*
X-6834829Y5288723D01*
X-6834829Y5288723D02*
X-6877686Y5331580D01*
X-6877686Y5331580D02*
X-6920543Y5417295D01*
X-6920543Y5417295D02*
X-6920543Y5503009D01*
X-6320543Y5931581D02*
X-6363400Y5845866D01*
X-6363400Y5845866D02*
X-6406258Y5803009D01*
X-6406258Y5803009D02*
X-6491972Y5760152D01*
X-6491972Y5760152D02*
X-6749115Y5760152D01*
X-6749115Y5760152D02*
X-6834829Y5803009D01*
X-6834829Y5803009D02*
X-6877686Y5845866D01*
X-6877686Y5845866D02*
X-6920543Y5931581D01*
X-6920543Y5931581D02*
X-6920543Y6060152D01*
X-6920543Y6060152D02*
X-6877686Y6145866D01*
X-6877686Y6145866D02*
X-6834829Y6188723D01*
X-6834829Y6188723D02*
X-6749115Y6231581D01*
X-6749115Y6231581D02*
X-6491972Y6231581D01*
X-6491972Y6231581D02*
X-6406258Y6188723D01*
X-6406258Y6188723D02*
X-6363400Y6145866D01*
X-6363400Y6145866D02*
X-6320543Y6060152D01*
X-6320543Y6060152D02*
X-6320543Y5931581D01*
X-6920543Y6617295D02*
X-6320543Y6617295D01*
X-6834829Y6617295D02*
X-6877686Y6660152D01*
X-6877686Y6660152D02*
X-6920543Y6745867D01*
X-6920543Y6745867D02*
X-6920543Y6874438D01*
X-6920543Y6874438D02*
X-6877686Y6960152D01*
X-6877686Y6960152D02*
X-6791972Y7003009D01*
X-6791972Y7003009D02*
X-6320543Y7003009D01*
X-7220543Y7988724D02*
X-6320543Y8288724D01*
X-6320543Y8288724D02*
X-7220543Y8588724D01*
X-6320543Y9274438D02*
X-6791972Y9274438D01*
X-6791972Y9274438D02*
X-6877686Y9231581D01*
X-6877686Y9231581D02*
X-6920543Y9145867D01*
X-6920543Y9145867D02*
X-6920543Y8974438D01*
X-6920543Y8974438D02*
X-6877686Y8888724D01*
X-6363400Y9274438D02*
X-6320543Y9188724D01*
X-6320543Y9188724D02*
X-6320543Y8974438D01*
X-6320543Y8974438D02*
X-6363400Y8888724D01*
X-6363400Y8888724D02*
X-6449115Y8845867D01*
X-6449115Y8845867D02*
X-6534829Y8845867D01*
X-6534829Y8845867D02*
X-6620543Y8888724D01*
X-6620543Y8888724D02*
X-6663400Y8974438D01*
X-6663400Y8974438D02*
X-6663400Y9188724D01*
X-6663400Y9188724D02*
X-6706258Y9274438D01*
X-6920543Y10088724D02*
X-6320543Y10088724D01*
X-6920543Y9703010D02*
X-6449115Y9703010D01*
X-6449115Y9703010D02*
X-6363400Y9745867D01*
X-6363400Y9745867D02*
X-6320543Y9831582D01*
X-6320543Y9831582D02*
X-6320543Y9960153D01*
X-6320543Y9960153D02*
X-6363400Y10045867D01*
X-6363400Y10045867D02*
X-6406258Y10088724D01*
X-6320543Y10645868D02*
X-6363400Y10560153D01*
X-6363400Y10560153D02*
X-6449115Y10517296D01*
X-6449115Y10517296D02*
X-7220543Y10517296D01*
X-6920543Y10860154D02*
X-6920543Y11203011D01*
X-7220543Y10988725D02*
X-6449115Y10988725D01*
X-6449115Y10988725D02*
X-6363400Y11031582D01*
X-6363400Y11031582D02*
X-6320543Y11117297D01*
X-6320543Y11117297D02*
X-6320543Y11203011D01*
X-1047781Y7333334D02*
X-1523972Y7000001D01*
X-1047781Y6761906D02*
X-2047781Y6761906D01*
X-2047781Y6761906D02*
X-2047781Y7142858D01*
X-2047781Y7142858D02*
X-2000162Y7238096D01*
X-2000162Y7238096D02*
X-1952543Y7285715D01*
X-1952543Y7285715D02*
X-1857305Y7333334D01*
X-1857305Y7333334D02*
X-1714448Y7333334D01*
X-1714448Y7333334D02*
X-1619210Y7285715D01*
X-1619210Y7285715D02*
X-1571591Y7238096D01*
X-1571591Y7238096D02*
X-1523972Y7142858D01*
X-1523972Y7142858D02*
X-1523972Y6761906D01*
X-1047781Y8285715D02*
X-1047781Y7714287D01*
X-1047781Y8000001D02*
X-2047781Y8000001D01*
X-2047781Y8000001D02*
X-1904924Y7904763D01*
X-1904924Y7904763D02*
X-1809686Y7809525D01*
X-1809686Y7809525D02*
X-1762067Y7714287D01*
X4666666Y11247781D02*
X4666666Y10533496D01*
X4666666Y10533496D02*
X4619047Y10390639D01*
X4619047Y10390639D02*
X4523809Y10295400D01*
X4523809Y10295400D02*
X4380952Y10247781D01*
X4380952Y10247781D02*
X4285714Y10247781D01*
X5095238Y11152543D02*
X5142857Y11200162D01*
X5142857Y11200162D02*
X5238095Y11247781D01*
X5238095Y11247781D02*
X5476190Y11247781D01*
X5476190Y11247781D02*
X5571428Y11200162D01*
X5571428Y11200162D02*
X5619047Y11152543D01*
X5619047Y11152543D02*
X5666666Y11057305D01*
X5666666Y11057305D02*
X5666666Y10962067D01*
X5666666Y10962067D02*
X5619047Y10819210D01*
X5619047Y10819210D02*
X5047619Y10247781D01*
X5047619Y10247781D02*
X5666666Y10247781D01*
D11*
%TO.C,R1*%
X-499999Y7500000D02*
X499999Y7500000D01*
%TD*%
M02*
