%TF.GenerationSoftware,KiCad,Pcbnew,8.0.6*%
%TF.CreationDate,2026-01-06T14:32:24+10:00*%
%TF.ProjectId,Cinema Display Barrel Jack Adapter,43696e65-6d61-4204-9469-73706c617920,A*%
%TF.SameCoordinates,Original*%
%TF.FileFunction,Legend,Top*%
%TF.FilePolarity,Positive*%
%FSLAX46Y46*%
G04 Gerber Fmt 4.6, Leading zero omitted, Abs format (unit mm)*
G04 Created by KiCad (PCBNEW 8.0.6) date 2026-01-06 14:32:24*
%MOMM*%
%LPD*%
G01*
G04 APERTURE LIST*
%ADD10C,0.200000*%
%ADD11C,0.150000*%
G04 APERTURE END LIST*
D10*
X104926666Y-115752219D02*
X104926666Y-116466504D01*
X104926666Y-116466504D02*
X104879047Y-116609361D01*
X104879047Y-116609361D02*
X104783809Y-116704600D01*
X104783809Y-116704600D02*
X104640952Y-116752219D01*
X104640952Y-116752219D02*
X104545714Y-116752219D01*
X105355238Y-115847457D02*
X105402857Y-115799838D01*
X105402857Y-115799838D02*
X105498095Y-115752219D01*
X105498095Y-115752219D02*
X105736190Y-115752219D01*
X105736190Y-115752219D02*
X105831428Y-115799838D01*
X105831428Y-115799838D02*
X105879047Y-115847457D01*
X105879047Y-115847457D02*
X105926666Y-115942695D01*
X105926666Y-115942695D02*
X105926666Y-116037933D01*
X105926666Y-116037933D02*
X105879047Y-116180790D01*
X105879047Y-116180790D02*
X105307619Y-116752219D01*
X105307619Y-116752219D02*
X105926666Y-116752219D01*
X110712219Y-119666666D02*
X110236028Y-119999999D01*
X110712219Y-120238094D02*
X109712219Y-120238094D01*
X109712219Y-120238094D02*
X109712219Y-119857142D01*
X109712219Y-119857142D02*
X109759838Y-119761904D01*
X109759838Y-119761904D02*
X109807457Y-119714285D01*
X109807457Y-119714285D02*
X109902695Y-119666666D01*
X109902695Y-119666666D02*
X110045552Y-119666666D01*
X110045552Y-119666666D02*
X110140790Y-119714285D01*
X110140790Y-119714285D02*
X110188409Y-119761904D01*
X110188409Y-119761904D02*
X110236028Y-119857142D01*
X110236028Y-119857142D02*
X110236028Y-120238094D01*
X110712219Y-118714285D02*
X110712219Y-119285713D01*
X110712219Y-118999999D02*
X109712219Y-118999999D01*
X109712219Y-118999999D02*
X109855076Y-119095237D01*
X109855076Y-119095237D02*
X109950314Y-119190475D01*
X109950314Y-119190475D02*
X109997933Y-119285713D01*
D11*
%TO.C,R1*%
X111260001Y-119500000D02*
X112259999Y-119500000D01*
%TD*%
M02*
