%TF.GenerationSoftware,KiCad,Pcbnew,8.0.6*%
%TF.CreationDate,2026-01-06T16:13:32+10:00*%
%TF.ProjectId,Cinema Display Barrel Jack Adapter,43696e65-6d61-4204-9469-73706c617920,A*%
%TF.SameCoordinates,PX6a95280PY791ddc0*%
%TF.FileFunction,Copper,L2,Bot*%
%TF.FilePolarity,Positive*%
%FSLAX46Y46*%
G04 Gerber Fmt 4.6, Leading zero omitted, Abs format (unit mm)*
G04 Created by KiCad (PCBNEW 8.0.6) date 2026-01-06 16:13:32*
%MOMM*%
%LPD*%
G01*
G04 APERTURE LIST*
G04 Aperture macros list*
%AMRoundRect*
0 Rectangle with rounded corners*
0 $1 Rounding radius*
0 $2 $3 $4 $5 $6 $7 $8 $9 X,Y pos of 4 corners*
0 Add a 4 corners polygon primitive as box body*
4,1,4,$2,$3,$4,$5,$6,$7,$8,$9,$2,$3,0*
0 Add four circle primitives for the rounded corners*
1,1,$1+$1,$2,$3*
1,1,$1+$1,$4,$5*
1,1,$1+$1,$6,$7*
1,1,$1+$1,$8,$9*
0 Add four rect primitives between the rounded corners*
20,1,$1+$1,$2,$3,$4,$5,0*
20,1,$1+$1,$4,$5,$6,$7,0*
20,1,$1+$1,$6,$7,$8,$9,0*
20,1,$1+$1,$8,$9,$2,$3,0*%
G04 Aperture macros list end*
%TA.AperFunction,SMDPad,CuDef*%
%ADD10RoundRect,0.200000X-0.200000X-1.800000X0.200000X-1.800000X0.200000X1.800000X-0.200000X1.800000X0*%
%TD*%
%TA.AperFunction,SMDPad,CuDef*%
%ADD11RoundRect,0.200000X-0.200000X-2.300000X0.200000X-2.300000X0.200000X2.300000X-0.200000X2.300000X0*%
%TD*%
%TA.AperFunction,ComponentPad*%
%ADD12C,2.000000*%
%TD*%
%TA.AperFunction,ComponentPad*%
%ADD13R,1.600000X2.600000*%
%TD*%
%TA.AperFunction,ComponentPad*%
%ADD14R,1.600000X2.100000*%
%TD*%
%TA.AperFunction,ComponentPad*%
%ADD15R,1.600000X2.400000*%
%TD*%
%TA.AperFunction,ViaPad*%
%ADD16C,0.600000*%
%TD*%
%TA.AperFunction,Conductor*%
%ADD17C,0.800000*%
%TD*%
%TA.AperFunction,Conductor*%
%ADD18C,0.400000*%
%TD*%
G04 APERTURE END LIST*
D10*
%TO.P,J1,1,1*%
%TO.N,PP_24V*%
X-2900000Y3500000D03*
D11*
%TO.P,J1,2,2*%
%TO.N,GND*%
X-1450000Y3000000D03*
%TO.P,J1,3,3*%
%TO.N,/ID*%
X0Y3000000D03*
%TO.P,J1,4,4*%
%TO.N,GND*%
X1450000Y3000000D03*
D10*
%TO.P,J1,5,5*%
%TO.N,PP_24V*%
X2900000Y3500000D03*
%TD*%
D12*
%TO.P,J2,A,A*%
%TO.N,PP_24V*%
X-800000Y10400001D03*
D13*
%TO.P,J2,B,B*%
%TO.N,GND*%
X6300000Y13300000D03*
D14*
%TO.P,J2,C,C*%
X-6300000Y13100000D03*
D15*
%TO.P,J2,D,D*%
X6500001Y19900000D03*
X-6500001Y19900000D03*
%TD*%
D16*
%TO.N,GND*%
X1450000Y8000000D03*
X0Y9000000D03*
X-1450000Y8000000D03*
X-1450000Y6000000D03*
X1450000Y6000000D03*
X1450000Y7000000D03*
X-1450000Y7000000D03*
%TO.N,/ID*%
X0Y6000000D03*
%TO.N,PP_24V*%
X2900000Y7000000D03*
X-2900000Y8000000D03*
X-2900000Y6000000D03*
X-2900000Y7000000D03*
X2900000Y6000000D03*
X2900000Y8000000D03*
%TD*%
D17*
%TO.N,GND*%
X1450000Y8000000D02*
X1450000Y3000000D01*
X1450000Y8000000D02*
X0Y8000000D01*
X-1450000Y8000000D02*
X-1450000Y3000000D01*
X-1450000Y8000000D02*
X0Y8000000D01*
X0Y9000000D02*
X0Y8000000D01*
D18*
%TO.N,/ID*%
X0Y6000000D02*
X0Y3000000D01*
D17*
%TO.N,PP_24V*%
X2900000Y6000000D02*
X2900000Y8000000D01*
X-2900000Y6000000D02*
X-2900000Y8000000D01*
X2900000Y6000000D02*
X2900000Y3500000D01*
X-2900000Y6000000D02*
X-2900000Y3500000D01*
%TD*%
%TA.AperFunction,Conductor*%
%TO.N,GND*%
G36*
X-5407461Y22729815D02*
G01*
X-5361706Y22677011D01*
X-5350500Y22625500D01*
X-5350500Y12844170D01*
X-5350500Y12800000D01*
X-5350500Y12726082D01*
X-5350500Y12726080D01*
X-5350501Y12726080D01*
X-5321660Y12581093D01*
X-5321657Y12581083D01*
X-5265088Y12444512D01*
X-5265081Y12444499D01*
X-5182952Y12321585D01*
X-5182949Y12321581D01*
X-5078420Y12217052D01*
X-5078416Y12217049D01*
X-4955502Y12134920D01*
X-4955489Y12134913D01*
X-4818918Y12078344D01*
X-4818913Y12078342D01*
X-4818909Y12078342D01*
X-4818908Y12078341D01*
X-4673921Y12049500D01*
X-4673918Y12049500D01*
X4673920Y12049500D01*
X4771462Y12068904D01*
X4818913Y12078342D01*
X4955495Y12134916D01*
X5078416Y12217049D01*
X5182951Y12321584D01*
X5265084Y12444505D01*
X5321658Y12581087D01*
X5350500Y12726082D01*
X5350500Y12800000D01*
X5350500Y12844170D01*
X5350500Y22625500D01*
X5370185Y22692539D01*
X5422989Y22738294D01*
X5474500Y22749500D01*
X6955830Y22749500D01*
X6993908Y22749500D01*
X7006061Y22748903D01*
X7016635Y22747862D01*
X7134069Y22736296D01*
X7157897Y22731557D01*
X7275140Y22695992D01*
X7297589Y22686692D01*
X7356123Y22655405D01*
X7405630Y22628943D01*
X7425840Y22615439D01*
X7520535Y22537726D01*
X7537725Y22520536D01*
X7615438Y22425841D01*
X7628942Y22405631D01*
X7686690Y22297593D01*
X7695993Y22275135D01*
X7731554Y22157907D01*
X7736296Y22134065D01*
X7748903Y22006062D01*
X7749500Y21993908D01*
X7749500Y5624000D01*
X7729815Y5556961D01*
X7677011Y5511206D01*
X7625500Y5500000D01*
X5850994Y5500000D01*
X5783955Y5519685D01*
X5738200Y5572489D01*
X5729378Y5599804D01*
X5713973Y5677251D01*
X5642322Y5850231D01*
X5642321Y5850232D01*
X5642318Y5850238D01*
X5538302Y6005908D01*
X5538299Y6005912D01*
X5405911Y6138300D01*
X5405907Y6138303D01*
X5250237Y6242319D01*
X5250228Y6242324D01*
X5077251Y6313973D01*
X5077243Y6313975D01*
X4893620Y6350500D01*
X4893616Y6350500D01*
X4706384Y6350500D01*
X4706379Y6350500D01*
X4522756Y6313975D01*
X4522748Y6313973D01*
X4349771Y6242324D01*
X4349762Y6242319D01*
X4194092Y6138303D01*
X4194088Y6138300D01*
X4061700Y6005912D01*
X4061697Y6005908D01*
X3957681Y5850238D01*
X3957676Y5850229D01*
X3886027Y5677252D01*
X3886027Y5677251D01*
X3870622Y5599808D01*
X3838239Y5537898D01*
X3777524Y5503324D01*
X3749006Y5500000D01*
X3576500Y5500000D01*
X3509461Y5519685D01*
X3463706Y5572489D01*
X3452500Y5624000D01*
X3452500Y8072736D01*
X3452500Y8072738D01*
X3414848Y8213257D01*
X3342110Y8339243D01*
X3239243Y8442110D01*
X3113257Y8514848D01*
X2972738Y8552500D01*
X2827262Y8552500D01*
X2686743Y8514848D01*
X2686741Y8514847D01*
X2686740Y8514847D01*
X2560760Y8442112D01*
X2560754Y8442108D01*
X2457892Y8339246D01*
X2457888Y8339240D01*
X2385153Y8213260D01*
X2385153Y8213259D01*
X2385152Y8213257D01*
X2347500Y8072738D01*
X2347500Y8072736D01*
X2347500Y5624000D01*
X2327815Y5556961D01*
X2275011Y5511206D01*
X2223500Y5500000D01*
X549872Y5500000D01*
X482833Y5519685D01*
X462191Y5536319D01*
X400891Y5597619D01*
X367406Y5658942D01*
X372390Y5728634D01*
X384264Y5752351D01*
X384575Y5752837D01*
X384582Y5752844D01*
X401221Y5789278D01*
X438633Y5871199D01*
X438635Y5871206D01*
X457153Y6000000D01*
X438635Y6128795D01*
X438634Y6128799D01*
X386791Y6242319D01*
X384582Y6247156D01*
X299372Y6345493D01*
X189908Y6415841D01*
X101720Y6441736D01*
X65061Y6452500D01*
X65060Y6452500D01*
X-65060Y6452500D01*
X-65061Y6452500D01*
X-116960Y6437261D01*
X-189908Y6415841D01*
X-189910Y6415841D01*
X-189910Y6415840D01*
X-299371Y6345494D01*
X-384581Y6247158D01*
X-384583Y6247155D01*
X-438635Y6128799D01*
X-438636Y6128795D01*
X-457153Y6000000D01*
X-438636Y5871206D01*
X-438634Y5871199D01*
X-384584Y5752846D01*
X-384259Y5752341D01*
X-384091Y5751766D01*
X-380898Y5744776D01*
X-381903Y5744318D01*
X-364573Y5685302D01*
X-384256Y5618262D01*
X-400891Y5597619D01*
X-407662Y5590849D01*
X-407662Y5590848D01*
X-462193Y5536318D01*
X-523513Y5502834D01*
X-549872Y5500000D01*
X-2223500Y5500000D01*
X-2290539Y5519685D01*
X-2336294Y5572489D01*
X-2347500Y5624000D01*
X-2347500Y8072736D01*
X-2347500Y8072738D01*
X-2385152Y8213257D01*
X-2457890Y8339243D01*
X-2560757Y8442110D01*
X-2686743Y8514848D01*
X-2827262Y8552500D01*
X-2972738Y8552500D01*
X-3113257Y8514848D01*
X-3113259Y8514847D01*
X-3113260Y8514847D01*
X-3239240Y8442112D01*
X-3239246Y8442108D01*
X-3342108Y8339246D01*
X-3342112Y8339240D01*
X-3414847Y8213260D01*
X-3414847Y8213259D01*
X-3414848Y8213257D01*
X-3452500Y8072738D01*
X-3452500Y8072736D01*
X-3452500Y5624000D01*
X-3472185Y5556961D01*
X-3524989Y5511206D01*
X-3576500Y5500000D01*
X-3749006Y5500000D01*
X-3816045Y5519685D01*
X-3861800Y5572489D01*
X-3870622Y5599804D01*
X-3886027Y5677251D01*
X-3957678Y5850231D01*
X-3957679Y5850232D01*
X-3957682Y5850238D01*
X-4061698Y6005908D01*
X-4061701Y6005912D01*
X-4194089Y6138300D01*
X-4194093Y6138303D01*
X-4349763Y6242319D01*
X-4349772Y6242324D01*
X-4522749Y6313973D01*
X-4522757Y6313975D01*
X-4706380Y6350500D01*
X-4706384Y6350500D01*
X-4893616Y6350500D01*
X-4893621Y6350500D01*
X-5077244Y6313975D01*
X-5077252Y6313973D01*
X-5250229Y6242324D01*
X-5250238Y6242319D01*
X-5405908Y6138303D01*
X-5405912Y6138300D01*
X-5538300Y6005912D01*
X-5538303Y6005908D01*
X-5642319Y5850238D01*
X-5642324Y5850229D01*
X-5713973Y5677252D01*
X-5713973Y5677251D01*
X-5729378Y5599808D01*
X-5761761Y5537898D01*
X-5822476Y5503324D01*
X-5850994Y5500000D01*
X-7625500Y5500000D01*
X-7692539Y5519685D01*
X-7738294Y5572489D01*
X-7749500Y5624000D01*
X-7749500Y10400001D01*
X-1957437Y10400001D01*
X-1937730Y10187328D01*
X-1937730Y10187326D01*
X-1937729Y10187323D01*
X-1879278Y9981887D01*
X-1784073Y9790689D01*
X-1655356Y9620241D01*
X-1497512Y9476346D01*
X-1497510Y9476345D01*
X-1497509Y9476344D01*
X-1315918Y9363908D01*
X-1315912Y9363905D01*
X-1293487Y9355218D01*
X-1116748Y9286748D01*
X-906795Y9247501D01*
X-906793Y9247501D01*
X-693207Y9247501D01*
X-693205Y9247501D01*
X-483252Y9286748D01*
X-284086Y9363906D01*
X-102488Y9476346D01*
X55356Y9620241D01*
X184073Y9790689D01*
X279278Y9981887D01*
X337729Y10187323D01*
X357437Y10400001D01*
X337729Y10612679D01*
X279278Y10818115D01*
X184073Y11009313D01*
X55356Y11179761D01*
X-102488Y11323656D01*
X-102491Y11323658D01*
X-102492Y11323659D01*
X-284083Y11436095D01*
X-284089Y11436098D01*
X-367518Y11468419D01*
X-483252Y11513254D01*
X-693205Y11552501D01*
X-906795Y11552501D01*
X-1116748Y11513254D01*
X-1164594Y11494719D01*
X-1315912Y11436098D01*
X-1315918Y11436095D01*
X-1497509Y11323659D01*
X-1655357Y11179761D01*
X-1784073Y11009314D01*
X-1879277Y10818119D01*
X-1937730Y10612675D01*
X-1957437Y10400001D01*
X-7749500Y10400001D01*
X-7749500Y21993908D01*
X-7748903Y22006061D01*
X-7744593Y22049828D01*
X-7736296Y22134072D01*
X-7731558Y22157896D01*
X-7695990Y22275145D01*
X-7686694Y22297587D01*
X-7628939Y22405637D01*
X-7615444Y22425835D01*
X-7537721Y22520542D01*
X-7520542Y22537721D01*
X-7425835Y22615444D01*
X-7405637Y22628939D01*
X-7297587Y22686694D01*
X-7275145Y22695990D01*
X-7157896Y22731558D01*
X-7134072Y22736296D01*
X-7015386Y22747985D01*
X-7006061Y22748903D01*
X-6993908Y22749500D01*
X-6955830Y22749500D01*
X-5474500Y22749500D01*
X-5407461Y22729815D01*
G37*
%TD.AperFunction*%
%TD*%
M02*
