ISO-10303-21;
HEADER;
/* Generated by software containing ST-Developer
 * from STEP Tools, Inc. (www.steptools.com) 
 */

FILE_DESCRIPTION(
/* description */ (''),
/* implementation_level */ '2;1');

FILE_NAME(
/* name */ '',
/* time_stamp */ '',
/* author */ (''),
/* organization */ (''),
/* preprocessor_version */ '',
/* originating_system */ '',
/* authorisation */ '');

FILE_SCHEMA (('AUTOMOTIVE_DESIGN { 1 0 10303 214 3 1 1 }'));
ENDSEC;

DATA;
#10=MECHANICAL_DESIGN_GEOMETRIC_PRESENTATION_REPRESENTATION('',(#809,#808,
#811,#812,#813,#810,#817,#814,#815,#826,#816,#820,#824,#821,#822,#818,#823,
#819,#825,#837,#834,#830,#831,#835,#828,#829,#836,#827,#833,#838,#832,#840,
#839,#845,#846,#841,#847,#849,#844,#848,#843,#842,#850),#1401);
#11=SHAPE_REPRESENTATION_RELATIONSHIP('SRR','None',#1410,#12);
#12=ADVANCED_BREP_SHAPE_REPRESENTATION('',(#13),#1400);
#13=MANIFOLD_SOLID_BREP('Solid1',#897);
#14=CIRCLE('',#908,0.05);
#15=CIRCLE('',#909,0.05);
#16=CIRCLE('',#912,0.05);
#17=CIRCLE('',#914,0.05);
#18=CYLINDRICAL_SURFACE('',#907,0.05);
#19=CYLINDRICAL_SURFACE('',#913,0.05);
#20=FACE_OUTER_BOUND('',#66,.T.);
#21=FACE_OUTER_BOUND('',#67,.T.);
#22=FACE_OUTER_BOUND('',#68,.T.);
#23=FACE_OUTER_BOUND('',#69,.T.);
#24=FACE_OUTER_BOUND('',#70,.T.);
#25=FACE_OUTER_BOUND('',#71,.T.);
#26=FACE_OUTER_BOUND('',#72,.T.);
#27=FACE_OUTER_BOUND('',#73,.T.);
#28=FACE_OUTER_BOUND('',#74,.T.);
#29=FACE_OUTER_BOUND('',#75,.T.);
#30=FACE_OUTER_BOUND('',#76,.T.);
#31=FACE_OUTER_BOUND('',#77,.T.);
#32=FACE_OUTER_BOUND('',#78,.T.);
#33=FACE_OUTER_BOUND('',#79,.T.);
#34=FACE_OUTER_BOUND('',#80,.T.);
#35=FACE_OUTER_BOUND('',#81,.T.);
#36=FACE_OUTER_BOUND('',#82,.T.);
#37=FACE_OUTER_BOUND('',#83,.T.);
#38=FACE_OUTER_BOUND('',#84,.T.);
#39=FACE_OUTER_BOUND('',#85,.T.);
#40=FACE_OUTER_BOUND('',#86,.T.);
#41=FACE_OUTER_BOUND('',#87,.T.);
#42=FACE_OUTER_BOUND('',#88,.T.);
#43=FACE_OUTER_BOUND('',#89,.T.);
#44=FACE_OUTER_BOUND('',#90,.T.);
#45=FACE_OUTER_BOUND('',#91,.T.);
#46=FACE_OUTER_BOUND('',#92,.T.);
#47=FACE_OUTER_BOUND('',#93,.T.);
#48=FACE_OUTER_BOUND('',#94,.T.);
#49=FACE_OUTER_BOUND('',#95,.T.);
#50=FACE_OUTER_BOUND('',#96,.T.);
#51=FACE_OUTER_BOUND('',#97,.T.);
#52=FACE_OUTER_BOUND('',#98,.T.);
#53=FACE_OUTER_BOUND('',#99,.T.);
#54=FACE_OUTER_BOUND('',#100,.T.);
#55=FACE_OUTER_BOUND('',#101,.T.);
#56=FACE_OUTER_BOUND('',#102,.T.);
#57=FACE_OUTER_BOUND('',#103,.T.);
#58=FACE_OUTER_BOUND('',#104,.T.);
#59=FACE_OUTER_BOUND('',#105,.T.);
#60=FACE_OUTER_BOUND('',#106,.T.);
#61=FACE_OUTER_BOUND('',#107,.T.);
#62=FACE_OUTER_BOUND('',#108,.T.);
#63=FACE_OUTER_BOUND('',#109,.T.);
#64=FACE_OUTER_BOUND('',#110,.T.);
#65=FACE_OUTER_BOUND('',#111,.T.);
#66=EDGE_LOOP('',(#524,#525,#526,#527));
#67=EDGE_LOOP('',(#528,#529,#530,#531));
#68=EDGE_LOOP('',(#532,#533,#534,#535));
#69=EDGE_LOOP('',(#536,#537,#538,#539));
#70=EDGE_LOOP('',(#540,#541,#542,#543));
#71=EDGE_LOOP('',(#544,#545,#546,#547));
#72=EDGE_LOOP('',(#548,#549,#550,#551,#552,#553,#554,#555));
#73=EDGE_LOOP('',(#556,#557,#558,#559));
#74=EDGE_LOOP('',(#560,#561,#562,#563));
#75=EDGE_LOOP('',(#564,#565,#566,#567));
#76=EDGE_LOOP('',(#568,#569,#570,#571,#572,#573));
#77=EDGE_LOOP('',(#574,#575,#576,#577));
#78=EDGE_LOOP('',(#578,#579,#580,#581,#582,#583));
#79=EDGE_LOOP('',(#584,#585,#586,#587));
#80=EDGE_LOOP('',(#588,#589,#590,#591,#592,#593));
#81=EDGE_LOOP('',(#594,#595,#596,#597));
#82=EDGE_LOOP('',(#598,#599,#600,#601,#602,#603));
#83=EDGE_LOOP('',(#604,#605,#606,#607,#608,#609,#610,#611));
#84=EDGE_LOOP('',(#612,#613,#614,#615,#616,#617,#618,#619,#620,#621,#622,
#623));
#85=EDGE_LOOP('',(#624,#625,#626,#627,#628,#629,#630,#631,#632,#633,#634,
#635));
#86=EDGE_LOOP('',(#636,#637,#638,#639));
#87=EDGE_LOOP('',(#640,#641,#642,#643));
#88=EDGE_LOOP('',(#644,#645,#646,#647));
#89=EDGE_LOOP('',(#648,#649,#650,#651));
#90=EDGE_LOOP('',(#652,#653,#654,#655));
#91=EDGE_LOOP('',(#656,#657,#658,#659));
#92=EDGE_LOOP('',(#660,#661,#662,#663,#664,#665,#666,#667));
#93=EDGE_LOOP('',(#668,#669,#670,#671));
#94=EDGE_LOOP('',(#672,#673,#674,#675));
#95=EDGE_LOOP('',(#676,#677,#678,#679,#680,#681));
#96=EDGE_LOOP('',(#682,#683,#684,#685,#686,#687));
#97=EDGE_LOOP('',(#688,#689,#690,#691));
#98=EDGE_LOOP('',(#692,#693,#694,#695,#696,#697,#698,#699));
#99=EDGE_LOOP('',(#700,#701,#702,#703));
#100=EDGE_LOOP('',(#704,#705,#706,#707));
#101=EDGE_LOOP('',(#708,#709,#710,#711));
#102=EDGE_LOOP('',(#712,#713,#714,#715));
#103=EDGE_LOOP('',(#716,#717,#718,#719));
#104=EDGE_LOOP('',(#720,#721,#722,#723));
#105=EDGE_LOOP('',(#724,#725,#726,#727,#728,#729,#730,#731));
#106=EDGE_LOOP('',(#732,#733,#734,#735));
#107=EDGE_LOOP('',(#736,#737,#738,#739));
#108=EDGE_LOOP('',(#740,#741,#742,#743,#744,#745));
#109=EDGE_LOOP('',(#746,#747,#748,#749,#750,#751));
#110=EDGE_LOOP('',(#752,#753,#754,#755));
#111=EDGE_LOOP('',(#756,#757,#758,#759,#760,#761,#762,#763));
#112=LINE('',#1167,#224);
#113=LINE('',#1169,#225);
#114=LINE('',#1171,#226);
#115=LINE('',#1172,#227);
#116=LINE('',#1175,#228);
#117=LINE('',#1177,#229);
#118=LINE('',#1178,#230);
#119=LINE('',#1181,#231);
#120=LINE('',#1183,#232);
#121=LINE('',#1184,#233);
#122=LINE('',#1187,#234);
#123=LINE('',#1189,#235);
#124=LINE('',#1190,#236);
#125=LINE('',#1193,#237);
#126=LINE('',#1195,#238);
#127=LINE('',#1196,#239);
#128=LINE('',#1200,#240);
#129=LINE('',#1202,#241);
#130=LINE('',#1204,#242);
#131=LINE('',#1205,#243);
#132=LINE('',#1207,#244);
#133=LINE('',#1208,#245);
#134=LINE('',#1211,#246);
#135=LINE('',#1213,#247);
#136=LINE('',#1214,#248);
#137=LINE('',#1220,#249);
#138=LINE('',#1223,#250);
#139=LINE('',#1226,#251);
#140=LINE('',#1228,#252);
#141=LINE('',#1229,#253);
#142=LINE('',#1232,#254);
#143=LINE('',#1234,#255);
#144=LINE('',#1236,#256);
#145=LINE('',#1240,#257);
#146=LINE('',#1244,#258);
#147=LINE('',#1246,#259);
#148=LINE('',#1248,#260);
#149=LINE('',#1249,#261);
#150=LINE('',#1252,#262);
#151=LINE('',#1254,#263);
#152=LINE('',#1255,#264);
#153=LINE('',#1257,#265);
#154=LINE('',#1259,#266);
#155=LINE('',#1260,#267);
#156=LINE('',#1262,#268);
#157=LINE('',#1266,#269);
#158=LINE('',#1268,#270);
#159=LINE('',#1269,#271);
#160=LINE('',#1273,#272);
#161=LINE('',#1274,#273);
#162=LINE('',#1276,#274);
#163=LINE('',#1278,#275);
#164=LINE('',#1279,#276);
#165=LINE('',#1280,#277);
#166=LINE('',#1284,#278);
#167=LINE('',#1285,#279);
#168=LINE('',#1287,#280);
#169=LINE('',#1289,#281);
#170=LINE('',#1290,#282);
#171=LINE('',#1291,#283);
#172=LINE('',#1294,#284);
#173=LINE('',#1295,#285);
#174=LINE('',#1298,#286);
#175=LINE('',#1299,#287);
#176=LINE('',#1302,#288);
#177=LINE('',#1303,#289);
#178=LINE('',#1306,#290);
#179=LINE('',#1307,#291);
#180=LINE('',#1310,#292);
#181=LINE('',#1311,#293);
#182=LINE('',#1314,#294);
#183=LINE('',#1315,#295);
#184=LINE('',#1319,#296);
#185=LINE('',#1321,#297);
#186=LINE('',#1323,#298);
#187=LINE('',#1324,#299);
#188=LINE('',#1325,#300);
#189=LINE('',#1328,#301);
#190=LINE('',#1330,#302);
#191=LINE('',#1331,#303);
#192=LINE('',#1334,#304);
#193=LINE('',#1335,#305);
#194=LINE('',#1337,#306);
#195=LINE('',#1340,#307);
#196=LINE('',#1341,#308);
#197=LINE('',#1343,#309);
#198=LINE('',#1347,#310);
#199=LINE('',#1349,#311);
#200=LINE('',#1350,#312);
#201=LINE('',#1353,#313);
#202=LINE('',#1355,#314);
#203=LINE('',#1356,#315);
#204=LINE('',#1359,#316);
#205=LINE('',#1360,#317);
#206=LINE('',#1363,#318);
#207=LINE('',#1364,#319);
#208=LINE('',#1366,#320);
#209=LINE('',#1368,#321);
#210=LINE('',#1372,#322);
#211=LINE('',#1374,#323);
#212=LINE('',#1376,#324);
#213=LINE('',#1377,#325);
#214=LINE('',#1378,#326);
#215=LINE('',#1381,#327);
#216=LINE('',#1383,#328);
#217=LINE('',#1384,#329);
#218=LINE('',#1387,#330);
#219=LINE('',#1388,#331);
#220=LINE('',#1390,#332);
#221=LINE('',#1393,#333);
#222=LINE('',#1394,#334);
#223=LINE('',#1396,#335);
#224=VECTOR('',#953,10.);
#225=VECTOR('',#954,10.);
#226=VECTOR('',#955,10.);
#227=VECTOR('',#956,10.);
#228=VECTOR('',#959,10.);
#229=VECTOR('',#960,10.);
#230=VECTOR('',#961,10.);
#231=VECTOR('',#964,10.);
#232=VECTOR('',#965,10.);
#233=VECTOR('',#966,10.);
#234=VECTOR('',#969,10.);
#235=VECTOR('',#970,10.);
#236=VECTOR('',#971,10.);
#237=VECTOR('',#974,10.);
#238=VECTOR('',#975,10.);
#239=VECTOR('',#976,10.);
#240=VECTOR('',#979,10.);
#241=VECTOR('',#980,10.);
#242=VECTOR('',#981,10.);
#243=VECTOR('',#982,10.);
#244=VECTOR('',#985,10.);
#245=VECTOR('',#986,10.);
#246=VECTOR('',#989,10.);
#247=VECTOR('',#990,10.);
#248=VECTOR('',#991,10.);
#249=VECTOR('',#996,10.);
#250=VECTOR('',#999,10.);
#251=VECTOR('',#1002,10.);
#252=VECTOR('',#1003,10.);
#253=VECTOR('',#1004,10.);
#254=VECTOR('',#1007,10.);
#255=VECTOR('',#1008,10.);
#256=VECTOR('',#1009,10.);
#257=VECTOR('',#1014,10.);
#258=VECTOR('',#1019,10.);
#259=VECTOR('',#1020,10.);
#260=VECTOR('',#1021,10.);
#261=VECTOR('',#1022,10.);
#262=VECTOR('',#1025,10.);
#263=VECTOR('',#1026,10.);
#264=VECTOR('',#1027,10.);
#265=VECTOR('',#1030,10.);
#266=VECTOR('',#1031,10.);
#267=VECTOR('',#1032,10.);
#268=VECTOR('',#1035,10.);
#269=VECTOR('',#1040,10.);
#270=VECTOR('',#1041,10.);
#271=VECTOR('',#1042,10.);
#272=VECTOR('',#1045,10.);
#273=VECTOR('',#1046,10.);
#274=VECTOR('',#1047,10.);
#275=VECTOR('',#1048,10.);
#276=VECTOR('',#1049,10.);
#277=VECTOR('',#1050,10.);
#278=VECTOR('',#1053,10.);
#279=VECTOR('',#1054,10.);
#280=VECTOR('',#1055,10.);
#281=VECTOR('',#1056,10.);
#282=VECTOR('',#1057,10.);
#283=VECTOR('',#1058,10.);
#284=VECTOR('',#1061,10.);
#285=VECTOR('',#1062,10.);
#286=VECTOR('',#1065,10.);
#287=VECTOR('',#1066,10.);
#288=VECTOR('',#1069,10.);
#289=VECTOR('',#1070,10.);
#290=VECTOR('',#1073,10.);
#291=VECTOR('',#1074,10.);
#292=VECTOR('',#1077,10.);
#293=VECTOR('',#1078,10.);
#294=VECTOR('',#1081,10.);
#295=VECTOR('',#1082,10.);
#296=VECTOR('',#1085,10.);
#297=VECTOR('',#1086,10.);
#298=VECTOR('',#1087,10.);
#299=VECTOR('',#1088,10.);
#300=VECTOR('',#1089,10.);
#301=VECTOR('',#1092,10.);
#302=VECTOR('',#1093,10.);
#303=VECTOR('',#1094,10.);
#304=VECTOR('',#1097,10.);
#305=VECTOR('',#1098,10.);
#306=VECTOR('',#1101,10.);
#307=VECTOR('',#1104,10.);
#308=VECTOR('',#1105,10.);
#309=VECTOR('',#1108,10.);
#310=VECTOR('',#1113,10.);
#311=VECTOR('',#1114,10.);
#312=VECTOR('',#1115,10.);
#313=VECTOR('',#1118,10.);
#314=VECTOR('',#1119,10.);
#315=VECTOR('',#1120,10.);
#316=VECTOR('',#1123,10.);
#317=VECTOR('',#1124,10.);
#318=VECTOR('',#1127,10.);
#319=VECTOR('',#1128,10.);
#320=VECTOR('',#1131,10.);
#321=VECTOR('',#1134,10.);
#322=VECTOR('',#1137,10.);
#323=VECTOR('',#1138,10.);
#324=VECTOR('',#1139,10.);
#325=VECTOR('',#1140,10.);
#326=VECTOR('',#1141,10.);
#327=VECTOR('',#1144,10.);
#328=VECTOR('',#1145,10.);
#329=VECTOR('',#1146,10.);
#330=VECTOR('',#1149,10.);
#331=VECTOR('',#1150,10.);
#332=VECTOR('',#1153,10.);
#333=VECTOR('',#1156,10.);
#334=VECTOR('',#1157,10.);
#335=VECTOR('',#1160,10.);
#336=VERTEX_POINT('',#1165);
#337=VERTEX_POINT('',#1166);
#338=VERTEX_POINT('',#1168);
#339=VERTEX_POINT('',#1170);
#340=VERTEX_POINT('',#1174);
#341=VERTEX_POINT('',#1176);
#342=VERTEX_POINT('',#1180);
#343=VERTEX_POINT('',#1182);
#344=VERTEX_POINT('',#1186);
#345=VERTEX_POINT('',#1188);
#346=VERTEX_POINT('',#1192);
#347=VERTEX_POINT('',#1194);
#348=VERTEX_POINT('',#1198);
#349=VERTEX_POINT('',#1199);
#350=VERTEX_POINT('',#1201);
#351=VERTEX_POINT('',#1203);
#352=VERTEX_POINT('',#1210);
#353=VERTEX_POINT('',#1212);
#354=VERTEX_POINT('',#1216);
#355=VERTEX_POINT('',#1217);
#356=VERTEX_POINT('',#1219);
#357=VERTEX_POINT('',#1221);
#358=VERTEX_POINT('',#1225);
#359=VERTEX_POINT('',#1227);
#360=VERTEX_POINT('',#1231);
#361=VERTEX_POINT('',#1233);
#362=VERTEX_POINT('',#1235);
#363=VERTEX_POINT('',#1239);
#364=VERTEX_POINT('',#1243);
#365=VERTEX_POINT('',#1245);
#366=VERTEX_POINT('',#1247);
#367=VERTEX_POINT('',#1251);
#368=VERTEX_POINT('',#1253);
#369=VERTEX_POINT('',#1258);
#370=VERTEX_POINT('',#1265);
#371=VERTEX_POINT('',#1267);
#372=VERTEX_POINT('',#1271);
#373=VERTEX_POINT('',#1272);
#374=VERTEX_POINT('',#1275);
#375=VERTEX_POINT('',#1277);
#376=VERTEX_POINT('',#1282);
#377=VERTEX_POINT('',#1283);
#378=VERTEX_POINT('',#1286);
#379=VERTEX_POINT('',#1288);
#380=VERTEX_POINT('',#1293);
#381=VERTEX_POINT('',#1297);
#382=VERTEX_POINT('',#1301);
#383=VERTEX_POINT('',#1305);
#384=VERTEX_POINT('',#1309);
#385=VERTEX_POINT('',#1313);
#386=VERTEX_POINT('',#1317);
#387=VERTEX_POINT('',#1318);
#388=VERTEX_POINT('',#1320);
#389=VERTEX_POINT('',#1322);
#390=VERTEX_POINT('',#1327);
#391=VERTEX_POINT('',#1329);
#392=VERTEX_POINT('',#1333);
#393=VERTEX_POINT('',#1339);
#394=VERTEX_POINT('',#1346);
#395=VERTEX_POINT('',#1348);
#396=VERTEX_POINT('',#1352);
#397=VERTEX_POINT('',#1354);
#398=VERTEX_POINT('',#1358);
#399=VERTEX_POINT('',#1362);
#400=VERTEX_POINT('',#1370);
#401=VERTEX_POINT('',#1371);
#402=VERTEX_POINT('',#1373);
#403=VERTEX_POINT('',#1375);
#404=VERTEX_POINT('',#1380);
#405=VERTEX_POINT('',#1382);
#406=VERTEX_POINT('',#1386);
#407=VERTEX_POINT('',#1392);
#408=EDGE_CURVE('',#336,#337,#112,.T.);
#409=EDGE_CURVE('',#336,#338,#113,.T.);
#410=EDGE_CURVE('',#339,#338,#114,.T.);
#411=EDGE_CURVE('',#337,#339,#115,.T.);
#412=EDGE_CURVE('',#337,#340,#116,.T.);
#413=EDGE_CURVE('',#341,#339,#117,.T.);
#414=EDGE_CURVE('',#340,#341,#118,.T.);
#415=EDGE_CURVE('',#340,#342,#119,.T.);
#416=EDGE_CURVE('',#343,#341,#120,.T.);
#417=EDGE_CURVE('',#342,#343,#121,.T.);
#418=EDGE_CURVE('',#342,#344,#122,.T.);
#419=EDGE_CURVE('',#345,#343,#123,.T.);
#420=EDGE_CURVE('',#344,#345,#124,.T.);
#421=EDGE_CURVE('',#344,#346,#125,.T.);
#422=EDGE_CURVE('',#347,#345,#126,.T.);
#423=EDGE_CURVE('',#346,#347,#127,.T.);
#424=EDGE_CURVE('',#348,#349,#128,.T.);
#425=EDGE_CURVE('',#348,#350,#129,.T.);
#426=EDGE_CURVE('',#351,#350,#130,.T.);
#427=EDGE_CURVE('',#349,#351,#131,.T.);
#428=EDGE_CURVE('',#350,#347,#132,.T.);
#429=EDGE_CURVE('',#338,#351,#133,.T.);
#430=EDGE_CURVE('',#352,#349,#134,.T.);
#431=EDGE_CURVE('',#353,#352,#135,.T.);
#432=EDGE_CURVE('',#348,#353,#136,.T.);
#433=EDGE_CURVE('',#354,#355,#14,.T.);
#434=EDGE_CURVE('',#355,#356,#137,.T.);
#435=EDGE_CURVE('',#356,#357,#15,.T.);
#436=EDGE_CURVE('',#357,#354,#138,.T.);
#437=EDGE_CURVE('',#358,#355,#139,.T.);
#438=EDGE_CURVE('',#359,#358,#140,.T.);
#439=EDGE_CURVE('',#356,#359,#141,.T.);
#440=EDGE_CURVE('',#354,#360,#142,.T.);
#441=EDGE_CURVE('',#360,#361,#143,.T.);
#442=EDGE_CURVE('',#361,#362,#144,.T.);
#443=EDGE_CURVE('',#358,#362,#16,.T.);
#444=EDGE_CURVE('',#362,#363,#145,.T.);
#445=EDGE_CURVE('',#363,#359,#17,.T.);
#446=EDGE_CURVE('',#364,#361,#146,.T.);
#447=EDGE_CURVE('',#365,#364,#147,.T.);
#448=EDGE_CURVE('',#366,#365,#148,.T.);
#449=EDGE_CURVE('',#363,#366,#149,.T.);
#450=EDGE_CURVE('',#367,#365,#150,.T.);
#451=EDGE_CURVE('',#368,#367,#151,.T.);
#452=EDGE_CURVE('',#366,#368,#152,.T.);
#453=EDGE_CURVE('',#368,#357,#153,.T.);
#454=EDGE_CURVE('',#367,#369,#154,.T.);
#455=EDGE_CURVE('',#369,#360,#155,.T.);
#456=EDGE_CURVE('',#364,#369,#156,.T.);
#457=EDGE_CURVE('',#370,#346,#157,.T.);
#458=EDGE_CURVE('',#370,#371,#158,.T.);
#459=EDGE_CURVE('',#336,#371,#159,.T.);
#460=EDGE_CURVE('',#372,#373,#160,.T.);
#461=EDGE_CURVE('',#364,#372,#161,.T.);
#462=EDGE_CURVE('',#374,#369,#162,.T.);
#463=EDGE_CURVE('',#375,#374,#163,.T.);
#464=EDGE_CURVE('',#352,#375,#164,.T.);
#465=EDGE_CURVE('',#373,#371,#165,.T.);
#466=EDGE_CURVE('',#376,#377,#166,.T.);
#467=EDGE_CURVE('',#370,#376,#167,.T.);
#468=EDGE_CURVE('',#378,#353,#168,.T.);
#469=EDGE_CURVE('',#379,#378,#169,.T.);
#470=EDGE_CURVE('',#367,#379,#170,.T.);
#471=EDGE_CURVE('',#377,#365,#171,.T.);
#472=EDGE_CURVE('',#380,#360,#172,.T.);
#473=EDGE_CURVE('',#374,#380,#173,.T.);
#474=EDGE_CURVE('',#381,#379,#174,.T.);
#475=EDGE_CURVE('',#368,#381,#175,.T.);
#476=EDGE_CURVE('',#382,#380,#176,.T.);
#477=EDGE_CURVE('',#375,#382,#177,.T.);
#478=EDGE_CURVE('',#383,#378,#178,.T.);
#479=EDGE_CURVE('',#381,#383,#179,.T.);
#480=EDGE_CURVE('',#384,#382,#180,.T.);
#481=EDGE_CURVE('',#352,#384,#181,.T.);
#482=EDGE_CURVE('',#385,#353,#182,.T.);
#483=EDGE_CURVE('',#383,#385,#183,.T.);
#484=EDGE_CURVE('',#386,#387,#184,.T.);
#485=EDGE_CURVE('',#387,#388,#185,.T.);
#486=EDGE_CURVE('',#388,#389,#186,.T.);
#487=EDGE_CURVE('',#389,#384,#187,.T.);
#488=EDGE_CURVE('',#360,#386,#188,.T.);
#489=EDGE_CURVE('',#390,#387,#189,.T.);
#490=EDGE_CURVE('',#391,#390,#190,.T.);
#491=EDGE_CURVE('',#391,#388,#191,.T.);
#492=EDGE_CURVE('',#392,#391,#192,.T.);
#493=EDGE_CURVE('',#392,#389,#193,.T.);
#494=EDGE_CURVE('',#385,#392,#194,.T.);
#495=EDGE_CURVE('',#393,#368,#195,.T.);
#496=EDGE_CURVE('',#386,#393,#196,.T.);
#497=EDGE_CURVE('',#390,#393,#197,.T.);
#498=EDGE_CURVE('',#371,#394,#198,.T.);
#499=EDGE_CURVE('',#395,#394,#199,.T.);
#500=EDGE_CURVE('',#373,#395,#200,.T.);
#501=EDGE_CURVE('',#396,#376,#201,.T.);
#502=EDGE_CURVE('',#397,#396,#202,.T.);
#503=EDGE_CURVE('',#397,#370,#203,.T.);
#504=EDGE_CURVE('',#398,#395,#204,.T.);
#505=EDGE_CURVE('',#372,#398,#205,.T.);
#506=EDGE_CURVE('',#399,#377,#206,.T.);
#507=EDGE_CURVE('',#396,#399,#207,.T.);
#508=EDGE_CURVE('',#361,#398,#208,.T.);
#509=EDGE_CURVE('',#399,#366,#209,.T.);
#510=EDGE_CURVE('',#400,#401,#210,.T.);
#511=EDGE_CURVE('',#401,#402,#211,.T.);
#512=EDGE_CURVE('',#402,#403,#212,.T.);
#513=EDGE_CURVE('',#403,#361,#213,.T.);
#514=EDGE_CURVE('',#394,#400,#214,.T.);
#515=EDGE_CURVE('',#404,#401,#215,.T.);
#516=EDGE_CURVE('',#405,#404,#216,.T.);
#517=EDGE_CURVE('',#405,#402,#217,.T.);
#518=EDGE_CURVE('',#406,#405,#218,.T.);
#519=EDGE_CURVE('',#406,#403,#219,.T.);
#520=EDGE_CURVE('',#366,#406,#220,.T.);
#521=EDGE_CURVE('',#407,#397,#221,.T.);
#522=EDGE_CURVE('',#400,#407,#222,.T.);
#523=EDGE_CURVE('',#404,#407,#223,.T.);
#524=ORIENTED_EDGE('',*,*,#408,.F.);
#525=ORIENTED_EDGE('',*,*,#409,.T.);
#526=ORIENTED_EDGE('',*,*,#410,.F.);
#527=ORIENTED_EDGE('',*,*,#411,.F.);
#528=ORIENTED_EDGE('',*,*,#412,.F.);
#529=ORIENTED_EDGE('',*,*,#411,.T.);
#530=ORIENTED_EDGE('',*,*,#413,.F.);
#531=ORIENTED_EDGE('',*,*,#414,.F.);
#532=ORIENTED_EDGE('',*,*,#415,.F.);
#533=ORIENTED_EDGE('',*,*,#414,.T.);
#534=ORIENTED_EDGE('',*,*,#416,.F.);
#535=ORIENTED_EDGE('',*,*,#417,.F.);
#536=ORIENTED_EDGE('',*,*,#418,.F.);
#537=ORIENTED_EDGE('',*,*,#417,.T.);
#538=ORIENTED_EDGE('',*,*,#419,.F.);
#539=ORIENTED_EDGE('',*,*,#420,.F.);
#540=ORIENTED_EDGE('',*,*,#421,.F.);
#541=ORIENTED_EDGE('',*,*,#420,.T.);
#542=ORIENTED_EDGE('',*,*,#422,.F.);
#543=ORIENTED_EDGE('',*,*,#423,.F.);
#544=ORIENTED_EDGE('',*,*,#424,.F.);
#545=ORIENTED_EDGE('',*,*,#425,.T.);
#546=ORIENTED_EDGE('',*,*,#426,.F.);
#547=ORIENTED_EDGE('',*,*,#427,.F.);
#548=ORIENTED_EDGE('',*,*,#426,.T.);
#549=ORIENTED_EDGE('',*,*,#428,.T.);
#550=ORIENTED_EDGE('',*,*,#422,.T.);
#551=ORIENTED_EDGE('',*,*,#419,.T.);
#552=ORIENTED_EDGE('',*,*,#416,.T.);
#553=ORIENTED_EDGE('',*,*,#413,.T.);
#554=ORIENTED_EDGE('',*,*,#410,.T.);
#555=ORIENTED_EDGE('',*,*,#429,.T.);
#556=ORIENTED_EDGE('',*,*,#424,.T.);
#557=ORIENTED_EDGE('',*,*,#430,.F.);
#558=ORIENTED_EDGE('',*,*,#431,.F.);
#559=ORIENTED_EDGE('',*,*,#432,.F.);
#560=ORIENTED_EDGE('',*,*,#433,.T.);
#561=ORIENTED_EDGE('',*,*,#434,.T.);
#562=ORIENTED_EDGE('',*,*,#435,.T.);
#563=ORIENTED_EDGE('',*,*,#436,.T.);
#564=ORIENTED_EDGE('',*,*,#434,.F.);
#565=ORIENTED_EDGE('',*,*,#437,.F.);
#566=ORIENTED_EDGE('',*,*,#438,.F.);
#567=ORIENTED_EDGE('',*,*,#439,.F.);
#568=ORIENTED_EDGE('',*,*,#433,.F.);
#569=ORIENTED_EDGE('',*,*,#440,.T.);
#570=ORIENTED_EDGE('',*,*,#441,.T.);
#571=ORIENTED_EDGE('',*,*,#442,.T.);
#572=ORIENTED_EDGE('',*,*,#443,.F.);
#573=ORIENTED_EDGE('',*,*,#437,.T.);
#574=ORIENTED_EDGE('',*,*,#443,.T.);
#575=ORIENTED_EDGE('',*,*,#444,.T.);
#576=ORIENTED_EDGE('',*,*,#445,.T.);
#577=ORIENTED_EDGE('',*,*,#438,.T.);
#578=ORIENTED_EDGE('',*,*,#444,.F.);
#579=ORIENTED_EDGE('',*,*,#442,.F.);
#580=ORIENTED_EDGE('',*,*,#446,.F.);
#581=ORIENTED_EDGE('',*,*,#447,.F.);
#582=ORIENTED_EDGE('',*,*,#448,.F.);
#583=ORIENTED_EDGE('',*,*,#449,.F.);
#584=ORIENTED_EDGE('',*,*,#450,.F.);
#585=ORIENTED_EDGE('',*,*,#451,.F.);
#586=ORIENTED_EDGE('',*,*,#452,.F.);
#587=ORIENTED_EDGE('',*,*,#448,.T.);
#588=ORIENTED_EDGE('',*,*,#436,.F.);
#589=ORIENTED_EDGE('',*,*,#453,.F.);
#590=ORIENTED_EDGE('',*,*,#451,.T.);
#591=ORIENTED_EDGE('',*,*,#454,.T.);
#592=ORIENTED_EDGE('',*,*,#455,.T.);
#593=ORIENTED_EDGE('',*,*,#440,.F.);
#594=ORIENTED_EDGE('',*,*,#456,.F.);
#595=ORIENTED_EDGE('',*,*,#446,.T.);
#596=ORIENTED_EDGE('',*,*,#441,.F.);
#597=ORIENTED_EDGE('',*,*,#455,.F.);
#598=ORIENTED_EDGE('',*,*,#435,.F.);
#599=ORIENTED_EDGE('',*,*,#439,.T.);
#600=ORIENTED_EDGE('',*,*,#445,.F.);
#601=ORIENTED_EDGE('',*,*,#449,.T.);
#602=ORIENTED_EDGE('',*,*,#452,.T.);
#603=ORIENTED_EDGE('',*,*,#453,.T.);
#604=ORIENTED_EDGE('',*,*,#421,.T.);
#605=ORIENTED_EDGE('',*,*,#457,.F.);
#606=ORIENTED_EDGE('',*,*,#458,.T.);
#607=ORIENTED_EDGE('',*,*,#459,.F.);
#608=ORIENTED_EDGE('',*,*,#408,.T.);
#609=ORIENTED_EDGE('',*,*,#412,.T.);
#610=ORIENTED_EDGE('',*,*,#415,.T.);
#611=ORIENTED_EDGE('',*,*,#418,.T.);
#612=ORIENTED_EDGE('',*,*,#460,.F.);
#613=ORIENTED_EDGE('',*,*,#461,.F.);
#614=ORIENTED_EDGE('',*,*,#456,.T.);
#615=ORIENTED_EDGE('',*,*,#462,.F.);
#616=ORIENTED_EDGE('',*,*,#463,.F.);
#617=ORIENTED_EDGE('',*,*,#464,.F.);
#618=ORIENTED_EDGE('',*,*,#430,.T.);
#619=ORIENTED_EDGE('',*,*,#427,.T.);
#620=ORIENTED_EDGE('',*,*,#429,.F.);
#621=ORIENTED_EDGE('',*,*,#409,.F.);
#622=ORIENTED_EDGE('',*,*,#459,.T.);
#623=ORIENTED_EDGE('',*,*,#465,.F.);
#624=ORIENTED_EDGE('',*,*,#466,.F.);
#625=ORIENTED_EDGE('',*,*,#467,.F.);
#626=ORIENTED_EDGE('',*,*,#457,.T.);
#627=ORIENTED_EDGE('',*,*,#423,.T.);
#628=ORIENTED_EDGE('',*,*,#428,.F.);
#629=ORIENTED_EDGE('',*,*,#425,.F.);
#630=ORIENTED_EDGE('',*,*,#432,.T.);
#631=ORIENTED_EDGE('',*,*,#468,.F.);
#632=ORIENTED_EDGE('',*,*,#469,.F.);
#633=ORIENTED_EDGE('',*,*,#470,.F.);
#634=ORIENTED_EDGE('',*,*,#450,.T.);
#635=ORIENTED_EDGE('',*,*,#471,.F.);
#636=ORIENTED_EDGE('',*,*,#462,.T.);
#637=ORIENTED_EDGE('',*,*,#455,.T.);
#638=ORIENTED_EDGE('',*,*,#472,.F.);
#639=ORIENTED_EDGE('',*,*,#473,.F.);
#640=ORIENTED_EDGE('',*,*,#470,.T.);
#641=ORIENTED_EDGE('',*,*,#474,.F.);
#642=ORIENTED_EDGE('',*,*,#475,.F.);
#643=ORIENTED_EDGE('',*,*,#451,.T.);
#644=ORIENTED_EDGE('',*,*,#463,.T.);
#645=ORIENTED_EDGE('',*,*,#473,.T.);
#646=ORIENTED_EDGE('',*,*,#476,.F.);
#647=ORIENTED_EDGE('',*,*,#477,.F.);
#648=ORIENTED_EDGE('',*,*,#469,.T.);
#649=ORIENTED_EDGE('',*,*,#478,.F.);
#650=ORIENTED_EDGE('',*,*,#479,.F.);
#651=ORIENTED_EDGE('',*,*,#474,.T.);
#652=ORIENTED_EDGE('',*,*,#464,.T.);
#653=ORIENTED_EDGE('',*,*,#477,.T.);
#654=ORIENTED_EDGE('',*,*,#480,.F.);
#655=ORIENTED_EDGE('',*,*,#481,.F.);
#656=ORIENTED_EDGE('',*,*,#468,.T.);
#657=ORIENTED_EDGE('',*,*,#482,.F.);
#658=ORIENTED_EDGE('',*,*,#483,.F.);
#659=ORIENTED_EDGE('',*,*,#478,.T.);
#660=ORIENTED_EDGE('',*,*,#484,.T.);
#661=ORIENTED_EDGE('',*,*,#485,.T.);
#662=ORIENTED_EDGE('',*,*,#486,.T.);
#663=ORIENTED_EDGE('',*,*,#487,.T.);
#664=ORIENTED_EDGE('',*,*,#480,.T.);
#665=ORIENTED_EDGE('',*,*,#476,.T.);
#666=ORIENTED_EDGE('',*,*,#472,.T.);
#667=ORIENTED_EDGE('',*,*,#488,.T.);
#668=ORIENTED_EDGE('',*,*,#489,.F.);
#669=ORIENTED_EDGE('',*,*,#490,.F.);
#670=ORIENTED_EDGE('',*,*,#491,.T.);
#671=ORIENTED_EDGE('',*,*,#485,.F.);
#672=ORIENTED_EDGE('',*,*,#491,.F.);
#673=ORIENTED_EDGE('',*,*,#492,.F.);
#674=ORIENTED_EDGE('',*,*,#493,.T.);
#675=ORIENTED_EDGE('',*,*,#486,.F.);
#676=ORIENTED_EDGE('',*,*,#493,.F.);
#677=ORIENTED_EDGE('',*,*,#494,.F.);
#678=ORIENTED_EDGE('',*,*,#482,.T.);
#679=ORIENTED_EDGE('',*,*,#431,.T.);
#680=ORIENTED_EDGE('',*,*,#481,.T.);
#681=ORIENTED_EDGE('',*,*,#487,.F.);
#682=ORIENTED_EDGE('',*,*,#451,.F.);
#683=ORIENTED_EDGE('',*,*,#495,.F.);
#684=ORIENTED_EDGE('',*,*,#496,.F.);
#685=ORIENTED_EDGE('',*,*,#488,.F.);
#686=ORIENTED_EDGE('',*,*,#455,.F.);
#687=ORIENTED_EDGE('',*,*,#454,.F.);
#688=ORIENTED_EDGE('',*,*,#496,.T.);
#689=ORIENTED_EDGE('',*,*,#497,.F.);
#690=ORIENTED_EDGE('',*,*,#489,.T.);
#691=ORIENTED_EDGE('',*,*,#484,.F.);
#692=ORIENTED_EDGE('',*,*,#497,.T.);
#693=ORIENTED_EDGE('',*,*,#495,.T.);
#694=ORIENTED_EDGE('',*,*,#475,.T.);
#695=ORIENTED_EDGE('',*,*,#479,.T.);
#696=ORIENTED_EDGE('',*,*,#483,.T.);
#697=ORIENTED_EDGE('',*,*,#494,.T.);
#698=ORIENTED_EDGE('',*,*,#492,.T.);
#699=ORIENTED_EDGE('',*,*,#490,.T.);
#700=ORIENTED_EDGE('',*,*,#465,.T.);
#701=ORIENTED_EDGE('',*,*,#498,.T.);
#702=ORIENTED_EDGE('',*,*,#499,.F.);
#703=ORIENTED_EDGE('',*,*,#500,.F.);
#704=ORIENTED_EDGE('',*,*,#467,.T.);
#705=ORIENTED_EDGE('',*,*,#501,.F.);
#706=ORIENTED_EDGE('',*,*,#502,.F.);
#707=ORIENTED_EDGE('',*,*,#503,.T.);
#708=ORIENTED_EDGE('',*,*,#460,.T.);
#709=ORIENTED_EDGE('',*,*,#500,.T.);
#710=ORIENTED_EDGE('',*,*,#504,.F.);
#711=ORIENTED_EDGE('',*,*,#505,.F.);
#712=ORIENTED_EDGE('',*,*,#466,.T.);
#713=ORIENTED_EDGE('',*,*,#506,.F.);
#714=ORIENTED_EDGE('',*,*,#507,.F.);
#715=ORIENTED_EDGE('',*,*,#501,.T.);
#716=ORIENTED_EDGE('',*,*,#461,.T.);
#717=ORIENTED_EDGE('',*,*,#505,.T.);
#718=ORIENTED_EDGE('',*,*,#508,.F.);
#719=ORIENTED_EDGE('',*,*,#446,.F.);
#720=ORIENTED_EDGE('',*,*,#471,.T.);
#721=ORIENTED_EDGE('',*,*,#448,.F.);
#722=ORIENTED_EDGE('',*,*,#509,.F.);
#723=ORIENTED_EDGE('',*,*,#506,.T.);
#724=ORIENTED_EDGE('',*,*,#510,.T.);
#725=ORIENTED_EDGE('',*,*,#511,.T.);
#726=ORIENTED_EDGE('',*,*,#512,.T.);
#727=ORIENTED_EDGE('',*,*,#513,.T.);
#728=ORIENTED_EDGE('',*,*,#508,.T.);
#729=ORIENTED_EDGE('',*,*,#504,.T.);
#730=ORIENTED_EDGE('',*,*,#499,.T.);
#731=ORIENTED_EDGE('',*,*,#514,.T.);
#732=ORIENTED_EDGE('',*,*,#515,.F.);
#733=ORIENTED_EDGE('',*,*,#516,.F.);
#734=ORIENTED_EDGE('',*,*,#517,.T.);
#735=ORIENTED_EDGE('',*,*,#511,.F.);
#736=ORIENTED_EDGE('',*,*,#517,.F.);
#737=ORIENTED_EDGE('',*,*,#518,.F.);
#738=ORIENTED_EDGE('',*,*,#519,.T.);
#739=ORIENTED_EDGE('',*,*,#512,.F.);
#740=ORIENTED_EDGE('',*,*,#519,.F.);
#741=ORIENTED_EDGE('',*,*,#520,.F.);
#742=ORIENTED_EDGE('',*,*,#448,.T.);
#743=ORIENTED_EDGE('',*,*,#447,.T.);
#744=ORIENTED_EDGE('',*,*,#446,.T.);
#745=ORIENTED_EDGE('',*,*,#513,.F.);
#746=ORIENTED_EDGE('',*,*,#503,.F.);
#747=ORIENTED_EDGE('',*,*,#521,.F.);
#748=ORIENTED_EDGE('',*,*,#522,.F.);
#749=ORIENTED_EDGE('',*,*,#514,.F.);
#750=ORIENTED_EDGE('',*,*,#498,.F.);
#751=ORIENTED_EDGE('',*,*,#458,.F.);
#752=ORIENTED_EDGE('',*,*,#522,.T.);
#753=ORIENTED_EDGE('',*,*,#523,.F.);
#754=ORIENTED_EDGE('',*,*,#515,.T.);
#755=ORIENTED_EDGE('',*,*,#510,.F.);
#756=ORIENTED_EDGE('',*,*,#523,.T.);
#757=ORIENTED_EDGE('',*,*,#521,.T.);
#758=ORIENTED_EDGE('',*,*,#502,.T.);
#759=ORIENTED_EDGE('',*,*,#507,.T.);
#760=ORIENTED_EDGE('',*,*,#509,.T.);
#761=ORIENTED_EDGE('',*,*,#520,.T.);
#762=ORIENTED_EDGE('',*,*,#518,.T.);
#763=ORIENTED_EDGE('',*,*,#516,.T.);
#764=PLANE('',#899);
#765=PLANE('',#900);
#766=PLANE('',#901);
#767=PLANE('',#902);
#768=PLANE('',#903);
#769=PLANE('',#904);
#770=PLANE('',#905);
#771=PLANE('',#906);
#772=PLANE('',#910);
#773=PLANE('',#911);
#774=PLANE('',#915);
#775=PLANE('',#916);
#776=PLANE('',#917);
#777=PLANE('',#918);
#778=PLANE('',#919);
#779=PLANE('',#920);
#780=PLANE('',#921);
#781=PLANE('',#922);
#782=PLANE('',#923);
#783=PLANE('',#924);
#784=PLANE('',#925);
#785=PLANE('',#926);
#786=PLANE('',#927);
#787=PLANE('',#928);
#788=PLANE('',#929);
#789=PLANE('',#930);
#790=PLANE('',#931);
#791=PLANE('',#932);
#792=PLANE('',#933);
#793=PLANE('',#934);
#794=PLANE('',#935);
#795=PLANE('',#936);
#796=PLANE('',#937);
#797=PLANE('',#938);
#798=PLANE('',#939);
#799=PLANE('',#940);
#800=PLANE('',#941);
#801=PLANE('',#942);
#802=PLANE('',#943);
#803=PLANE('',#944);
#804=PLANE('',#945);
#805=PLANE('',#946);
#806=PLANE('',#947);
#807=PLANE('',#948);
#808=STYLED_ITEM('',(#1420),#851);
#809=STYLED_ITEM('',(#1420),#852);
#810=STYLED_ITEM('',(#1420),#853);
#811=STYLED_ITEM('',(#1420),#854);
#812=STYLED_ITEM('',(#1420),#855);
#813=STYLED_ITEM('',(#1420),#856);
#814=STYLED_ITEM('',(#1420),#857);
#815=STYLED_ITEM('',(#1420),#859);
#816=STYLED_ITEM('',(#1420),#860);
#817=STYLED_ITEM('',(#1420),#861);
#818=STYLED_ITEM('',(#1420),#862);
#819=STYLED_ITEM('',(#1420),#863);
#820=STYLED_ITEM('',(#1420),#864);
#821=STYLED_ITEM('',(#1420),#865);
#822=STYLED_ITEM('',(#1420),#866);
#823=STYLED_ITEM('',(#1420),#867);
#824=STYLED_ITEM('',(#1421),#871);
#825=STYLED_ITEM('',(#1421),#872);
#826=STYLED_ITEM('',(#1421),#873);
#827=STYLED_ITEM('',(#1421),#874);
#828=STYLED_ITEM('',(#1421),#875);
#829=STYLED_ITEM('',(#1421),#876);
#830=STYLED_ITEM('',(#1421),#877);
#831=STYLED_ITEM('',(#1421),#878);
#832=STYLED_ITEM('',(#1421),#879);
#833=STYLED_ITEM('',(#1421),#880);
#834=STYLED_ITEM('',(#1421),#881);
#835=STYLED_ITEM('',(#1421),#882);
#836=STYLED_ITEM('',(#1421),#883);
#837=STYLED_ITEM('',(#1421),#884);
#838=STYLED_ITEM('',(#1421),#885);
#839=STYLED_ITEM('',(#1421),#886);
#840=STYLED_ITEM('',(#1421),#887);
#841=STYLED_ITEM('',(#1421),#888);
#842=STYLED_ITEM('',(#1421),#889);
#843=STYLED_ITEM('',(#1421),#890);
#844=STYLED_ITEM('',(#1421),#891);
#845=STYLED_ITEM('',(#1421),#892);
#846=STYLED_ITEM('',(#1421),#893);
#847=STYLED_ITEM('',(#1421),#894);
#848=STYLED_ITEM('',(#1421),#895);
#849=STYLED_ITEM('',(#1421),#896);
#850=STYLED_ITEM('',(#1419),#13);
#851=ADVANCED_FACE('',(#20),#764,.T.);
#852=ADVANCED_FACE('',(#21),#765,.T.);
#853=ADVANCED_FACE('',(#22),#766,.T.);
#854=ADVANCED_FACE('',(#23),#767,.T.);
#855=ADVANCED_FACE('',(#24),#768,.T.);
#856=ADVANCED_FACE('',(#25),#769,.T.);
#857=ADVANCED_FACE('',(#26),#770,.T.);
#858=ADVANCED_FACE('',(#27),#771,.T.);
#859=ADVANCED_FACE('',(#28),#18,.T.);
#860=ADVANCED_FACE('',(#29),#772,.T.);
#861=ADVANCED_FACE('',(#30),#773,.T.);
#862=ADVANCED_FACE('',(#31),#19,.T.);
#863=ADVANCED_FACE('',(#32),#774,.T.);
#864=ADVANCED_FACE('',(#33),#775,.T.);
#865=ADVANCED_FACE('',(#34),#776,.T.);
#866=ADVANCED_FACE('',(#35),#777,.T.);
#867=ADVANCED_FACE('',(#36),#778,.T.);
#868=ADVANCED_FACE('',(#37),#779,.T.);
#869=ADVANCED_FACE('',(#38),#780,.T.);
#870=ADVANCED_FACE('',(#39),#781,.T.);
#871=ADVANCED_FACE('',(#40),#782,.T.);
#872=ADVANCED_FACE('',(#41),#783,.T.);
#873=ADVANCED_FACE('',(#42),#784,.T.);
#874=ADVANCED_FACE('',(#43),#785,.T.);
#875=ADVANCED_FACE('',(#44),#786,.T.);
#876=ADVANCED_FACE('',(#45),#787,.T.);
#877=ADVANCED_FACE('',(#46),#788,.T.);
#878=ADVANCED_FACE('',(#47),#789,.T.);
#879=ADVANCED_FACE('',(#48),#790,.T.);
#880=ADVANCED_FACE('',(#49),#791,.T.);
#881=ADVANCED_FACE('',(#50),#792,.T.);
#882=ADVANCED_FACE('',(#51),#793,.T.);
#883=ADVANCED_FACE('',(#52),#794,.T.);
#884=ADVANCED_FACE('',(#53),#795,.T.);
#885=ADVANCED_FACE('',(#54),#796,.T.);
#886=ADVANCED_FACE('',(#55),#797,.T.);
#887=ADVANCED_FACE('',(#56),#798,.T.);
#888=ADVANCED_FACE('',(#57),#799,.T.);
#889=ADVANCED_FACE('',(#58),#800,.T.);
#890=ADVANCED_FACE('',(#59),#801,.T.);
#891=ADVANCED_FACE('',(#60),#802,.T.);
#892=ADVANCED_FACE('',(#61),#803,.T.);
#893=ADVANCED_FACE('',(#62),#804,.T.);
#894=ADVANCED_FACE('',(#63),#805,.T.);
#895=ADVANCED_FACE('',(#64),#806,.T.);
#896=ADVANCED_FACE('',(#65),#807,.T.);
#897=CLOSED_SHELL('',(#851,#852,#853,#854,#855,#856,#857,#858,#859,#860,
#861,#862,#863,#864,#865,#866,#867,#868,#869,#870,#871,#872,#873,#874,#875,
#876,#877,#878,#879,#880,#881,#882,#883,#884,#885,#886,#887,#888,#889,#890,
#891,#892,#893,#894,#895,#896));
#898=AXIS2_PLACEMENT_3D('placement',#1163,#949,#950);
#899=AXIS2_PLACEMENT_3D('',#1164,#951,#952);
#900=AXIS2_PLACEMENT_3D('',#1173,#957,#958);
#901=AXIS2_PLACEMENT_3D('',#1179,#962,#963);
#902=AXIS2_PLACEMENT_3D('',#1185,#967,#968);
#903=AXIS2_PLACEMENT_3D('',#1191,#972,#973);
#904=AXIS2_PLACEMENT_3D('',#1197,#977,#978);
#905=AXIS2_PLACEMENT_3D('',#1206,#983,#984);
#906=AXIS2_PLACEMENT_3D('',#1209,#987,#988);
#907=AXIS2_PLACEMENT_3D('',#1215,#992,#993);
#908=AXIS2_PLACEMENT_3D('',#1218,#994,#995);
#909=AXIS2_PLACEMENT_3D('',#1222,#997,#998);
#910=AXIS2_PLACEMENT_3D('',#1224,#1000,#1001);
#911=AXIS2_PLACEMENT_3D('',#1230,#1005,#1006);
#912=AXIS2_PLACEMENT_3D('',#1237,#1010,#1011);
#913=AXIS2_PLACEMENT_3D('',#1238,#1012,#1013);
#914=AXIS2_PLACEMENT_3D('',#1241,#1015,#1016);
#915=AXIS2_PLACEMENT_3D('',#1242,#1017,#1018);
#916=AXIS2_PLACEMENT_3D('',#1250,#1023,#1024);
#917=AXIS2_PLACEMENT_3D('',#1256,#1028,#1029);
#918=AXIS2_PLACEMENT_3D('',#1261,#1033,#1034);
#919=AXIS2_PLACEMENT_3D('',#1263,#1036,#1037);
#920=AXIS2_PLACEMENT_3D('',#1264,#1038,#1039);
#921=AXIS2_PLACEMENT_3D('',#1270,#1043,#1044);
#922=AXIS2_PLACEMENT_3D('',#1281,#1051,#1052);
#923=AXIS2_PLACEMENT_3D('',#1292,#1059,#1060);
#924=AXIS2_PLACEMENT_3D('',#1296,#1063,#1064);
#925=AXIS2_PLACEMENT_3D('',#1300,#1067,#1068);
#926=AXIS2_PLACEMENT_3D('',#1304,#1071,#1072);
#927=AXIS2_PLACEMENT_3D('',#1308,#1075,#1076);
#928=AXIS2_PLACEMENT_3D('',#1312,#1079,#1080);
#929=AXIS2_PLACEMENT_3D('',#1316,#1083,#1084);
#930=AXIS2_PLACEMENT_3D('',#1326,#1090,#1091);
#931=AXIS2_PLACEMENT_3D('',#1332,#1095,#1096);
#932=AXIS2_PLACEMENT_3D('',#1336,#1099,#1100);
#933=AXIS2_PLACEMENT_3D('',#1338,#1102,#1103);
#934=AXIS2_PLACEMENT_3D('',#1342,#1106,#1107);
#935=AXIS2_PLACEMENT_3D('',#1344,#1109,#1110);
#936=AXIS2_PLACEMENT_3D('',#1345,#1111,#1112);
#937=AXIS2_PLACEMENT_3D('',#1351,#1116,#1117);
#938=AXIS2_PLACEMENT_3D('',#1357,#1121,#1122);
#939=AXIS2_PLACEMENT_3D('',#1361,#1125,#1126);
#940=AXIS2_PLACEMENT_3D('',#1365,#1129,#1130);
#941=AXIS2_PLACEMENT_3D('',#1367,#1132,#1133);
#942=AXIS2_PLACEMENT_3D('',#1369,#1135,#1136);
#943=AXIS2_PLACEMENT_3D('',#1379,#1142,#1143);
#944=AXIS2_PLACEMENT_3D('',#1385,#1147,#1148);
#945=AXIS2_PLACEMENT_3D('',#1389,#1151,#1152);
#946=AXIS2_PLACEMENT_3D('',#1391,#1154,#1155);
#947=AXIS2_PLACEMENT_3D('',#1395,#1158,#1159);
#948=AXIS2_PLACEMENT_3D('',#1397,#1161,#1162);
#949=DIRECTION('axis',(0.,0.,1.));
#950=DIRECTION('refdir',(1.,0.,0.));
#951=DIRECTION('center_axis',(0.,0.,1.));
#952=DIRECTION('ref_axis',(-1.,0.,0.));
#953=DIRECTION('',(1.,0.,0.));
#954=DIRECTION('',(0.,-1.,0.));
#955=DIRECTION('',(-1.,0.,0.));
#956=DIRECTION('',(0.,-1.,0.));
#957=DIRECTION('center_axis',(-1.,0.,0.));
#958=DIRECTION('ref_axis',(0.,0.,-1.));
#959=DIRECTION('',(0.,0.,1.));
#960=DIRECTION('',(0.,0.,-1.));
#961=DIRECTION('',(0.,-1.,0.));
#962=DIRECTION('center_axis',(0.,0.,1.));
#963=DIRECTION('ref_axis',(-1.,0.,0.));
#964=DIRECTION('',(1.,0.,0.));
#965=DIRECTION('',(-1.,0.,0.));
#966=DIRECTION('',(0.,-1.,0.));
#967=DIRECTION('center_axis',(1.,0.,0.));
#968=DIRECTION('ref_axis',(0.,0.,1.));
#969=DIRECTION('',(0.,0.,-1.));
#970=DIRECTION('',(0.,0.,1.));
#971=DIRECTION('',(0.,-1.,0.));
#972=DIRECTION('center_axis',(0.,0.,1.));
#973=DIRECTION('ref_axis',(-1.,0.,0.));
#974=DIRECTION('',(1.,0.,0.));
#975=DIRECTION('',(-1.,0.,0.));
#976=DIRECTION('',(0.,-1.,0.));
#977=DIRECTION('center_axis',(0.,0.,-1.));
#978=DIRECTION('ref_axis',(1.,0.,0.));
#979=DIRECTION('',(-1.,0.,0.));
#980=DIRECTION('',(0.,-1.,0.));
#981=DIRECTION('',(1.,0.,0.));
#982=DIRECTION('',(0.,-1.,0.));
#983=DIRECTION('center_axis',(0.,-1.,0.));
#984=DIRECTION('ref_axis',(0.,0.,-1.));
#985=DIRECTION('',(-5.55111512312578E-16,0.,1.));
#986=DIRECTION('',(6.52089379244746E-17,0.,-1.));
#987=DIRECTION('center_axis',(0.,-1.,0.));
#988=DIRECTION('ref_axis',(0.,0.,-1.));
#989=DIRECTION('',(0.,0.,1.));
#990=DIRECTION('',(-1.,0.,0.));
#991=DIRECTION('',(0.,0.,-1.));
#992=DIRECTION('center_axis',(-1.,0.,0.));
#993=DIRECTION('ref_axis',(0.,0.802954463818478,-0.596040375338769));
#994=DIRECTION('center_axis',(1.,0.,0.));
#995=DIRECTION('ref_axis',(0.,0.802954463818478,-0.596040375338769));
#996=DIRECTION('',(1.,0.,0.));
#997=DIRECTION('center_axis',(-1.,0.,0.));
#998=DIRECTION('ref_axis',(0.,0.802954463818478,-0.596040375338769));
#999=DIRECTION('',(-1.,0.,0.));
#1000=DIRECTION('center_axis',(0.,1.,0.));
#1001=DIRECTION('ref_axis',(0.,0.,1.));
#1002=DIRECTION('',(0.,0.,-1.));
#1003=DIRECTION('',(-1.,0.,0.));
#1004=DIRECTION('',(0.,0.,1.));
#1005=DIRECTION('center_axis',(-1.,0.,0.));
#1006=DIRECTION('ref_axis',(0.,0.,1.));
#1007=DIRECTION('',(0.,-0.957186559988611,-0.28947174193204));
#1008=DIRECTION('',(0.,0.,1.));
#1009=DIRECTION('',(0.,0.957186559988611,-0.289471741932039));
#1010=DIRECTION('center_axis',(1.,0.,0.));
#1011=DIRECTION('ref_axis',(0.,0.802954463818478,0.596040375338769));
#1012=DIRECTION('center_axis',(-1.,0.,0.));
#1013=DIRECTION('ref_axis',(0.,0.802954463818478,0.596040375338769));
#1014=DIRECTION('',(1.,0.,0.));
#1015=DIRECTION('center_axis',(-1.,0.,0.));
#1016=DIRECTION('ref_axis',(0.,0.802954463818478,0.596040375338769));
#1017=DIRECTION('center_axis',(0.,0.289471741932039,0.957186559988611));
#1018=DIRECTION('ref_axis',(0.,-0.957186559988611,0.289471741932039));
#1019=DIRECTION('',(-1.,0.,0.));
#1020=DIRECTION('',(-1.,0.,0.));
#1021=DIRECTION('',(-1.,0.,0.));
#1022=DIRECTION('',(0.,-0.957186559988611,0.289471741932039));
#1023=DIRECTION('center_axis',(0.,-1.,0.));
#1024=DIRECTION('ref_axis',(0.,0.,-1.));
#1025=DIRECTION('',(0.,0.,1.));
#1026=DIRECTION('',(-1.,0.,0.));
#1027=DIRECTION('',(0.,0.,-1.));
#1028=DIRECTION('center_axis',(0.,0.28947174193204,-0.957186559988611));
#1029=DIRECTION('ref_axis',(0.,0.957186559988611,0.28947174193204));
#1030=DIRECTION('',(0.,0.957186559988611,0.28947174193204));
#1031=DIRECTION('',(-1.,0.,0.));
#1032=DIRECTION('',(-1.,0.,0.));
#1033=DIRECTION('center_axis',(0.,-1.,0.));
#1034=DIRECTION('ref_axis',(0.,0.,-1.));
#1035=DIRECTION('',(0.,0.,-1.));
#1036=DIRECTION('center_axis',(1.,0.,0.));
#1037=DIRECTION('ref_axis',(0.,0.,-1.));
#1038=DIRECTION('center_axis',(0.,-1.,0.));
#1039=DIRECTION('ref_axis',(0.,0.,-1.));
#1040=DIRECTION('',(0.,0.,-1.));
#1041=DIRECTION('',(-1.,0.,0.));
#1042=DIRECTION('',(0.,0.,1.));
#1043=DIRECTION('center_axis',(-1.,0.,0.));
#1044=DIRECTION('ref_axis',(0.,0.,1.));
#1045=DIRECTION('',(0.,-1.,0.));
#1046=DIRECTION('',(0.,-8.38030664723094E-17,1.));
#1047=DIRECTION('',(0.,-1.67606132944619E-16,1.));
#1048=DIRECTION('',(0.,1.,0.));
#1049=DIRECTION('',(0.,1.53787542196526E-17,-1.));
#1050=DIRECTION('',(0.,1.53787542196525E-17,-1.));
#1051=DIRECTION('center_axis',(1.,0.,0.));
#1052=DIRECTION('ref_axis',(0.,0.,-1.));
#1053=DIRECTION('',(0.,1.,0.));
#1054=DIRECTION('',(0.,-1.53787542196525E-17,1.));
#1055=DIRECTION('',(0.,-1.53787542196526E-17,1.));
#1056=DIRECTION('',(0.,-1.,0.));
#1057=DIRECTION('',(0.,1.67606132944619E-16,-1.));
#1058=DIRECTION('',(0.,8.38030664723094E-17,-1.));
#1059=DIRECTION('center_axis',(0.,-1.,-1.67606132944619E-16));
#1060=DIRECTION('ref_axis',(0.,1.67921232474555E-16,-1.));
#1061=DIRECTION('',(0.,-1.67606132944619E-16,1.));
#1062=DIRECTION('',(-1.,0.,0.));
#1063=DIRECTION('center_axis',(0.,-1.,-1.67606132944619E-16));
#1064=DIRECTION('ref_axis',(0.,1.67921232474555E-16,-1.));
#1065=DIRECTION('',(-1.,0.,0.));
#1066=DIRECTION('',(0.,1.67606132944619E-16,-1.));
#1067=DIRECTION('center_axis',(0.,0.,1.));
#1068=DIRECTION('ref_axis',(0.,-1.,0.));
#1069=DIRECTION('',(0.,1.,0.));
#1070=DIRECTION('',(-1.,0.,0.));
#1071=DIRECTION('center_axis',(0.,0.,1.));
#1072=DIRECTION('ref_axis',(0.,-1.,0.));
#1073=DIRECTION('',(-1.,0.,0.));
#1074=DIRECTION('',(0.,-1.,0.));
#1075=DIRECTION('center_axis',(0.,1.,1.53787542196526E-17));
#1076=DIRECTION('ref_axis',(0.,-1.52655665885959E-17,1.));
#1077=DIRECTION('',(0.,1.53787542196526E-17,-1.));
#1078=DIRECTION('',(-1.,0.,0.));
#1079=DIRECTION('center_axis',(0.,1.,1.53787542196526E-17));
#1080=DIRECTION('ref_axis',(0.,-1.52655665885959E-17,1.));
#1081=DIRECTION('',(-1.,0.,0.));
#1082=DIRECTION('',(0.,-1.53787542196526E-17,1.));
#1083=DIRECTION('center_axis',(-1.,0.,0.));
#1084=DIRECTION('ref_axis',(0.,0.,1.));
#1085=DIRECTION('',(0.,0.,-1.));
#1086=DIRECTION('',(0.,-1.,0.));
#1087=DIRECTION('',(0.,0.,1.));
#1088=DIRECTION('',(0.,1.,0.));
#1089=DIRECTION('',(0.,1.,0.));
#1090=DIRECTION('center_axis',(0.,0.,-1.));
#1091=DIRECTION('ref_axis',(0.,1.,0.));
#1092=DIRECTION('',(-1.,0.,0.));
#1093=DIRECTION('',(0.,1.,0.));
#1094=DIRECTION('',(-1.,0.,0.));
#1095=DIRECTION('center_axis',(0.,-1.,0.));
#1096=DIRECTION('ref_axis',(0.,0.,-1.));
#1097=DIRECTION('',(0.,0.,-1.));
#1098=DIRECTION('',(-1.,0.,0.));
#1099=DIRECTION('center_axis',(0.,0.,1.));
#1100=DIRECTION('ref_axis',(0.,-1.,0.));
#1101=DIRECTION('',(0.,-1.,0.));
#1102=DIRECTION('center_axis',(0.,0.,1.));
#1103=DIRECTION('ref_axis',(0.,-1.,0.));
#1104=DIRECTION('',(0.,-1.,0.));
#1105=DIRECTION('',(1.,0.,0.));
#1106=DIRECTION('center_axis',(0.,1.,0.));
#1107=DIRECTION('ref_axis',(0.,0.,1.));
#1108=DIRECTION('',(0.,0.,1.));
#1109=DIRECTION('center_axis',(1.,0.,0.));
#1110=DIRECTION('ref_axis',(0.,0.,-1.));
#1111=DIRECTION('center_axis',(0.,1.,1.53787542196525E-17));
#1112=DIRECTION('ref_axis',(0.,-1.52655665885959E-17,1.));
#1113=DIRECTION('',(-1.,0.,0.));
#1114=DIRECTION('',(0.,1.53787542196525E-17,-1.));
#1115=DIRECTION('',(-1.,0.,0.));
#1116=DIRECTION('center_axis',(0.,1.,1.53787542196525E-17));
#1117=DIRECTION('ref_axis',(0.,-1.52655665885959E-17,1.));
#1118=DIRECTION('',(-1.,0.,0.));
#1119=DIRECTION('',(0.,-1.53787542196525E-17,1.));
#1120=DIRECTION('',(-1.,0.,0.));
#1121=DIRECTION('center_axis',(0.,0.,-1.));
#1122=DIRECTION('ref_axis',(0.,1.,0.));
#1123=DIRECTION('',(0.,-1.,0.));
#1124=DIRECTION('',(-1.,0.,0.));
#1125=DIRECTION('center_axis',(0.,0.,-1.));
#1126=DIRECTION('ref_axis',(0.,1.,0.));
#1127=DIRECTION('',(-1.,0.,0.));
#1128=DIRECTION('',(0.,1.,0.));
#1129=DIRECTION('center_axis',(0.,-1.,-8.38030664723094E-17));
#1130=DIRECTION('ref_axis',(0.,8.32667268468867E-17,-1.));
#1131=DIRECTION('',(0.,-8.38030664723094E-17,1.));
#1132=DIRECTION('center_axis',(0.,-1.,-8.38030664723094E-17));
#1133=DIRECTION('ref_axis',(0.,8.32667268468867E-17,-1.));
#1134=DIRECTION('',(0.,8.38030664723094E-17,-1.));
#1135=DIRECTION('center_axis',(-1.,0.,0.));
#1136=DIRECTION('ref_axis',(0.,0.,1.));
#1137=DIRECTION('',(0.,0.,1.));
#1138=DIRECTION('',(0.,1.,0.));
#1139=DIRECTION('',(0.,0.,-1.));
#1140=DIRECTION('',(0.,-1.,0.));
#1141=DIRECTION('',(0.,-1.,0.));
#1142=DIRECTION('center_axis',(0.,0.,1.));
#1143=DIRECTION('ref_axis',(0.,-1.,0.));
#1144=DIRECTION('',(-1.,0.,0.));
#1145=DIRECTION('',(0.,-1.,0.));
#1146=DIRECTION('',(-1.,0.,0.));
#1147=DIRECTION('center_axis',(0.,1.,0.));
#1148=DIRECTION('ref_axis',(0.,0.,1.));
#1149=DIRECTION('',(0.,0.,1.));
#1150=DIRECTION('',(-1.,0.,0.));
#1151=DIRECTION('center_axis',(0.,0.,-1.));
#1152=DIRECTION('ref_axis',(0.,1.,0.));
#1153=DIRECTION('',(0.,1.,0.));
#1154=DIRECTION('center_axis',(0.,0.,-1.));
#1155=DIRECTION('ref_axis',(0.,1.,0.));
#1156=DIRECTION('',(0.,1.,0.));
#1157=DIRECTION('',(1.,0.,0.));
#1158=DIRECTION('center_axis',(0.,-1.,0.));
#1159=DIRECTION('ref_axis',(0.,0.,-1.));
#1160=DIRECTION('',(0.,0.,-1.));
#1161=DIRECTION('center_axis',(1.,0.,0.));
#1162=DIRECTION('ref_axis',(0.,0.,-1.));
#1163=CARTESIAN_POINT('',(0.,0.,0.));
#1164=CARTESIAN_POINT('Origin',(-0.125,0.018,-0.0500000000000004));
#1165=CARTESIAN_POINT('',(-0.3995,0.018,-0.0500000000000004));
#1166=CARTESIAN_POINT('',(-0.125,0.018,-0.0500000000000004));
#1167=CARTESIAN_POINT('',(-0.0625,0.018,-0.0500000000000003));
#1168=CARTESIAN_POINT('',(-0.3995,0.00799999999999999,-0.0500000000000004));
#1169=CARTESIAN_POINT('',(-0.3995,0.018,-0.0500000000000004));
#1170=CARTESIAN_POINT('',(-0.125,0.00799999999999999,-0.0500000000000004));
#1171=CARTESIAN_POINT('',(-0.3995,0.00799999999999999,-0.0500000000000004));
#1172=CARTESIAN_POINT('',(-0.125,0.018,-0.0500000000000004));
#1173=CARTESIAN_POINT('Origin',(-0.125,0.018,0.2));
#1174=CARTESIAN_POINT('',(-0.125,0.018,0.2));
#1175=CARTESIAN_POINT('',(-0.125,0.018,0.491));
#1176=CARTESIAN_POINT('',(-0.125,0.00799999999999999,0.2));
#1177=CARTESIAN_POINT('',(-0.125,0.00799999999999999,-0.0500000000000004));
#1178=CARTESIAN_POINT('',(-0.125,0.018,0.2));
#1179=CARTESIAN_POINT('Origin',(0.125,0.018,0.2));
#1180=CARTESIAN_POINT('',(0.125,0.018,0.2));
#1181=CARTESIAN_POINT('',(0.0625,0.018,0.2));
#1182=CARTESIAN_POINT('',(0.125,0.00799999999999999,0.2));
#1183=CARTESIAN_POINT('',(-0.125,0.00799999999999999,0.2));
#1184=CARTESIAN_POINT('',(0.125,0.018,0.2));
#1185=CARTESIAN_POINT('Origin',(0.125,0.018,-0.0500000000000004));
#1186=CARTESIAN_POINT('',(0.125,0.018,-0.0500000000000004));
#1187=CARTESIAN_POINT('',(0.125,0.018,0.366));
#1188=CARTESIAN_POINT('',(0.125,0.00799999999999999,-0.0500000000000004));
#1189=CARTESIAN_POINT('',(0.125,0.00799999999999999,0.2));
#1190=CARTESIAN_POINT('',(0.125,0.018,-0.0500000000000004));
#1191=CARTESIAN_POINT('Origin',(0.3995,0.018,-0.0500000000000004));
#1192=CARTESIAN_POINT('',(0.3995,0.018,-0.0500000000000004));
#1193=CARTESIAN_POINT('',(0.19975,0.018,-0.0500000000000003));
#1194=CARTESIAN_POINT('',(0.3995,0.00799999999999999,-0.0500000000000004));
#1195=CARTESIAN_POINT('',(0.125,0.00799999999999999,-0.0500000000000004));
#1196=CARTESIAN_POINT('',(0.3995,0.018,-0.0500000000000004));
#1197=CARTESIAN_POINT('Origin',(-0.3995,0.018,-0.3));
#1198=CARTESIAN_POINT('',(0.3995,0.018,-0.3));
#1199=CARTESIAN_POINT('',(-0.3995,0.018,-0.3));
#1200=CARTESIAN_POINT('',(-0.19975,0.018,-0.3));
#1201=CARTESIAN_POINT('',(0.3995,0.00799999999999999,-0.3));
#1202=CARTESIAN_POINT('',(0.3995,0.018,-0.3));
#1203=CARTESIAN_POINT('',(-0.3995,0.00799999999999999,-0.3));
#1204=CARTESIAN_POINT('',(0.3995,0.00799999999999999,-0.3));
#1205=CARTESIAN_POINT('',(-0.3995,0.018,-0.3));
#1206=CARTESIAN_POINT('Origin',(0.,0.00799999999999999,-0.10282909930716));
#1207=CARTESIAN_POINT('',(0.3995,0.00799999999999999,-0.0500000000000004));
#1208=CARTESIAN_POINT('',(-0.3995,0.00799999999999999,-0.3));
#1209=CARTESIAN_POINT('Origin',(0.,0.018,0.782));
#1210=CARTESIAN_POINT('',(-0.3995,0.018,-0.5));
#1211=CARTESIAN_POINT('',(-0.3995,0.018,0.782));
#1212=CARTESIAN_POINT('',(0.3995,0.018,-0.5));
#1213=CARTESIAN_POINT('',(0.,0.018,-0.5));
#1214=CARTESIAN_POINT('',(0.3995,0.018,0.782));
#1215=CARTESIAN_POINT('Origin',(0.,0.3,-0.462884546870549));
#1216=CARTESIAN_POINT('',(-0.4,0.314473587096602,-0.510743874869979));
#1217=CARTESIAN_POINT('',(-0.4,0.35,-0.462884546870549));
#1218=CARTESIAN_POINT('Origin',(-0.4,0.3,-0.462884546870549));
#1219=CARTESIAN_POINT('',(0.4,0.35,-0.462884546870549));
#1220=CARTESIAN_POINT('',(0.,0.35,-0.462884546870549));
#1221=CARTESIAN_POINT('',(0.4,0.314473587096602,-0.510743874869979));
#1222=CARTESIAN_POINT('Origin',(0.4,0.3,-0.462884546870549));
#1223=CARTESIAN_POINT('',(0.,0.314473587096602,-0.510743874869979));
#1224=CARTESIAN_POINT('Origin',(0.,0.35,-0.5));
#1225=CARTESIAN_POINT('',(-0.4,0.35,0.462884546870549));
#1226=CARTESIAN_POINT('',(-0.4,0.35,0.5));
#1227=CARTESIAN_POINT('',(0.4,0.35,0.462884546870549));
#1228=CARTESIAN_POINT('',(0.,0.35,0.462884546870549));
#1229=CARTESIAN_POINT('',(0.4,0.35,0.5));
#1230=CARTESIAN_POINT('Origin',(-0.4,0.219028969901548,-6.93889390390723E-17));
#1231=CARTESIAN_POINT('',(-0.4,0.102,-0.575));
#1232=CARTESIAN_POINT('',(-0.4,0.35,-0.5));
#1233=CARTESIAN_POINT('',(-0.4,0.102,0.575));
#1234=CARTESIAN_POINT('',(-0.4,0.102,-0.575));
#1235=CARTESIAN_POINT('',(-0.4,0.314473587096602,0.510743874869979));
#1236=CARTESIAN_POINT('',(-0.4,0.102,0.575));
#1237=CARTESIAN_POINT('Origin',(-0.4,0.3,0.462884546870549));
#1238=CARTESIAN_POINT('Origin',(0.,0.3,0.462884546870549));
#1239=CARTESIAN_POINT('',(0.4,0.314473587096602,0.510743874869979));
#1240=CARTESIAN_POINT('',(0.,0.314473587096602,0.510743874869979));
#1241=CARTESIAN_POINT('Origin',(0.4,0.3,0.462884546870549));
#1242=CARTESIAN_POINT('Origin',(0.,0.35,0.5));
#1243=CARTESIAN_POINT('',(-0.3995,0.102,0.575));
#1244=CARTESIAN_POINT('',(0.,0.102,0.575));
#1245=CARTESIAN_POINT('',(0.3995,0.102,0.575));
#1246=CARTESIAN_POINT('',(0.,0.102,0.575));
#1247=CARTESIAN_POINT('',(0.4,0.102,0.575));
#1248=CARTESIAN_POINT('',(0.,0.102,0.575));
#1249=CARTESIAN_POINT('',(0.4,0.102,0.575));
#1250=CARTESIAN_POINT('Origin',(0.,0.102,0.575));
#1251=CARTESIAN_POINT('',(0.3995,0.102,-0.575));
#1252=CARTESIAN_POINT('',(0.3995,0.102,-0.782));
#1253=CARTESIAN_POINT('',(0.4,0.102,-0.575));
#1254=CARTESIAN_POINT('',(0.,0.102,-0.575));
#1255=CARTESIAN_POINT('',(0.4,0.102,-0.575));
#1256=CARTESIAN_POINT('Origin',(0.,0.102,-0.575));
#1257=CARTESIAN_POINT('',(0.4,0.35,-0.5));
#1258=CARTESIAN_POINT('',(-0.3995,0.102,-0.575));
#1259=CARTESIAN_POINT('',(0.,0.102,-0.575));
#1260=CARTESIAN_POINT('',(0.,0.102,-0.575));
#1261=CARTESIAN_POINT('Origin',(0.,0.102,0.575));
#1262=CARTESIAN_POINT('',(-0.3995,0.102,-0.782));
#1263=CARTESIAN_POINT('Origin',(0.4,0.219028969901548,-6.93889390390723E-17));
#1264=CARTESIAN_POINT('Origin',(0.,0.018,0.782));
#1265=CARTESIAN_POINT('',(0.3995,0.018,0.5));
#1266=CARTESIAN_POINT('',(0.3995,0.018,0.782));
#1267=CARTESIAN_POINT('',(-0.3995,0.018,0.5));
#1268=CARTESIAN_POINT('',(0.,0.018,0.5));
#1269=CARTESIAN_POINT('',(-0.3995,0.018,0.782));
#1270=CARTESIAN_POINT('Origin',(-0.3995,0.06,0.));
#1271=CARTESIAN_POINT('',(-0.3995,0.102,0.782));
#1272=CARTESIAN_POINT('',(-0.3995,0.018,0.782));
#1273=CARTESIAN_POINT('',(-0.3995,0.039,0.782));
#1274=CARTESIAN_POINT('',(-0.3995,0.102,0.391));
#1275=CARTESIAN_POINT('',(-0.3995,0.102,-0.782));
#1276=CARTESIAN_POINT('',(-0.3995,0.102,-0.2875));
#1277=CARTESIAN_POINT('',(-0.3995,0.018,-0.782));
#1278=CARTESIAN_POINT('',(-0.3995,0.081,-0.782));
#1279=CARTESIAN_POINT('',(-0.3995,0.018,-0.391));
#1280=CARTESIAN_POINT('',(-0.3995,0.018,0.25));
#1281=CARTESIAN_POINT('Origin',(0.3995,0.06,0.));
#1282=CARTESIAN_POINT('',(0.3995,0.018,0.782));
#1283=CARTESIAN_POINT('',(0.3995,0.102,0.782));
#1284=CARTESIAN_POINT('',(0.3995,0.039,0.782));
#1285=CARTESIAN_POINT('',(0.3995,0.018,0.25));
#1286=CARTESIAN_POINT('',(0.3995,0.018,-0.782));
#1287=CARTESIAN_POINT('',(0.3995,0.018,-0.391));
#1288=CARTESIAN_POINT('',(0.3995,0.102,-0.782));
#1289=CARTESIAN_POINT('',(0.3995,0.081,-0.782));
#1290=CARTESIAN_POINT('',(0.3995,0.102,-0.2875));
#1291=CARTESIAN_POINT('',(0.3995,0.102,0.391));
#1292=CARTESIAN_POINT('Origin',(0.,0.102,-0.575));
#1293=CARTESIAN_POINT('',(-0.4,0.102,-0.782));
#1294=CARTESIAN_POINT('',(-0.4,0.102,-0.782));
#1295=CARTESIAN_POINT('',(0.,0.102,-0.782));
#1296=CARTESIAN_POINT('Origin',(0.,0.102,-0.575));
#1297=CARTESIAN_POINT('',(0.4,0.102,-0.782));
#1298=CARTESIAN_POINT('',(0.,0.102,-0.782));
#1299=CARTESIAN_POINT('',(0.4,0.102,-0.782));
#1300=CARTESIAN_POINT('Origin',(0.,0.102,-0.782));
#1301=CARTESIAN_POINT('',(-0.4,0.018,-0.782));
#1302=CARTESIAN_POINT('',(-0.4,0.018,-0.782));
#1303=CARTESIAN_POINT('',(0.,0.018,-0.782));
#1304=CARTESIAN_POINT('Origin',(0.,0.102,-0.782));
#1305=CARTESIAN_POINT('',(0.4,0.018,-0.782));
#1306=CARTESIAN_POINT('',(0.,0.018,-0.782));
#1307=CARTESIAN_POINT('',(0.4,0.018,-0.782));
#1308=CARTESIAN_POINT('Origin',(0.,0.018,-0.782));
#1309=CARTESIAN_POINT('',(-0.4,0.018,-0.5));
#1310=CARTESIAN_POINT('',(-0.4,0.018,-0.5));
#1311=CARTESIAN_POINT('',(0.,0.018,-0.5));
#1312=CARTESIAN_POINT('Origin',(0.,0.018,-0.782));
#1313=CARTESIAN_POINT('',(0.4,0.018,-0.5));
#1314=CARTESIAN_POINT('',(0.,0.018,-0.5));
#1315=CARTESIAN_POINT('',(0.4,0.018,-0.5));
#1316=CARTESIAN_POINT('Origin',(-0.4,0.0538995215311005,-0.679375598086125));
#1317=CARTESIAN_POINT('',(-0.4,0.12,-0.575));
#1318=CARTESIAN_POINT('',(-0.4,0.12,-0.8));
#1319=CARTESIAN_POINT('',(-0.4,0.12,-0.575));
#1320=CARTESIAN_POINT('',(-0.4,0.,-0.8));
#1321=CARTESIAN_POINT('',(-0.4,0.12,-0.8));
#1322=CARTESIAN_POINT('',(-0.4,0.,-0.5));
#1323=CARTESIAN_POINT('',(-0.4,0.,-0.8));
#1324=CARTESIAN_POINT('',(-0.4,0.,-0.5));
#1325=CARTESIAN_POINT('',(-0.4,0.102,-0.575));
#1326=CARTESIAN_POINT('Origin',(0.,0.,-0.8));
#1327=CARTESIAN_POINT('',(0.4,0.12,-0.8));
#1328=CARTESIAN_POINT('',(0.,0.12,-0.8));
#1329=CARTESIAN_POINT('',(0.4,0.,-0.8));
#1330=CARTESIAN_POINT('',(0.4,0.12,-0.8));
#1331=CARTESIAN_POINT('',(0.,0.,-0.8));
#1332=CARTESIAN_POINT('Origin',(0.,0.,-0.5));
#1333=CARTESIAN_POINT('',(0.4,0.,-0.5));
#1334=CARTESIAN_POINT('',(0.4,0.,-0.8));
#1335=CARTESIAN_POINT('',(0.,0.,-0.5));
#1336=CARTESIAN_POINT('Origin',(0.,0.018,-0.5));
#1337=CARTESIAN_POINT('',(0.4,0.,-0.5));
#1338=CARTESIAN_POINT('Origin',(0.,0.12,-0.575));
#1339=CARTESIAN_POINT('',(0.4,0.12,-0.575));
#1340=CARTESIAN_POINT('',(0.4,0.102,-0.575));
#1341=CARTESIAN_POINT('',(0.,0.12,-0.575));
#1342=CARTESIAN_POINT('Origin',(0.,0.12,-0.8));
#1343=CARTESIAN_POINT('',(0.4,0.12,-0.575));
#1344=CARTESIAN_POINT('Origin',(0.4,0.0538995215311005,-0.679375598086125));
#1345=CARTESIAN_POINT('Origin',(0.,0.018,0.5));
#1346=CARTESIAN_POINT('',(-0.4,0.018,0.5));
#1347=CARTESIAN_POINT('',(0.,0.018,0.5));
#1348=CARTESIAN_POINT('',(-0.4,0.018,0.782));
#1349=CARTESIAN_POINT('',(-0.4,0.018,0.782));
#1350=CARTESIAN_POINT('',(0.,0.018,0.782));
#1351=CARTESIAN_POINT('Origin',(0.,0.018,0.5));
#1352=CARTESIAN_POINT('',(0.4,0.018,0.782));
#1353=CARTESIAN_POINT('',(0.,0.018,0.782));
#1354=CARTESIAN_POINT('',(0.4,0.018,0.5));
#1355=CARTESIAN_POINT('',(0.4,0.018,0.782));
#1356=CARTESIAN_POINT('',(0.,0.018,0.5));
#1357=CARTESIAN_POINT('Origin',(0.,0.018,0.782));
#1358=CARTESIAN_POINT('',(-0.4,0.102,0.782));
#1359=CARTESIAN_POINT('',(-0.4,0.102,0.782));
#1360=CARTESIAN_POINT('',(0.,0.102,0.782));
#1361=CARTESIAN_POINT('Origin',(0.,0.018,0.782));
#1362=CARTESIAN_POINT('',(0.4,0.102,0.782));
#1363=CARTESIAN_POINT('',(0.,0.102,0.782));
#1364=CARTESIAN_POINT('',(0.4,0.102,0.782));
#1365=CARTESIAN_POINT('Origin',(0.,0.102,0.782));
#1366=CARTESIAN_POINT('',(-0.4,0.102,0.575));
#1367=CARTESIAN_POINT('Origin',(0.,0.102,0.782));
#1368=CARTESIAN_POINT('',(0.4,0.102,0.575));
#1369=CARTESIAN_POINT('Origin',(-0.4,0.0538995215311005,0.679375598086125));
#1370=CARTESIAN_POINT('',(-0.4,0.,0.5));
#1371=CARTESIAN_POINT('',(-0.4,0.,0.8));
#1372=CARTESIAN_POINT('',(-0.4,0.,0.5));
#1373=CARTESIAN_POINT('',(-0.4,0.12,0.8));
#1374=CARTESIAN_POINT('',(-0.4,0.,0.8));
#1375=CARTESIAN_POINT('',(-0.4,0.12,0.575));
#1376=CARTESIAN_POINT('',(-0.4,0.12,0.8));
#1377=CARTESIAN_POINT('',(-0.4,0.12,0.575));
#1378=CARTESIAN_POINT('',(-0.4,0.018,0.5));
#1379=CARTESIAN_POINT('Origin',(0.,0.12,0.8));
#1380=CARTESIAN_POINT('',(0.4,0.,0.8));
#1381=CARTESIAN_POINT('',(0.,0.,0.8));
#1382=CARTESIAN_POINT('',(0.4,0.12,0.8));
#1383=CARTESIAN_POINT('',(0.4,0.,0.8));
#1384=CARTESIAN_POINT('',(0.,0.12,0.8));
#1385=CARTESIAN_POINT('Origin',(0.,0.12,0.575));
#1386=CARTESIAN_POINT('',(0.4,0.12,0.575));
#1387=CARTESIAN_POINT('',(0.4,0.12,0.8));
#1388=CARTESIAN_POINT('',(0.,0.12,0.575));
#1389=CARTESIAN_POINT('Origin',(0.,0.102,0.575));
#1390=CARTESIAN_POINT('',(0.4,0.12,0.575));
#1391=CARTESIAN_POINT('Origin',(0.,0.,0.5));
#1392=CARTESIAN_POINT('',(0.4,0.,0.5));
#1393=CARTESIAN_POINT('',(0.4,0.018,0.5));
#1394=CARTESIAN_POINT('',(0.,0.,0.5));
#1395=CARTESIAN_POINT('Origin',(0.,0.,0.8));
#1396=CARTESIAN_POINT('',(0.4,0.,0.5));
#1397=CARTESIAN_POINT('Origin',(0.4,0.0538995215311005,0.679375598086125));
#1398=UNCERTAINTY_MEASURE_WITH_UNIT(LENGTH_MEASURE(0.01),#1402,
'DISTANCE_ACCURACY_VALUE',
'Maximum model space distance between geometric entities at asserted c
onnectivities');
#1399=UNCERTAINTY_MEASURE_WITH_UNIT(LENGTH_MEASURE(1.E-6),#1402,
'DISTANCE_ACCURACY_VALUE',
'Maximum model space distance between geometric entities at asserted c
onnectivities');
#1400=(
GEOMETRIC_REPRESENTATION_CONTEXT(3)
GLOBAL_UNCERTAINTY_ASSIGNED_CONTEXT((#1398))
GLOBAL_UNIT_ASSIGNED_CONTEXT((#1402,#1405,#1403))
REPRESENTATION_CONTEXT('','3D')
);
#1401=(
GEOMETRIC_REPRESENTATION_CONTEXT(3)
GLOBAL_UNCERTAINTY_ASSIGNED_CONTEXT((#1399))
GLOBAL_UNIT_ASSIGNED_CONTEXT((#1402,#1405,#1403))
REPRESENTATION_CONTEXT('','3D')
);
#1402=(
LENGTH_UNIT()
NAMED_UNIT(*)
SI_UNIT(.MILLI.,.METRE.)
);
#1403=(
NAMED_UNIT(*)
SI_UNIT($,.STERADIAN.)
SOLID_ANGLE_UNIT()
);
#1404=DIMENSIONAL_EXPONENTS(0.,0.,0.,0.,0.,0.,0.);
#1405=(
CONVERSION_BASED_UNIT('degree',#1407)
NAMED_UNIT(#1404)
PLANE_ANGLE_UNIT()
);
#1406=(
NAMED_UNIT(*)
PLANE_ANGLE_UNIT()
SI_UNIT($,.RADIAN.)
);
#1407=PLANE_ANGLE_MEASURE_WITH_UNIT(PLANE_ANGLE_MEASURE(0.01745329252),
#1406);
#1408=SHAPE_DEFINITION_REPRESENTATION(#1409,#1410);
#1409=PRODUCT_DEFINITION_SHAPE('',$,#1412);
#1410=SHAPE_REPRESENTATION('',(#898),#1400);
#1411=PRODUCT_DEFINITION_CONTEXT('part definition',#1416,'design');
#1412=PRODUCT_DEFINITION('LITE-ON LTST-C194TGKT',
'LITE-ON LTST-C194TGKT',#1413,#1411);
#1413=PRODUCT_DEFINITION_FORMATION('',$,#1418);
#1414=PRODUCT_RELATED_PRODUCT_CATEGORY('LITE-ON LTST-C194TGKT',
'LITE-ON LTST-C194TGKT',(#1418));
#1415=APPLICATION_PROTOCOL_DEFINITION('international standard',
'automotive_design',2009,#1416);
#1416=APPLICATION_CONTEXT(
'Core Data for Automotive Mechanical Design Process');
#1417=PRODUCT_CONTEXT('part definition',#1416,'mechanical');
#1418=PRODUCT('LITE-ON LTST-C194TGKT','LITE-ON LTST-C194TGKT',$,(#1417));
#1419=PRESENTATION_STYLE_ASSIGNMENT((#1422));
#1420=PRESENTATION_STYLE_ASSIGNMENT((#1423));
#1421=PRESENTATION_STYLE_ASSIGNMENT((#1424));
#1422=SURFACE_STYLE_USAGE(.BOTH.,#1425);
#1423=SURFACE_STYLE_USAGE(.BOTH.,#1426);
#1424=SURFACE_STYLE_USAGE(.BOTH.,#1427);
#1425=SURFACE_SIDE_STYLE('',(#1428));
#1426=SURFACE_SIDE_STYLE('',(#1429));
#1427=SURFACE_SIDE_STYLE('',(#1430));
#1428=SURFACE_STYLE_FILL_AREA(#1431);
#1429=SURFACE_STYLE_FILL_AREA(#1432);
#1430=SURFACE_STYLE_FILL_AREA(#1433);
#1431=FILL_AREA_STYLE('',(#1434));
#1432=FILL_AREA_STYLE('',(#1435));
#1433=FILL_AREA_STYLE('',(#1436));
#1434=FILL_AREA_STYLE_COLOUR('',#1437);
#1435=FILL_AREA_STYLE_COLOUR('',#1438);
#1436=FILL_AREA_STYLE_COLOUR('',#1439);
#1437=COLOUR_RGB('',0.749019607843137,0.749019607843137,0.749019607843137);
#1438=COLOUR_RGB('',0.0509803921568627,0.615686274509804,0.0509803921568627);
#1439=COLOUR_RGB('',0.701960784313725,0.552941176470588,0.00392156862745098);
ENDSEC;
END-ISO-10303-21;
