ISO-10303-21;
HEADER;
/* Generated by software containing ST-Developer
 * from STEP Tools, Inc. (www.steptools.com) 
 */

FILE_DESCRIPTION(
/* description */ (''),
/* implementation_level */ '2;1');

FILE_NAME(
/* name */ '',
/* time_stamp */ '',
/* author */ (''),
/* organization */ (''),
/* preprocessor_version */ '',
/* originating_system */ '',
/* authorisation */ '');

FILE_SCHEMA (('AUTOMOTIVE_DESIGN { 1 0 10303 214 3 1 1 }'));
ENDSEC;

DATA;
#10=MECHANICAL_DESIGN_GEOMETRIC_PRESENTATION_REPRESENTATION('',(#32,#31),
#1638);
#11=ITEM_DEFINED_TRANSFORMATION($,$,#1018,#1083);
#12=ITEM_DEFINED_TRANSFORMATION($,$,#1068,#1084);
#13=ITEM_DEFINED_TRANSFORMATION($,$,#1068,#1085);
#14=ITEM_DEFINED_TRANSFORMATION($,$,#1068,#1086);
#15=(
REPRESENTATION_RELATIONSHIP($,$,#1656,#1655)
REPRESENTATION_RELATIONSHIP_WITH_TRANSFORMATION(#11)
SHAPE_REPRESENTATION_RELATIONSHIP()
);
#16=(
REPRESENTATION_RELATIONSHIP($,$,#1657,#1655)
REPRESENTATION_RELATIONSHIP_WITH_TRANSFORMATION(#12)
SHAPE_REPRESENTATION_RELATIONSHIP()
);
#17=(
REPRESENTATION_RELATIONSHIP($,$,#1657,#1655)
REPRESENTATION_RELATIONSHIP_WITH_TRANSFORMATION(#13)
SHAPE_REPRESENTATION_RELATIONSHIP()
);
#18=(
REPRESENTATION_RELATIONSHIP($,$,#1657,#1655)
REPRESENTATION_RELATIONSHIP_WITH_TRANSFORMATION(#14)
SHAPE_REPRESENTATION_RELATIONSHIP()
);
#19=CONTEXT_DEPENDENT_SHAPE_REPRESENTATION(#15,#1651);
#20=CONTEXT_DEPENDENT_SHAPE_REPRESENTATION(#16,#1652);
#21=CONTEXT_DEPENDENT_SHAPE_REPRESENTATION(#17,#1653);
#22=CONTEXT_DEPENDENT_SHAPE_REPRESENTATION(#18,#1654);
#23=NEXT_ASSEMBLY_USAGE_OCCURRENCE('CUI CSS-0578-SMT-TR_Body:1',
'CUI CSS-0578-SMT-TR_Body:1','CUI CSS-0578-SMT-TR_Body:1',#1659,#1660,
'CUI CSS-0578-SMT-TR_Body:1');
#24=NEXT_ASSEMBLY_USAGE_OCCURRENCE('CUI CSS-0578-SMT-TR_Lead:1',
'CUI CSS-0578-SMT-TR_Lead:1','CUI CSS-0578-SMT-TR_Lead:1',#1659,#1661,
'CUI CSS-0578-SMT-TR_Lead:1');
#25=NEXT_ASSEMBLY_USAGE_OCCURRENCE('CUI CSS-0578-SMT-TR_Lead:2',
'CUI CSS-0578-SMT-TR_Lead:2','CUI CSS-0578-SMT-TR_Lead:2',#1659,#1661,
'CUI CSS-0578-SMT-TR_Lead:2');
#26=NEXT_ASSEMBLY_USAGE_OCCURRENCE('CUI CSS-0578-SMT-TR_Lead:3',
'CUI CSS-0578-SMT-TR_Lead:3','CUI CSS-0578-SMT-TR_Lead:3',#1659,#1661,
'CUI CSS-0578-SMT-TR_Lead:3');
#27=SHAPE_REPRESENTATION_RELATIONSHIP('SRR','None',#1656,#29);
#28=SHAPE_REPRESENTATION_RELATIONSHIP('SRR','None',#1657,#30);
#29=ADVANCED_BREP_SHAPE_REPRESENTATION('',(#33),#1636);
#30=ADVANCED_BREP_SHAPE_REPRESENTATION('',(#34),#1637);
#31=STYLED_ITEM('',(#1003),#33);
#32=STYLED_ITEM('',(#1004),#34);
#33=MANIFOLD_SOLID_BREP('Solid1',#1001);
#34=MANIFOLD_SOLID_BREP('Solid1',#1002);
#35=CYLINDRICAL_SURFACE('',#1035,0.3);
#36=CYLINDRICAL_SURFACE('',#1038,0.3);
#37=CYLINDRICAL_SURFACE('',#1041,0.4);
#38=CYLINDRICAL_SURFACE('',#1069,0.5);
#39=CYLINDRICAL_SURFACE('',#1075,0.25);
#40=FACE_BOUND('',#124,.T.);
#41=FACE_BOUND('',#125,.T.);
#42=FACE_BOUND('',#127,.T.);
#43=FACE_BOUND('',#130,.T.);
#44=FACE_BOUND('',#133,.T.);
#45=FACE_BOUND('',#147,.T.);
#46=FACE_BOUND('',#150,.T.);
#47=CIRCLE('',#1033,0.3);
#48=CIRCLE('',#1034,0.3);
#49=CIRCLE('',#1036,0.3);
#50=CIRCLE('',#1039,0.3);
#51=CIRCLE('',#1042,0.4);
#52=CIRCLE('',#1043,0.4);
#53=CIRCLE('',#1070,0.5);
#54=CIRCLE('',#1071,0.5);
#55=CIRCLE('',#1074,0.25);
#56=CIRCLE('',#1076,0.25);
#57=FACE_OUTER_BOUND('',#110,.T.);
#58=FACE_OUTER_BOUND('',#111,.T.);
#59=FACE_OUTER_BOUND('',#112,.T.);
#60=FACE_OUTER_BOUND('',#113,.T.);
#61=FACE_OUTER_BOUND('',#114,.T.);
#62=FACE_OUTER_BOUND('',#115,.T.);
#63=FACE_OUTER_BOUND('',#116,.T.);
#64=FACE_OUTER_BOUND('',#117,.T.);
#65=FACE_OUTER_BOUND('',#118,.T.);
#66=FACE_OUTER_BOUND('',#119,.T.);
#67=FACE_OUTER_BOUND('',#120,.T.);
#68=FACE_OUTER_BOUND('',#121,.T.);
#69=FACE_OUTER_BOUND('',#122,.T.);
#70=FACE_OUTER_BOUND('',#123,.T.);
#71=FACE_OUTER_BOUND('',#126,.T.);
#72=FACE_OUTER_BOUND('',#128,.T.);
#73=FACE_OUTER_BOUND('',#129,.T.);
#74=FACE_OUTER_BOUND('',#131,.T.);
#75=FACE_OUTER_BOUND('',#132,.T.);
#76=FACE_OUTER_BOUND('',#134,.T.);
#77=FACE_OUTER_BOUND('',#135,.T.);
#78=FACE_OUTER_BOUND('',#136,.T.);
#79=FACE_OUTER_BOUND('',#137,.T.);
#80=FACE_OUTER_BOUND('',#138,.T.);
#81=FACE_OUTER_BOUND('',#139,.T.);
#82=FACE_OUTER_BOUND('',#140,.T.);
#83=FACE_OUTER_BOUND('',#141,.T.);
#84=FACE_OUTER_BOUND('',#142,.T.);
#85=FACE_OUTER_BOUND('',#143,.T.);
#86=FACE_OUTER_BOUND('',#144,.T.);
#87=FACE_OUTER_BOUND('',#145,.T.);
#88=FACE_OUTER_BOUND('',#146,.T.);
#89=FACE_OUTER_BOUND('',#148,.T.);
#90=FACE_OUTER_BOUND('',#149,.T.);
#91=FACE_OUTER_BOUND('',#151,.T.);
#92=FACE_OUTER_BOUND('',#152,.T.);
#93=FACE_OUTER_BOUND('',#153,.T.);
#94=FACE_OUTER_BOUND('',#154,.T.);
#95=FACE_OUTER_BOUND('',#155,.T.);
#96=FACE_OUTER_BOUND('',#156,.T.);
#97=FACE_OUTER_BOUND('',#157,.T.);
#98=FACE_OUTER_BOUND('',#158,.T.);
#99=FACE_OUTER_BOUND('',#159,.T.);
#100=FACE_OUTER_BOUND('',#160,.T.);
#101=FACE_OUTER_BOUND('',#161,.T.);
#102=FACE_OUTER_BOUND('',#162,.T.);
#103=FACE_OUTER_BOUND('',#163,.T.);
#104=FACE_OUTER_BOUND('',#164,.T.);
#105=FACE_OUTER_BOUND('',#165,.T.);
#106=FACE_OUTER_BOUND('',#166,.T.);
#107=FACE_OUTER_BOUND('',#167,.T.);
#108=FACE_OUTER_BOUND('',#168,.T.);
#109=FACE_OUTER_BOUND('',#169,.T.);
#110=EDGE_LOOP('',(#636,#637,#638,#639));
#111=EDGE_LOOP('',(#640,#641,#642,#643));
#112=EDGE_LOOP('',(#644,#645,#646,#647));
#113=EDGE_LOOP('',(#648,#649,#650,#651));
#114=EDGE_LOOP('',(#652,#653,#654,#655));
#115=EDGE_LOOP('',(#656,#657,#658,#659));
#116=EDGE_LOOP('',(#660,#661,#662,#663));
#117=EDGE_LOOP('',(#664,#665,#666,#667));
#118=EDGE_LOOP('',(#668,#669,#670,#671));
#119=EDGE_LOOP('',(#672,#673,#674,#675));
#120=EDGE_LOOP('',(#676,#677,#678,#679));
#121=EDGE_LOOP('',(#680,#681,#682,#683));
#122=EDGE_LOOP('',(#684,#685,#686,#687,#688,#689,#690,#691));
#123=EDGE_LOOP('',(#692,#693,#694,#695,#696,#697,#698,#699,#700,#701,#702,
#703,#704,#705,#706,#707,#708,#709,#710,#711,#712,#713,#714));
#124=EDGE_LOOP('',(#715));
#125=EDGE_LOOP('',(#716));
#126=EDGE_LOOP('',(#717));
#127=EDGE_LOOP('',(#718));
#128=EDGE_LOOP('',(#719));
#129=EDGE_LOOP('',(#720));
#130=EDGE_LOOP('',(#721));
#131=EDGE_LOOP('',(#722));
#132=EDGE_LOOP('',(#723));
#133=EDGE_LOOP('',(#724));
#134=EDGE_LOOP('',(#725,#726,#727,#728,#729,#730,#731,#732,#733,#734,#735));
#135=EDGE_LOOP('',(#736,#737,#738,#739));
#136=EDGE_LOOP('',(#740,#741,#742,#743));
#137=EDGE_LOOP('',(#744,#745,#746,#747));
#138=EDGE_LOOP('',(#748,#749,#750,#751));
#139=EDGE_LOOP('',(#752,#753,#754,#755));
#140=EDGE_LOOP('',(#756,#757,#758,#759));
#141=EDGE_LOOP('',(#760,#761,#762,#763));
#142=EDGE_LOOP('',(#764,#765,#766,#767));
#143=EDGE_LOOP('',(#768,#769,#770,#771));
#144=EDGE_LOOP('',(#772,#773,#774,#775));
#145=EDGE_LOOP('',(#776,#777,#778,#779));
#146=EDGE_LOOP('',(#780,#781,#782,#783,#784,#785,#786,#787,#788,#789,#790));
#147=EDGE_LOOP('',(#791));
#148=EDGE_LOOP('',(#792,#793,#794,#795));
#149=EDGE_LOOP('',(#796,#797,#798,#799,#800,#801,#802,#803,#804,#805,#806));
#150=EDGE_LOOP('',(#807));
#151=EDGE_LOOP('',(#808,#809,#810,#811));
#152=EDGE_LOOP('',(#812,#813,#814,#815));
#153=EDGE_LOOP('',(#816,#817,#818,#819));
#154=EDGE_LOOP('',(#820,#821,#822,#823,#824,#825,#826,#827));
#155=EDGE_LOOP('',(#828,#829,#830,#831));
#156=EDGE_LOOP('',(#832,#833,#834,#835));
#157=EDGE_LOOP('',(#836,#837,#838,#839));
#158=EDGE_LOOP('',(#840,#841,#842,#843));
#159=EDGE_LOOP('',(#844,#845,#846,#847,#848,#849,#850,#851));
#160=EDGE_LOOP('',(#852,#853,#854,#855));
#161=EDGE_LOOP('',(#856,#857,#858,#859));
#162=EDGE_LOOP('',(#860,#861,#862,#863,#864,#865,#866,#867));
#163=EDGE_LOOP('',(#868,#869,#870,#871));
#164=EDGE_LOOP('',(#872,#873,#874,#875));
#165=EDGE_LOOP('',(#876,#877,#878,#879));
#166=EDGE_LOOP('',(#880,#881,#882,#883));
#167=EDGE_LOOP('',(#884,#885,#886,#887));
#168=EDGE_LOOP('',(#888,#889,#890,#891));
#169=EDGE_LOOP('',(#892,#893,#894,#895,#896,#897,#898,#899));
#170=LINE('',#1354,#292);
#171=LINE('',#1356,#293);
#172=LINE('',#1358,#294);
#173=LINE('',#1359,#295);
#174=LINE('',#1362,#296);
#175=LINE('',#1364,#297);
#176=LINE('',#1365,#298);
#177=LINE('',#1368,#299);
#178=LINE('',#1370,#300);
#179=LINE('',#1371,#301);
#180=LINE('',#1373,#302);
#181=LINE('',#1377,#303);
#182=LINE('',#1379,#304);
#183=LINE('',#1381,#305);
#184=LINE('',#1382,#306);
#185=LINE('',#1385,#307);
#186=LINE('',#1387,#308);
#187=LINE('',#1388,#309);
#188=LINE('',#1391,#310);
#189=LINE('',#1393,#311);
#190=LINE('',#1394,#312);
#191=LINE('',#1396,#313);
#192=LINE('',#1400,#314);
#193=LINE('',#1402,#315);
#194=LINE('',#1404,#316);
#195=LINE('',#1405,#317);
#196=LINE('',#1408,#318);
#197=LINE('',#1410,#319);
#198=LINE('',#1411,#320);
#199=LINE('',#1414,#321);
#200=LINE('',#1416,#322);
#201=LINE('',#1417,#323);
#202=LINE('',#1419,#324);
#203=LINE('',#1422,#325);
#204=LINE('',#1424,#326);
#205=LINE('',#1426,#327);
#206=LINE('',#1428,#328);
#207=LINE('',#1429,#329);
#208=LINE('',#1432,#330);
#209=LINE('',#1434,#331);
#210=LINE('',#1436,#332);
#211=LINE('',#1438,#333);
#212=LINE('',#1439,#334);
#213=LINE('',#1441,#335);
#214=LINE('',#1443,#336);
#215=LINE('',#1445,#337);
#216=LINE('',#1447,#338);
#217=LINE('',#1448,#339);
#218=LINE('',#1450,#340);
#219=LINE('',#1451,#341);
#220=LINE('',#1472,#342);
#221=LINE('',#1474,#343);
#222=LINE('',#1476,#344);
#223=LINE('',#1478,#345);
#224=LINE('',#1480,#346);
#225=LINE('',#1482,#347);
#226=LINE('',#1484,#348);
#227=LINE('',#1486,#349);
#228=LINE('',#1488,#350);
#229=LINE('',#1490,#351);
#230=LINE('',#1491,#352);
#231=LINE('',#1494,#353);
#232=LINE('',#1496,#354);
#233=LINE('',#1497,#355);
#234=LINE('',#1500,#356);
#235=LINE('',#1501,#357);
#236=LINE('',#1504,#358);
#237=LINE('',#1505,#359);
#238=LINE('',#1508,#360);
#239=LINE('',#1509,#361);
#240=LINE('',#1512,#362);
#241=LINE('',#1513,#363);
#242=LINE('',#1516,#364);
#243=LINE('',#1517,#365);
#244=LINE('',#1520,#366);
#245=LINE('',#1521,#367);
#246=LINE('',#1524,#368);
#247=LINE('',#1525,#369);
#248=LINE('',#1528,#370);
#249=LINE('',#1529,#371);
#250=LINE('',#1532,#372);
#251=LINE('',#1533,#373);
#252=LINE('',#1535,#374);
#253=LINE('',#1540,#375);
#254=LINE('',#1541,#376);
#255=LINE('',#1542,#377);
#256=LINE('',#1545,#378);
#257=LINE('',#1547,#379);
#258=LINE('',#1549,#380);
#259=LINE('',#1551,#381);
#260=LINE('',#1553,#382);
#261=LINE('',#1555,#383);
#262=LINE('',#1556,#384);
#263=LINE('',#1558,#385);
#264=LINE('',#1559,#386);
#265=LINE('',#1561,#387);
#266=LINE('',#1563,#388);
#267=LINE('',#1564,#389);
#268=LINE('',#1566,#390);
#269=LINE('',#1567,#391);
#270=LINE('',#1569,#392);
#271=LINE('',#1571,#393);
#272=LINE('',#1582,#394);
#273=LINE('',#1585,#395);
#274=LINE('',#1588,#396);
#275=LINE('',#1590,#397);
#276=LINE('',#1591,#398);
#277=LINE('',#1594,#399);
#278=LINE('',#1596,#400);
#279=LINE('',#1598,#401);
#280=LINE('',#1602,#402);
#281=LINE('',#1603,#403);
#282=LINE('',#1608,#404);
#283=LINE('',#1609,#405);
#284=LINE('',#1612,#406);
#285=LINE('',#1613,#407);
#286=LINE('',#1616,#408);
#287=LINE('',#1617,#409);
#288=LINE('',#1620,#410);
#289=LINE('',#1621,#411);
#290=LINE('',#1623,#412);
#291=LINE('',#1625,#413);
#292=VECTOR('',#1093,10.);
#293=VECTOR('',#1094,10.);
#294=VECTOR('',#1095,10.);
#295=VECTOR('',#1096,10.);
#296=VECTOR('',#1099,10.);
#297=VECTOR('',#1100,10.);
#298=VECTOR('',#1101,10.);
#299=VECTOR('',#1104,10.);
#300=VECTOR('',#1105,10.);
#301=VECTOR('',#1106,10.);
#302=VECTOR('',#1109,10.);
#303=VECTOR('',#1112,10.);
#304=VECTOR('',#1113,10.);
#305=VECTOR('',#1114,10.);
#306=VECTOR('',#1115,10.);
#307=VECTOR('',#1118,10.);
#308=VECTOR('',#1119,10.);
#309=VECTOR('',#1120,10.);
#310=VECTOR('',#1123,10.);
#311=VECTOR('',#1124,10.);
#312=VECTOR('',#1125,10.);
#313=VECTOR('',#1128,10.);
#314=VECTOR('',#1131,10.);
#315=VECTOR('',#1132,10.);
#316=VECTOR('',#1133,10.);
#317=VECTOR('',#1134,10.);
#318=VECTOR('',#1137,10.);
#319=VECTOR('',#1138,10.);
#320=VECTOR('',#1139,10.);
#321=VECTOR('',#1142,10.);
#322=VECTOR('',#1143,10.);
#323=VECTOR('',#1144,10.);
#324=VECTOR('',#1147,10.);
#325=VECTOR('',#1150,10.);
#326=VECTOR('',#1151,10.);
#327=VECTOR('',#1152,10.);
#328=VECTOR('',#1153,10.);
#329=VECTOR('',#1154,10.);
#330=VECTOR('',#1157,10.);
#331=VECTOR('',#1158,10.);
#332=VECTOR('',#1159,10.);
#333=VECTOR('',#1160,10.);
#334=VECTOR('',#1161,10.);
#335=VECTOR('',#1162,10.);
#336=VECTOR('',#1163,10.);
#337=VECTOR('',#1164,10.);
#338=VECTOR('',#1165,10.);
#339=VECTOR('',#1166,10.);
#340=VECTOR('',#1167,10.);
#341=VECTOR('',#1168,10.);
#342=VECTOR('',#1193,10.);
#343=VECTOR('',#1194,10.);
#344=VECTOR('',#1195,10.);
#345=VECTOR('',#1196,10.);
#346=VECTOR('',#1197,10.);
#347=VECTOR('',#1198,10.);
#348=VECTOR('',#1199,10.);
#349=VECTOR('',#1200,10.);
#350=VECTOR('',#1201,10.);
#351=VECTOR('',#1202,10.);
#352=VECTOR('',#1203,10.);
#353=VECTOR('',#1206,10.);
#354=VECTOR('',#1207,10.);
#355=VECTOR('',#1208,10.);
#356=VECTOR('',#1211,10.);
#357=VECTOR('',#1212,10.);
#358=VECTOR('',#1215,10.);
#359=VECTOR('',#1216,10.);
#360=VECTOR('',#1219,10.);
#361=VECTOR('',#1220,10.);
#362=VECTOR('',#1223,10.);
#363=VECTOR('',#1224,10.);
#364=VECTOR('',#1227,10.);
#365=VECTOR('',#1228,10.);
#366=VECTOR('',#1231,10.);
#367=VECTOR('',#1232,10.);
#368=VECTOR('',#1235,10.);
#369=VECTOR('',#1236,10.);
#370=VECTOR('',#1239,10.);
#371=VECTOR('',#1240,10.);
#372=VECTOR('',#1243,10.);
#373=VECTOR('',#1244,10.);
#374=VECTOR('',#1247,10.);
#375=VECTOR('',#1252,10.);
#376=VECTOR('',#1253,10.);
#377=VECTOR('',#1254,10.);
#378=VECTOR('',#1257,10.);
#379=VECTOR('',#1258,10.);
#380=VECTOR('',#1259,10.);
#381=VECTOR('',#1260,10.);
#382=VECTOR('',#1261,10.);
#383=VECTOR('',#1262,10.);
#384=VECTOR('',#1263,10.);
#385=VECTOR('',#1264,10.);
#386=VECTOR('',#1265,10.);
#387=VECTOR('',#1268,10.);
#388=VECTOR('',#1271,10.);
#389=VECTOR('',#1272,10.);
#390=VECTOR('',#1275,10.);
#391=VECTOR('',#1276,10.);
#392=VECTOR('',#1279,10.);
#393=VECTOR('',#1282,10.);
#394=VECTOR('',#1297,10.);
#395=VECTOR('',#1300,10.);
#396=VECTOR('',#1303,10.);
#397=VECTOR('',#1304,10.);
#398=VECTOR('',#1305,10.);
#399=VECTOR('',#1308,10.);
#400=VECTOR('',#1309,10.);
#401=VECTOR('',#1310,10.);
#402=VECTOR('',#1313,10.);
#403=VECTOR('',#1314,10.);
#404=VECTOR('',#1319,10.);
#405=VECTOR('',#1320,10.);
#406=VECTOR('',#1323,10.);
#407=VECTOR('',#1324,10.);
#408=VECTOR('',#1327,10.);
#409=VECTOR('',#1328,10.);
#410=VECTOR('',#1331,10.);
#411=VECTOR('',#1332,10.);
#412=VECTOR('',#1335,10.);
#413=VECTOR('',#1338,10.);
#414=VERTEX_POINT('',#1352);
#415=VERTEX_POINT('',#1353);
#416=VERTEX_POINT('',#1355);
#417=VERTEX_POINT('',#1357);
#418=VERTEX_POINT('',#1361);
#419=VERTEX_POINT('',#1363);
#420=VERTEX_POINT('',#1367);
#421=VERTEX_POINT('',#1369);
#422=VERTEX_POINT('',#1375);
#423=VERTEX_POINT('',#1376);
#424=VERTEX_POINT('',#1378);
#425=VERTEX_POINT('',#1380);
#426=VERTEX_POINT('',#1384);
#427=VERTEX_POINT('',#1386);
#428=VERTEX_POINT('',#1390);
#429=VERTEX_POINT('',#1392);
#430=VERTEX_POINT('',#1398);
#431=VERTEX_POINT('',#1399);
#432=VERTEX_POINT('',#1401);
#433=VERTEX_POINT('',#1403);
#434=VERTEX_POINT('',#1407);
#435=VERTEX_POINT('',#1409);
#436=VERTEX_POINT('',#1413);
#437=VERTEX_POINT('',#1415);
#438=VERTEX_POINT('',#1421);
#439=VERTEX_POINT('',#1423);
#440=VERTEX_POINT('',#1425);
#441=VERTEX_POINT('',#1427);
#442=VERTEX_POINT('',#1431);
#443=VERTEX_POINT('',#1433);
#444=VERTEX_POINT('',#1435);
#445=VERTEX_POINT('',#1437);
#446=VERTEX_POINT('',#1440);
#447=VERTEX_POINT('',#1442);
#448=VERTEX_POINT('',#1444);
#449=VERTEX_POINT('',#1446);
#450=VERTEX_POINT('',#1449);
#451=VERTEX_POINT('',#1452);
#452=VERTEX_POINT('',#1454);
#453=VERTEX_POINT('',#1457);
#454=VERTEX_POINT('',#1461);
#455=VERTEX_POINT('',#1465);
#456=VERTEX_POINT('',#1467);
#457=VERTEX_POINT('',#1470);
#458=VERTEX_POINT('',#1471);
#459=VERTEX_POINT('',#1473);
#460=VERTEX_POINT('',#1475);
#461=VERTEX_POINT('',#1477);
#462=VERTEX_POINT('',#1479);
#463=VERTEX_POINT('',#1481);
#464=VERTEX_POINT('',#1483);
#465=VERTEX_POINT('',#1485);
#466=VERTEX_POINT('',#1487);
#467=VERTEX_POINT('',#1489);
#468=VERTEX_POINT('',#1493);
#469=VERTEX_POINT('',#1495);
#470=VERTEX_POINT('',#1499);
#471=VERTEX_POINT('',#1503);
#472=VERTEX_POINT('',#1507);
#473=VERTEX_POINT('',#1511);
#474=VERTEX_POINT('',#1515);
#475=VERTEX_POINT('',#1519);
#476=VERTEX_POINT('',#1523);
#477=VERTEX_POINT('',#1527);
#478=VERTEX_POINT('',#1531);
#479=VERTEX_POINT('',#1538);
#480=VERTEX_POINT('',#1539);
#481=VERTEX_POINT('',#1544);
#482=VERTEX_POINT('',#1546);
#483=VERTEX_POINT('',#1548);
#484=VERTEX_POINT('',#1550);
#485=VERTEX_POINT('',#1552);
#486=VERTEX_POINT('',#1554);
#487=VERTEX_POINT('',#1557);
#488=VERTEX_POINT('',#1578);
#489=VERTEX_POINT('',#1579);
#490=VERTEX_POINT('',#1581);
#491=VERTEX_POINT('',#1583);
#492=VERTEX_POINT('',#1587);
#493=VERTEX_POINT('',#1589);
#494=VERTEX_POINT('',#1593);
#495=VERTEX_POINT('',#1595);
#496=VERTEX_POINT('',#1597);
#497=VERTEX_POINT('',#1599);
#498=VERTEX_POINT('',#1601);
#499=VERTEX_POINT('',#1605);
#500=VERTEX_POINT('',#1606);
#501=VERTEX_POINT('',#1611);
#502=VERTEX_POINT('',#1615);
#503=VERTEX_POINT('',#1619);
#504=EDGE_CURVE('',#414,#415,#170,.T.);
#505=EDGE_CURVE('',#414,#416,#171,.T.);
#506=EDGE_CURVE('',#416,#417,#172,.T.);
#507=EDGE_CURVE('',#415,#417,#173,.T.);
#508=EDGE_CURVE('',#418,#414,#174,.T.);
#509=EDGE_CURVE('',#418,#419,#175,.T.);
#510=EDGE_CURVE('',#419,#416,#176,.T.);
#511=EDGE_CURVE('',#420,#418,#177,.T.);
#512=EDGE_CURVE('',#421,#420,#178,.T.);
#513=EDGE_CURVE('',#421,#419,#179,.T.);
#514=EDGE_CURVE('',#417,#421,#180,.T.);
#515=EDGE_CURVE('',#422,#423,#181,.T.);
#516=EDGE_CURVE('',#422,#424,#182,.T.);
#517=EDGE_CURVE('',#424,#425,#183,.T.);
#518=EDGE_CURVE('',#423,#425,#184,.T.);
#519=EDGE_CURVE('',#426,#422,#185,.T.);
#520=EDGE_CURVE('',#427,#426,#186,.T.);
#521=EDGE_CURVE('',#427,#424,#187,.T.);
#522=EDGE_CURVE('',#423,#428,#188,.T.);
#523=EDGE_CURVE('',#425,#429,#189,.T.);
#524=EDGE_CURVE('',#428,#429,#190,.T.);
#525=EDGE_CURVE('',#429,#427,#191,.T.);
#526=EDGE_CURVE('',#430,#431,#192,.T.);
#527=EDGE_CURVE('',#430,#432,#193,.T.);
#528=EDGE_CURVE('',#432,#433,#194,.T.);
#529=EDGE_CURVE('',#431,#433,#195,.T.);
#530=EDGE_CURVE('',#434,#430,#196,.T.);
#531=EDGE_CURVE('',#434,#435,#197,.T.);
#532=EDGE_CURVE('',#435,#432,#198,.T.);
#533=EDGE_CURVE('',#436,#434,#199,.T.);
#534=EDGE_CURVE('',#437,#436,#200,.T.);
#535=EDGE_CURVE('',#437,#435,#201,.T.);
#536=EDGE_CURVE('',#433,#437,#202,.T.);
#537=EDGE_CURVE('',#426,#438,#203,.T.);
#538=EDGE_CURVE('',#439,#438,#204,.T.);
#539=EDGE_CURVE('',#440,#439,#205,.T.);
#540=EDGE_CURVE('',#441,#440,#206,.T.);
#541=EDGE_CURVE('',#441,#428,#207,.T.);
#542=EDGE_CURVE('',#442,#415,#208,.T.);
#543=EDGE_CURVE('',#443,#442,#209,.T.);
#544=EDGE_CURVE('',#444,#443,#210,.T.);
#545=EDGE_CURVE('',#445,#444,#211,.T.);
#546=EDGE_CURVE('',#436,#445,#212,.T.);
#547=EDGE_CURVE('',#446,#431,#213,.T.);
#548=EDGE_CURVE('',#447,#446,#214,.T.);
#549=EDGE_CURVE('',#448,#447,#215,.T.);
#550=EDGE_CURVE('',#449,#448,#216,.T.);
#551=EDGE_CURVE('',#438,#449,#217,.T.);
#552=EDGE_CURVE('',#450,#441,#218,.T.);
#553=EDGE_CURVE('',#420,#450,#219,.T.);
#554=EDGE_CURVE('',#451,#451,#47,.T.);
#555=EDGE_CURVE('',#452,#452,#48,.T.);
#556=EDGE_CURVE('',#453,#453,#49,.T.);
#557=EDGE_CURVE('',#454,#454,#50,.T.);
#558=EDGE_CURVE('',#455,#455,#51,.T.);
#559=EDGE_CURVE('',#456,#456,#52,.T.);
#560=EDGE_CURVE('',#457,#458,#220,.T.);
#561=EDGE_CURVE('',#459,#457,#221,.T.);
#562=EDGE_CURVE('',#460,#459,#222,.T.);
#563=EDGE_CURVE('',#461,#460,#223,.T.);
#564=EDGE_CURVE('',#462,#461,#224,.T.);
#565=EDGE_CURVE('',#463,#462,#225,.T.);
#566=EDGE_CURVE('',#464,#463,#226,.T.);
#567=EDGE_CURVE('',#465,#464,#227,.T.);
#568=EDGE_CURVE('',#466,#465,#228,.T.);
#569=EDGE_CURVE('',#467,#466,#229,.T.);
#570=EDGE_CURVE('',#458,#467,#230,.T.);
#571=EDGE_CURVE('',#467,#468,#231,.T.);
#572=EDGE_CURVE('',#468,#469,#232,.T.);
#573=EDGE_CURVE('',#458,#469,#233,.T.);
#574=EDGE_CURVE('',#466,#470,#234,.T.);
#575=EDGE_CURVE('',#470,#468,#235,.T.);
#576=EDGE_CURVE('',#465,#471,#236,.T.);
#577=EDGE_CURVE('',#471,#470,#237,.T.);
#578=EDGE_CURVE('',#464,#472,#238,.T.);
#579=EDGE_CURVE('',#472,#471,#239,.T.);
#580=EDGE_CURVE('',#463,#473,#240,.T.);
#581=EDGE_CURVE('',#473,#472,#241,.T.);
#582=EDGE_CURVE('',#462,#474,#242,.T.);
#583=EDGE_CURVE('',#474,#473,#243,.T.);
#584=EDGE_CURVE('',#461,#475,#244,.T.);
#585=EDGE_CURVE('',#475,#474,#245,.T.);
#586=EDGE_CURVE('',#460,#476,#246,.T.);
#587=EDGE_CURVE('',#476,#475,#247,.T.);
#588=EDGE_CURVE('',#459,#477,#248,.T.);
#589=EDGE_CURVE('',#477,#476,#249,.T.);
#590=EDGE_CURVE('',#457,#478,#250,.T.);
#591=EDGE_CURVE('',#478,#477,#251,.T.);
#592=EDGE_CURVE('',#469,#478,#252,.T.);
#593=EDGE_CURVE('',#479,#480,#253,.T.);
#594=EDGE_CURVE('',#480,#448,#254,.T.);
#595=EDGE_CURVE('',#447,#479,#255,.T.);
#596=EDGE_CURVE('',#479,#481,#256,.T.);
#597=EDGE_CURVE('',#481,#482,#257,.T.);
#598=EDGE_CURVE('',#483,#482,#258,.T.);
#599=EDGE_CURVE('',#483,#484,#259,.T.);
#600=EDGE_CURVE('',#485,#484,#260,.T.);
#601=EDGE_CURVE('',#485,#486,#261,.T.);
#602=EDGE_CURVE('',#486,#440,#262,.T.);
#603=EDGE_CURVE('',#487,#439,#263,.T.);
#604=EDGE_CURVE('',#487,#480,#264,.T.);
#605=EDGE_CURVE('',#446,#481,#265,.T.);
#606=EDGE_CURVE('',#444,#483,#266,.T.);
#607=EDGE_CURVE('',#482,#445,#267,.T.);
#608=EDGE_CURVE('',#442,#485,#268,.T.);
#609=EDGE_CURVE('',#443,#484,#269,.T.);
#610=EDGE_CURVE('',#450,#486,#270,.T.);
#611=EDGE_CURVE('',#449,#487,#271,.T.);
#612=EDGE_CURVE('',#488,#489,#53,.T.);
#613=EDGE_CURVE('',#489,#490,#272,.T.);
#614=EDGE_CURVE('',#490,#491,#54,.T.);
#615=EDGE_CURVE('',#491,#488,#273,.T.);
#616=EDGE_CURVE('',#492,#489,#274,.T.);
#617=EDGE_CURVE('',#492,#493,#275,.T.);
#618=EDGE_CURVE('',#490,#493,#276,.T.);
#619=EDGE_CURVE('',#488,#494,#277,.T.);
#620=EDGE_CURVE('',#494,#495,#278,.T.);
#621=EDGE_CURVE('',#495,#496,#279,.T.);
#622=EDGE_CURVE('',#497,#496,#55,.T.);
#623=EDGE_CURVE('',#497,#498,#280,.T.);
#624=EDGE_CURVE('',#498,#492,#281,.T.);
#625=EDGE_CURVE('',#499,#500,#56,.T.);
#626=EDGE_CURVE('',#500,#497,#282,.T.);
#627=EDGE_CURVE('',#496,#499,#283,.T.);
#628=EDGE_CURVE('',#501,#500,#284,.T.);
#629=EDGE_CURVE('',#501,#498,#285,.T.);
#630=EDGE_CURVE('',#502,#491,#286,.T.);
#631=EDGE_CURVE('',#502,#494,#287,.T.);
#632=EDGE_CURVE('',#503,#502,#288,.T.);
#633=EDGE_CURVE('',#503,#495,#289,.T.);
#634=EDGE_CURVE('',#499,#503,#290,.T.);
#635=EDGE_CURVE('',#493,#501,#291,.T.);
#636=ORIENTED_EDGE('',*,*,#504,.F.);
#637=ORIENTED_EDGE('',*,*,#505,.T.);
#638=ORIENTED_EDGE('',*,*,#506,.T.);
#639=ORIENTED_EDGE('',*,*,#507,.F.);
#640=ORIENTED_EDGE('',*,*,#508,.F.);
#641=ORIENTED_EDGE('',*,*,#509,.T.);
#642=ORIENTED_EDGE('',*,*,#510,.T.);
#643=ORIENTED_EDGE('',*,*,#505,.F.);
#644=ORIENTED_EDGE('',*,*,#511,.F.);
#645=ORIENTED_EDGE('',*,*,#512,.F.);
#646=ORIENTED_EDGE('',*,*,#513,.T.);
#647=ORIENTED_EDGE('',*,*,#509,.F.);
#648=ORIENTED_EDGE('',*,*,#513,.F.);
#649=ORIENTED_EDGE('',*,*,#514,.F.);
#650=ORIENTED_EDGE('',*,*,#506,.F.);
#651=ORIENTED_EDGE('',*,*,#510,.F.);
#652=ORIENTED_EDGE('',*,*,#515,.F.);
#653=ORIENTED_EDGE('',*,*,#516,.T.);
#654=ORIENTED_EDGE('',*,*,#517,.T.);
#655=ORIENTED_EDGE('',*,*,#518,.F.);
#656=ORIENTED_EDGE('',*,*,#519,.F.);
#657=ORIENTED_EDGE('',*,*,#520,.F.);
#658=ORIENTED_EDGE('',*,*,#521,.T.);
#659=ORIENTED_EDGE('',*,*,#516,.F.);
#660=ORIENTED_EDGE('',*,*,#522,.F.);
#661=ORIENTED_EDGE('',*,*,#518,.T.);
#662=ORIENTED_EDGE('',*,*,#523,.T.);
#663=ORIENTED_EDGE('',*,*,#524,.F.);
#664=ORIENTED_EDGE('',*,*,#523,.F.);
#665=ORIENTED_EDGE('',*,*,#517,.F.);
#666=ORIENTED_EDGE('',*,*,#521,.F.);
#667=ORIENTED_EDGE('',*,*,#525,.F.);
#668=ORIENTED_EDGE('',*,*,#526,.F.);
#669=ORIENTED_EDGE('',*,*,#527,.T.);
#670=ORIENTED_EDGE('',*,*,#528,.T.);
#671=ORIENTED_EDGE('',*,*,#529,.F.);
#672=ORIENTED_EDGE('',*,*,#530,.F.);
#673=ORIENTED_EDGE('',*,*,#531,.T.);
#674=ORIENTED_EDGE('',*,*,#532,.T.);
#675=ORIENTED_EDGE('',*,*,#527,.F.);
#676=ORIENTED_EDGE('',*,*,#533,.F.);
#677=ORIENTED_EDGE('',*,*,#534,.F.);
#678=ORIENTED_EDGE('',*,*,#535,.T.);
#679=ORIENTED_EDGE('',*,*,#531,.F.);
#680=ORIENTED_EDGE('',*,*,#535,.F.);
#681=ORIENTED_EDGE('',*,*,#536,.F.);
#682=ORIENTED_EDGE('',*,*,#528,.F.);
#683=ORIENTED_EDGE('',*,*,#532,.F.);
#684=ORIENTED_EDGE('',*,*,#524,.T.);
#685=ORIENTED_EDGE('',*,*,#525,.T.);
#686=ORIENTED_EDGE('',*,*,#520,.T.);
#687=ORIENTED_EDGE('',*,*,#537,.T.);
#688=ORIENTED_EDGE('',*,*,#538,.F.);
#689=ORIENTED_EDGE('',*,*,#539,.F.);
#690=ORIENTED_EDGE('',*,*,#540,.F.);
#691=ORIENTED_EDGE('',*,*,#541,.T.);
#692=ORIENTED_EDGE('',*,*,#511,.T.);
#693=ORIENTED_EDGE('',*,*,#508,.T.);
#694=ORIENTED_EDGE('',*,*,#504,.T.);
#695=ORIENTED_EDGE('',*,*,#542,.F.);
#696=ORIENTED_EDGE('',*,*,#543,.F.);
#697=ORIENTED_EDGE('',*,*,#544,.F.);
#698=ORIENTED_EDGE('',*,*,#545,.F.);
#699=ORIENTED_EDGE('',*,*,#546,.F.);
#700=ORIENTED_EDGE('',*,*,#533,.T.);
#701=ORIENTED_EDGE('',*,*,#530,.T.);
#702=ORIENTED_EDGE('',*,*,#526,.T.);
#703=ORIENTED_EDGE('',*,*,#547,.F.);
#704=ORIENTED_EDGE('',*,*,#548,.F.);
#705=ORIENTED_EDGE('',*,*,#549,.F.);
#706=ORIENTED_EDGE('',*,*,#550,.F.);
#707=ORIENTED_EDGE('',*,*,#551,.F.);
#708=ORIENTED_EDGE('',*,*,#537,.F.);
#709=ORIENTED_EDGE('',*,*,#519,.T.);
#710=ORIENTED_EDGE('',*,*,#515,.T.);
#711=ORIENTED_EDGE('',*,*,#522,.T.);
#712=ORIENTED_EDGE('',*,*,#541,.F.);
#713=ORIENTED_EDGE('',*,*,#552,.F.);
#714=ORIENTED_EDGE('',*,*,#553,.F.);
#715=ORIENTED_EDGE('',*,*,#554,.T.);
#716=ORIENTED_EDGE('',*,*,#555,.T.);
#717=ORIENTED_EDGE('',*,*,#556,.T.);
#718=ORIENTED_EDGE('',*,*,#555,.F.);
#719=ORIENTED_EDGE('',*,*,#556,.F.);
#720=ORIENTED_EDGE('',*,*,#557,.T.);
#721=ORIENTED_EDGE('',*,*,#554,.F.);
#722=ORIENTED_EDGE('',*,*,#557,.F.);
#723=ORIENTED_EDGE('',*,*,#558,.F.);
#724=ORIENTED_EDGE('',*,*,#559,.F.);
#725=ORIENTED_EDGE('',*,*,#560,.F.);
#726=ORIENTED_EDGE('',*,*,#561,.F.);
#727=ORIENTED_EDGE('',*,*,#562,.F.);
#728=ORIENTED_EDGE('',*,*,#563,.F.);
#729=ORIENTED_EDGE('',*,*,#564,.F.);
#730=ORIENTED_EDGE('',*,*,#565,.F.);
#731=ORIENTED_EDGE('',*,*,#566,.F.);
#732=ORIENTED_EDGE('',*,*,#567,.F.);
#733=ORIENTED_EDGE('',*,*,#568,.F.);
#734=ORIENTED_EDGE('',*,*,#569,.F.);
#735=ORIENTED_EDGE('',*,*,#570,.F.);
#736=ORIENTED_EDGE('',*,*,#570,.T.);
#737=ORIENTED_EDGE('',*,*,#571,.T.);
#738=ORIENTED_EDGE('',*,*,#572,.T.);
#739=ORIENTED_EDGE('',*,*,#573,.F.);
#740=ORIENTED_EDGE('',*,*,#569,.T.);
#741=ORIENTED_EDGE('',*,*,#574,.T.);
#742=ORIENTED_EDGE('',*,*,#575,.T.);
#743=ORIENTED_EDGE('',*,*,#571,.F.);
#744=ORIENTED_EDGE('',*,*,#568,.T.);
#745=ORIENTED_EDGE('',*,*,#576,.T.);
#746=ORIENTED_EDGE('',*,*,#577,.T.);
#747=ORIENTED_EDGE('',*,*,#574,.F.);
#748=ORIENTED_EDGE('',*,*,#567,.T.);
#749=ORIENTED_EDGE('',*,*,#578,.T.);
#750=ORIENTED_EDGE('',*,*,#579,.T.);
#751=ORIENTED_EDGE('',*,*,#576,.F.);
#752=ORIENTED_EDGE('',*,*,#566,.T.);
#753=ORIENTED_EDGE('',*,*,#580,.T.);
#754=ORIENTED_EDGE('',*,*,#581,.T.);
#755=ORIENTED_EDGE('',*,*,#578,.F.);
#756=ORIENTED_EDGE('',*,*,#565,.T.);
#757=ORIENTED_EDGE('',*,*,#582,.T.);
#758=ORIENTED_EDGE('',*,*,#583,.T.);
#759=ORIENTED_EDGE('',*,*,#580,.F.);
#760=ORIENTED_EDGE('',*,*,#564,.T.);
#761=ORIENTED_EDGE('',*,*,#584,.T.);
#762=ORIENTED_EDGE('',*,*,#585,.T.);
#763=ORIENTED_EDGE('',*,*,#582,.F.);
#764=ORIENTED_EDGE('',*,*,#563,.T.);
#765=ORIENTED_EDGE('',*,*,#586,.T.);
#766=ORIENTED_EDGE('',*,*,#587,.T.);
#767=ORIENTED_EDGE('',*,*,#584,.F.);
#768=ORIENTED_EDGE('',*,*,#562,.T.);
#769=ORIENTED_EDGE('',*,*,#588,.T.);
#770=ORIENTED_EDGE('',*,*,#589,.T.);
#771=ORIENTED_EDGE('',*,*,#586,.F.);
#772=ORIENTED_EDGE('',*,*,#561,.T.);
#773=ORIENTED_EDGE('',*,*,#590,.T.);
#774=ORIENTED_EDGE('',*,*,#591,.T.);
#775=ORIENTED_EDGE('',*,*,#588,.F.);
#776=ORIENTED_EDGE('',*,*,#560,.T.);
#777=ORIENTED_EDGE('',*,*,#573,.T.);
#778=ORIENTED_EDGE('',*,*,#592,.T.);
#779=ORIENTED_EDGE('',*,*,#590,.F.);
#780=ORIENTED_EDGE('',*,*,#592,.F.);
#781=ORIENTED_EDGE('',*,*,#572,.F.);
#782=ORIENTED_EDGE('',*,*,#575,.F.);
#783=ORIENTED_EDGE('',*,*,#577,.F.);
#784=ORIENTED_EDGE('',*,*,#579,.F.);
#785=ORIENTED_EDGE('',*,*,#581,.F.);
#786=ORIENTED_EDGE('',*,*,#583,.F.);
#787=ORIENTED_EDGE('',*,*,#585,.F.);
#788=ORIENTED_EDGE('',*,*,#587,.F.);
#789=ORIENTED_EDGE('',*,*,#589,.F.);
#790=ORIENTED_EDGE('',*,*,#591,.F.);
#791=ORIENTED_EDGE('',*,*,#559,.T.);
#792=ORIENTED_EDGE('',*,*,#593,.T.);
#793=ORIENTED_EDGE('',*,*,#594,.T.);
#794=ORIENTED_EDGE('',*,*,#549,.T.);
#795=ORIENTED_EDGE('',*,*,#595,.T.);
#796=ORIENTED_EDGE('',*,*,#593,.F.);
#797=ORIENTED_EDGE('',*,*,#596,.T.);
#798=ORIENTED_EDGE('',*,*,#597,.T.);
#799=ORIENTED_EDGE('',*,*,#598,.F.);
#800=ORIENTED_EDGE('',*,*,#599,.T.);
#801=ORIENTED_EDGE('',*,*,#600,.F.);
#802=ORIENTED_EDGE('',*,*,#601,.T.);
#803=ORIENTED_EDGE('',*,*,#602,.T.);
#804=ORIENTED_EDGE('',*,*,#539,.T.);
#805=ORIENTED_EDGE('',*,*,#603,.F.);
#806=ORIENTED_EDGE('',*,*,#604,.T.);
#807=ORIENTED_EDGE('',*,*,#558,.T.);
#808=ORIENTED_EDGE('',*,*,#595,.F.);
#809=ORIENTED_EDGE('',*,*,#548,.T.);
#810=ORIENTED_EDGE('',*,*,#605,.T.);
#811=ORIENTED_EDGE('',*,*,#596,.F.);
#812=ORIENTED_EDGE('',*,*,#545,.T.);
#813=ORIENTED_EDGE('',*,*,#606,.T.);
#814=ORIENTED_EDGE('',*,*,#598,.T.);
#815=ORIENTED_EDGE('',*,*,#607,.T.);
#816=ORIENTED_EDGE('',*,*,#543,.T.);
#817=ORIENTED_EDGE('',*,*,#608,.T.);
#818=ORIENTED_EDGE('',*,*,#600,.T.);
#819=ORIENTED_EDGE('',*,*,#609,.F.);
#820=ORIENTED_EDGE('',*,*,#512,.T.);
#821=ORIENTED_EDGE('',*,*,#553,.T.);
#822=ORIENTED_EDGE('',*,*,#610,.T.);
#823=ORIENTED_EDGE('',*,*,#601,.F.);
#824=ORIENTED_EDGE('',*,*,#608,.F.);
#825=ORIENTED_EDGE('',*,*,#542,.T.);
#826=ORIENTED_EDGE('',*,*,#507,.T.);
#827=ORIENTED_EDGE('',*,*,#514,.T.);
#828=ORIENTED_EDGE('',*,*,#551,.T.);
#829=ORIENTED_EDGE('',*,*,#611,.T.);
#830=ORIENTED_EDGE('',*,*,#603,.T.);
#831=ORIENTED_EDGE('',*,*,#538,.T.);
#832=ORIENTED_EDGE('',*,*,#594,.F.);
#833=ORIENTED_EDGE('',*,*,#604,.F.);
#834=ORIENTED_EDGE('',*,*,#611,.F.);
#835=ORIENTED_EDGE('',*,*,#550,.T.);
#836=ORIENTED_EDGE('',*,*,#552,.T.);
#837=ORIENTED_EDGE('',*,*,#540,.T.);
#838=ORIENTED_EDGE('',*,*,#602,.F.);
#839=ORIENTED_EDGE('',*,*,#610,.F.);
#840=ORIENTED_EDGE('',*,*,#544,.T.);
#841=ORIENTED_EDGE('',*,*,#609,.T.);
#842=ORIENTED_EDGE('',*,*,#599,.F.);
#843=ORIENTED_EDGE('',*,*,#606,.F.);
#844=ORIENTED_EDGE('',*,*,#534,.T.);
#845=ORIENTED_EDGE('',*,*,#546,.T.);
#846=ORIENTED_EDGE('',*,*,#607,.F.);
#847=ORIENTED_EDGE('',*,*,#597,.F.);
#848=ORIENTED_EDGE('',*,*,#605,.F.);
#849=ORIENTED_EDGE('',*,*,#547,.T.);
#850=ORIENTED_EDGE('',*,*,#529,.T.);
#851=ORIENTED_EDGE('',*,*,#536,.T.);
#852=ORIENTED_EDGE('',*,*,#612,.T.);
#853=ORIENTED_EDGE('',*,*,#613,.T.);
#854=ORIENTED_EDGE('',*,*,#614,.T.);
#855=ORIENTED_EDGE('',*,*,#615,.T.);
#856=ORIENTED_EDGE('',*,*,#613,.F.);
#857=ORIENTED_EDGE('',*,*,#616,.F.);
#858=ORIENTED_EDGE('',*,*,#617,.T.);
#859=ORIENTED_EDGE('',*,*,#618,.F.);
#860=ORIENTED_EDGE('',*,*,#612,.F.);
#861=ORIENTED_EDGE('',*,*,#619,.T.);
#862=ORIENTED_EDGE('',*,*,#620,.T.);
#863=ORIENTED_EDGE('',*,*,#621,.T.);
#864=ORIENTED_EDGE('',*,*,#622,.F.);
#865=ORIENTED_EDGE('',*,*,#623,.T.);
#866=ORIENTED_EDGE('',*,*,#624,.T.);
#867=ORIENTED_EDGE('',*,*,#616,.T.);
#868=ORIENTED_EDGE('',*,*,#625,.T.);
#869=ORIENTED_EDGE('',*,*,#626,.T.);
#870=ORIENTED_EDGE('',*,*,#622,.T.);
#871=ORIENTED_EDGE('',*,*,#627,.T.);
#872=ORIENTED_EDGE('',*,*,#626,.F.);
#873=ORIENTED_EDGE('',*,*,#628,.F.);
#874=ORIENTED_EDGE('',*,*,#629,.T.);
#875=ORIENTED_EDGE('',*,*,#623,.F.);
#876=ORIENTED_EDGE('',*,*,#615,.F.);
#877=ORIENTED_EDGE('',*,*,#630,.F.);
#878=ORIENTED_EDGE('',*,*,#631,.T.);
#879=ORIENTED_EDGE('',*,*,#619,.F.);
#880=ORIENTED_EDGE('',*,*,#631,.F.);
#881=ORIENTED_EDGE('',*,*,#632,.F.);
#882=ORIENTED_EDGE('',*,*,#633,.T.);
#883=ORIENTED_EDGE('',*,*,#620,.F.);
#884=ORIENTED_EDGE('',*,*,#627,.F.);
#885=ORIENTED_EDGE('',*,*,#621,.F.);
#886=ORIENTED_EDGE('',*,*,#633,.F.);
#887=ORIENTED_EDGE('',*,*,#634,.F.);
#888=ORIENTED_EDGE('',*,*,#629,.F.);
#889=ORIENTED_EDGE('',*,*,#635,.F.);
#890=ORIENTED_EDGE('',*,*,#617,.F.);
#891=ORIENTED_EDGE('',*,*,#624,.F.);
#892=ORIENTED_EDGE('',*,*,#614,.F.);
#893=ORIENTED_EDGE('',*,*,#618,.T.);
#894=ORIENTED_EDGE('',*,*,#635,.T.);
#895=ORIENTED_EDGE('',*,*,#628,.T.);
#896=ORIENTED_EDGE('',*,*,#625,.F.);
#897=ORIENTED_EDGE('',*,*,#634,.T.);
#898=ORIENTED_EDGE('',*,*,#632,.T.);
#899=ORIENTED_EDGE('',*,*,#630,.T.);
#900=PLANE('',#1019);
#901=PLANE('',#1020);
#902=PLANE('',#1021);
#903=PLANE('',#1022);
#904=PLANE('',#1023);
#905=PLANE('',#1024);
#906=PLANE('',#1025);
#907=PLANE('',#1026);
#908=PLANE('',#1027);
#909=PLANE('',#1028);
#910=PLANE('',#1029);
#911=PLANE('',#1030);
#912=PLANE('',#1031);
#913=PLANE('',#1032);
#914=PLANE('',#1037);
#915=PLANE('',#1040);
#916=PLANE('',#1044);
#917=PLANE('',#1045);
#918=PLANE('',#1046);
#919=PLANE('',#1047);
#920=PLANE('',#1048);
#921=PLANE('',#1049);
#922=PLANE('',#1050);
#923=PLANE('',#1051);
#924=PLANE('',#1052);
#925=PLANE('',#1053);
#926=PLANE('',#1054);
#927=PLANE('',#1055);
#928=PLANE('',#1056);
#929=PLANE('',#1057);
#930=PLANE('',#1058);
#931=PLANE('',#1059);
#932=PLANE('',#1060);
#933=PLANE('',#1061);
#934=PLANE('',#1062);
#935=PLANE('',#1063);
#936=PLANE('',#1064);
#937=PLANE('',#1065);
#938=PLANE('',#1066);
#939=PLANE('',#1067);
#940=PLANE('',#1072);
#941=PLANE('',#1073);
#942=PLANE('',#1077);
#943=PLANE('',#1078);
#944=PLANE('',#1079);
#945=PLANE('',#1080);
#946=PLANE('',#1081);
#947=PLANE('',#1082);
#948=ADVANCED_FACE('',(#57),#900,.F.);
#949=ADVANCED_FACE('',(#58),#901,.F.);
#950=ADVANCED_FACE('',(#59),#902,.F.);
#951=ADVANCED_FACE('',(#60),#903,.F.);
#952=ADVANCED_FACE('',(#61),#904,.F.);
#953=ADVANCED_FACE('',(#62),#905,.F.);
#954=ADVANCED_FACE('',(#63),#906,.F.);
#955=ADVANCED_FACE('',(#64),#907,.F.);
#956=ADVANCED_FACE('',(#65),#908,.F.);
#957=ADVANCED_FACE('',(#66),#909,.F.);
#958=ADVANCED_FACE('',(#67),#910,.F.);
#959=ADVANCED_FACE('',(#68),#911,.F.);
#960=ADVANCED_FACE('',(#69),#912,.T.);
#961=ADVANCED_FACE('',(#70,#40,#41),#913,.F.);
#962=ADVANCED_FACE('',(#71,#42),#35,.F.);
#963=ADVANCED_FACE('',(#72),#914,.F.);
#964=ADVANCED_FACE('',(#73,#43),#36,.F.);
#965=ADVANCED_FACE('',(#74),#915,.F.);
#966=ADVANCED_FACE('',(#75,#44),#37,.F.);
#967=ADVANCED_FACE('',(#76),#916,.F.);
#968=ADVANCED_FACE('',(#77),#917,.F.);
#969=ADVANCED_FACE('',(#78),#918,.F.);
#970=ADVANCED_FACE('',(#79),#919,.F.);
#971=ADVANCED_FACE('',(#80),#920,.F.);
#972=ADVANCED_FACE('',(#81),#921,.F.);
#973=ADVANCED_FACE('',(#82),#922,.F.);
#974=ADVANCED_FACE('',(#83),#923,.F.);
#975=ADVANCED_FACE('',(#84),#924,.F.);
#976=ADVANCED_FACE('',(#85),#925,.F.);
#977=ADVANCED_FACE('',(#86),#926,.F.);
#978=ADVANCED_FACE('',(#87),#927,.F.);
#979=ADVANCED_FACE('',(#88,#45),#928,.F.);
#980=ADVANCED_FACE('',(#89),#929,.T.);
#981=ADVANCED_FACE('',(#90,#46),#930,.T.);
#982=ADVANCED_FACE('',(#91),#931,.T.);
#983=ADVANCED_FACE('',(#92),#932,.T.);
#984=ADVANCED_FACE('',(#93),#933,.T.);
#985=ADVANCED_FACE('',(#94),#934,.T.);
#986=ADVANCED_FACE('',(#95),#935,.T.);
#987=ADVANCED_FACE('',(#96),#936,.T.);
#988=ADVANCED_FACE('',(#97),#937,.T.);
#989=ADVANCED_FACE('',(#98),#938,.T.);
#990=ADVANCED_FACE('',(#99),#939,.T.);
#991=ADVANCED_FACE('',(#100),#38,.T.);
#992=ADVANCED_FACE('',(#101),#940,.T.);
#993=ADVANCED_FACE('',(#102),#941,.T.);
#994=ADVANCED_FACE('',(#103),#39,.F.);
#995=ADVANCED_FACE('',(#104),#942,.T.);
#996=ADVANCED_FACE('',(#105),#943,.T.);
#997=ADVANCED_FACE('',(#106),#944,.T.);
#998=ADVANCED_FACE('',(#107),#945,.T.);
#999=ADVANCED_FACE('',(#108),#946,.T.);
#1000=ADVANCED_FACE('',(#109),#947,.T.);
#1001=CLOSED_SHELL('',(#948,#949,#950,#951,#952,#953,#954,#955,#956,#957,
#958,#959,#960,#961,#962,#963,#964,#965,#966,#967,#968,#969,#970,#971,#972,
#973,#974,#975,#976,#977,#978,#979,#980,#981,#982,#983,#984,#985,#986,#987,
#988,#989,#990));
#1002=CLOSED_SHELL('',(#991,#992,#993,#994,#995,#996,#997,#998,#999,#1000));
#1003=PRESENTATION_STYLE_ASSIGNMENT((#1005));
#1004=PRESENTATION_STYLE_ASSIGNMENT((#1006));
#1005=SURFACE_STYLE_USAGE(.BOTH.,#1007);
#1006=SURFACE_STYLE_USAGE(.BOTH.,#1008);
#1007=SURFACE_SIDE_STYLE('',(#1009));
#1008=SURFACE_SIDE_STYLE('',(#1010));
#1009=SURFACE_STYLE_FILL_AREA(#1011);
#1010=SURFACE_STYLE_FILL_AREA(#1012);
#1011=FILL_AREA_STYLE('',(#1013));
#1012=FILL_AREA_STYLE('',(#1014));
#1013=FILL_AREA_STYLE_COLOUR('',#1015);
#1014=FILL_AREA_STYLE_COLOUR('',#1016);
#1015=COLOUR_RGB('',0.270588235294118,0.270588235294118,0.270588235294118);
#1016=COLOUR_RGB('',0.745098039215686,0.737254901960784,0.729411764705882);
#1017=AXIS2_PLACEMENT_3D('placement',#1349,#1087,#1088);
#1018=AXIS2_PLACEMENT_3D('placement',#1350,#1089,#1090);
#1019=AXIS2_PLACEMENT_3D('',#1351,#1091,#1092);
#1020=AXIS2_PLACEMENT_3D('',#1360,#1097,#1098);
#1021=AXIS2_PLACEMENT_3D('',#1366,#1102,#1103);
#1022=AXIS2_PLACEMENT_3D('',#1372,#1107,#1108);
#1023=AXIS2_PLACEMENT_3D('',#1374,#1110,#1111);
#1024=AXIS2_PLACEMENT_3D('',#1383,#1116,#1117);
#1025=AXIS2_PLACEMENT_3D('',#1389,#1121,#1122);
#1026=AXIS2_PLACEMENT_3D('',#1395,#1126,#1127);
#1027=AXIS2_PLACEMENT_3D('',#1397,#1129,#1130);
#1028=AXIS2_PLACEMENT_3D('',#1406,#1135,#1136);
#1029=AXIS2_PLACEMENT_3D('',#1412,#1140,#1141);
#1030=AXIS2_PLACEMENT_3D('',#1418,#1145,#1146);
#1031=AXIS2_PLACEMENT_3D('',#1420,#1148,#1149);
#1032=AXIS2_PLACEMENT_3D('',#1430,#1155,#1156);
#1033=AXIS2_PLACEMENT_3D('',#1453,#1169,#1170);
#1034=AXIS2_PLACEMENT_3D('',#1455,#1171,#1172);
#1035=AXIS2_PLACEMENT_3D('',#1456,#1173,#1174);
#1036=AXIS2_PLACEMENT_3D('',#1458,#1175,#1176);
#1037=AXIS2_PLACEMENT_3D('',#1459,#1177,#1178);
#1038=AXIS2_PLACEMENT_3D('',#1460,#1179,#1180);
#1039=AXIS2_PLACEMENT_3D('',#1462,#1181,#1182);
#1040=AXIS2_PLACEMENT_3D('',#1463,#1183,#1184);
#1041=AXIS2_PLACEMENT_3D('',#1464,#1185,#1186);
#1042=AXIS2_PLACEMENT_3D('',#1466,#1187,#1188);
#1043=AXIS2_PLACEMENT_3D('',#1468,#1189,#1190);
#1044=AXIS2_PLACEMENT_3D('',#1469,#1191,#1192);
#1045=AXIS2_PLACEMENT_3D('',#1492,#1204,#1205);
#1046=AXIS2_PLACEMENT_3D('',#1498,#1209,#1210);
#1047=AXIS2_PLACEMENT_3D('',#1502,#1213,#1214);
#1048=AXIS2_PLACEMENT_3D('',#1506,#1217,#1218);
#1049=AXIS2_PLACEMENT_3D('',#1510,#1221,#1222);
#1050=AXIS2_PLACEMENT_3D('',#1514,#1225,#1226);
#1051=AXIS2_PLACEMENT_3D('',#1518,#1229,#1230);
#1052=AXIS2_PLACEMENT_3D('',#1522,#1233,#1234);
#1053=AXIS2_PLACEMENT_3D('',#1526,#1237,#1238);
#1054=AXIS2_PLACEMENT_3D('',#1530,#1241,#1242);
#1055=AXIS2_PLACEMENT_3D('',#1534,#1245,#1246);
#1056=AXIS2_PLACEMENT_3D('',#1536,#1248,#1249);
#1057=AXIS2_PLACEMENT_3D('',#1537,#1250,#1251);
#1058=AXIS2_PLACEMENT_3D('',#1543,#1255,#1256);
#1059=AXIS2_PLACEMENT_3D('',#1560,#1266,#1267);
#1060=AXIS2_PLACEMENT_3D('',#1562,#1269,#1270);
#1061=AXIS2_PLACEMENT_3D('',#1565,#1273,#1274);
#1062=AXIS2_PLACEMENT_3D('',#1568,#1277,#1278);
#1063=AXIS2_PLACEMENT_3D('',#1570,#1280,#1281);
#1064=AXIS2_PLACEMENT_3D('',#1572,#1283,#1284);
#1065=AXIS2_PLACEMENT_3D('',#1573,#1285,#1286);
#1066=AXIS2_PLACEMENT_3D('',#1574,#1287,#1288);
#1067=AXIS2_PLACEMENT_3D('',#1575,#1289,#1290);
#1068=AXIS2_PLACEMENT_3D('placement',#1576,#1291,#1292);
#1069=AXIS2_PLACEMENT_3D('',#1577,#1293,#1294);
#1070=AXIS2_PLACEMENT_3D('',#1580,#1295,#1296);
#1071=AXIS2_PLACEMENT_3D('',#1584,#1298,#1299);
#1072=AXIS2_PLACEMENT_3D('',#1586,#1301,#1302);
#1073=AXIS2_PLACEMENT_3D('',#1592,#1306,#1307);
#1074=AXIS2_PLACEMENT_3D('',#1600,#1311,#1312);
#1075=AXIS2_PLACEMENT_3D('',#1604,#1315,#1316);
#1076=AXIS2_PLACEMENT_3D('',#1607,#1317,#1318);
#1077=AXIS2_PLACEMENT_3D('',#1610,#1321,#1322);
#1078=AXIS2_PLACEMENT_3D('',#1614,#1325,#1326);
#1079=AXIS2_PLACEMENT_3D('',#1618,#1329,#1330);
#1080=AXIS2_PLACEMENT_3D('',#1622,#1333,#1334);
#1081=AXIS2_PLACEMENT_3D('',#1624,#1336,#1337);
#1082=AXIS2_PLACEMENT_3D('',#1626,#1339,#1340);
#1083=AXIS2_PLACEMENT_3D('',#1627,#1341,#1342);
#1084=AXIS2_PLACEMENT_3D('',#1628,#1343,#1344);
#1085=AXIS2_PLACEMENT_3D('',#1629,#1345,#1346);
#1086=AXIS2_PLACEMENT_3D('',#1630,#1347,#1348);
#1087=DIRECTION('axis',(0.,0.,1.));
#1088=DIRECTION('refdir',(1.,0.,0.));
#1089=DIRECTION('axis',(0.,0.,1.));
#1090=DIRECTION('refdir',(1.,0.,0.));
#1091=DIRECTION('center_axis',(-5.28677630773885E-16,0.,-1.));
#1092=DIRECTION('ref_axis',(-1.,0.,5.32907051820075E-16));
#1093=DIRECTION('',(-1.,0.,5.28677630773885E-16));
#1094=DIRECTION('',(0.,1.,0.));
#1095=DIRECTION('',(-1.,0.,5.28677630773885E-16));
#1096=DIRECTION('',(0.,1.,0.));
#1097=DIRECTION('center_axis',(1.,0.,-1.98254111540206E-16));
#1098=DIRECTION('ref_axis',(-1.99840144432528E-16,0.,-1.));
#1099=DIRECTION('',(-1.98254111540206E-16,0.,-1.));
#1100=DIRECTION('',(0.,1.,0.));
#1101=DIRECTION('',(-1.98254111540206E-16,0.,-1.));
#1102=DIRECTION('center_axis',(0.,0.,1.));
#1103=DIRECTION('ref_axis',(1.,0.,0.));
#1104=DIRECTION('',(1.,0.,0.));
#1105=DIRECTION('',(0.,-1.,0.));
#1106=DIRECTION('',(1.,0.,0.));
#1107=DIRECTION('center_axis',(0.,1.,0.));
#1108=DIRECTION('ref_axis',(0.,0.,1.));
#1109=DIRECTION('',(-5.55111512312579E-16,0.,1.));
#1110=DIRECTION('center_axis',(-1.,0.,3.96508223080413E-16));
#1111=DIRECTION('ref_axis',(3.99680288865056E-16,0.,1.));
#1112=DIRECTION('',(3.96508223080413E-16,0.,1.));
#1113=DIRECTION('',(0.,1.,0.));
#1114=DIRECTION('',(3.96508223080413E-16,0.,1.));
#1115=DIRECTION('',(0.,1.,0.));
#1116=DIRECTION('center_axis',(2.64338815386942E-16,0.,-1.));
#1117=DIRECTION('ref_axis',(-1.,0.,-2.66453525910038E-16));
#1118=DIRECTION('',(-1.,0.,-2.64338815386942E-16));
#1119=DIRECTION('',(0.,-1.,0.));
#1120=DIRECTION('',(-1.,0.,-2.64338815386942E-16));
#1121=DIRECTION('center_axis',(5.28677630773884E-16,0.,1.));
#1122=DIRECTION('ref_axis',(1.,0.,-5.32907051820075E-16));
#1123=DIRECTION('',(1.,0.,-5.28677630773884E-16));
#1124=DIRECTION('',(1.,0.,-5.28677630773884E-16));
#1125=DIRECTION('',(0.,1.,0.));
#1126=DIRECTION('center_axis',(0.,1.,0.));
#1127=DIRECTION('ref_axis',(0.,0.,1.));
#1128=DIRECTION('',(-1.85037170770859E-16,0.,-1.));
#1129=DIRECTION('center_axis',(0.,0.,-1.));
#1130=DIRECTION('ref_axis',(-1.,0.,0.));
#1131=DIRECTION('',(-1.,0.,0.));
#1132=DIRECTION('',(0.,1.,0.));
#1133=DIRECTION('',(-1.,0.,0.));
#1134=DIRECTION('',(0.,1.,0.));
#1135=DIRECTION('center_axis',(1.,0.,-1.98254111540207E-16));
#1136=DIRECTION('ref_axis',(-1.99840144432528E-16,0.,-1.));
#1137=DIRECTION('',(-1.98254111540207E-16,0.,-1.));
#1138=DIRECTION('',(0.,1.,0.));
#1139=DIRECTION('',(-1.98254111540207E-16,0.,-1.));
#1140=DIRECTION('center_axis',(2.64338815386943E-16,0.,1.));
#1141=DIRECTION('ref_axis',(1.,0.,-2.66453525910038E-16));
#1142=DIRECTION('',(1.,0.,-2.64338815386943E-16));
#1143=DIRECTION('',(0.,-1.,0.));
#1144=DIRECTION('',(1.,0.,-2.64338815386943E-16));
#1145=DIRECTION('center_axis',(0.,1.,0.));
#1146=DIRECTION('ref_axis',(0.,0.,1.));
#1147=DIRECTION('',(1.85037170770859E-16,0.,1.));
#1148=DIRECTION('center_axis',(1.,0.,-1.85037170770859E-16));
#1149=DIRECTION('ref_axis',(-1.77635683940025E-16,0.,-1.));
#1150=DIRECTION('',(-1.85037170770859E-16,0.,-1.));
#1151=DIRECTION('',(0.,-1.,0.));
#1152=DIRECTION('',(-1.85037170770859E-16,0.,-1.));
#1153=DIRECTION('',(0.,1.,0.));
#1154=DIRECTION('',(-1.85037170770859E-16,0.,-1.));
#1155=DIRECTION('center_axis',(0.,1.,0.));
#1156=DIRECTION('ref_axis',(0.,0.,1.));
#1157=DIRECTION('',(-5.55111512312579E-16,0.,1.));
#1158=DIRECTION('',(0.707106781186548,0.,0.707106781186547));
#1159=DIRECTION('',(6.93889390390723E-16,0.,1.));
#1160=DIRECTION('',(-0.707106781186548,0.,0.707106781186547));
#1161=DIRECTION('',(1.85037170770859E-16,0.,1.));
#1162=DIRECTION('',(1.85037170770859E-16,0.,1.));
#1163=DIRECTION('',(-1.,0.,2.92163953848725E-16));
#1164=DIRECTION('',(-0.707106781186548,0.,-0.707106781186547));
#1165=DIRECTION('',(-3.1720657846433E-16,0.,-1.));
#1166=DIRECTION('',(0.707106781186547,0.,-0.707106781186548));
#1167=DIRECTION('',(1.,0.,0.));
#1168=DIRECTION('',(-5.55111512312579E-16,0.,1.));
#1169=DIRECTION('center_axis',(0.,1.,0.));
#1170=DIRECTION('ref_axis',(-1.,0.,0.));
#1171=DIRECTION('center_axis',(0.,1.,0.));
#1172=DIRECTION('ref_axis',(-1.,0.,0.));
#1173=DIRECTION('center_axis',(0.,1.,0.));
#1174=DIRECTION('ref_axis',(-1.,0.,0.));
#1175=DIRECTION('center_axis',(0.,1.,0.));
#1176=DIRECTION('ref_axis',(-1.,0.,0.));
#1177=DIRECTION('center_axis',(0.,1.,0.));
#1178=DIRECTION('ref_axis',(0.,0.,1.));
#1179=DIRECTION('center_axis',(0.,1.,0.));
#1180=DIRECTION('ref_axis',(-1.,0.,0.));
#1181=DIRECTION('center_axis',(0.,1.,0.));
#1182=DIRECTION('ref_axis',(-1.,0.,0.));
#1183=DIRECTION('center_axis',(0.,1.,0.));
#1184=DIRECTION('ref_axis',(0.,0.,1.));
#1185=DIRECTION('center_axis',(0.,-1.,0.));
#1186=DIRECTION('ref_axis',(-1.,0.,0.));
#1187=DIRECTION('center_axis',(0.,-1.,0.));
#1188=DIRECTION('ref_axis',(-1.,0.,0.));
#1189=DIRECTION('center_axis',(0.,1.,0.));
#1190=DIRECTION('ref_axis',(-1.,0.,0.));
#1191=DIRECTION('center_axis',(0.,-1.,0.));
#1192=DIRECTION('ref_axis',(0.,0.,-1.));
#1193=DIRECTION('',(-1.35459387043891E-10,0.,-1.));
#1194=DIRECTION('',(-1.,0.,0.));
#1195=DIRECTION('',(1.35459645458041E-10,0.,1.));
#1196=DIRECTION('',(-0.707106781227708,0.,0.707106781145387));
#1197=DIRECTION('',(-6.46328984606539E-11,0.,1.));
#1198=DIRECTION('',(0.70710678112413,0.,0.707106781248965));
#1199=DIRECTION('',(1.,0.,4.37553071492021E-11));
#1200=DIRECTION('',(0.,0.,-1.));
#1201=DIRECTION('',(0.707106781124809,0.,-0.707106781248286));
#1202=DIRECTION('',(-3.16940011444658E-16,0.,-1.));
#1203=DIRECTION('',(-0.707106781433502,0.,-0.707106780939593));
#1204=DIRECTION('center_axis',(-0.707106780939593,0.,0.707106781433502));
#1205=DIRECTION('ref_axis',(0.707106781433502,0.,0.707106780939593));
#1206=DIRECTION('',(0.,1.,0.));
#1207=DIRECTION('',(0.707106781433502,0.,0.707106780939593));
#1208=DIRECTION('',(0.,1.,0.));
#1209=DIRECTION('center_axis',(-1.,0.,3.16940011444658E-16));
#1210=DIRECTION('ref_axis',(3.10862446895044E-16,0.,1.));
#1211=DIRECTION('',(0.,1.,0.));
#1212=DIRECTION('',(3.16940011444658E-16,0.,1.));
#1213=DIRECTION('center_axis',(-0.707106781248286,0.,-0.707106781124809));
#1214=DIRECTION('ref_axis',(-0.707106781124809,0.,0.707106781248286));
#1215=DIRECTION('',(0.,1.,0.));
#1216=DIRECTION('',(-0.707106781124809,0.,0.707106781248286));
#1217=DIRECTION('center_axis',(-1.,0.,0.));
#1218=DIRECTION('ref_axis',(0.,0.,1.));
#1219=DIRECTION('',(0.,1.,0.));
#1220=DIRECTION('',(0.,0.,1.));
#1221=DIRECTION('center_axis',(4.37553071492021E-11,0.,-1.));
#1222=DIRECTION('ref_axis',(-1.,0.,-4.37553104859489E-11));
#1223=DIRECTION('',(0.,1.,0.));
#1224=DIRECTION('',(-1.,0.,-4.37553071492021E-11));
#1225=DIRECTION('center_axis',(0.707106781248965,0.,-0.70710678112413));
#1226=DIRECTION('ref_axis',(-0.70710678112413,0.,-0.707106781248965));
#1227=DIRECTION('',(0.,1.,0.));
#1228=DIRECTION('',(-0.70710678112413,0.,-0.707106781248965));
#1229=DIRECTION('center_axis',(1.,0.,6.46328984606539E-11));
#1230=DIRECTION('ref_axis',(6.46328768283411E-11,0.,-1.));
#1231=DIRECTION('',(0.,1.,0.));
#1232=DIRECTION('',(6.46328984606539E-11,0.,-1.));
#1233=DIRECTION('center_axis',(0.707106781145387,0.,0.707106781227708));
#1234=DIRECTION('ref_axis',(0.707106781227708,0.,-0.707106781145387));
#1235=DIRECTION('',(0.,1.,0.));
#1236=DIRECTION('',(0.707106781227708,0.,-0.707106781145387));
#1237=DIRECTION('center_axis',(1.,0.,-1.35459645458041E-10));
#1238=DIRECTION('ref_axis',(-1.35459643502145E-10,0.,-1.));
#1239=DIRECTION('',(0.,1.,0.));
#1240=DIRECTION('',(-1.35459645458041E-10,0.,-1.));
#1241=DIRECTION('center_axis',(0.,0.,1.));
#1242=DIRECTION('ref_axis',(1.,0.,0.));
#1243=DIRECTION('',(0.,1.,0.));
#1244=DIRECTION('',(1.,0.,0.));
#1245=DIRECTION('center_axis',(-1.,0.,1.35459387043891E-10));
#1246=DIRECTION('ref_axis',(1.35459377048619E-10,0.,1.));
#1247=DIRECTION('',(1.35459387043891E-10,0.,1.));
#1248=DIRECTION('center_axis',(0.,1.,0.));
#1249=DIRECTION('ref_axis',(0.,0.,1.));
#1250=DIRECTION('center_axis',(0.707106781186547,0.,-0.707106781186548));
#1251=DIRECTION('ref_axis',(-0.707106781186548,0.,-0.707106781186547));
#1252=DIRECTION('',(0.707106781186548,0.,0.707106781186547));
#1253=DIRECTION('',(0.,-1.,0.));
#1254=DIRECTION('',(0.,1.,0.));
#1255=DIRECTION('center_axis',(0.,1.,0.));
#1256=DIRECTION('ref_axis',(0.,0.,1.));
#1257=DIRECTION('',(-1.,0.,2.92163953848725E-16));
#1258=DIRECTION('',(1.85037170770859E-16,0.,1.));
#1259=DIRECTION('',(0.707106781186548,0.,-0.707106781186547));
#1260=DIRECTION('',(6.93889390390723E-16,0.,1.));
#1261=DIRECTION('',(-0.707106781186548,0.,-0.707106781186547));
#1262=DIRECTION('',(-5.55111512312579E-16,0.,1.));
#1263=DIRECTION('',(1.,0.,0.));
#1264=DIRECTION('',(-0.707106781186547,0.,0.707106781186548));
#1265=DIRECTION('',(-3.1720657846433E-16,0.,-1.));
#1266=DIRECTION('center_axis',(-2.92163953848725E-16,0.,-1.));
#1267=DIRECTION('ref_axis',(-1.,0.,3.10862446895044E-16));
#1268=DIRECTION('',(0.,1.,0.));
#1269=DIRECTION('center_axis',(-0.707106781186547,0.,-0.707106781186548));
#1270=DIRECTION('ref_axis',(-0.707106781186548,0.,0.707106781186547));
#1271=DIRECTION('',(0.,1.,0.));
#1272=DIRECTION('',(0.,-1.,0.));
#1273=DIRECTION('center_axis',(-0.707106781186547,0.,0.707106781186548));
#1274=DIRECTION('ref_axis',(0.707106781186548,0.,0.707106781186547));
#1275=DIRECTION('',(0.,1.,0.));
#1276=DIRECTION('',(0.,1.,0.));
#1277=DIRECTION('center_axis',(-1.,0.,-5.55111512312579E-16));
#1278=DIRECTION('ref_axis',(-5.77315972805081E-16,0.,1.));
#1279=DIRECTION('',(0.,1.,0.));
#1280=DIRECTION('center_axis',(0.707106781186548,0.,0.707106781186547));
#1281=DIRECTION('ref_axis',(0.707106781186547,0.,-0.707106781186548));
#1282=DIRECTION('',(0.,1.,0.));
#1283=DIRECTION('center_axis',(1.,0.,-3.1720657846433E-16));
#1284=DIRECTION('ref_axis',(-3.10862446895044E-16,0.,-1.));
#1285=DIRECTION('center_axis',(0.,0.,1.));
#1286=DIRECTION('ref_axis',(1.,0.,0.));
#1287=DIRECTION('center_axis',(-1.,0.,6.93889390390723E-16));
#1288=DIRECTION('ref_axis',(7.105427357601E-16,0.,1.));
#1289=DIRECTION('center_axis',(-1.,0.,1.85037170770859E-16));
#1290=DIRECTION('ref_axis',(1.77635683940025E-16,0.,1.));
#1291=DIRECTION('axis',(0.,0.,1.));
#1292=DIRECTION('refdir',(1.,0.,0.));
#1293=DIRECTION('center_axis',(0.,0.,-1.));
#1294=DIRECTION('ref_axis',(-0.707106781186548,-0.707106781186547,0.));
#1295=DIRECTION('center_axis',(0.,0.,1.));
#1296=DIRECTION('ref_axis',(-0.707106781186548,-0.707106781186547,0.));
#1297=DIRECTION('',(0.,0.,1.));
#1298=DIRECTION('center_axis',(0.,0.,-1.));
#1299=DIRECTION('ref_axis',(-0.707106781186548,-0.707106781186547,0.));
#1300=DIRECTION('',(0.,0.,-1.));
#1301=DIRECTION('center_axis',(0.,-1.,0.));
#1302=DIRECTION('ref_axis',(1.,0.,0.));
#1303=DIRECTION('',(-1.,0.,0.));
#1304=DIRECTION('',(0.,0.,1.));
#1305=DIRECTION('',(1.,0.,0.));
#1306=DIRECTION('center_axis',(0.,0.,-1.));
#1307=DIRECTION('ref_axis',(-1.,0.,0.));
#1308=DIRECTION('',(0.,1.,0.));
#1309=DIRECTION('',(1.,0.,0.));
#1310=DIRECTION('',(0.,-1.,0.));
#1311=DIRECTION('center_axis',(0.,0.,-1.));
#1312=DIRECTION('ref_axis',(-0.707106781186548,-0.707106781186547,0.));
#1313=DIRECTION('',(1.,1.65211759616839E-16,0.));
#1314=DIRECTION('',(-2.77555756156289E-16,-1.,0.));
#1315=DIRECTION('center_axis',(0.,0.,-1.));
#1316=DIRECTION('ref_axis',(-0.707106781186548,-0.707106781186547,0.));
#1317=DIRECTION('center_axis',(0.,0.,1.));
#1318=DIRECTION('ref_axis',(-0.707106781186548,-0.707106781186547,0.));
#1319=DIRECTION('',(0.,0.,-1.));
#1320=DIRECTION('',(0.,0.,1.));
#1321=DIRECTION('center_axis',(-1.65211759616839E-16,1.,0.));
#1322=DIRECTION('ref_axis',(-1.,-1.66533453693773E-16,0.));
#1323=DIRECTION('',(-1.,-1.65211759616839E-16,0.));
#1324=DIRECTION('',(0.,0.,-1.));
#1325=DIRECTION('center_axis',(-1.,0.,0.));
#1326=DIRECTION('ref_axis',(0.,-1.,0.));
#1327=DIRECTION('',(0.,-1.,0.));
#1328=DIRECTION('',(0.,0.,-1.));
#1329=DIRECTION('center_axis',(0.,1.,0.));
#1330=DIRECTION('ref_axis',(-1.,0.,0.));
#1331=DIRECTION('',(-1.,0.,0.));
#1332=DIRECTION('',(0.,0.,-1.));
#1333=DIRECTION('center_axis',(1.,0.,0.));
#1334=DIRECTION('ref_axis',(0.,1.,0.));
#1335=DIRECTION('',(0.,1.,0.));
#1336=DIRECTION('center_axis',(1.,-2.77555756156289E-16,0.));
#1337=DIRECTION('ref_axis',(2.77555756156289E-16,1.,0.));
#1338=DIRECTION('',(2.77555756156289E-16,1.,0.));
#1339=DIRECTION('center_axis',(0.,0.,1.));
#1340=DIRECTION('ref_axis',(1.,0.,0.));
#1341=DIRECTION('',(3.74939945665465E-33,-7.59645419660784E-65,1.));
#1342=DIRECTION('',(1.,6.12323399573677E-17,-3.74939945665465E-33));
#1343=DIRECTION('',(1.98254111540206E-16,2.18952885050753E-47,1.));
#1344=DIRECTION('',(1.,3.38788096113657E-16,-1.98254111540206E-16));
#1345=DIRECTION('',(-1.37021771582839E-16,5.47382212626882E-48,-1.));
#1346=DIRECTION('',(-1.,-3.38788096113657E-16,1.37021771582839E-16));
#1347=DIRECTION('',(-5.48365265226239E-48,1.61860842077012E-32,1.));
#1348=DIRECTION('',(1.,3.38788096113657E-16,-8.34509599480539E-63));
#1349=CARTESIAN_POINT('',(0.,0.,0.));
#1350=CARTESIAN_POINT('',(0.,0.,0.));
#1351=CARTESIAN_POINT('Origin',(-1.2,0.,1.4));
#1352=CARTESIAN_POINT('',(-1.2,0.,1.4));
#1353=CARTESIAN_POINT('',(-2.25,0.,1.4));
#1354=CARTESIAN_POINT('',(-0.590624999999999,0.,1.4));
#1355=CARTESIAN_POINT('',(-1.2,0.25,1.4));
#1356=CARTESIAN_POINT('',(-1.2,0.,1.4));
#1357=CARTESIAN_POINT('',(-2.25,0.25,1.4));
#1358=CARTESIAN_POINT('',(-1.2,0.25,1.4));
#1359=CARTESIAN_POINT('',(-2.25,0.,1.4));
#1360=CARTESIAN_POINT('Origin',(-1.2,0.,2.1));
#1361=CARTESIAN_POINT('',(-1.2,0.,2.1));
#1362=CARTESIAN_POINT('',(-1.2,0.,1.040625));
#1363=CARTESIAN_POINT('',(-1.2,0.25,2.1));
#1364=CARTESIAN_POINT('',(-1.2,0.,2.1));
#1365=CARTESIAN_POINT('',(-1.2,0.25,2.1));
#1366=CARTESIAN_POINT('Origin',(-2.25,0.,2.1));
#1367=CARTESIAN_POINT('',(-2.25,0.,2.1));
#1368=CARTESIAN_POINT('',(-1.115625,0.,2.1));
#1369=CARTESIAN_POINT('',(-2.25,0.25,2.1));
#1370=CARTESIAN_POINT('',(-2.25,0.,2.1));
#1371=CARTESIAN_POINT('',(-2.25,0.25,2.1));
#1372=CARTESIAN_POINT('Origin',(-1.725,0.25,1.75));
#1373=CARTESIAN_POINT('',(-2.25,0.25,1.375));
#1374=CARTESIAN_POINT('Origin',(1.2,0.,1.4));
#1375=CARTESIAN_POINT('',(1.2,0.,1.4));
#1376=CARTESIAN_POINT('',(1.2,0.,2.1));
#1377=CARTESIAN_POINT('',(1.2,0.,0.690625));
#1378=CARTESIAN_POINT('',(1.2,0.25,1.4));
#1379=CARTESIAN_POINT('',(1.2,0.,1.4));
#1380=CARTESIAN_POINT('',(1.2,0.25,2.1));
#1381=CARTESIAN_POINT('',(1.2,0.25,1.4));
#1382=CARTESIAN_POINT('',(1.2,0.,2.1));
#1383=CARTESIAN_POINT('Origin',(2.25,0.,1.4));
#1384=CARTESIAN_POINT('',(2.25,0.,1.4));
#1385=CARTESIAN_POINT('',(1.134375,0.,1.4));
#1386=CARTESIAN_POINT('',(2.25,0.25,1.4));
#1387=CARTESIAN_POINT('',(2.25,0.,1.4));
#1388=CARTESIAN_POINT('',(2.25,0.25,1.4));
#1389=CARTESIAN_POINT('Origin',(1.2,0.,2.1));
#1390=CARTESIAN_POINT('',(2.25,0.,2.1));
#1391=CARTESIAN_POINT('',(0.609375000000001,0.,2.1));
#1392=CARTESIAN_POINT('',(2.25,0.25,2.1));
#1393=CARTESIAN_POINT('',(1.2,0.25,2.1));
#1394=CARTESIAN_POINT('',(2.25,0.,2.1));
#1395=CARTESIAN_POINT('Origin',(1.725,0.25,1.75));
#1396=CARTESIAN_POINT('',(2.25,0.25,2.125));
#1397=CARTESIAN_POINT('Origin',(-1.2,0.,-2.1));
#1398=CARTESIAN_POINT('',(-1.2,0.,-2.1));
#1399=CARTESIAN_POINT('',(-2.25,0.,-2.1));
#1400=CARTESIAN_POINT('',(-0.590625,0.,-2.1));
#1401=CARTESIAN_POINT('',(-1.2,0.25,-2.1));
#1402=CARTESIAN_POINT('',(-1.2,0.,-2.1));
#1403=CARTESIAN_POINT('',(-2.25,0.25,-2.1));
#1404=CARTESIAN_POINT('',(-1.2,0.25,-2.1));
#1405=CARTESIAN_POINT('',(-2.25,0.,-2.1));
#1406=CARTESIAN_POINT('Origin',(-1.2,0.,-1.4));
#1407=CARTESIAN_POINT('',(-1.2,0.,-1.4));
#1408=CARTESIAN_POINT('',(-1.2,0.,-0.709375));
#1409=CARTESIAN_POINT('',(-1.2,0.25,-1.4));
#1410=CARTESIAN_POINT('',(-1.2,0.,-1.4));
#1411=CARTESIAN_POINT('',(-1.2,0.25,-1.4));
#1412=CARTESIAN_POINT('Origin',(-2.25,0.,-1.4));
#1413=CARTESIAN_POINT('',(-2.25,0.,-1.4));
#1414=CARTESIAN_POINT('',(-1.115625,0.,-1.4));
#1415=CARTESIAN_POINT('',(-2.25,0.25,-1.4));
#1416=CARTESIAN_POINT('',(-2.25,0.,-1.4));
#1417=CARTESIAN_POINT('',(-2.25,0.25,-1.4));
#1418=CARTESIAN_POINT('Origin',(-1.725,0.25,-1.75));
#1419=CARTESIAN_POINT('',(-2.25,0.25,-2.125));
#1420=CARTESIAN_POINT('Origin',(2.25,0.,2.5));
#1421=CARTESIAN_POINT('',(2.25,0.,1.25));
#1422=CARTESIAN_POINT('',(2.25,0.,2.5));
#1423=CARTESIAN_POINT('',(2.25,3.,1.25));
#1424=CARTESIAN_POINT('',(2.25,0.,1.25));
#1425=CARTESIAN_POINT('',(2.25,3.,2.5));
#1426=CARTESIAN_POINT('',(2.25,3.,2.5));
#1427=CARTESIAN_POINT('',(2.25,0.,2.5));
#1428=CARTESIAN_POINT('',(2.25,0.,2.5));
#1429=CARTESIAN_POINT('',(2.25,0.,2.5));
#1430=CARTESIAN_POINT('Origin',(0.0187500000000007,0.,-0.0187499999999995));
#1431=CARTESIAN_POINT('',(-2.25,0.,1.25));
#1432=CARTESIAN_POINT('',(-2.25,0.,1.));
#1433=CARTESIAN_POINT('',(-2.5,0.,1.));
#1434=CARTESIAN_POINT('',(-2.0625,0.,1.4375));
#1435=CARTESIAN_POINT('',(-2.5,0.,-0.999999999999998));
#1436=CARTESIAN_POINT('',(-2.5,0.,-0.999999999999998));
#1437=CARTESIAN_POINT('',(-2.25,0.,-1.25));
#1438=CARTESIAN_POINT('',(-2.053125,0.,-1.446875));
#1439=CARTESIAN_POINT('',(-2.25,0.,-2.5));
#1440=CARTESIAN_POINT('',(-2.25,0.,-2.5));
#1441=CARTESIAN_POINT('',(-2.25,0.,-2.5));
#1442=CARTESIAN_POINT('',(1.5,0.,-2.5));
#1443=CARTESIAN_POINT('',(2.5,0.,-2.5));
#1444=CARTESIAN_POINT('',(2.5,0.,-1.5));
#1445=CARTESIAN_POINT('',(2.,0.,-2.));
#1446=CARTESIAN_POINT('',(2.5,0.,1.));
#1447=CARTESIAN_POINT('',(2.5,0.,1.));
#1448=CARTESIAN_POINT('',(2.071875,0.,1.428125));
#1449=CARTESIAN_POINT('',(-2.25,0.,2.5));
#1450=CARTESIAN_POINT('',(-2.25,0.,2.5));
#1451=CARTESIAN_POINT('',(-2.25,0.,1.));
#1452=CARTESIAN_POINT('',(-1.2,0.,1.70028174180333E-16));
#1453=CARTESIAN_POINT('Origin',(-1.5,0.,1.33288770205912E-16));
#1454=CARTESIAN_POINT('',(1.8,0.,3.67394039744206E-17));
#1455=CARTESIAN_POINT('Origin',(1.5,0.,0.));
#1456=CARTESIAN_POINT('Origin',(1.5,0.,0.));
#1457=CARTESIAN_POINT('',(1.8,0.15,3.67394039744206E-17));
#1458=CARTESIAN_POINT('Origin',(1.5,0.15,0.));
#1459=CARTESIAN_POINT('Origin',(1.5,0.15,6.02334540269725E-18));
#1460=CARTESIAN_POINT('Origin',(-1.5,0.,1.33288770205912E-16));
#1461=CARTESIAN_POINT('',(-1.2,0.15,1.70028174180333E-16));
#1462=CARTESIAN_POINT('Origin',(-1.5,0.15,1.33288770205912E-16));
#1463=CARTESIAN_POINT('Origin',(-1.5,0.15,1.45693375789612E-16));
#1464=CARTESIAN_POINT('Origin',(0.,3.,-1.1));
#1465=CARTESIAN_POINT('',(0.4,3.,-1.1));
#1466=CARTESIAN_POINT('Origin',(0.,3.,-1.1));
#1467=CARTESIAN_POINT('',(0.4,2.7,-1.1));
#1468=CARTESIAN_POINT('Origin',(0.,2.7,-1.1));
#1469=CARTESIAN_POINT('Origin',(-0.03593227442019,0.3,0.0453653031201935));
#1470=CARTESIAN_POINT('',(-1.94999999996216,0.3,2.20000000000582));
#1471=CARTESIAN_POINT('',(-1.95000000010768,0.3,1.12573593120032));
#1472=CARTESIAN_POINT('',(-1.94999999996216,0.3,2.20000000000582));
#1473=CARTESIAN_POINT('',(1.95000000003492,0.3,2.20000000000582));
#1474=CARTESIAN_POINT('',(1.95000000003492,0.3,2.20000000000582));
#1475=CARTESIAN_POINT('',(1.94999999988941,0.3,1.12573593156412));
#1476=CARTESIAN_POINT('',(1.94999999988941,0.3,1.12573593156412));
#1477=CARTESIAN_POINT('',(2.19999999993306,0.3,0.875735931549571));
#1478=CARTESIAN_POINT('',(2.19999999993306,0.3,0.875735931549571));
#1479=CARTESIAN_POINT('',(2.20000000007858,0.3,-1.37573593106936));
#1480=CARTESIAN_POINT('',(2.20000000007858,0.3,-1.37573593106936));
#1481=CARTESIAN_POINT('',(1.3757359313604,0.3,-2.19999999993306));
#1482=CARTESIAN_POINT('',(1.3757359313604,0.3,-2.19999999993306));
#1483=CARTESIAN_POINT('',(-1.94999999996216,0.3,-2.20000000007858));
#1484=CARTESIAN_POINT('',(-1.94999999996216,0.3,-2.20000000007858));
#1485=CARTESIAN_POINT('',(-1.94999999996216,0.3,-1.12573593149136));
#1486=CARTESIAN_POINT('',(-1.94999999996216,0.3,-1.12573593149136));
#1487=CARTESIAN_POINT('',(-2.19999999993306,0.3,-0.875735931476811));
#1488=CARTESIAN_POINT('',(-2.19999999993306,0.3,-0.875735931476811));
#1489=CARTESIAN_POINT('',(-2.19999999993306,0.3,0.875735931549571));
#1490=CARTESIAN_POINT('',(-2.19999999993306,0.3,0.875735931549571));
#1491=CARTESIAN_POINT('',(-1.95000000010768,0.3,1.12573593120032));
#1492=CARTESIAN_POINT('Origin',(-2.19999999993306,0.3,0.875735931549571));
#1493=CARTESIAN_POINT('',(-2.19999999993306,2.7,0.875735931549571));
#1494=CARTESIAN_POINT('',(-2.19999999993306,0.3,0.875735931549571));
#1495=CARTESIAN_POINT('',(-1.95000000010768,2.7,1.12573593120032));
#1496=CARTESIAN_POINT('',(-1.95000000010768,2.7,1.12573593120032));
#1497=CARTESIAN_POINT('',(-1.95000000010768,0.3,1.12573593120032));
#1498=CARTESIAN_POINT('Origin',(-2.19999999993306,0.3,-0.875735931476811));
#1499=CARTESIAN_POINT('',(-2.19999999993306,2.7,-0.875735931476811));
#1500=CARTESIAN_POINT('',(-2.19999999993306,0.3,-0.875735931476811));
#1501=CARTESIAN_POINT('',(-2.19999999993306,2.7,0.875735931549571));
#1502=CARTESIAN_POINT('Origin',(-1.94999999996216,0.3,-1.12573593149136));
#1503=CARTESIAN_POINT('',(-1.94999999996216,2.7,-1.12573593149136));
#1504=CARTESIAN_POINT('',(-1.94999999996216,0.3,-1.12573593149136));
#1505=CARTESIAN_POINT('',(-2.19999999993306,2.7,-0.875735931476811));
#1506=CARTESIAN_POINT('Origin',(-1.94999999996216,0.3,-2.20000000007858));
#1507=CARTESIAN_POINT('',(-1.94999999996216,2.7,-2.20000000007858));
#1508=CARTESIAN_POINT('',(-1.94999999996216,0.3,-2.20000000007858));
#1509=CARTESIAN_POINT('',(-1.94999999996216,2.7,-1.12573593149136));
#1510=CARTESIAN_POINT('Origin',(1.3757359313604,0.3,-2.19999999993306));
#1511=CARTESIAN_POINT('',(1.3757359313604,2.7,-2.19999999993306));
#1512=CARTESIAN_POINT('',(1.3757359313604,0.3,-2.19999999993306));
#1513=CARTESIAN_POINT('',(-1.94999999996216,2.7,-2.20000000007858));
#1514=CARTESIAN_POINT('Origin',(2.20000000007858,0.3,-1.37573593106936));
#1515=CARTESIAN_POINT('',(2.20000000007858,2.7,-1.37573593106936));
#1516=CARTESIAN_POINT('',(2.20000000007858,0.3,-1.37573593106936));
#1517=CARTESIAN_POINT('',(1.3757359313604,2.7,-2.19999999993306));
#1518=CARTESIAN_POINT('Origin',(2.19999999993306,0.3,0.875735931549571));
#1519=CARTESIAN_POINT('',(2.19999999993306,2.7,0.875735931549571));
#1520=CARTESIAN_POINT('',(2.19999999993306,0.3,0.875735931549571));
#1521=CARTESIAN_POINT('',(2.20000000007858,2.7,-1.37573593106936));
#1522=CARTESIAN_POINT('Origin',(1.94999999988941,0.3,1.12573593156412));
#1523=CARTESIAN_POINT('',(1.94999999988941,2.7,1.12573593156412));
#1524=CARTESIAN_POINT('',(1.94999999988941,0.3,1.12573593156412));
#1525=CARTESIAN_POINT('',(2.19999999993306,2.7,0.875735931549571));
#1526=CARTESIAN_POINT('Origin',(1.95000000003492,0.3,2.20000000000582));
#1527=CARTESIAN_POINT('',(1.95000000003492,2.7,2.20000000000582));
#1528=CARTESIAN_POINT('',(1.95000000003492,0.3,2.20000000000582));
#1529=CARTESIAN_POINT('',(1.94999999988941,2.7,1.12573593156412));
#1530=CARTESIAN_POINT('Origin',(-1.94999999996216,0.3,2.20000000000582));
#1531=CARTESIAN_POINT('',(-1.94999999996216,2.7,2.20000000000582));
#1532=CARTESIAN_POINT('',(-1.94999999996216,0.3,2.20000000000582));
#1533=CARTESIAN_POINT('',(1.95000000003492,2.7,2.20000000000582));
#1534=CARTESIAN_POINT('Origin',(-1.95000000010768,0.3,1.12573593120032));
#1535=CARTESIAN_POINT('',(-1.94999999996216,2.7,2.20000000000582));
#1536=CARTESIAN_POINT('Origin',(-0.0359322744201901,2.7,0.0453653031201934));
#1537=CARTESIAN_POINT('Origin',(2.,0.,-2.));
#1538=CARTESIAN_POINT('',(1.5,3.,-2.5));
#1539=CARTESIAN_POINT('',(2.5,3.,-1.5));
#1540=CARTESIAN_POINT('',(2.,3.,-2.));
#1541=CARTESIAN_POINT('',(2.5,0.,-1.5));
#1542=CARTESIAN_POINT('',(1.5,0.,-2.5));
#1543=CARTESIAN_POINT('Origin',(0.0187500000000007,3.,-0.0187499999999996));
#1544=CARTESIAN_POINT('',(-2.25,3.,-2.5));
#1545=CARTESIAN_POINT('',(2.5,3.,-2.5));
#1546=CARTESIAN_POINT('',(-2.25,3.,-1.25));
#1547=CARTESIAN_POINT('',(-2.25,3.,-2.5));
#1548=CARTESIAN_POINT('',(-2.5,3.,-0.999999999999998));
#1549=CARTESIAN_POINT('',(-2.053125,3.,-1.446875));
#1550=CARTESIAN_POINT('',(-2.5,3.,1.));
#1551=CARTESIAN_POINT('',(-2.5,3.,-0.999999999999998));
#1552=CARTESIAN_POINT('',(-2.25,3.,1.25));
#1553=CARTESIAN_POINT('',(-2.0625,3.,1.4375));
#1554=CARTESIAN_POINT('',(-2.25,3.,2.5));
#1555=CARTESIAN_POINT('',(-2.25,3.,1.));
#1556=CARTESIAN_POINT('',(-2.25,3.,2.5));
#1557=CARTESIAN_POINT('',(2.5,3.,1.));
#1558=CARTESIAN_POINT('',(2.071875,3.,1.428125));
#1559=CARTESIAN_POINT('',(2.5,3.,1.));
#1560=CARTESIAN_POINT('Origin',(2.5,0.,-2.5));
#1561=CARTESIAN_POINT('',(-2.25,0.,-2.5));
#1562=CARTESIAN_POINT('Origin',(-2.375,0.,-1.125));
#1563=CARTESIAN_POINT('',(-2.5,0.,-0.999999999999998));
#1564=CARTESIAN_POINT('',(-2.25,0.,-1.25));
#1565=CARTESIAN_POINT('Origin',(-2.375,0.,1.125));
#1566=CARTESIAN_POINT('',(-2.25,0.,1.25));
#1567=CARTESIAN_POINT('',(-2.5,0.,1.));
#1568=CARTESIAN_POINT('Origin',(-2.25,0.,1.));
#1569=CARTESIAN_POINT('',(-2.25,0.,2.5));
#1570=CARTESIAN_POINT('Origin',(2.375,0.,1.125));
#1571=CARTESIAN_POINT('',(2.5,0.,1.));
#1572=CARTESIAN_POINT('Origin',(2.5,0.,1.));
#1573=CARTESIAN_POINT('Origin',(-2.25,0.,2.5));
#1574=CARTESIAN_POINT('Origin',(-2.5,0.,-0.999999999999998));
#1575=CARTESIAN_POINT('Origin',(-2.25,0.,-2.5));
#1576=CARTESIAN_POINT('',(0.,0.,0.));
#1577=CARTESIAN_POINT('Origin',(-0.8,0.5,0.));
#1578=CARTESIAN_POINT('',(-1.3,0.5,-0.35));
#1579=CARTESIAN_POINT('',(-0.8,0.,-0.35));
#1580=CARTESIAN_POINT('Origin',(-0.8,0.5,-0.35));
#1581=CARTESIAN_POINT('',(-0.8,0.,0.35));
#1582=CARTESIAN_POINT('',(-0.8,0.,0.));
#1583=CARTESIAN_POINT('',(-1.3,0.5,0.35));
#1584=CARTESIAN_POINT('Origin',(-0.8,0.5,0.35));
#1585=CARTESIAN_POINT('',(-1.3,0.5,0.));
#1586=CARTESIAN_POINT('Origin',(-1.3,0.,0.));
#1587=CARTESIAN_POINT('',(0.,0.,-0.35));
#1588=CARTESIAN_POINT('',(0.,0.,-0.35));
#1589=CARTESIAN_POINT('',(0.,0.,0.35));
#1590=CARTESIAN_POINT('',(0.,0.,0.));
#1591=CARTESIAN_POINT('',(0.,0.,0.35));
#1592=CARTESIAN_POINT('Origin',(-0.8495,0.4005,-0.35));
#1593=CARTESIAN_POINT('',(-1.3,1.2,-0.35));
#1594=CARTESIAN_POINT('',(-1.3,0.,-0.35));
#1595=CARTESIAN_POINT('',(-1.05,1.2,-0.35));
#1596=CARTESIAN_POINT('',(-1.3,1.2,-0.35));
#1597=CARTESIAN_POINT('',(-1.05,0.5,-0.35));
#1598=CARTESIAN_POINT('',(-1.05,1.2,-0.35));
#1599=CARTESIAN_POINT('',(-0.8,0.25,-0.35));
#1600=CARTESIAN_POINT('Origin',(-0.8,0.5,-0.35));
#1601=CARTESIAN_POINT('',(6.93889390390723E-17,0.25,-0.35));
#1602=CARTESIAN_POINT('',(-1.05,0.25,-0.35));
#1603=CARTESIAN_POINT('',(6.93889390390723E-17,0.25,-0.35));
#1604=CARTESIAN_POINT('Origin',(-0.8,0.5,0.));
#1605=CARTESIAN_POINT('',(-1.05,0.5,0.35));
#1606=CARTESIAN_POINT('',(-0.8,0.25,0.35));
#1607=CARTESIAN_POINT('Origin',(-0.8,0.5,0.35));
#1608=CARTESIAN_POINT('',(-0.8,0.25,0.));
#1609=CARTESIAN_POINT('',(-1.05,0.5,0.));
#1610=CARTESIAN_POINT('Origin',(1.38777878078145E-16,0.25,0.));
#1611=CARTESIAN_POINT('',(6.93889390390723E-17,0.25,0.35));
#1612=CARTESIAN_POINT('',(-1.05,0.25,0.35));
#1613=CARTESIAN_POINT('',(6.93889390390723E-17,0.25,0.));
#1614=CARTESIAN_POINT('Origin',(-1.3,1.2,0.));
#1615=CARTESIAN_POINT('',(-1.3,1.2,0.35));
#1616=CARTESIAN_POINT('',(-1.3,0.,0.35));
#1617=CARTESIAN_POINT('',(-1.3,1.2,0.));
#1618=CARTESIAN_POINT('Origin',(-1.05,1.2,0.));
#1619=CARTESIAN_POINT('',(-1.05,1.2,0.35));
#1620=CARTESIAN_POINT('',(-1.3,1.2,0.35));
#1621=CARTESIAN_POINT('',(-1.05,1.2,0.));
#1622=CARTESIAN_POINT('Origin',(-1.05,0.25,0.));
#1623=CARTESIAN_POINT('',(-1.05,1.2,0.35));
#1624=CARTESIAN_POINT('Origin',(-1.54074395550979E-32,0.,0.));
#1625=CARTESIAN_POINT('',(6.93889390390723E-17,0.25,0.35));
#1626=CARTESIAN_POINT('Origin',(-0.8495,0.4005,0.35));
#1627=CARTESIAN_POINT('',(-1.23259516440783E-32,1.11022302462516E-16,4.62149163970587E-65));
#1628=CARTESIAN_POINT('',(-1.2,0.,1.75));
#1629=CARTESIAN_POINT('',(1.2,1.11022302462516E-15,1.75));
#1630=CARTESIAN_POINT('',(-1.2,0.,-1.75));
#1631=UNCERTAINTY_MEASURE_WITH_UNIT(LENGTH_MEASURE(0.01),#1639,
'DISTANCE_ACCURACY_VALUE',
'Maximum model space distance between geometric entities at asserted c
onnectivities');
#1632=UNCERTAINTY_MEASURE_WITH_UNIT(LENGTH_MEASURE(0.01),#1639,
'DISTANCE_ACCURACY_VALUE',
'Maximum model space distance between geometric entities at asserted c
onnectivities');
#1633=UNCERTAINTY_MEASURE_WITH_UNIT(LENGTH_MEASURE(0.01),#1639,
'DISTANCE_ACCURACY_VALUE',
'Maximum model space distance between geometric entities at asserted c
onnectivities');
#1634=UNCERTAINTY_MEASURE_WITH_UNIT(LENGTH_MEASURE(1.E-6),#1639,
'DISTANCE_ACCURACY_VALUE',
'Maximum model space distance between geometric entities at asserted c
onnectivities');
#1635=(
GEOMETRIC_REPRESENTATION_CONTEXT(3)
GLOBAL_UNCERTAINTY_ASSIGNED_CONTEXT((#1631))
GLOBAL_UNIT_ASSIGNED_CONTEXT((#1639,#1642,#1640))
REPRESENTATION_CONTEXT('','3D')
);
#1636=(
GEOMETRIC_REPRESENTATION_CONTEXT(3)
GLOBAL_UNCERTAINTY_ASSIGNED_CONTEXT((#1632))
GLOBAL_UNIT_ASSIGNED_CONTEXT((#1639,#1642,#1640))
REPRESENTATION_CONTEXT('','3D')
);
#1637=(
GEOMETRIC_REPRESENTATION_CONTEXT(3)
GLOBAL_UNCERTAINTY_ASSIGNED_CONTEXT((#1633))
GLOBAL_UNIT_ASSIGNED_CONTEXT((#1639,#1642,#1640))
REPRESENTATION_CONTEXT('','3D')
);
#1638=(
GEOMETRIC_REPRESENTATION_CONTEXT(3)
GLOBAL_UNCERTAINTY_ASSIGNED_CONTEXT((#1634))
GLOBAL_UNIT_ASSIGNED_CONTEXT((#1639,#1642,#1640))
REPRESENTATION_CONTEXT('','3D')
);
#1639=(
LENGTH_UNIT()
NAMED_UNIT(*)
SI_UNIT(.MILLI.,.METRE.)
);
#1640=(
NAMED_UNIT(*)
SI_UNIT($,.STERADIAN.)
SOLID_ANGLE_UNIT()
);
#1641=DIMENSIONAL_EXPONENTS(0.,0.,0.,0.,0.,0.,0.);
#1642=(
CONVERSION_BASED_UNIT('degree',#1644)
NAMED_UNIT(#1641)
PLANE_ANGLE_UNIT()
);
#1643=(
NAMED_UNIT(*)
PLANE_ANGLE_UNIT()
SI_UNIT($,.RADIAN.)
);
#1644=PLANE_ANGLE_MEASURE_WITH_UNIT(PLANE_ANGLE_MEASURE(0.01745329252),
#1643);
#1645=SHAPE_DEFINITION_REPRESENTATION(#1648,#1655);
#1646=SHAPE_DEFINITION_REPRESENTATION(#1649,#1656);
#1647=SHAPE_DEFINITION_REPRESENTATION(#1650,#1657);
#1648=PRODUCT_DEFINITION_SHAPE('',$,#1659);
#1649=PRODUCT_DEFINITION_SHAPE('',$,#1660);
#1650=PRODUCT_DEFINITION_SHAPE('',$,#1661);
#1651=PRODUCT_DEFINITION_SHAPE($,$,#23);
#1652=PRODUCT_DEFINITION_SHAPE($,$,#24);
#1653=PRODUCT_DEFINITION_SHAPE($,$,#25);
#1654=PRODUCT_DEFINITION_SHAPE($,$,#26);
#1655=SHAPE_REPRESENTATION('',(#1017,#1083,#1084,#1085,#1086),#1635);
#1656=SHAPE_REPRESENTATION('',(#1018),#1636);
#1657=SHAPE_REPRESENTATION('',(#1068),#1637);
#1658=PRODUCT_DEFINITION_CONTEXT('part definition',#1669,'design');
#1659=PRODUCT_DEFINITION('CUI CSS-0578-SMT-TR','CUI CSS-0578-SMT-TR',#1662,
#1658);
#1660=PRODUCT_DEFINITION('CUI CSS-0578-SMT-TR_Body',
'CUI CSS-0578-SMT-TR_Body',#1663,#1658);
#1661=PRODUCT_DEFINITION('CUI CSS-0578-SMT-TR_Lead',
'CUI CSS-0578-SMT-TR_Lead',#1664,#1658);
#1662=PRODUCT_DEFINITION_FORMATION('',$,#1671);
#1663=PRODUCT_DEFINITION_FORMATION('',$,#1672);
#1664=PRODUCT_DEFINITION_FORMATION('',$,#1673);
#1665=PRODUCT_RELATED_PRODUCT_CATEGORY('CUI CSS-0578-SMT-TR',
'CUI CSS-0578-SMT-TR',(#1671));
#1666=PRODUCT_RELATED_PRODUCT_CATEGORY('CUI CSS-0578-SMT-TR_Body',
'CUI CSS-0578-SMT-TR_Body',(#1672));
#1667=PRODUCT_RELATED_PRODUCT_CATEGORY('CUI CSS-0578-SMT-TR_Lead',
'CUI CSS-0578-SMT-TR_Lead',(#1673));
#1668=APPLICATION_PROTOCOL_DEFINITION('international standard',
'automotive_design',2009,#1669);
#1669=APPLICATION_CONTEXT(
'Core Data for Automotive Mechanical Design Process');
#1670=PRODUCT_CONTEXT('part definition',#1669,'mechanical');
#1671=PRODUCT('CUI CSS-0578-SMT-TR','CUI CSS-0578-SMT-TR',$,(#1670));
#1672=PRODUCT('CUI CSS-0578-SMT-TR_Body','CUI CSS-0578-SMT-TR_Body',$,(#1670));
#1673=PRODUCT('CUI CSS-0578-SMT-TR_Lead','CUI CSS-0578-SMT-TR_Lead',$,(#1670));
ENDSEC;
END-ISO-10303-21;
