M48
; DRILL file {KiCad 8.0.6} date 2026-01-22T01:40:40+1000
; FORMAT={-:-/ absolute / metric / decimal}
; #@! TF.CreationDate,2026-01-22T01:40:40+10:00
; #@! TF.GenerationSoftware,Kicad,Pcbnew,8.0.6
; #@! TF.FileFunction,Plated,1,2,PTH
FMAT,2
METRIC
; #@! TA.AperFunction,Plated,PTH,ViaDrill
T1C0.200
%
G90
G05
T1
X1.5Y32.74
X1.5Y31.47
X1.5Y22.58
X1.5Y21.31
X1.5Y20.04
X1.5Y18.77
X1.5Y16.23
X1.5Y14.96
X1.5Y13.69
X1.5Y12.42
X1.5Y11.15
X1.5Y2.26
X5.0Y32.74
X5.0Y31.47
X5.0Y30.2
X5.0Y28.93
X5.0Y27.66
X5.0Y26.39
X5.0Y25.12
X5.0Y23.85
X5.0Y22.58
X5.0Y21.31
X5.0Y20.04
X5.0Y18.77
X5.0Y13.69
X5.0Y12.42
X5.0Y11.15
X5.0Y9.88
X5.0Y8.61
X5.0Y7.34
X5.0Y6.07
X5.0Y4.8
X5.0Y3.53
X5.0Y2.26
X8.5Y32.74
X8.5Y31.47
X8.5Y30.2
X8.5Y28.93
X8.5Y25.12
X8.5Y23.85
X8.5Y22.58
X8.5Y21.31
X8.5Y18.77
X8.5Y16.23
X8.5Y13.69
X8.5Y12.42
X8.5Y9.245
X8.5Y4.165
X8.5Y2.26
X11.875Y28.295
X12.625Y24.485
X12.875Y26.39
X13.125Y25.755
X13.125Y16.23
X13.625Y24.485
X13.875Y25.12
X13.875Y22.58
X14.125Y21.945
X14.5Y12.42
X14.875Y13.055
X15.125Y13.69
X15.3Y4.8
X15.375Y21.945
X15.625Y23.85
X15.875Y20.675
X16.625Y27.66
X17.0Y6.07
X17.125Y29.565
X17.625Y30.575
X18.25Y7.34
X18.675Y8.61
X18.875Y31.47
X18.875Y21.31
X19.375Y30.2
X19.375Y28.93
X35.5Y46.5
X44.5Y46.5
X45.5Y46.5
X46.5Y46.5
X47.5Y46.5
X49.0Y46.5
X52.5Y46.5
X54.5Y46.5
X55.0Y46.5
M30
