ISO-10303-21;
HEADER;
/* Generated by software containing ST-Developer
 * from STEP Tools, Inc. (www.steptools.com) 
 */

FILE_DESCRIPTION(
/* description */ (''),
/* implementation_level */ '2;1');

FILE_NAME(
/* name */ '',
/* time_stamp */ '',
/* author */ (''),
/* organization */ (''),
/* preprocessor_version */ '',
/* originating_system */ '',
/* authorisation */ '');

FILE_SCHEMA (('AUTOMOTIVE_DESIGN { 1 0 10303 214 3 1 1 }'));
ENDSEC;

DATA;
#10=MECHANICAL_DESIGN_GEOMETRIC_PRESENTATION_REPRESENTATION('',(#13),#241);
#11=SHAPE_REPRESENTATION_RELATIONSHIP('SRR','None',#250,#12);
#12=ADVANCED_BREP_SHAPE_REPRESENTATION('',(#14),#240);
#13=STYLED_ITEM('',(#259),#14);
#14=MANIFOLD_SOLID_BREP('Solid1',#145);
#15=PLANE('',#150);
#16=PLANE('',#151);
#17=PLANE('',#155);
#18=PLANE('',#156);
#19=PLANE('',#157);
#20=PLANE('',#158);
#21=FACE_OUTER_BOUND('',#29,.T.);
#22=FACE_OUTER_BOUND('',#30,.T.);
#23=FACE_OUTER_BOUND('',#31,.T.);
#24=FACE_OUTER_BOUND('',#32,.T.);
#25=FACE_OUTER_BOUND('',#33,.T.);
#26=FACE_OUTER_BOUND('',#34,.T.);
#27=FACE_OUTER_BOUND('',#35,.T.);
#28=FACE_OUTER_BOUND('',#36,.T.);
#29=EDGE_LOOP('',(#99,#100,#101,#102));
#30=EDGE_LOOP('',(#103,#104,#105,#106));
#31=EDGE_LOOP('',(#107,#108,#109,#110,#111,#112));
#32=EDGE_LOOP('',(#113,#114,#115,#116));
#33=EDGE_LOOP('',(#117,#118,#119,#120));
#34=EDGE_LOOP('',(#121,#122,#123,#124));
#35=EDGE_LOOP('',(#125,#126,#127,#128));
#36=EDGE_LOOP('',(#129,#130,#131,#132,#133,#134));
#37=LINE('',#205,#51);
#38=LINE('',#208,#52);
#39=LINE('',#211,#53);
#40=LINE('',#213,#54);
#41=LINE('',#214,#55);
#42=LINE('',#217,#56);
#43=LINE('',#219,#57);
#44=LINE('',#221,#58);
#45=LINE('',#226,#59);
#46=LINE('',#229,#60);
#47=LINE('',#230,#61);
#48=LINE('',#233,#62);
#49=LINE('',#234,#63);
#50=LINE('',#236,#64);
#51=VECTOR('',#165,10.);
#52=VECTOR('',#168,10.);
#53=VECTOR('',#171,10.);
#54=VECTOR('',#172,10.);
#55=VECTOR('',#173,10.);
#56=VECTOR('',#176,10.);
#57=VECTOR('',#177,10.);
#58=VECTOR('',#178,10.);
#59=VECTOR('',#185,10.);
#60=VECTOR('',#188,10.);
#61=VECTOR('',#189,10.);
#62=VECTOR('',#192,10.);
#63=VECTOR('',#193,10.);
#64=VECTOR('',#196,10.);
#65=CIRCLE('',#148,0.3);
#66=CIRCLE('',#149,0.3);
#67=CIRCLE('',#152,0.3);
#68=CIRCLE('',#154,0.3);
#69=VERTEX_POINT('',#201);
#70=VERTEX_POINT('',#202);
#71=VERTEX_POINT('',#204);
#72=VERTEX_POINT('',#206);
#73=VERTEX_POINT('',#210);
#74=VERTEX_POINT('',#212);
#75=VERTEX_POINT('',#216);
#76=VERTEX_POINT('',#218);
#77=VERTEX_POINT('',#220);
#78=VERTEX_POINT('',#224);
#79=VERTEX_POINT('',#228);
#80=VERTEX_POINT('',#232);
#81=EDGE_CURVE('',#69,#70,#65,.T.);
#82=EDGE_CURVE('',#70,#71,#37,.T.);
#83=EDGE_CURVE('',#71,#72,#66,.T.);
#84=EDGE_CURVE('',#72,#69,#38,.T.);
#85=EDGE_CURVE('',#73,#72,#39,.T.);
#86=EDGE_CURVE('',#74,#73,#40,.T.);
#87=EDGE_CURVE('',#69,#74,#41,.T.);
#88=EDGE_CURVE('',#71,#75,#42,.T.);
#89=EDGE_CURVE('',#75,#76,#43,.T.);
#90=EDGE_CURVE('',#76,#77,#44,.T.);
#91=EDGE_CURVE('',#73,#77,#67,.T.);
#92=EDGE_CURVE('',#78,#74,#68,.T.);
#93=EDGE_CURVE('',#77,#78,#45,.T.);
#94=EDGE_CURVE('',#79,#70,#46,.T.);
#95=EDGE_CURVE('',#75,#79,#47,.T.);
#96=EDGE_CURVE('',#80,#79,#48,.T.);
#97=EDGE_CURVE('',#76,#80,#49,.T.);
#98=EDGE_CURVE('',#78,#80,#50,.T.);
#99=ORIENTED_EDGE('',*,*,#81,.T.);
#100=ORIENTED_EDGE('',*,*,#82,.T.);
#101=ORIENTED_EDGE('',*,*,#83,.T.);
#102=ORIENTED_EDGE('',*,*,#84,.T.);
#103=ORIENTED_EDGE('',*,*,#84,.F.);
#104=ORIENTED_EDGE('',*,*,#85,.F.);
#105=ORIENTED_EDGE('',*,*,#86,.F.);
#106=ORIENTED_EDGE('',*,*,#87,.F.);
#107=ORIENTED_EDGE('',*,*,#83,.F.);
#108=ORIENTED_EDGE('',*,*,#88,.T.);
#109=ORIENTED_EDGE('',*,*,#89,.T.);
#110=ORIENTED_EDGE('',*,*,#90,.T.);
#111=ORIENTED_EDGE('',*,*,#91,.F.);
#112=ORIENTED_EDGE('',*,*,#85,.T.);
#113=ORIENTED_EDGE('',*,*,#92,.T.);
#114=ORIENTED_EDGE('',*,*,#86,.T.);
#115=ORIENTED_EDGE('',*,*,#91,.T.);
#116=ORIENTED_EDGE('',*,*,#93,.T.);
#117=ORIENTED_EDGE('',*,*,#82,.F.);
#118=ORIENTED_EDGE('',*,*,#94,.F.);
#119=ORIENTED_EDGE('',*,*,#95,.F.);
#120=ORIENTED_EDGE('',*,*,#88,.F.);
#121=ORIENTED_EDGE('',*,*,#89,.F.);
#122=ORIENTED_EDGE('',*,*,#95,.T.);
#123=ORIENTED_EDGE('',*,*,#96,.F.);
#124=ORIENTED_EDGE('',*,*,#97,.F.);
#125=ORIENTED_EDGE('',*,*,#93,.F.);
#126=ORIENTED_EDGE('',*,*,#90,.F.);
#127=ORIENTED_EDGE('',*,*,#97,.T.);
#128=ORIENTED_EDGE('',*,*,#98,.F.);
#129=ORIENTED_EDGE('',*,*,#81,.F.);
#130=ORIENTED_EDGE('',*,*,#87,.T.);
#131=ORIENTED_EDGE('',*,*,#92,.F.);
#132=ORIENTED_EDGE('',*,*,#98,.T.);
#133=ORIENTED_EDGE('',*,*,#96,.T.);
#134=ORIENTED_EDGE('',*,*,#94,.T.);
#135=CYLINDRICAL_SURFACE('',#147,0.3);
#136=CYLINDRICAL_SURFACE('',#153,0.3);
#137=ADVANCED_FACE('',(#21),#135,.T.);
#138=ADVANCED_FACE('',(#22),#15,.T.);
#139=ADVANCED_FACE('',(#23),#16,.F.);
#140=ADVANCED_FACE('',(#24),#136,.T.);
#141=ADVANCED_FACE('',(#25),#17,.T.);
#142=ADVANCED_FACE('',(#26),#18,.T.);
#143=ADVANCED_FACE('',(#27),#19,.T.);
#144=ADVANCED_FACE('',(#28),#20,.T.);
#145=CLOSED_SHELL('',(#137,#138,#139,#140,#141,#142,#143,#144));
#146=AXIS2_PLACEMENT_3D('placement',#199,#159,#160);
#147=AXIS2_PLACEMENT_3D('',#200,#161,#162);
#148=AXIS2_PLACEMENT_3D('',#203,#163,#164);
#149=AXIS2_PLACEMENT_3D('',#207,#166,#167);
#150=AXIS2_PLACEMENT_3D('',#209,#169,#170);
#151=AXIS2_PLACEMENT_3D('',#215,#174,#175);
#152=AXIS2_PLACEMENT_3D('',#222,#179,#180);
#153=AXIS2_PLACEMENT_3D('',#223,#181,#182);
#154=AXIS2_PLACEMENT_3D('',#225,#183,#184);
#155=AXIS2_PLACEMENT_3D('',#227,#186,#187);
#156=AXIS2_PLACEMENT_3D('',#231,#190,#191);
#157=AXIS2_PLACEMENT_3D('',#235,#194,#195);
#158=AXIS2_PLACEMENT_3D('',#237,#197,#198);
#159=DIRECTION('axis',(0.,0.,1.));
#160=DIRECTION('refdir',(1.,0.,0.));
#161=DIRECTION('center_axis',(0.,-1.,0.));
#162=DIRECTION('ref_axis',(0.707106781186545,0.,0.70710678118655));
#163=DIRECTION('center_axis',(0.,1.,0.));
#164=DIRECTION('ref_axis',(0.707106781186545,0.,0.70710678118655));
#165=DIRECTION('',(0.,1.,0.));
#166=DIRECTION('center_axis',(0.,-1.,0.));
#167=DIRECTION('ref_axis',(0.707106781186545,0.,0.70710678118655));
#168=DIRECTION('',(0.,-1.,0.));
#169=DIRECTION('center_axis',(-1.827806199078E-16,0.,1.));
#170=DIRECTION('ref_axis',(-1.,0.,-1.827806199078E-16));
#171=DIRECTION('',(1.,0.,1.827806199078E-16));
#172=DIRECTION('',(0.,1.,0.));
#173=DIRECTION('',(-1.,0.,-1.827806199078E-16));
#174=DIRECTION('center_axis',(0.,-1.,0.));
#175=DIRECTION('ref_axis',(0.,0.,-1.));
#176=DIRECTION('',(6.34413156928661E-16,0.,-1.));
#177=DIRECTION('',(-1.,0.,-1.89550272496978E-16));
#178=DIRECTION('',(6.34413156928661E-16,0.,1.));
#179=DIRECTION('center_axis',(0.,-1.,0.));
#180=DIRECTION('ref_axis',(-0.707106781186548,0.,0.707106781186547));
#181=DIRECTION('center_axis',(0.,-1.,0.));
#182=DIRECTION('ref_axis',(-0.707106781186548,0.,0.707106781186547));
#183=DIRECTION('center_axis',(0.,1.,0.));
#184=DIRECTION('ref_axis',(-0.707106781186548,0.,0.707106781186547));
#185=DIRECTION('',(0.,-1.,0.));
#186=DIRECTION('center_axis',(1.,0.,6.34413156928661E-16));
#187=DIRECTION('ref_axis',(-7.105427357601E-16,0.,1.));
#188=DIRECTION('',(-6.34413156928661E-16,0.,1.));
#189=DIRECTION('',(0.,-1.,0.));
#190=DIRECTION('center_axis',(1.89550272496978E-16,0.,-1.));
#191=DIRECTION('ref_axis',(1.,0.,1.77635683940025E-16));
#192=DIRECTION('',(1.,0.,1.89550272496978E-16));
#193=DIRECTION('',(0.,-1.,0.));
#194=DIRECTION('center_axis',(-1.,0.,6.34413156928661E-16));
#195=DIRECTION('ref_axis',(-7.105427357601E-16,0.,-1.));
#196=DIRECTION('',(-6.34413156928661E-16,0.,-1.));
#197=DIRECTION('center_axis',(0.,-1.,0.));
#198=DIRECTION('ref_axis',(0.,0.,-1.));
#199=CARTESIAN_POINT('',(0.,0.,0.));
#200=CARTESIAN_POINT('Origin',(9.95,0.,-0.299999999999998));
#201=CARTESIAN_POINT('',(9.95,-0.1,2.16561186327797E-15));
#202=CARTESIAN_POINT('',(10.25,-0.1,-0.299999999999998));
#203=CARTESIAN_POINT('Origin',(9.95,-0.1,-0.299999999999998));
#204=CARTESIAN_POINT('',(10.25,0.,-0.299999999999998));
#205=CARTESIAN_POINT('',(10.25,0.,-0.299999999999998));
#206=CARTESIAN_POINT('',(9.95,0.,2.16561186327797E-15));
#207=CARTESIAN_POINT('Origin',(9.95,0.,-0.299999999999998));
#208=CARTESIAN_POINT('',(9.95,0.,2.15105711021124E-15));
#209=CARTESIAN_POINT('Origin',(10.25,0.,2.22044604925031E-15));
#210=CARTESIAN_POINT('',(-9.95,0.,-1.47172247288725E-15));
#211=CARTESIAN_POINT('',(-10.25,0.,-1.52655665885959E-15));
#212=CARTESIAN_POINT('',(-9.95,-0.1,-1.47172247288725E-15));
#213=CARTESIAN_POINT('',(-9.95,0.,-1.45716771982052E-15));
#214=CARTESIAN_POINT('',(-10.25,-0.1,-1.52655665885959E-15));
#215=CARTESIAN_POINT('Origin',(0.,0.,-1.75));
#216=CARTESIAN_POINT('',(10.25,0.,-3.5));
#217=CARTESIAN_POINT('',(10.25,0.,2.22044604925031E-15));
#218=CARTESIAN_POINT('',(-10.25,0.,-3.5));
#219=CARTESIAN_POINT('',(10.25,0.,-3.5));
#220=CARTESIAN_POINT('',(-10.25,0.,-0.300000000000001));
#221=CARTESIAN_POINT('',(-10.25,0.,-3.5));
#222=CARTESIAN_POINT('Origin',(-9.95,0.,-0.300000000000001));
#223=CARTESIAN_POINT('Origin',(-9.95,0.,-0.300000000000001));
#224=CARTESIAN_POINT('',(-10.25,-0.1,-0.300000000000001));
#225=CARTESIAN_POINT('Origin',(-9.95,-0.1,-0.300000000000001));
#226=CARTESIAN_POINT('',(-10.25,0.,-0.300000000000001));
#227=CARTESIAN_POINT('Origin',(10.25,0.,-3.5));
#228=CARTESIAN_POINT('',(10.25,-0.1,-3.5));
#229=CARTESIAN_POINT('',(10.25,-0.1,2.22044604925031E-15));
#230=CARTESIAN_POINT('',(10.25,0.,-3.5));
#231=CARTESIAN_POINT('Origin',(-10.25,0.,-3.5));
#232=CARTESIAN_POINT('',(-10.25,-0.1,-3.5));
#233=CARTESIAN_POINT('',(10.25,-0.1,-3.5));
#234=CARTESIAN_POINT('',(-10.25,0.,-3.5));
#235=CARTESIAN_POINT('Origin',(-10.25,0.,-1.66533453693773E-15));
#236=CARTESIAN_POINT('',(-10.25,-0.1,-3.5));
#237=CARTESIAN_POINT('Origin',(0.,-0.1,-1.75));
#238=UNCERTAINTY_MEASURE_WITH_UNIT(LENGTH_MEASURE(0.01),#242,
'DISTANCE_ACCURACY_VALUE',
'Maximum model space distance between geometric entities at asserted c
onnectivities');
#239=UNCERTAINTY_MEASURE_WITH_UNIT(LENGTH_MEASURE(1.E-6),#242,
'DISTANCE_ACCURACY_VALUE',
'Maximum model space distance between geometric entities at asserted c
onnectivities');
#240=(
GEOMETRIC_REPRESENTATION_CONTEXT(3)
GLOBAL_UNCERTAINTY_ASSIGNED_CONTEXT((#238))
GLOBAL_UNIT_ASSIGNED_CONTEXT((#242,#245,#243))
REPRESENTATION_CONTEXT('','3D')
);
#241=(
GEOMETRIC_REPRESENTATION_CONTEXT(3)
GLOBAL_UNCERTAINTY_ASSIGNED_CONTEXT((#239))
GLOBAL_UNIT_ASSIGNED_CONTEXT((#242,#245,#243))
REPRESENTATION_CONTEXT('','3D')
);
#242=(
LENGTH_UNIT()
NAMED_UNIT(*)
SI_UNIT(.MILLI.,.METRE.)
);
#243=(
NAMED_UNIT(*)
SI_UNIT($,.STERADIAN.)
SOLID_ANGLE_UNIT()
);
#244=DIMENSIONAL_EXPONENTS(0.,0.,0.,0.,0.,0.,0.);
#245=(
CONVERSION_BASED_UNIT('degree',#247)
NAMED_UNIT(#244)
PLANE_ANGLE_UNIT()
);
#246=(
NAMED_UNIT(*)
PLANE_ANGLE_UNIT()
SI_UNIT($,.RADIAN.)
);
#247=PLANE_ANGLE_MEASURE_WITH_UNIT(PLANE_ANGLE_MEASURE(0.01745329252),#246);
#248=SHAPE_DEFINITION_REPRESENTATION(#249,#250);
#249=PRODUCT_DEFINITION_SHAPE('',$,#252);
#250=SHAPE_REPRESENTATION('',(#146),#240);
#251=PRODUCT_DEFINITION_CONTEXT('part definition',#256,'design');
#252=PRODUCT_DEFINITION('FPC Connector Stiffener',
'FPC Connector Stiffener',#253,#251);
#253=PRODUCT_DEFINITION_FORMATION('',$,#258);
#254=PRODUCT_RELATED_PRODUCT_CATEGORY('FPC Connector Stiffener',
'FPC Connector Stiffener',(#258));
#255=APPLICATION_PROTOCOL_DEFINITION('international standard',
'automotive_design',2009,#256);
#256=APPLICATION_CONTEXT(
'Core Data for Automotive Mechanical Design Process');
#257=PRODUCT_CONTEXT('part definition',#256,'mechanical');
#258=PRODUCT('FPC Connector Stiffener','FPC Connector Stiffener',$,(#257));
#259=PRESENTATION_STYLE_ASSIGNMENT((#260));
#260=SURFACE_STYLE_USAGE(.BOTH.,#261);
#261=SURFACE_SIDE_STYLE('',(#262));
#262=SURFACE_STYLE_FILL_AREA(#263);
#263=FILL_AREA_STYLE('',(#264));
#264=FILL_AREA_STYLE_COLOUR('',#265);
#265=COLOUR_RGB('',0.811764705882353,0.309803921568627,0.);
ENDSEC;
END-ISO-10303-21;
