ISO-10303-21;
HEADER;
/* Generated by software containing ST-Developer
 * from STEP Tools, Inc. (www.steptools.com) 
 */

FILE_DESCRIPTION(
/* description */ (''),
/* implementation_level */ '2;1');

FILE_NAME(
/* name */ '',
/* time_stamp */ '',
/* author */ (''),
/* organization */ (''),
/* preprocessor_version */ '',
/* originating_system */ '',
/* authorisation */ '');

FILE_SCHEMA (('AUTOMOTIVE_DESIGN { 1 0 10303 214 3 1 1 }'));
ENDSEC;

DATA;
#10=MECHANICAL_DESIGN_GEOMETRIC_PRESENTATION_REPRESENTATION('',(#13),#171);
#11=SHAPE_REPRESENTATION_RELATIONSHIP('SRR','None',#180,#12);
#12=ADVANCED_BREP_SHAPE_REPRESENTATION('',(#14),#170);
#13=STYLED_ITEM('',(#189),#14);
#14=MANIFOLD_SOLID_BREP('Solid1',#107);
#15=FACE_OUTER_BOUND('',#21,.T.);
#16=FACE_OUTER_BOUND('',#22,.T.);
#17=FACE_OUTER_BOUND('',#23,.T.);
#18=FACE_OUTER_BOUND('',#24,.T.);
#19=FACE_OUTER_BOUND('',#25,.T.);
#20=FACE_OUTER_BOUND('',#26,.T.);
#21=EDGE_LOOP('',(#71,#72,#73,#74));
#22=EDGE_LOOP('',(#75,#76,#77,#78));
#23=EDGE_LOOP('',(#79,#80,#81,#82));
#24=EDGE_LOOP('',(#83,#84,#85,#86));
#25=EDGE_LOOP('',(#87,#88,#89,#90));
#26=EDGE_LOOP('',(#91,#92,#93,#94));
#27=LINE('',#145,#39);
#28=LINE('',#147,#40);
#29=LINE('',#149,#41);
#30=LINE('',#150,#42);
#31=LINE('',#153,#43);
#32=LINE('',#155,#44);
#33=LINE('',#156,#45);
#34=LINE('',#159,#46);
#35=LINE('',#161,#47);
#36=LINE('',#162,#48);
#37=LINE('',#164,#49);
#38=LINE('',#165,#50);
#39=VECTOR('',#119,10.);
#40=VECTOR('',#120,10.);
#41=VECTOR('',#121,10.);
#42=VECTOR('',#122,10.);
#43=VECTOR('',#125,10.);
#44=VECTOR('',#126,10.);
#45=VECTOR('',#127,10.);
#46=VECTOR('',#130,10.);
#47=VECTOR('',#131,10.);
#48=VECTOR('',#132,10.);
#49=VECTOR('',#135,10.);
#50=VECTOR('',#136,10.);
#51=VERTEX_POINT('',#143);
#52=VERTEX_POINT('',#144);
#53=VERTEX_POINT('',#146);
#54=VERTEX_POINT('',#148);
#55=VERTEX_POINT('',#152);
#56=VERTEX_POINT('',#154);
#57=VERTEX_POINT('',#158);
#58=VERTEX_POINT('',#160);
#59=EDGE_CURVE('',#51,#52,#27,.T.);
#60=EDGE_CURVE('',#51,#53,#28,.T.);
#61=EDGE_CURVE('',#54,#53,#29,.T.);
#62=EDGE_CURVE('',#52,#54,#30,.T.);
#63=EDGE_CURVE('',#52,#55,#31,.T.);
#64=EDGE_CURVE('',#56,#54,#32,.T.);
#65=EDGE_CURVE('',#55,#56,#33,.T.);
#66=EDGE_CURVE('',#55,#57,#34,.T.);
#67=EDGE_CURVE('',#58,#56,#35,.T.);
#68=EDGE_CURVE('',#57,#58,#36,.T.);
#69=EDGE_CURVE('',#57,#51,#37,.T.);
#70=EDGE_CURVE('',#53,#58,#38,.T.);
#71=ORIENTED_EDGE('',*,*,#59,.F.);
#72=ORIENTED_EDGE('',*,*,#60,.T.);
#73=ORIENTED_EDGE('',*,*,#61,.F.);
#74=ORIENTED_EDGE('',*,*,#62,.F.);
#75=ORIENTED_EDGE('',*,*,#63,.F.);
#76=ORIENTED_EDGE('',*,*,#62,.T.);
#77=ORIENTED_EDGE('',*,*,#64,.F.);
#78=ORIENTED_EDGE('',*,*,#65,.F.);
#79=ORIENTED_EDGE('',*,*,#66,.F.);
#80=ORIENTED_EDGE('',*,*,#65,.T.);
#81=ORIENTED_EDGE('',*,*,#67,.F.);
#82=ORIENTED_EDGE('',*,*,#68,.F.);
#83=ORIENTED_EDGE('',*,*,#69,.F.);
#84=ORIENTED_EDGE('',*,*,#68,.T.);
#85=ORIENTED_EDGE('',*,*,#70,.F.);
#86=ORIENTED_EDGE('',*,*,#60,.F.);
#87=ORIENTED_EDGE('',*,*,#69,.T.);
#88=ORIENTED_EDGE('',*,*,#59,.T.);
#89=ORIENTED_EDGE('',*,*,#63,.T.);
#90=ORIENTED_EDGE('',*,*,#66,.T.);
#91=ORIENTED_EDGE('',*,*,#70,.T.);
#92=ORIENTED_EDGE('',*,*,#67,.T.);
#93=ORIENTED_EDGE('',*,*,#64,.T.);
#94=ORIENTED_EDGE('',*,*,#61,.T.);
#95=PLANE('',#109);
#96=PLANE('',#110);
#97=PLANE('',#111);
#98=PLANE('',#112);
#99=PLANE('',#113);
#100=PLANE('',#114);
#101=ADVANCED_FACE('',(#15),#95,.T.);
#102=ADVANCED_FACE('',(#16),#96,.T.);
#103=ADVANCED_FACE('',(#17),#97,.T.);
#104=ADVANCED_FACE('',(#18),#98,.T.);
#105=ADVANCED_FACE('',(#19),#99,.T.);
#106=ADVANCED_FACE('',(#20),#100,.T.);
#107=CLOSED_SHELL('',(#101,#102,#103,#104,#105,#106));
#108=AXIS2_PLACEMENT_3D('placement',#141,#115,#116);
#109=AXIS2_PLACEMENT_3D('',#142,#117,#118);
#110=AXIS2_PLACEMENT_3D('',#151,#123,#124);
#111=AXIS2_PLACEMENT_3D('',#157,#128,#129);
#112=AXIS2_PLACEMENT_3D('',#163,#133,#134);
#113=AXIS2_PLACEMENT_3D('',#166,#137,#138);
#114=AXIS2_PLACEMENT_3D('',#167,#139,#140);
#115=DIRECTION('axis',(0.,0.,1.));
#116=DIRECTION('refdir',(1.,0.,0.));
#117=DIRECTION('center_axis',(1.,0.,0.));
#118=DIRECTION('ref_axis',(0.,0.,1.));
#119=DIRECTION('',(0.,0.,-1.));
#120=DIRECTION('',(0.,-1.,0.));
#121=DIRECTION('',(0.,0.,1.));
#122=DIRECTION('',(0.,-1.,0.));
#123=DIRECTION('center_axis',(-2.64338815386942E-16,0.,-1.));
#124=DIRECTION('ref_axis',(1.,0.,-2.66453525910038E-16));
#125=DIRECTION('',(-1.,0.,2.64338815386942E-16));
#126=DIRECTION('',(1.,0.,-2.64338815386942E-16));
#127=DIRECTION('',(0.,-1.,0.));
#128=DIRECTION('center_axis',(-1.,0.,0.));
#129=DIRECTION('ref_axis',(0.,0.,-1.));
#130=DIRECTION('',(0.,0.,1.));
#131=DIRECTION('',(0.,0.,-1.));
#132=DIRECTION('',(0.,-1.,0.));
#133=DIRECTION('center_axis',(-2.64338815386942E-16,0.,1.));
#134=DIRECTION('ref_axis',(-1.,0.,-2.66453525910038E-16));
#135=DIRECTION('',(1.,0.,2.64338815386942E-16));
#136=DIRECTION('',(-1.,0.,-2.64338815386942E-16));
#137=DIRECTION('center_axis',(0.,1.,0.));
#138=DIRECTION('ref_axis',(0.,0.,1.));
#139=DIRECTION('center_axis',(0.,-1.,0.));
#140=DIRECTION('ref_axis',(0.,0.,-1.));
#141=CARTESIAN_POINT('',(0.,0.,0.));
#142=CARTESIAN_POINT('Origin',(16.8,0.,-2.95));
#143=CARTESIAN_POINT('',(16.8,0.,2.95));
#144=CARTESIAN_POINT('',(16.8,0.,-2.95));
#145=CARTESIAN_POINT('',(16.8,0.,2.95));
#146=CARTESIAN_POINT('',(16.8,-0.2,2.95));
#147=CARTESIAN_POINT('',(16.8,0.,2.95));
#148=CARTESIAN_POINT('',(16.8,-0.2,-2.95));
#149=CARTESIAN_POINT('',(16.8,-0.2,2.95));
#150=CARTESIAN_POINT('',(16.8,0.,-2.95));
#151=CARTESIAN_POINT('Origin',(-16.8,0.,-2.94999999999999));
#152=CARTESIAN_POINT('',(-16.8,0.,-2.94999999999999));
#153=CARTESIAN_POINT('',(16.8,0.,-2.95));
#154=CARTESIAN_POINT('',(-16.8,-0.2,-2.94999999999999));
#155=CARTESIAN_POINT('',(16.8,-0.2,-2.95));
#156=CARTESIAN_POINT('',(-16.8,0.,-2.94999999999999));
#157=CARTESIAN_POINT('Origin',(-16.8,0.,2.94999999999999));
#158=CARTESIAN_POINT('',(-16.8,0.,2.94999999999999));
#159=CARTESIAN_POINT('',(-16.8,0.,-2.94999999999999));
#160=CARTESIAN_POINT('',(-16.8,-0.2,2.94999999999999));
#161=CARTESIAN_POINT('',(-16.8,-0.2,-2.94999999999999));
#162=CARTESIAN_POINT('',(-16.8,0.,2.94999999999999));
#163=CARTESIAN_POINT('Origin',(16.8,0.,2.95));
#164=CARTESIAN_POINT('',(-16.8,0.,2.94999999999999));
#165=CARTESIAN_POINT('',(-16.8,-0.2,2.94999999999999));
#166=CARTESIAN_POINT('Origin',(8.43207360474803E-15,0.,0.));
#167=CARTESIAN_POINT('Origin',(8.88178419700125E-15,-0.2,0.));
#168=UNCERTAINTY_MEASURE_WITH_UNIT(LENGTH_MEASURE(0.01),#172,
'DISTANCE_ACCURACY_VALUE',
'Maximum model space distance between geometric entities at asserted c
onnectivities');
#169=UNCERTAINTY_MEASURE_WITH_UNIT(LENGTH_MEASURE(1.E-6),#172,
'DISTANCE_ACCURACY_VALUE',
'Maximum model space distance between geometric entities at asserted c
onnectivities');
#170=(
GEOMETRIC_REPRESENTATION_CONTEXT(3)
GLOBAL_UNCERTAINTY_ASSIGNED_CONTEXT((#168))
GLOBAL_UNIT_ASSIGNED_CONTEXT((#172,#175,#173))
REPRESENTATION_CONTEXT('','3D')
);
#171=(
GEOMETRIC_REPRESENTATION_CONTEXT(3)
GLOBAL_UNCERTAINTY_ASSIGNED_CONTEXT((#169))
GLOBAL_UNIT_ASSIGNED_CONTEXT((#172,#175,#173))
REPRESENTATION_CONTEXT('','3D')
);
#172=(
LENGTH_UNIT()
NAMED_UNIT(*)
SI_UNIT(.MILLI.,.METRE.)
);
#173=(
NAMED_UNIT(*)
SI_UNIT($,.STERADIAN.)
SOLID_ANGLE_UNIT()
);
#174=DIMENSIONAL_EXPONENTS(0.,0.,0.,0.,0.,0.,0.);
#175=(
CONVERSION_BASED_UNIT('degree',#177)
NAMED_UNIT(#174)
PLANE_ANGLE_UNIT()
);
#176=(
NAMED_UNIT(*)
PLANE_ANGLE_UNIT()
SI_UNIT($,.RADIAN.)
);
#177=PLANE_ANGLE_MEASURE_WITH_UNIT(PLANE_ANGLE_MEASURE(0.01745329252),#176);
#178=SHAPE_DEFINITION_REPRESENTATION(#179,#180);
#179=PRODUCT_DEFINITION_SHAPE('',$,#182);
#180=SHAPE_REPRESENTATION('',(#108),#170);
#181=PRODUCT_DEFINITION_CONTEXT('part definition',#186,'design');
#182=PRODUCT_DEFINITION('Pin Connector Stiffener',
'Pin Connector Stiffener',#183,#181);
#183=PRODUCT_DEFINITION_FORMATION('',$,#188);
#184=PRODUCT_RELATED_PRODUCT_CATEGORY('Pin Connector Stiffener',
'Pin Connector Stiffener',(#188));
#185=APPLICATION_PROTOCOL_DEFINITION('international standard',
'automotive_design',2009,#186);
#186=APPLICATION_CONTEXT(
'Core Data for Automotive Mechanical Design Process');
#187=PRODUCT_CONTEXT('part definition',#186,'mechanical');
#188=PRODUCT('Pin Connector Stiffener','Pin Connector Stiffener',$,(#187));
#189=PRESENTATION_STYLE_ASSIGNMENT((#190));
#190=SURFACE_STYLE_USAGE(.BOTH.,#191);
#191=SURFACE_SIDE_STYLE('',(#192));
#192=SURFACE_STYLE_FILL_AREA(#193);
#193=FILL_AREA_STYLE('',(#194));
#194=FILL_AREA_STYLE_COLOUR('',#195);
#195=COLOUR_RGB('',0.968627450980392,0.968627450980392,0.898039215686275);
ENDSEC;
END-ISO-10303-21;
