%TF.GenerationSoftware,KiCad,Pcbnew,8.0.6*%
%TF.CreationDate,2026-01-06T14:32:55+10:00*%
%TF.ProjectId,Cinema Display Barrel Jack Adapter,43696e65-6d61-4204-9469-73706c617920,A*%
%TF.SameCoordinates,PX6a95280PY791ddc0*%
%TF.FileFunction,Drillmap*%
%TF.FilePolarity,Positive*%
%FSLAX45Y45*%
G04 Gerber Fmt 4.5, Leading zero omitted, Abs format (unit mm)*
G04 Created by KiCad (PCBNEW 8.0.6) date 2026-01-06 14:32:55*
%MOMM*%
%LPD*%
G01*
G04 APERTURE LIST*
%ADD10C,0.100000*%
%ADD11C,0.200000*%
G04 APERTURE END LIST*
D10*
X700000Y2300000D02*
G75*
G02*
X800000Y2200000I0J-100000D01*
G01*
X800000Y-100000D02*
X800000Y2200000D01*
X-650000Y-200000D02*
X-700000Y-200000D01*
X-800000Y2200000D02*
G75*
G02*
X-700000Y2300000I100000J0D01*
G01*
X650000Y-200000D02*
X700000Y-200000D01*
X-700000Y-200000D02*
G75*
G02*
X-800000Y-100000I0J100000D01*
G01*
X-510000Y2300000D02*
X-700000Y2300000D01*
X800000Y-100000D02*
G75*
G02*
X700000Y-200000I-100000J0D01*
G01*
X700000Y2300000D02*
X510000Y2300000D01*
X-800000Y-100000D02*
X-800000Y2200000D01*
X510000Y2300000D02*
X510000Y1280000D01*
X460000Y1230000D02*
X-460000Y1230000D01*
X-510000Y2300000D02*
X-510000Y1280000D01*
X510000Y1280000D02*
G75*
G02*
X460000Y1230000I-50000J0D01*
G01*
X-460000Y1230000D02*
G75*
G02*
X-510000Y1280000I0J50000D01*
G01*
X-550000Y-100000D02*
X-550000Y540000D01*
X-410000Y100000D02*
X-410000Y540000D01*
X-310000Y0D02*
X310000Y0D01*
X410000Y100000D02*
X410000Y540000D01*
X550000Y-100000D02*
X550000Y540000D01*
X-550000Y540000D02*
G75*
G02*
X-410000Y540000I70000J0D01*
G01*
X-550000Y-100000D02*
G75*
G02*
X-650000Y-200000I-100000J0D01*
G01*
X-310000Y0D02*
G75*
G02*
X-410000Y100000I0J100000D01*
G01*
X410000Y540000D02*
G75*
G02*
X550000Y540000I70000J0D01*
G01*
X410000Y100000D02*
G75*
G02*
X310000Y0I-100000J0D01*
G01*
X650000Y-200000D02*
G75*
G02*
X550000Y-100000I0J100000D01*
G01*
D11*
X-544223Y-516484D02*
X-544223Y-316484D01*
X-544223Y-316484D02*
X-496604Y-316484D01*
X-496604Y-316484D02*
X-468033Y-326008D01*
X-468033Y-326008D02*
X-448985Y-345055D01*
X-448985Y-345055D02*
X-439461Y-364103D01*
X-439461Y-364103D02*
X-429937Y-402198D01*
X-429937Y-402198D02*
X-429937Y-430769D01*
X-429937Y-430769D02*
X-439461Y-468865D01*
X-439461Y-468865D02*
X-448985Y-487912D01*
X-448985Y-487912D02*
X-468033Y-506960D01*
X-468033Y-506960D02*
X-496604Y-516484D01*
X-496604Y-516484D02*
X-544223Y-516484D01*
X-344223Y-516484D02*
X-344223Y-383150D01*
X-344223Y-421246D02*
X-334699Y-402198D01*
X-334699Y-402198D02*
X-325176Y-392674D01*
X-325176Y-392674D02*
X-306128Y-383150D01*
X-306128Y-383150D02*
X-287080Y-383150D01*
X-220414Y-516484D02*
X-220414Y-383150D01*
X-220414Y-316484D02*
X-229937Y-326008D01*
X-229937Y-326008D02*
X-220414Y-335531D01*
X-220414Y-335531D02*
X-210890Y-326008D01*
X-210890Y-326008D02*
X-220414Y-316484D01*
X-220414Y-316484D02*
X-220414Y-335531D01*
X-96604Y-516484D02*
X-115652Y-506960D01*
X-115652Y-506960D02*
X-125176Y-487912D01*
X-125176Y-487912D02*
X-125176Y-316484D01*
X8158Y-516484D02*
X-10890Y-506960D01*
X-10890Y-506960D02*
X-20414Y-487912D01*
X-20414Y-487912D02*
X-20414Y-316484D01*
X236729Y-516484D02*
X236729Y-316484D01*
X236729Y-316484D02*
X303396Y-459341D01*
X303396Y-459341D02*
X370062Y-316484D01*
X370062Y-316484D02*
X370062Y-516484D01*
X551015Y-516484D02*
X551015Y-411722D01*
X551015Y-411722D02*
X541491Y-392674D01*
X541491Y-392674D02*
X522443Y-383150D01*
X522443Y-383150D02*
X484348Y-383150D01*
X484348Y-383150D02*
X465301Y-392674D01*
X551015Y-506960D02*
X531967Y-516484D01*
X531967Y-516484D02*
X484348Y-516484D01*
X484348Y-516484D02*
X465301Y-506960D01*
X465301Y-506960D02*
X455777Y-487912D01*
X455777Y-487912D02*
X455777Y-468865D01*
X455777Y-468865D02*
X465301Y-449817D01*
X465301Y-449817D02*
X484348Y-440293D01*
X484348Y-440293D02*
X531967Y-440293D01*
X531967Y-440293D02*
X551015Y-430769D01*
X646253Y-383150D02*
X646253Y-583150D01*
X646253Y-392674D02*
X665301Y-383150D01*
X665301Y-383150D02*
X703396Y-383150D01*
X703396Y-383150D02*
X722443Y-392674D01*
X722443Y-392674D02*
X731967Y-402198D01*
X731967Y-402198D02*
X741491Y-421246D01*
X741491Y-421246D02*
X741491Y-478388D01*
X741491Y-478388D02*
X731967Y-497436D01*
X731967Y-497436D02*
X722443Y-506960D01*
X722443Y-506960D02*
X703396Y-516484D01*
X703396Y-516484D02*
X665301Y-516484D01*
X665301Y-516484D02*
X646253Y-506960D01*
X827205Y-497436D02*
X836729Y-506960D01*
X836729Y-506960D02*
X827205Y-516484D01*
X827205Y-516484D02*
X817682Y-506960D01*
X817682Y-506960D02*
X827205Y-497436D01*
X827205Y-497436D02*
X827205Y-516484D01*
X827205Y-392674D02*
X836729Y-402198D01*
X836729Y-402198D02*
X827205Y-411722D01*
X827205Y-411722D02*
X817682Y-402198D01*
X817682Y-402198D02*
X827205Y-392674D01*
X827205Y-392674D02*
X827205Y-411722D01*
M02*
