M48
; DRILL file {KiCad 8.0.6} date 2026-01-06T16:13:45+1000
; FORMAT={-:-/ absolute / inch / decimal}
; #@! TF.CreationDate,2026-01-06T16:13:45+10:00
; #@! TF.GenerationSoftware,Kicad,Pcbnew,8.0.6
; #@! TF.FileFunction,Plated,1,2,PTH
FMAT,2
INCH
; #@! TA.AperFunction,Plated,PTH,ViaDrill
T1C0.0118
; #@! TA.AperFunction,Plated,PTH,ComponentDrill
T2C0.0394
; #@! TA.AperFunction,Plated,PTH,ComponentDrill
T3C0.0551
%
G90
G05
T1
X-0.1142Y0.315
X-0.1142Y0.2756
X-0.1142Y0.2362
X-0.0571Y0.315
X-0.0571Y0.2756
X-0.0571Y0.2362
X0.0Y0.3543
X0.0Y0.2362
X0.0571Y0.315
X0.0571Y0.2756
X0.0571Y0.2362
X0.1142Y0.315
X0.1142Y0.2756
X0.1142Y0.2362
T3
X-0.0315Y0.4094
T2
G00X-0.2559Y0.7677
M15
G01X-0.2559Y0.7992
M16
G05
G00X-0.248Y0.5059
M15
G01X-0.248Y0.5256
M16
G05
G00X0.248Y0.5039
M15
G01X0.248Y0.5433
M16
G05
G00X0.2559Y0.7677
M15
G01X0.2559Y0.7992
M16
G05
M30
