%TF.GenerationSoftware,KiCad,Pcbnew,8.0.6*%
%TF.CreationDate,2026-01-06T14:32:55+10:00*%
%TF.ProjectId,Cinema Display Barrel Jack Adapter,43696e65-6d61-4204-9469-73706c617920,A*%
%TF.SameCoordinates,PX6a95280PY791ddc0*%
%TF.FileFunction,Drillmap*%
%TF.FilePolarity,Positive*%
%FSLAX45Y45*%
G04 Gerber Fmt 4.5, Leading zero omitted, Abs format (unit mm)*
G04 Created by KiCad (PCBNEW 8.0.6) date 2026-01-06 14:32:55*
%MOMM*%
%LPD*%
G01*
G04 APERTURE LIST*
%ADD10C,0.100000*%
%ADD11C,0.200000*%
%ADD12C,0.140000*%
G04 APERTURE END LIST*
D10*
X700000Y2300000D02*
G75*
G02*
X800000Y2200000I0J-100000D01*
G01*
X800000Y-100000D02*
X800000Y2200000D01*
X-650000Y-200000D02*
X-700000Y-200000D01*
X-800000Y2200000D02*
G75*
G02*
X-700000Y2300000I100000J0D01*
G01*
X650000Y-200000D02*
X700000Y-200000D01*
X-700000Y-200000D02*
G75*
G02*
X-800000Y-100000I0J100000D01*
G01*
X-510000Y2300000D02*
X-700000Y2300000D01*
X800000Y-100000D02*
G75*
G02*
X700000Y-200000I-100000J0D01*
G01*
X700000Y2300000D02*
X510000Y2300000D01*
X-800000Y-100000D02*
X-800000Y2200000D01*
X510000Y2300000D02*
X510000Y1280000D01*
X460000Y1230000D02*
X-460000Y1230000D01*
X-510000Y2300000D02*
X-510000Y1280000D01*
X510000Y1280000D02*
G75*
G02*
X460000Y1230000I-50000J0D01*
G01*
X-460000Y1230000D02*
G75*
G02*
X-510000Y1280000I0J50000D01*
G01*
X-550000Y-100000D02*
X-550000Y540000D01*
X-410000Y100000D02*
X-410000Y540000D01*
X-310000Y0D02*
X310000Y0D01*
X410000Y100000D02*
X410000Y540000D01*
X550000Y-100000D02*
X550000Y540000D01*
X-550000Y540000D02*
G75*
G02*
X-410000Y540000I70000J0D01*
G01*
X-550000Y-100000D02*
G75*
G02*
X-650000Y-200000I-100000J0D01*
G01*
X-310000Y0D02*
G75*
G02*
X-410000Y100000I0J100000D01*
G01*
X410000Y540000D02*
G75*
G02*
X550000Y540000I70000J0D01*
G01*
X410000Y100000D02*
G75*
G02*
X310000Y0I-100000J0D01*
G01*
X650000Y-200000D02*
G75*
G02*
X550000Y-100000I0J100000D01*
G01*
D11*
D10*
X-305000Y815000D02*
X-275000Y785000D01*
X-275000Y815000D02*
X-305000Y785000D01*
X-305000Y715000D02*
X-275000Y685000D01*
X-275000Y715000D02*
X-305000Y685000D01*
X-305000Y615000D02*
X-275000Y585000D01*
X-275000Y615000D02*
X-305000Y585000D01*
X-160000Y815000D02*
X-130000Y785000D01*
X-130000Y815000D02*
X-160000Y785000D01*
X-160000Y715000D02*
X-130000Y685000D01*
X-130000Y715000D02*
X-160000Y685000D01*
X-160000Y615000D02*
X-130000Y585000D01*
X-130000Y615000D02*
X-160000Y585000D01*
X-15000Y915000D02*
X15000Y885000D01*
X15000Y915000D02*
X-15000Y885000D01*
X-15000Y615000D02*
X15000Y585000D01*
X15000Y615000D02*
X-15000Y585000D01*
X130000Y815000D02*
X160000Y785000D01*
X160000Y815000D02*
X130000Y785000D01*
X130000Y715000D02*
X160000Y685000D01*
X160000Y715000D02*
X130000Y685000D01*
X130000Y615000D02*
X160000Y585000D01*
X160000Y615000D02*
X130000Y585000D01*
X275000Y815000D02*
X305000Y785000D01*
X305000Y815000D02*
X275000Y785000D01*
X275000Y715000D02*
X305000Y685000D01*
X305000Y715000D02*
X275000Y685000D01*
X275000Y615000D02*
X305000Y585000D01*
X305000Y615000D02*
X275000Y585000D01*
X-600000Y1990000D02*
G75*
G02*
X-700000Y1990000I-50000J0D01*
G01*
X-700000Y1990000D02*
G75*
G02*
X-600000Y1990000I50000J0D01*
G01*
X-600000Y1950000D02*
X-600000Y2030000D01*
X-700000Y2030000D02*
G75*
G02*
X-600000Y2030000I50000J0D01*
G01*
X-700000Y2030000D02*
X-700000Y1950000D01*
X-700000Y1950000D02*
G75*
G03*
X-600000Y1950000I50000J0D01*
G01*
X-580000Y1310000D02*
G75*
G02*
X-680000Y1310000I-50000J0D01*
G01*
X-680000Y1310000D02*
G75*
G02*
X-580000Y1310000I50000J0D01*
G01*
X-580000Y1285000D02*
X-580000Y1335000D01*
X-680000Y1335000D02*
G75*
G02*
X-580000Y1335000I50000J0D01*
G01*
X-680000Y1335000D02*
X-680000Y1285000D01*
X-680000Y1285000D02*
G75*
G03*
X-580000Y1285000I50000J0D01*
G01*
X680000Y1330000D02*
G75*
G02*
X580000Y1330000I-50000J0D01*
G01*
X580000Y1330000D02*
G75*
G02*
X680000Y1330000I50000J0D01*
G01*
X680000Y1280000D02*
X680000Y1380000D01*
X580000Y1380000D02*
G75*
G02*
X680000Y1380000I50000J0D01*
G01*
X580000Y1380000D02*
X580000Y1280000D01*
X580000Y1280000D02*
G75*
G03*
X680000Y1280000I50000J0D01*
G01*
X700000Y1990000D02*
G75*
G02*
X600000Y1990000I-50000J0D01*
G01*
X600000Y1990000D02*
G75*
G02*
X700000Y1990000I50000J0D01*
G01*
X700000Y1950000D02*
X700000Y2030000D01*
X600000Y2030000D02*
G75*
G02*
X700000Y2030000I50000J0D01*
G01*
X600000Y2030000D02*
X600000Y1950000D01*
X600000Y1950000D02*
G75*
G03*
X700000Y1950000I50000J0D01*
G01*
D12*
X-80000Y1110000D02*
X-80000Y970000D01*
X-150000Y1040000D02*
X-10000Y1040000D01*
D11*
X-544223Y-516484D02*
X-544223Y-316484D01*
X-544223Y-316484D02*
X-496604Y-316484D01*
X-496604Y-316484D02*
X-468033Y-326008D01*
X-468033Y-326008D02*
X-448985Y-345055D01*
X-448985Y-345055D02*
X-439461Y-364103D01*
X-439461Y-364103D02*
X-429937Y-402198D01*
X-429937Y-402198D02*
X-429937Y-430769D01*
X-429937Y-430769D02*
X-439461Y-468865D01*
X-439461Y-468865D02*
X-448985Y-487912D01*
X-448985Y-487912D02*
X-468033Y-506960D01*
X-468033Y-506960D02*
X-496604Y-516484D01*
X-496604Y-516484D02*
X-544223Y-516484D01*
X-344223Y-516484D02*
X-344223Y-383150D01*
X-344223Y-421246D02*
X-334699Y-402198D01*
X-334699Y-402198D02*
X-325176Y-392674D01*
X-325176Y-392674D02*
X-306128Y-383150D01*
X-306128Y-383150D02*
X-287080Y-383150D01*
X-220414Y-516484D02*
X-220414Y-383150D01*
X-220414Y-316484D02*
X-229937Y-326008D01*
X-229937Y-326008D02*
X-220414Y-335531D01*
X-220414Y-335531D02*
X-210890Y-326008D01*
X-210890Y-326008D02*
X-220414Y-316484D01*
X-220414Y-316484D02*
X-220414Y-335531D01*
X-96604Y-516484D02*
X-115652Y-506960D01*
X-115652Y-506960D02*
X-125176Y-487912D01*
X-125176Y-487912D02*
X-125176Y-316484D01*
X8158Y-516484D02*
X-10890Y-506960D01*
X-10890Y-506960D02*
X-20414Y-487912D01*
X-20414Y-487912D02*
X-20414Y-316484D01*
X236729Y-516484D02*
X236729Y-316484D01*
X236729Y-316484D02*
X303396Y-459341D01*
X303396Y-459341D02*
X370062Y-316484D01*
X370062Y-316484D02*
X370062Y-516484D01*
X551015Y-516484D02*
X551015Y-411722D01*
X551015Y-411722D02*
X541491Y-392674D01*
X541491Y-392674D02*
X522443Y-383150D01*
X522443Y-383150D02*
X484348Y-383150D01*
X484348Y-383150D02*
X465301Y-392674D01*
X551015Y-506960D02*
X531967Y-516484D01*
X531967Y-516484D02*
X484348Y-516484D01*
X484348Y-516484D02*
X465301Y-506960D01*
X465301Y-506960D02*
X455777Y-487912D01*
X455777Y-487912D02*
X455777Y-468865D01*
X455777Y-468865D02*
X465301Y-449817D01*
X465301Y-449817D02*
X484348Y-440293D01*
X484348Y-440293D02*
X531967Y-440293D01*
X531967Y-440293D02*
X551015Y-430769D01*
X646253Y-383150D02*
X646253Y-583150D01*
X646253Y-392674D02*
X665301Y-383150D01*
X665301Y-383150D02*
X703396Y-383150D01*
X703396Y-383150D02*
X722443Y-392674D01*
X722443Y-392674D02*
X731967Y-402198D01*
X731967Y-402198D02*
X741491Y-421246D01*
X741491Y-421246D02*
X741491Y-478388D01*
X741491Y-478388D02*
X731967Y-497436D01*
X731967Y-497436D02*
X722443Y-506960D01*
X722443Y-506960D02*
X703396Y-516484D01*
X703396Y-516484D02*
X665301Y-516484D01*
X665301Y-516484D02*
X646253Y-506960D01*
X827205Y-497436D02*
X836729Y-506960D01*
X836729Y-506960D02*
X827205Y-516484D01*
X827205Y-516484D02*
X817682Y-506960D01*
X817682Y-506960D02*
X827205Y-497436D01*
X827205Y-497436D02*
X827205Y-516484D01*
X827205Y-392674D02*
X836729Y-402198D01*
X836729Y-402198D02*
X827205Y-411722D01*
X827205Y-411722D02*
X817682Y-402198D01*
X817682Y-402198D02*
X827205Y-392674D01*
X827205Y-392674D02*
X827205Y-411722D01*
D10*
X-835000Y-830000D02*
X-805000Y-860000D01*
X-805000Y-830000D02*
X-835000Y-860000D01*
D11*
X-506128Y-736484D02*
X-487080Y-736484D01*
X-487080Y-736484D02*
X-468033Y-746008D01*
X-468033Y-746008D02*
X-458509Y-755531D01*
X-458509Y-755531D02*
X-448985Y-774579D01*
X-448985Y-774579D02*
X-439461Y-812674D01*
X-439461Y-812674D02*
X-439461Y-860293D01*
X-439461Y-860293D02*
X-448985Y-898388D01*
X-448985Y-898388D02*
X-458509Y-917436D01*
X-458509Y-917436D02*
X-468033Y-926960D01*
X-468033Y-926960D02*
X-487080Y-936484D01*
X-487080Y-936484D02*
X-506128Y-936484D01*
X-506128Y-936484D02*
X-525176Y-926960D01*
X-525176Y-926960D02*
X-534699Y-917436D01*
X-534699Y-917436D02*
X-544223Y-898388D01*
X-544223Y-898388D02*
X-553747Y-860293D01*
X-553747Y-860293D02*
X-553747Y-812674D01*
X-553747Y-812674D02*
X-544223Y-774579D01*
X-544223Y-774579D02*
X-534699Y-755531D01*
X-534699Y-755531D02*
X-525176Y-746008D01*
X-525176Y-746008D02*
X-506128Y-736484D01*
X-353747Y-917436D02*
X-344223Y-926960D01*
X-344223Y-926960D02*
X-353747Y-936484D01*
X-353747Y-936484D02*
X-363271Y-926960D01*
X-363271Y-926960D02*
X-353747Y-917436D01*
X-353747Y-917436D02*
X-353747Y-936484D01*
X-277557Y-736484D02*
X-153747Y-736484D01*
X-153747Y-736484D02*
X-220414Y-812674D01*
X-220414Y-812674D02*
X-191842Y-812674D01*
X-191842Y-812674D02*
X-172795Y-822198D01*
X-172795Y-822198D02*
X-163271Y-831722D01*
X-163271Y-831722D02*
X-153747Y-850769D01*
X-153747Y-850769D02*
X-153747Y-898388D01*
X-153747Y-898388D02*
X-163271Y-917436D01*
X-163271Y-917436D02*
X-172795Y-926960D01*
X-172795Y-926960D02*
X-191842Y-936484D01*
X-191842Y-936484D02*
X-248985Y-936484D01*
X-248985Y-936484D02*
X-268033Y-926960D01*
X-268033Y-926960D02*
X-277557Y-917436D01*
X-29937Y-736484D02*
X-10890Y-736484D01*
X-10890Y-736484D02*
X8158Y-746008D01*
X8158Y-746008D02*
X17682Y-755531D01*
X17682Y-755531D02*
X27205Y-774579D01*
X27205Y-774579D02*
X36729Y-812674D01*
X36729Y-812674D02*
X36729Y-860293D01*
X36729Y-860293D02*
X27205Y-898388D01*
X27205Y-898388D02*
X17682Y-917436D01*
X17682Y-917436D02*
X8158Y-926960D01*
X8158Y-926960D02*
X-10890Y-936484D01*
X-10890Y-936484D02*
X-29937Y-936484D01*
X-29937Y-936484D02*
X-48985Y-926960D01*
X-48985Y-926960D02*
X-58509Y-917436D01*
X-58509Y-917436D02*
X-68033Y-898388D01*
X-68033Y-898388D02*
X-77557Y-860293D01*
X-77557Y-860293D02*
X-77557Y-812674D01*
X-77557Y-812674D02*
X-68033Y-774579D01*
X-68033Y-774579D02*
X-58509Y-755531D01*
X-58509Y-755531D02*
X-48985Y-746008D01*
X-48985Y-746008D02*
X-29937Y-736484D01*
X160539Y-736484D02*
X179586Y-736484D01*
X179586Y-736484D02*
X198634Y-746008D01*
X198634Y-746008D02*
X208158Y-755531D01*
X208158Y-755531D02*
X217682Y-774579D01*
X217682Y-774579D02*
X227205Y-812674D01*
X227205Y-812674D02*
X227205Y-860293D01*
X227205Y-860293D02*
X217682Y-898388D01*
X217682Y-898388D02*
X208158Y-917436D01*
X208158Y-917436D02*
X198634Y-926960D01*
X198634Y-926960D02*
X179586Y-936484D01*
X179586Y-936484D02*
X160539Y-936484D01*
X160539Y-936484D02*
X141491Y-926960D01*
X141491Y-926960D02*
X131967Y-917436D01*
X131967Y-917436D02*
X122443Y-898388D01*
X122443Y-898388D02*
X112920Y-860293D01*
X112920Y-860293D02*
X112920Y-812674D01*
X112920Y-812674D02*
X122443Y-774579D01*
X122443Y-774579D02*
X131967Y-755531D01*
X131967Y-755531D02*
X141491Y-746008D01*
X141491Y-746008D02*
X160539Y-736484D01*
X312920Y-936484D02*
X312920Y-803150D01*
X312920Y-822198D02*
X322444Y-812674D01*
X322444Y-812674D02*
X341491Y-803150D01*
X341491Y-803150D02*
X370063Y-803150D01*
X370063Y-803150D02*
X389110Y-812674D01*
X389110Y-812674D02*
X398634Y-831722D01*
X398634Y-831722D02*
X398634Y-936484D01*
X398634Y-831722D02*
X408158Y-812674D01*
X408158Y-812674D02*
X427205Y-803150D01*
X427205Y-803150D02*
X455777Y-803150D01*
X455777Y-803150D02*
X474824Y-812674D01*
X474824Y-812674D02*
X484348Y-831722D01*
X484348Y-831722D02*
X484348Y-936484D01*
X579586Y-936484D02*
X579586Y-803150D01*
X579586Y-822198D02*
X589110Y-812674D01*
X589110Y-812674D02*
X608158Y-803150D01*
X608158Y-803150D02*
X636729Y-803150D01*
X636729Y-803150D02*
X655777Y-812674D01*
X655777Y-812674D02*
X665301Y-831722D01*
X665301Y-831722D02*
X665301Y-936484D01*
X665301Y-831722D02*
X674825Y-812674D01*
X674825Y-812674D02*
X693872Y-803150D01*
X693872Y-803150D02*
X722443Y-803150D01*
X722443Y-803150D02*
X741491Y-812674D01*
X741491Y-812674D02*
X751015Y-831722D01*
X751015Y-831722D02*
X751015Y-936484D01*
X1141491Y-726960D02*
X970063Y-984103D01*
X1398634Y-736484D02*
X1417682Y-736484D01*
X1417682Y-736484D02*
X1436729Y-746008D01*
X1436729Y-746008D02*
X1446253Y-755531D01*
X1446253Y-755531D02*
X1455777Y-774579D01*
X1455777Y-774579D02*
X1465301Y-812674D01*
X1465301Y-812674D02*
X1465301Y-860293D01*
X1465301Y-860293D02*
X1455777Y-898388D01*
X1455777Y-898388D02*
X1446253Y-917436D01*
X1446253Y-917436D02*
X1436729Y-926960D01*
X1436729Y-926960D02*
X1417682Y-936484D01*
X1417682Y-936484D02*
X1398634Y-936484D01*
X1398634Y-936484D02*
X1379587Y-926960D01*
X1379587Y-926960D02*
X1370063Y-917436D01*
X1370063Y-917436D02*
X1360539Y-898388D01*
X1360539Y-898388D02*
X1351015Y-860293D01*
X1351015Y-860293D02*
X1351015Y-812674D01*
X1351015Y-812674D02*
X1360539Y-774579D01*
X1360539Y-774579D02*
X1370063Y-755531D01*
X1370063Y-755531D02*
X1379587Y-746008D01*
X1379587Y-746008D02*
X1398634Y-736484D01*
X1551015Y-917436D02*
X1560539Y-926960D01*
X1560539Y-926960D02*
X1551015Y-936484D01*
X1551015Y-936484D02*
X1541491Y-926960D01*
X1541491Y-926960D02*
X1551015Y-917436D01*
X1551015Y-917436D02*
X1551015Y-936484D01*
X1684348Y-736484D02*
X1703396Y-736484D01*
X1703396Y-736484D02*
X1722444Y-746008D01*
X1722444Y-746008D02*
X1731967Y-755531D01*
X1731967Y-755531D02*
X1741491Y-774579D01*
X1741491Y-774579D02*
X1751015Y-812674D01*
X1751015Y-812674D02*
X1751015Y-860293D01*
X1751015Y-860293D02*
X1741491Y-898388D01*
X1741491Y-898388D02*
X1731967Y-917436D01*
X1731967Y-917436D02*
X1722444Y-926960D01*
X1722444Y-926960D02*
X1703396Y-936484D01*
X1703396Y-936484D02*
X1684348Y-936484D01*
X1684348Y-936484D02*
X1665301Y-926960D01*
X1665301Y-926960D02*
X1655777Y-917436D01*
X1655777Y-917436D02*
X1646253Y-898388D01*
X1646253Y-898388D02*
X1636729Y-860293D01*
X1636729Y-860293D02*
X1636729Y-812674D01*
X1636729Y-812674D02*
X1646253Y-774579D01*
X1646253Y-774579D02*
X1655777Y-755531D01*
X1655777Y-755531D02*
X1665301Y-746008D01*
X1665301Y-746008D02*
X1684348Y-736484D01*
X1941491Y-936484D02*
X1827206Y-936484D01*
X1884348Y-936484D02*
X1884348Y-736484D01*
X1884348Y-736484D02*
X1865301Y-765055D01*
X1865301Y-765055D02*
X1846253Y-784103D01*
X1846253Y-784103D02*
X1827206Y-793627D01*
X2131968Y-936484D02*
X2017682Y-936484D01*
X2074825Y-936484D02*
X2074825Y-736484D01*
X2074825Y-736484D02*
X2055777Y-765055D01*
X2055777Y-765055D02*
X2036729Y-784103D01*
X2036729Y-784103D02*
X2017682Y-793627D01*
X2246253Y-822198D02*
X2227206Y-812674D01*
X2227206Y-812674D02*
X2217682Y-803150D01*
X2217682Y-803150D02*
X2208158Y-784103D01*
X2208158Y-784103D02*
X2208158Y-774579D01*
X2208158Y-774579D02*
X2217682Y-755531D01*
X2217682Y-755531D02*
X2227206Y-746008D01*
X2227206Y-746008D02*
X2246253Y-736484D01*
X2246253Y-736484D02*
X2284349Y-736484D01*
X2284349Y-736484D02*
X2303396Y-746008D01*
X2303396Y-746008D02*
X2312920Y-755531D01*
X2312920Y-755531D02*
X2322444Y-774579D01*
X2322444Y-774579D02*
X2322444Y-784103D01*
X2322444Y-784103D02*
X2312920Y-803150D01*
X2312920Y-803150D02*
X2303396Y-812674D01*
X2303396Y-812674D02*
X2284349Y-822198D01*
X2284349Y-822198D02*
X2246253Y-822198D01*
X2246253Y-822198D02*
X2227206Y-831722D01*
X2227206Y-831722D02*
X2217682Y-841246D01*
X2217682Y-841246D02*
X2208158Y-860293D01*
X2208158Y-860293D02*
X2208158Y-898388D01*
X2208158Y-898388D02*
X2217682Y-917436D01*
X2217682Y-917436D02*
X2227206Y-926960D01*
X2227206Y-926960D02*
X2246253Y-936484D01*
X2246253Y-936484D02*
X2284349Y-936484D01*
X2284349Y-936484D02*
X2303396Y-926960D01*
X2303396Y-926960D02*
X2312920Y-917436D01*
X2312920Y-917436D02*
X2322444Y-898388D01*
X2322444Y-898388D02*
X2322444Y-860293D01*
X2322444Y-860293D02*
X2312920Y-841246D01*
X2312920Y-841246D02*
X2303396Y-831722D01*
X2303396Y-831722D02*
X2284349Y-822198D01*
X2398634Y-736484D02*
X2398634Y-774579D01*
X2474825Y-736484D02*
X2474825Y-774579D01*
X2770063Y-1012674D02*
X2760539Y-1003150D01*
X2760539Y-1003150D02*
X2741491Y-974579D01*
X2741491Y-974579D02*
X2731968Y-955531D01*
X2731968Y-955531D02*
X2722444Y-926960D01*
X2722444Y-926960D02*
X2712920Y-879341D01*
X2712920Y-879341D02*
X2712920Y-841246D01*
X2712920Y-841246D02*
X2722444Y-793627D01*
X2722444Y-793627D02*
X2731968Y-765055D01*
X2731968Y-765055D02*
X2741491Y-746008D01*
X2741491Y-746008D02*
X2760539Y-717436D01*
X2760539Y-717436D02*
X2770063Y-707912D01*
X2951015Y-936484D02*
X2836729Y-936484D01*
X2893872Y-936484D02*
X2893872Y-736484D01*
X2893872Y-736484D02*
X2874825Y-765055D01*
X2874825Y-765055D02*
X2855777Y-784103D01*
X2855777Y-784103D02*
X2836729Y-793627D01*
X3122444Y-803150D02*
X3122444Y-936484D01*
X3074825Y-726960D02*
X3027206Y-869817D01*
X3027206Y-869817D02*
X3151015Y-869817D01*
X3379587Y-936484D02*
X3379587Y-736484D01*
X3465301Y-936484D02*
X3465301Y-831722D01*
X3465301Y-831722D02*
X3455777Y-812674D01*
X3455777Y-812674D02*
X3436730Y-803150D01*
X3436730Y-803150D02*
X3408158Y-803150D01*
X3408158Y-803150D02*
X3389110Y-812674D01*
X3389110Y-812674D02*
X3379587Y-822198D01*
X3589110Y-936484D02*
X3570063Y-926960D01*
X3570063Y-926960D02*
X3560539Y-917436D01*
X3560539Y-917436D02*
X3551015Y-898388D01*
X3551015Y-898388D02*
X3551015Y-841246D01*
X3551015Y-841246D02*
X3560539Y-822198D01*
X3560539Y-822198D02*
X3570063Y-812674D01*
X3570063Y-812674D02*
X3589110Y-803150D01*
X3589110Y-803150D02*
X3617682Y-803150D01*
X3617682Y-803150D02*
X3636730Y-812674D01*
X3636730Y-812674D02*
X3646253Y-822198D01*
X3646253Y-822198D02*
X3655777Y-841246D01*
X3655777Y-841246D02*
X3655777Y-898388D01*
X3655777Y-898388D02*
X3646253Y-917436D01*
X3646253Y-917436D02*
X3636730Y-926960D01*
X3636730Y-926960D02*
X3617682Y-936484D01*
X3617682Y-936484D02*
X3589110Y-936484D01*
X3770063Y-936484D02*
X3751015Y-926960D01*
X3751015Y-926960D02*
X3741491Y-907912D01*
X3741491Y-907912D02*
X3741491Y-736484D01*
X3922444Y-926960D02*
X3903396Y-936484D01*
X3903396Y-936484D02*
X3865301Y-936484D01*
X3865301Y-936484D02*
X3846253Y-926960D01*
X3846253Y-926960D02*
X3836730Y-907912D01*
X3836730Y-907912D02*
X3836730Y-831722D01*
X3836730Y-831722D02*
X3846253Y-812674D01*
X3846253Y-812674D02*
X3865301Y-803150D01*
X3865301Y-803150D02*
X3903396Y-803150D01*
X3903396Y-803150D02*
X3922444Y-812674D01*
X3922444Y-812674D02*
X3931968Y-831722D01*
X3931968Y-831722D02*
X3931968Y-850769D01*
X3931968Y-850769D02*
X3836730Y-869817D01*
X4008158Y-926960D02*
X4027206Y-936484D01*
X4027206Y-936484D02*
X4065301Y-936484D01*
X4065301Y-936484D02*
X4084349Y-926960D01*
X4084349Y-926960D02*
X4093872Y-907912D01*
X4093872Y-907912D02*
X4093872Y-898388D01*
X4093872Y-898388D02*
X4084349Y-879341D01*
X4084349Y-879341D02*
X4065301Y-869817D01*
X4065301Y-869817D02*
X4036730Y-869817D01*
X4036730Y-869817D02*
X4017682Y-860293D01*
X4017682Y-860293D02*
X4008158Y-841246D01*
X4008158Y-841246D02*
X4008158Y-831722D01*
X4008158Y-831722D02*
X4017682Y-812674D01*
X4017682Y-812674D02*
X4036730Y-803150D01*
X4036730Y-803150D02*
X4065301Y-803150D01*
X4065301Y-803150D02*
X4084349Y-812674D01*
X4160539Y-1012674D02*
X4170063Y-1003150D01*
X4170063Y-1003150D02*
X4189111Y-974579D01*
X4189111Y-974579D02*
X4198634Y-955531D01*
X4198634Y-955531D02*
X4208158Y-926960D01*
X4208158Y-926960D02*
X4217682Y-879341D01*
X4217682Y-879341D02*
X4217682Y-841246D01*
X4217682Y-841246D02*
X4208158Y-793627D01*
X4208158Y-793627D02*
X4198634Y-765055D01*
X4198634Y-765055D02*
X4189111Y-746008D01*
X4189111Y-746008D02*
X4170063Y-717436D01*
X4170063Y-717436D02*
X4160539Y-707912D01*
D10*
X-805000Y-1109000D02*
G75*
G02*
X-905000Y-1109000I-50000J0D01*
G01*
X-905000Y-1109000D02*
G75*
G02*
X-805000Y-1109000I50000J0D01*
G01*
D11*
X-439461Y-1200484D02*
X-553747Y-1200484D01*
X-496604Y-1200484D02*
X-496604Y-1000484D01*
X-496604Y-1000484D02*
X-515652Y-1029055D01*
X-515652Y-1029055D02*
X-534699Y-1048103D01*
X-534699Y-1048103D02*
X-553747Y-1057627D01*
X-353747Y-1181436D02*
X-344223Y-1190960D01*
X-344223Y-1190960D02*
X-353747Y-1200484D01*
X-353747Y-1200484D02*
X-363271Y-1190960D01*
X-363271Y-1190960D02*
X-353747Y-1181436D01*
X-353747Y-1181436D02*
X-353747Y-1200484D01*
X-220414Y-1000484D02*
X-201366Y-1000484D01*
X-201366Y-1000484D02*
X-182318Y-1010008D01*
X-182318Y-1010008D02*
X-172795Y-1019531D01*
X-172795Y-1019531D02*
X-163271Y-1038579D01*
X-163271Y-1038579D02*
X-153747Y-1076674D01*
X-153747Y-1076674D02*
X-153747Y-1124293D01*
X-153747Y-1124293D02*
X-163271Y-1162389D01*
X-163271Y-1162389D02*
X-172795Y-1181436D01*
X-172795Y-1181436D02*
X-182318Y-1190960D01*
X-182318Y-1190960D02*
X-201366Y-1200484D01*
X-201366Y-1200484D02*
X-220414Y-1200484D01*
X-220414Y-1200484D02*
X-239461Y-1190960D01*
X-239461Y-1190960D02*
X-248985Y-1181436D01*
X-248985Y-1181436D02*
X-258509Y-1162389D01*
X-258509Y-1162389D02*
X-268033Y-1124293D01*
X-268033Y-1124293D02*
X-268033Y-1076674D01*
X-268033Y-1076674D02*
X-258509Y-1038579D01*
X-258509Y-1038579D02*
X-248985Y-1019531D01*
X-248985Y-1019531D02*
X-239461Y-1010008D01*
X-239461Y-1010008D02*
X-220414Y-1000484D01*
X-29937Y-1000484D02*
X-10890Y-1000484D01*
X-10890Y-1000484D02*
X8158Y-1010008D01*
X8158Y-1010008D02*
X17682Y-1019531D01*
X17682Y-1019531D02*
X27205Y-1038579D01*
X27205Y-1038579D02*
X36729Y-1076674D01*
X36729Y-1076674D02*
X36729Y-1124293D01*
X36729Y-1124293D02*
X27205Y-1162389D01*
X27205Y-1162389D02*
X17682Y-1181436D01*
X17682Y-1181436D02*
X8158Y-1190960D01*
X8158Y-1190960D02*
X-10890Y-1200484D01*
X-10890Y-1200484D02*
X-29937Y-1200484D01*
X-29937Y-1200484D02*
X-48985Y-1190960D01*
X-48985Y-1190960D02*
X-58509Y-1181436D01*
X-58509Y-1181436D02*
X-68033Y-1162389D01*
X-68033Y-1162389D02*
X-77557Y-1124293D01*
X-77557Y-1124293D02*
X-77557Y-1076674D01*
X-77557Y-1076674D02*
X-68033Y-1038579D01*
X-68033Y-1038579D02*
X-58509Y-1019531D01*
X-58509Y-1019531D02*
X-48985Y-1010008D01*
X-48985Y-1010008D02*
X-29937Y-1000484D01*
X160539Y-1000484D02*
X179586Y-1000484D01*
X179586Y-1000484D02*
X198634Y-1010008D01*
X198634Y-1010008D02*
X208158Y-1019531D01*
X208158Y-1019531D02*
X217682Y-1038579D01*
X217682Y-1038579D02*
X227205Y-1076674D01*
X227205Y-1076674D02*
X227205Y-1124293D01*
X227205Y-1124293D02*
X217682Y-1162389D01*
X217682Y-1162389D02*
X208158Y-1181436D01*
X208158Y-1181436D02*
X198634Y-1190960D01*
X198634Y-1190960D02*
X179586Y-1200484D01*
X179586Y-1200484D02*
X160539Y-1200484D01*
X160539Y-1200484D02*
X141491Y-1190960D01*
X141491Y-1190960D02*
X131967Y-1181436D01*
X131967Y-1181436D02*
X122443Y-1162389D01*
X122443Y-1162389D02*
X112920Y-1124293D01*
X112920Y-1124293D02*
X112920Y-1076674D01*
X112920Y-1076674D02*
X122443Y-1038579D01*
X122443Y-1038579D02*
X131967Y-1019531D01*
X131967Y-1019531D02*
X141491Y-1010008D01*
X141491Y-1010008D02*
X160539Y-1000484D01*
X312920Y-1200484D02*
X312920Y-1067150D01*
X312920Y-1086198D02*
X322444Y-1076674D01*
X322444Y-1076674D02*
X341491Y-1067150D01*
X341491Y-1067150D02*
X370063Y-1067150D01*
X370063Y-1067150D02*
X389110Y-1076674D01*
X389110Y-1076674D02*
X398634Y-1095722D01*
X398634Y-1095722D02*
X398634Y-1200484D01*
X398634Y-1095722D02*
X408158Y-1076674D01*
X408158Y-1076674D02*
X427205Y-1067150D01*
X427205Y-1067150D02*
X455777Y-1067150D01*
X455777Y-1067150D02*
X474824Y-1076674D01*
X474824Y-1076674D02*
X484348Y-1095722D01*
X484348Y-1095722D02*
X484348Y-1200484D01*
X579586Y-1200484D02*
X579586Y-1067150D01*
X579586Y-1086198D02*
X589110Y-1076674D01*
X589110Y-1076674D02*
X608158Y-1067150D01*
X608158Y-1067150D02*
X636729Y-1067150D01*
X636729Y-1067150D02*
X655777Y-1076674D01*
X655777Y-1076674D02*
X665301Y-1095722D01*
X665301Y-1095722D02*
X665301Y-1200484D01*
X665301Y-1095722D02*
X674825Y-1076674D01*
X674825Y-1076674D02*
X693872Y-1067150D01*
X693872Y-1067150D02*
X722443Y-1067150D01*
X722443Y-1067150D02*
X741491Y-1076674D01*
X741491Y-1076674D02*
X751015Y-1095722D01*
X751015Y-1095722D02*
X751015Y-1200484D01*
X1141491Y-990960D02*
X970063Y-1248103D01*
X1398634Y-1000484D02*
X1417682Y-1000484D01*
X1417682Y-1000484D02*
X1436729Y-1010008D01*
X1436729Y-1010008D02*
X1446253Y-1019531D01*
X1446253Y-1019531D02*
X1455777Y-1038579D01*
X1455777Y-1038579D02*
X1465301Y-1076674D01*
X1465301Y-1076674D02*
X1465301Y-1124293D01*
X1465301Y-1124293D02*
X1455777Y-1162389D01*
X1455777Y-1162389D02*
X1446253Y-1181436D01*
X1446253Y-1181436D02*
X1436729Y-1190960D01*
X1436729Y-1190960D02*
X1417682Y-1200484D01*
X1417682Y-1200484D02*
X1398634Y-1200484D01*
X1398634Y-1200484D02*
X1379587Y-1190960D01*
X1379587Y-1190960D02*
X1370063Y-1181436D01*
X1370063Y-1181436D02*
X1360539Y-1162389D01*
X1360539Y-1162389D02*
X1351015Y-1124293D01*
X1351015Y-1124293D02*
X1351015Y-1076674D01*
X1351015Y-1076674D02*
X1360539Y-1038579D01*
X1360539Y-1038579D02*
X1370063Y-1019531D01*
X1370063Y-1019531D02*
X1379587Y-1010008D01*
X1379587Y-1010008D02*
X1398634Y-1000484D01*
X1551015Y-1181436D02*
X1560539Y-1190960D01*
X1560539Y-1190960D02*
X1551015Y-1200484D01*
X1551015Y-1200484D02*
X1541491Y-1190960D01*
X1541491Y-1190960D02*
X1551015Y-1181436D01*
X1551015Y-1181436D02*
X1551015Y-1200484D01*
X1684348Y-1000484D02*
X1703396Y-1000484D01*
X1703396Y-1000484D02*
X1722444Y-1010008D01*
X1722444Y-1010008D02*
X1731967Y-1019531D01*
X1731967Y-1019531D02*
X1741491Y-1038579D01*
X1741491Y-1038579D02*
X1751015Y-1076674D01*
X1751015Y-1076674D02*
X1751015Y-1124293D01*
X1751015Y-1124293D02*
X1741491Y-1162389D01*
X1741491Y-1162389D02*
X1731967Y-1181436D01*
X1731967Y-1181436D02*
X1722444Y-1190960D01*
X1722444Y-1190960D02*
X1703396Y-1200484D01*
X1703396Y-1200484D02*
X1684348Y-1200484D01*
X1684348Y-1200484D02*
X1665301Y-1190960D01*
X1665301Y-1190960D02*
X1655777Y-1181436D01*
X1655777Y-1181436D02*
X1646253Y-1162389D01*
X1646253Y-1162389D02*
X1636729Y-1124293D01*
X1636729Y-1124293D02*
X1636729Y-1076674D01*
X1636729Y-1076674D02*
X1646253Y-1038579D01*
X1646253Y-1038579D02*
X1655777Y-1019531D01*
X1655777Y-1019531D02*
X1665301Y-1010008D01*
X1665301Y-1010008D02*
X1684348Y-1000484D01*
X1817682Y-1000484D02*
X1941491Y-1000484D01*
X1941491Y-1000484D02*
X1874825Y-1076674D01*
X1874825Y-1076674D02*
X1903396Y-1076674D01*
X1903396Y-1076674D02*
X1922444Y-1086198D01*
X1922444Y-1086198D02*
X1931967Y-1095722D01*
X1931967Y-1095722D02*
X1941491Y-1114770D01*
X1941491Y-1114770D02*
X1941491Y-1162389D01*
X1941491Y-1162389D02*
X1931967Y-1181436D01*
X1931967Y-1181436D02*
X1922444Y-1190960D01*
X1922444Y-1190960D02*
X1903396Y-1200484D01*
X1903396Y-1200484D02*
X1846253Y-1200484D01*
X1846253Y-1200484D02*
X1827206Y-1190960D01*
X1827206Y-1190960D02*
X1817682Y-1181436D01*
X2036729Y-1200484D02*
X2074825Y-1200484D01*
X2074825Y-1200484D02*
X2093872Y-1190960D01*
X2093872Y-1190960D02*
X2103396Y-1181436D01*
X2103396Y-1181436D02*
X2122444Y-1152865D01*
X2122444Y-1152865D02*
X2131968Y-1114770D01*
X2131968Y-1114770D02*
X2131968Y-1038579D01*
X2131968Y-1038579D02*
X2122444Y-1019531D01*
X2122444Y-1019531D02*
X2112920Y-1010008D01*
X2112920Y-1010008D02*
X2093872Y-1000484D01*
X2093872Y-1000484D02*
X2055777Y-1000484D01*
X2055777Y-1000484D02*
X2036729Y-1010008D01*
X2036729Y-1010008D02*
X2027206Y-1019531D01*
X2027206Y-1019531D02*
X2017682Y-1038579D01*
X2017682Y-1038579D02*
X2017682Y-1086198D01*
X2017682Y-1086198D02*
X2027206Y-1105246D01*
X2027206Y-1105246D02*
X2036729Y-1114770D01*
X2036729Y-1114770D02*
X2055777Y-1124293D01*
X2055777Y-1124293D02*
X2093872Y-1124293D01*
X2093872Y-1124293D02*
X2112920Y-1114770D01*
X2112920Y-1114770D02*
X2122444Y-1105246D01*
X2122444Y-1105246D02*
X2131968Y-1086198D01*
X2303396Y-1067150D02*
X2303396Y-1200484D01*
X2255777Y-990960D02*
X2208158Y-1133817D01*
X2208158Y-1133817D02*
X2331968Y-1133817D01*
X2398634Y-1000484D02*
X2398634Y-1038579D01*
X2474825Y-1000484D02*
X2474825Y-1038579D01*
X2770063Y-1276674D02*
X2760539Y-1267150D01*
X2760539Y-1267150D02*
X2741491Y-1238579D01*
X2741491Y-1238579D02*
X2731968Y-1219531D01*
X2731968Y-1219531D02*
X2722444Y-1190960D01*
X2722444Y-1190960D02*
X2712920Y-1143341D01*
X2712920Y-1143341D02*
X2712920Y-1105246D01*
X2712920Y-1105246D02*
X2722444Y-1057627D01*
X2722444Y-1057627D02*
X2731968Y-1029055D01*
X2731968Y-1029055D02*
X2741491Y-1010008D01*
X2741491Y-1010008D02*
X2760539Y-981436D01*
X2760539Y-981436D02*
X2770063Y-971912D01*
X2884348Y-1000484D02*
X2903396Y-1000484D01*
X2903396Y-1000484D02*
X2922444Y-1010008D01*
X2922444Y-1010008D02*
X2931968Y-1019531D01*
X2931968Y-1019531D02*
X2941491Y-1038579D01*
X2941491Y-1038579D02*
X2951015Y-1076674D01*
X2951015Y-1076674D02*
X2951015Y-1124293D01*
X2951015Y-1124293D02*
X2941491Y-1162389D01*
X2941491Y-1162389D02*
X2931968Y-1181436D01*
X2931968Y-1181436D02*
X2922444Y-1190960D01*
X2922444Y-1190960D02*
X2903396Y-1200484D01*
X2903396Y-1200484D02*
X2884348Y-1200484D01*
X2884348Y-1200484D02*
X2865301Y-1190960D01*
X2865301Y-1190960D02*
X2855777Y-1181436D01*
X2855777Y-1181436D02*
X2846253Y-1162389D01*
X2846253Y-1162389D02*
X2836729Y-1124293D01*
X2836729Y-1124293D02*
X2836729Y-1076674D01*
X2836729Y-1076674D02*
X2846253Y-1038579D01*
X2846253Y-1038579D02*
X2855777Y-1019531D01*
X2855777Y-1019531D02*
X2865301Y-1010008D01*
X2865301Y-1010008D02*
X2884348Y-1000484D01*
X3189110Y-1200484D02*
X3189110Y-1000484D01*
X3274825Y-1200484D02*
X3274825Y-1095722D01*
X3274825Y-1095722D02*
X3265301Y-1076674D01*
X3265301Y-1076674D02*
X3246253Y-1067150D01*
X3246253Y-1067150D02*
X3217682Y-1067150D01*
X3217682Y-1067150D02*
X3198634Y-1076674D01*
X3198634Y-1076674D02*
X3189110Y-1086198D01*
X3398634Y-1200484D02*
X3379587Y-1190960D01*
X3379587Y-1190960D02*
X3370063Y-1181436D01*
X3370063Y-1181436D02*
X3360539Y-1162389D01*
X3360539Y-1162389D02*
X3360539Y-1105246D01*
X3360539Y-1105246D02*
X3370063Y-1086198D01*
X3370063Y-1086198D02*
X3379587Y-1076674D01*
X3379587Y-1076674D02*
X3398634Y-1067150D01*
X3398634Y-1067150D02*
X3427206Y-1067150D01*
X3427206Y-1067150D02*
X3446253Y-1076674D01*
X3446253Y-1076674D02*
X3455777Y-1086198D01*
X3455777Y-1086198D02*
X3465301Y-1105246D01*
X3465301Y-1105246D02*
X3465301Y-1162389D01*
X3465301Y-1162389D02*
X3455777Y-1181436D01*
X3455777Y-1181436D02*
X3446253Y-1190960D01*
X3446253Y-1190960D02*
X3427206Y-1200484D01*
X3427206Y-1200484D02*
X3398634Y-1200484D01*
X3579587Y-1200484D02*
X3560539Y-1190960D01*
X3560539Y-1190960D02*
X3551015Y-1171912D01*
X3551015Y-1171912D02*
X3551015Y-1000484D01*
X3731968Y-1190960D02*
X3712920Y-1200484D01*
X3712920Y-1200484D02*
X3674825Y-1200484D01*
X3674825Y-1200484D02*
X3655777Y-1190960D01*
X3655777Y-1190960D02*
X3646253Y-1171912D01*
X3646253Y-1171912D02*
X3646253Y-1095722D01*
X3646253Y-1095722D02*
X3655777Y-1076674D01*
X3655777Y-1076674D02*
X3674825Y-1067150D01*
X3674825Y-1067150D02*
X3712920Y-1067150D01*
X3712920Y-1067150D02*
X3731968Y-1076674D01*
X3731968Y-1076674D02*
X3741491Y-1095722D01*
X3741491Y-1095722D02*
X3741491Y-1114770D01*
X3741491Y-1114770D02*
X3646253Y-1133817D01*
X3817682Y-1190960D02*
X3836730Y-1200484D01*
X3836730Y-1200484D02*
X3874825Y-1200484D01*
X3874825Y-1200484D02*
X3893872Y-1190960D01*
X3893872Y-1190960D02*
X3903396Y-1171912D01*
X3903396Y-1171912D02*
X3903396Y-1162389D01*
X3903396Y-1162389D02*
X3893872Y-1143341D01*
X3893872Y-1143341D02*
X3874825Y-1133817D01*
X3874825Y-1133817D02*
X3846253Y-1133817D01*
X3846253Y-1133817D02*
X3827206Y-1124293D01*
X3827206Y-1124293D02*
X3817682Y-1105246D01*
X3817682Y-1105246D02*
X3817682Y-1095722D01*
X3817682Y-1095722D02*
X3827206Y-1076674D01*
X3827206Y-1076674D02*
X3846253Y-1067150D01*
X3846253Y-1067150D02*
X3874825Y-1067150D01*
X3874825Y-1067150D02*
X3893872Y-1076674D01*
X4141492Y-1124293D02*
X4293873Y-1124293D01*
X4217682Y-1200484D02*
X4217682Y-1048103D01*
X4627206Y-1067150D02*
X4627206Y-1200484D01*
X4579587Y-990960D02*
X4531968Y-1133817D01*
X4531968Y-1133817D02*
X4655777Y-1133817D01*
X4874825Y-1190960D02*
X4893873Y-1200484D01*
X4893873Y-1200484D02*
X4931968Y-1200484D01*
X4931968Y-1200484D02*
X4951016Y-1190960D01*
X4951016Y-1190960D02*
X4960539Y-1171912D01*
X4960539Y-1171912D02*
X4960539Y-1162389D01*
X4960539Y-1162389D02*
X4951016Y-1143341D01*
X4951016Y-1143341D02*
X4931968Y-1133817D01*
X4931968Y-1133817D02*
X4903396Y-1133817D01*
X4903396Y-1133817D02*
X4884349Y-1124293D01*
X4884349Y-1124293D02*
X4874825Y-1105246D01*
X4874825Y-1105246D02*
X4874825Y-1095722D01*
X4874825Y-1095722D02*
X4884349Y-1076674D01*
X4884349Y-1076674D02*
X4903396Y-1067150D01*
X4903396Y-1067150D02*
X4931968Y-1067150D01*
X4931968Y-1067150D02*
X4951016Y-1076674D01*
X5074825Y-1200484D02*
X5055777Y-1190960D01*
X5055777Y-1190960D02*
X5046254Y-1171912D01*
X5046254Y-1171912D02*
X5046254Y-1000484D01*
X5179587Y-1200484D02*
X5160539Y-1190960D01*
X5160539Y-1190960D02*
X5151016Y-1181436D01*
X5151016Y-1181436D02*
X5141492Y-1162389D01*
X5141492Y-1162389D02*
X5141492Y-1105246D01*
X5141492Y-1105246D02*
X5151016Y-1086198D01*
X5151016Y-1086198D02*
X5160539Y-1076674D01*
X5160539Y-1076674D02*
X5179587Y-1067150D01*
X5179587Y-1067150D02*
X5208158Y-1067150D01*
X5208158Y-1067150D02*
X5227206Y-1076674D01*
X5227206Y-1076674D02*
X5236730Y-1086198D01*
X5236730Y-1086198D02*
X5246254Y-1105246D01*
X5246254Y-1105246D02*
X5246254Y-1162389D01*
X5246254Y-1162389D02*
X5236730Y-1181436D01*
X5236730Y-1181436D02*
X5227206Y-1190960D01*
X5227206Y-1190960D02*
X5208158Y-1200484D01*
X5208158Y-1200484D02*
X5179587Y-1200484D01*
X5303397Y-1067150D02*
X5379587Y-1067150D01*
X5331968Y-1000484D02*
X5331968Y-1171912D01*
X5331968Y-1171912D02*
X5341492Y-1190960D01*
X5341492Y-1190960D02*
X5360539Y-1200484D01*
X5360539Y-1200484D02*
X5379587Y-1200484D01*
X5436730Y-1190960D02*
X5455777Y-1200484D01*
X5455777Y-1200484D02*
X5493873Y-1200484D01*
X5493873Y-1200484D02*
X5512920Y-1190960D01*
X5512920Y-1190960D02*
X5522444Y-1171912D01*
X5522444Y-1171912D02*
X5522444Y-1162389D01*
X5522444Y-1162389D02*
X5512920Y-1143341D01*
X5512920Y-1143341D02*
X5493873Y-1133817D01*
X5493873Y-1133817D02*
X5465301Y-1133817D01*
X5465301Y-1133817D02*
X5446254Y-1124293D01*
X5446254Y-1124293D02*
X5436730Y-1105246D01*
X5436730Y-1105246D02*
X5436730Y-1095722D01*
X5436730Y-1095722D02*
X5446254Y-1076674D01*
X5446254Y-1076674D02*
X5465301Y-1067150D01*
X5465301Y-1067150D02*
X5493873Y-1067150D01*
X5493873Y-1067150D02*
X5512920Y-1076674D01*
X5589111Y-1276674D02*
X5598635Y-1267150D01*
X5598635Y-1267150D02*
X5617682Y-1238579D01*
X5617682Y-1238579D02*
X5627206Y-1219531D01*
X5627206Y-1219531D02*
X5636730Y-1190960D01*
X5636730Y-1190960D02*
X5646254Y-1143341D01*
X5646254Y-1143341D02*
X5646254Y-1105246D01*
X5646254Y-1105246D02*
X5636730Y-1057627D01*
X5636730Y-1057627D02*
X5627206Y-1029055D01*
X5627206Y-1029055D02*
X5617682Y-1010008D01*
X5617682Y-1010008D02*
X5598635Y-981436D01*
X5598635Y-981436D02*
X5589111Y-971912D01*
D12*
X-875000Y-1303000D02*
X-875000Y-1443000D01*
X-945000Y-1373000D02*
X-805000Y-1373000D01*
D11*
X-439461Y-1464484D02*
X-553747Y-1464484D01*
X-496604Y-1464484D02*
X-496604Y-1264484D01*
X-496604Y-1264484D02*
X-515652Y-1293055D01*
X-515652Y-1293055D02*
X-534699Y-1312103D01*
X-534699Y-1312103D02*
X-553747Y-1321627D01*
X-353747Y-1445436D02*
X-344223Y-1454960D01*
X-344223Y-1454960D02*
X-353747Y-1464484D01*
X-353747Y-1464484D02*
X-363271Y-1454960D01*
X-363271Y-1454960D02*
X-353747Y-1445436D01*
X-353747Y-1445436D02*
X-353747Y-1464484D01*
X-172795Y-1331150D02*
X-172795Y-1464484D01*
X-220414Y-1254960D02*
X-268033Y-1397817D01*
X-268033Y-1397817D02*
X-144223Y-1397817D01*
X-29937Y-1264484D02*
X-10890Y-1264484D01*
X-10890Y-1264484D02*
X8158Y-1274008D01*
X8158Y-1274008D02*
X17682Y-1283531D01*
X17682Y-1283531D02*
X27205Y-1302579D01*
X27205Y-1302579D02*
X36729Y-1340674D01*
X36729Y-1340674D02*
X36729Y-1388293D01*
X36729Y-1388293D02*
X27205Y-1426388D01*
X27205Y-1426388D02*
X17682Y-1445436D01*
X17682Y-1445436D02*
X8158Y-1454960D01*
X8158Y-1454960D02*
X-10890Y-1464484D01*
X-10890Y-1464484D02*
X-29937Y-1464484D01*
X-29937Y-1464484D02*
X-48985Y-1454960D01*
X-48985Y-1454960D02*
X-58509Y-1445436D01*
X-58509Y-1445436D02*
X-68033Y-1426388D01*
X-68033Y-1426388D02*
X-77557Y-1388293D01*
X-77557Y-1388293D02*
X-77557Y-1340674D01*
X-77557Y-1340674D02*
X-68033Y-1302579D01*
X-68033Y-1302579D02*
X-58509Y-1283531D01*
X-58509Y-1283531D02*
X-48985Y-1274008D01*
X-48985Y-1274008D02*
X-29937Y-1264484D01*
X160539Y-1264484D02*
X179586Y-1264484D01*
X179586Y-1264484D02*
X198634Y-1274008D01*
X198634Y-1274008D02*
X208158Y-1283531D01*
X208158Y-1283531D02*
X217682Y-1302579D01*
X217682Y-1302579D02*
X227205Y-1340674D01*
X227205Y-1340674D02*
X227205Y-1388293D01*
X227205Y-1388293D02*
X217682Y-1426388D01*
X217682Y-1426388D02*
X208158Y-1445436D01*
X208158Y-1445436D02*
X198634Y-1454960D01*
X198634Y-1454960D02*
X179586Y-1464484D01*
X179586Y-1464484D02*
X160539Y-1464484D01*
X160539Y-1464484D02*
X141491Y-1454960D01*
X141491Y-1454960D02*
X131967Y-1445436D01*
X131967Y-1445436D02*
X122443Y-1426388D01*
X122443Y-1426388D02*
X112920Y-1388293D01*
X112920Y-1388293D02*
X112920Y-1340674D01*
X112920Y-1340674D02*
X122443Y-1302579D01*
X122443Y-1302579D02*
X131967Y-1283531D01*
X131967Y-1283531D02*
X141491Y-1274008D01*
X141491Y-1274008D02*
X160539Y-1264484D01*
X312920Y-1464484D02*
X312920Y-1331150D01*
X312920Y-1350198D02*
X322444Y-1340674D01*
X322444Y-1340674D02*
X341491Y-1331150D01*
X341491Y-1331150D02*
X370063Y-1331150D01*
X370063Y-1331150D02*
X389110Y-1340674D01*
X389110Y-1340674D02*
X398634Y-1359722D01*
X398634Y-1359722D02*
X398634Y-1464484D01*
X398634Y-1359722D02*
X408158Y-1340674D01*
X408158Y-1340674D02*
X427205Y-1331150D01*
X427205Y-1331150D02*
X455777Y-1331150D01*
X455777Y-1331150D02*
X474824Y-1340674D01*
X474824Y-1340674D02*
X484348Y-1359722D01*
X484348Y-1359722D02*
X484348Y-1464484D01*
X579586Y-1464484D02*
X579586Y-1331150D01*
X579586Y-1350198D02*
X589110Y-1340674D01*
X589110Y-1340674D02*
X608158Y-1331150D01*
X608158Y-1331150D02*
X636729Y-1331150D01*
X636729Y-1331150D02*
X655777Y-1340674D01*
X655777Y-1340674D02*
X665301Y-1359722D01*
X665301Y-1359722D02*
X665301Y-1464484D01*
X665301Y-1359722D02*
X674825Y-1340674D01*
X674825Y-1340674D02*
X693872Y-1331150D01*
X693872Y-1331150D02*
X722443Y-1331150D01*
X722443Y-1331150D02*
X741491Y-1340674D01*
X741491Y-1340674D02*
X751015Y-1359722D01*
X751015Y-1359722D02*
X751015Y-1464484D01*
X1141491Y-1254960D02*
X970063Y-1512103D01*
X1398634Y-1264484D02*
X1417682Y-1264484D01*
X1417682Y-1264484D02*
X1436729Y-1274008D01*
X1436729Y-1274008D02*
X1446253Y-1283531D01*
X1446253Y-1283531D02*
X1455777Y-1302579D01*
X1455777Y-1302579D02*
X1465301Y-1340674D01*
X1465301Y-1340674D02*
X1465301Y-1388293D01*
X1465301Y-1388293D02*
X1455777Y-1426388D01*
X1455777Y-1426388D02*
X1446253Y-1445436D01*
X1446253Y-1445436D02*
X1436729Y-1454960D01*
X1436729Y-1454960D02*
X1417682Y-1464484D01*
X1417682Y-1464484D02*
X1398634Y-1464484D01*
X1398634Y-1464484D02*
X1379587Y-1454960D01*
X1379587Y-1454960D02*
X1370063Y-1445436D01*
X1370063Y-1445436D02*
X1360539Y-1426388D01*
X1360539Y-1426388D02*
X1351015Y-1388293D01*
X1351015Y-1388293D02*
X1351015Y-1340674D01*
X1351015Y-1340674D02*
X1360539Y-1302579D01*
X1360539Y-1302579D02*
X1370063Y-1283531D01*
X1370063Y-1283531D02*
X1379587Y-1274008D01*
X1379587Y-1274008D02*
X1398634Y-1264484D01*
X1551015Y-1445436D02*
X1560539Y-1454960D01*
X1560539Y-1454960D02*
X1551015Y-1464484D01*
X1551015Y-1464484D02*
X1541491Y-1454960D01*
X1541491Y-1454960D02*
X1551015Y-1445436D01*
X1551015Y-1445436D02*
X1551015Y-1464484D01*
X1684348Y-1264484D02*
X1703396Y-1264484D01*
X1703396Y-1264484D02*
X1722444Y-1274008D01*
X1722444Y-1274008D02*
X1731967Y-1283531D01*
X1731967Y-1283531D02*
X1741491Y-1302579D01*
X1741491Y-1302579D02*
X1751015Y-1340674D01*
X1751015Y-1340674D02*
X1751015Y-1388293D01*
X1751015Y-1388293D02*
X1741491Y-1426388D01*
X1741491Y-1426388D02*
X1731967Y-1445436D01*
X1731967Y-1445436D02*
X1722444Y-1454960D01*
X1722444Y-1454960D02*
X1703396Y-1464484D01*
X1703396Y-1464484D02*
X1684348Y-1464484D01*
X1684348Y-1464484D02*
X1665301Y-1454960D01*
X1665301Y-1454960D02*
X1655777Y-1445436D01*
X1655777Y-1445436D02*
X1646253Y-1426388D01*
X1646253Y-1426388D02*
X1636729Y-1388293D01*
X1636729Y-1388293D02*
X1636729Y-1340674D01*
X1636729Y-1340674D02*
X1646253Y-1302579D01*
X1646253Y-1302579D02*
X1655777Y-1283531D01*
X1655777Y-1283531D02*
X1665301Y-1274008D01*
X1665301Y-1274008D02*
X1684348Y-1264484D01*
X1931967Y-1264484D02*
X1836729Y-1264484D01*
X1836729Y-1264484D02*
X1827206Y-1359722D01*
X1827206Y-1359722D02*
X1836729Y-1350198D01*
X1836729Y-1350198D02*
X1855777Y-1340674D01*
X1855777Y-1340674D02*
X1903396Y-1340674D01*
X1903396Y-1340674D02*
X1922444Y-1350198D01*
X1922444Y-1350198D02*
X1931967Y-1359722D01*
X1931967Y-1359722D02*
X1941491Y-1378770D01*
X1941491Y-1378770D02*
X1941491Y-1426388D01*
X1941491Y-1426388D02*
X1931967Y-1445436D01*
X1931967Y-1445436D02*
X1922444Y-1454960D01*
X1922444Y-1454960D02*
X1903396Y-1464484D01*
X1903396Y-1464484D02*
X1855777Y-1464484D01*
X1855777Y-1464484D02*
X1836729Y-1454960D01*
X1836729Y-1454960D02*
X1827206Y-1445436D01*
X2122444Y-1264484D02*
X2027206Y-1264484D01*
X2027206Y-1264484D02*
X2017682Y-1359722D01*
X2017682Y-1359722D02*
X2027206Y-1350198D01*
X2027206Y-1350198D02*
X2046253Y-1340674D01*
X2046253Y-1340674D02*
X2093872Y-1340674D01*
X2093872Y-1340674D02*
X2112920Y-1350198D01*
X2112920Y-1350198D02*
X2122444Y-1359722D01*
X2122444Y-1359722D02*
X2131968Y-1378770D01*
X2131968Y-1378770D02*
X2131968Y-1426388D01*
X2131968Y-1426388D02*
X2122444Y-1445436D01*
X2122444Y-1445436D02*
X2112920Y-1454960D01*
X2112920Y-1454960D02*
X2093872Y-1464484D01*
X2093872Y-1464484D02*
X2046253Y-1464484D01*
X2046253Y-1464484D02*
X2027206Y-1454960D01*
X2027206Y-1454960D02*
X2017682Y-1445436D01*
X2322444Y-1464484D02*
X2208158Y-1464484D01*
X2265301Y-1464484D02*
X2265301Y-1264484D01*
X2265301Y-1264484D02*
X2246253Y-1293055D01*
X2246253Y-1293055D02*
X2227206Y-1312103D01*
X2227206Y-1312103D02*
X2208158Y-1321627D01*
X2398634Y-1264484D02*
X2398634Y-1302579D01*
X2474825Y-1264484D02*
X2474825Y-1302579D01*
X2770063Y-1540674D02*
X2760539Y-1531150D01*
X2760539Y-1531150D02*
X2741491Y-1502579D01*
X2741491Y-1502579D02*
X2731968Y-1483531D01*
X2731968Y-1483531D02*
X2722444Y-1454960D01*
X2722444Y-1454960D02*
X2712920Y-1407341D01*
X2712920Y-1407341D02*
X2712920Y-1369246D01*
X2712920Y-1369246D02*
X2722444Y-1321627D01*
X2722444Y-1321627D02*
X2731968Y-1293055D01*
X2731968Y-1293055D02*
X2741491Y-1274008D01*
X2741491Y-1274008D02*
X2760539Y-1245436D01*
X2760539Y-1245436D02*
X2770063Y-1235912D01*
X2951015Y-1464484D02*
X2836729Y-1464484D01*
X2893872Y-1464484D02*
X2893872Y-1264484D01*
X2893872Y-1264484D02*
X2874825Y-1293055D01*
X2874825Y-1293055D02*
X2855777Y-1312103D01*
X2855777Y-1312103D02*
X2836729Y-1321627D01*
X3189110Y-1464484D02*
X3189110Y-1264484D01*
X3274825Y-1464484D02*
X3274825Y-1359722D01*
X3274825Y-1359722D02*
X3265301Y-1340674D01*
X3265301Y-1340674D02*
X3246253Y-1331150D01*
X3246253Y-1331150D02*
X3217682Y-1331150D01*
X3217682Y-1331150D02*
X3198634Y-1340674D01*
X3198634Y-1340674D02*
X3189110Y-1350198D01*
X3398634Y-1464484D02*
X3379587Y-1454960D01*
X3379587Y-1454960D02*
X3370063Y-1445436D01*
X3370063Y-1445436D02*
X3360539Y-1426388D01*
X3360539Y-1426388D02*
X3360539Y-1369246D01*
X3360539Y-1369246D02*
X3370063Y-1350198D01*
X3370063Y-1350198D02*
X3379587Y-1340674D01*
X3379587Y-1340674D02*
X3398634Y-1331150D01*
X3398634Y-1331150D02*
X3427206Y-1331150D01*
X3427206Y-1331150D02*
X3446253Y-1340674D01*
X3446253Y-1340674D02*
X3455777Y-1350198D01*
X3455777Y-1350198D02*
X3465301Y-1369246D01*
X3465301Y-1369246D02*
X3465301Y-1426388D01*
X3465301Y-1426388D02*
X3455777Y-1445436D01*
X3455777Y-1445436D02*
X3446253Y-1454960D01*
X3446253Y-1454960D02*
X3427206Y-1464484D01*
X3427206Y-1464484D02*
X3398634Y-1464484D01*
X3579587Y-1464484D02*
X3560539Y-1454960D01*
X3560539Y-1454960D02*
X3551015Y-1435912D01*
X3551015Y-1435912D02*
X3551015Y-1264484D01*
X3731968Y-1454960D02*
X3712920Y-1464484D01*
X3712920Y-1464484D02*
X3674825Y-1464484D01*
X3674825Y-1464484D02*
X3655777Y-1454960D01*
X3655777Y-1454960D02*
X3646253Y-1435912D01*
X3646253Y-1435912D02*
X3646253Y-1359722D01*
X3646253Y-1359722D02*
X3655777Y-1340674D01*
X3655777Y-1340674D02*
X3674825Y-1331150D01*
X3674825Y-1331150D02*
X3712920Y-1331150D01*
X3712920Y-1331150D02*
X3731968Y-1340674D01*
X3731968Y-1340674D02*
X3741491Y-1359722D01*
X3741491Y-1359722D02*
X3741491Y-1378770D01*
X3741491Y-1378770D02*
X3646253Y-1397817D01*
X3808158Y-1540674D02*
X3817682Y-1531150D01*
X3817682Y-1531150D02*
X3836730Y-1502579D01*
X3836730Y-1502579D02*
X3846253Y-1483531D01*
X3846253Y-1483531D02*
X3855777Y-1454960D01*
X3855777Y-1454960D02*
X3865301Y-1407341D01*
X3865301Y-1407341D02*
X3865301Y-1369246D01*
X3865301Y-1369246D02*
X3855777Y-1321627D01*
X3855777Y-1321627D02*
X3846253Y-1293055D01*
X3846253Y-1293055D02*
X3836730Y-1274008D01*
X3836730Y-1274008D02*
X3817682Y-1245436D01*
X3817682Y-1245436D02*
X3808158Y-1235912D01*
M02*
