ISO-10303-21;
HEADER;
/* Generated by software containing ST-Developer
 * from STEP Tools, Inc. (www.steptools.com) 
 */

FILE_DESCRIPTION(
/* description */ (''),
/* implementation_level */ '2;1');

FILE_NAME(
/* name */ '',
/* time_stamp */ '',
/* author */ (''),
/* organization */ (''),
/* preprocessor_version */ '',
/* originating_system */ '',
/* authorisation */ '');

FILE_SCHEMA (('AUTOMOTIVE_DESIGN { 1 0 10303 214 3 1 1 }'));
ENDSEC;

DATA;
#10=MECHANICAL_DESIGN_GEOMETRIC_PRESENTATION_REPRESENTATION('',(#13),#1774);
#11=SHAPE_REPRESENTATION_RELATIONSHIP('SRR','None',#1783,#12);
#12=ADVANCED_BREP_SHAPE_REPRESENTATION('',(#14),#1773);
#13=STYLED_ITEM('',(#1792),#14);
#14=MANIFOLD_SOLID_BREP('Solid1',#1066);
#15=LINE('',#1477,#126);
#16=LINE('',#1479,#127);
#17=LINE('',#1481,#128);
#18=LINE('',#1482,#129);
#19=LINE('',#1485,#130);
#20=LINE('',#1489,#131);
#21=LINE('',#1492,#132);
#22=LINE('',#1497,#133);
#23=LINE('',#1501,#134);
#24=LINE('',#1505,#135);
#25=LINE('',#1508,#136);
#26=LINE('',#1514,#137);
#27=LINE('',#1517,#138);
#28=LINE('',#1520,#139);
#29=LINE('',#1522,#140);
#30=LINE('',#1524,#141);
#31=LINE('',#1526,#142);
#32=LINE('',#1527,#143);
#33=LINE('',#1530,#144);
#34=LINE('',#1532,#145);
#35=LINE('',#1536,#146);
#36=LINE('',#1539,#147);
#37=LINE('',#1541,#148);
#38=LINE('',#1543,#149);
#39=LINE('',#1545,#150);
#40=LINE('',#1547,#151);
#41=LINE('',#1549,#152);
#42=LINE('',#1551,#153);
#43=LINE('',#1555,#154);
#44=LINE('',#1559,#155);
#45=LINE('',#1563,#156);
#46=LINE('',#1564,#157);
#47=LINE('',#1567,#158);
#48=LINE('',#1570,#159);
#49=LINE('',#1573,#160);
#50=LINE('',#1574,#161);
#51=LINE('',#1577,#162);
#52=LINE('',#1580,#163);
#53=LINE('',#1583,#164);
#54=LINE('',#1584,#165);
#55=LINE('',#1587,#166);
#56=LINE('',#1591,#167);
#57=LINE('',#1594,#168);
#58=LINE('',#1597,#169);
#59=LINE('',#1599,#170);
#60=LINE('',#1600,#171);
#61=LINE('',#1603,#172);
#62=LINE('',#1606,#173);
#63=LINE('',#1608,#174);
#64=LINE('',#1613,#175);
#65=LINE('',#1614,#176);
#66=LINE('',#1616,#177);
#67=LINE('',#1620,#178);
#68=LINE('',#1626,#179);
#69=LINE('',#1629,#180);
#70=LINE('',#1632,#181);
#71=LINE('',#1634,#182);
#72=LINE('',#1635,#183);
#73=LINE('',#1637,#184);
#74=LINE('',#1638,#185);
#75=LINE('',#1644,#186);
#76=LINE('',#1647,#187);
#77=LINE('',#1648,#188);
#78=LINE('',#1651,#189);
#79=LINE('',#1654,#190);
#80=LINE('',#1657,#191);
#81=LINE('',#1658,#192);
#82=LINE('',#1661,#193);
#83=LINE('',#1665,#194);
#84=LINE('',#1666,#195);
#85=LINE('',#1668,#196);
#86=LINE('',#1669,#197);
#87=LINE('',#1671,#198);
#88=LINE('',#1674,#199);
#89=LINE('',#1677,#200);
#90=LINE('',#1678,#201);
#91=LINE('',#1681,#202);
#92=LINE('',#1682,#203);
#93=LINE('',#1685,#204);
#94=LINE('',#1689,#205);
#95=LINE('',#1690,#206);
#96=LINE('',#1693,#207);
#97=LINE('',#1696,#208);
#98=LINE('',#1698,#209);
#99=LINE('',#1701,#210);
#100=LINE('',#1703,#211);
#101=LINE('',#1705,#212);
#102=LINE('',#1707,#213);
#103=LINE('',#1709,#214);
#104=LINE('',#1710,#215);
#105=LINE('',#1716,#216);
#106=LINE('',#1719,#217);
#107=LINE('',#1722,#218);
#108=LINE('',#1724,#219);
#109=LINE('',#1725,#220);
#110=LINE('',#1728,#221);
#111=LINE('',#1732,#222);
#112=LINE('',#1736,#223);
#113=LINE('',#1740,#224);
#114=LINE('',#1743,#225);
#115=LINE('',#1746,#226);
#116=LINE('',#1747,#227);
#117=LINE('',#1751,#228);
#118=LINE('',#1754,#229);
#119=LINE('',#1755,#230);
#120=LINE('',#1759,#231);
#121=LINE('',#1761,#232);
#122=LINE('',#1762,#233);
#123=LINE('',#1764,#234);
#124=LINE('',#1766,#235);
#125=LINE('',#1769,#236);
#126=VECTOR('',#1178,10.);
#127=VECTOR('',#1179,10.);
#128=VECTOR('',#1180,10.);
#129=VECTOR('',#1181,10.);
#130=VECTOR('',#1184,10.);
#131=VECTOR('',#1187,10.);
#132=VECTOR('',#1190,10.);
#133=VECTOR('',#1193,10.);
#134=VECTOR('',#1196,10.);
#135=VECTOR('',#1199,10.);
#136=VECTOR('',#1202,10.);
#137=VECTOR('',#1207,10.);
#138=VECTOR('',#1210,10.);
#139=VECTOR('',#1213,10.);
#140=VECTOR('',#1214,10.);
#141=VECTOR('',#1215,10.);
#142=VECTOR('',#1216,10.);
#143=VECTOR('',#1217,10.);
#144=VECTOR('',#1220,10.);
#145=VECTOR('',#1221,10.);
#146=VECTOR('',#1224,10.);
#147=VECTOR('',#1227,10.);
#148=VECTOR('',#1228,10.);
#149=VECTOR('',#1229,10.);
#150=VECTOR('',#1230,10.);
#151=VECTOR('',#1231,10.);
#152=VECTOR('',#1232,10.);
#153=VECTOR('',#1233,10.);
#154=VECTOR('',#1236,10.);
#155=VECTOR('',#1239,10.);
#156=VECTOR('',#1242,10.);
#157=VECTOR('',#1243,10.);
#158=VECTOR('',#1246,10.);
#159=VECTOR('',#1249,10.);
#160=VECTOR('',#1252,10.);
#161=VECTOR('',#1253,10.);
#162=VECTOR('',#1256,10.);
#163=VECTOR('',#1259,10.);
#164=VECTOR('',#1262,10.);
#165=VECTOR('',#1263,10.);
#166=VECTOR('',#1266,10.);
#167=VECTOR('',#1271,10.);
#168=VECTOR('',#1274,10.);
#169=VECTOR('',#1277,10.);
#170=VECTOR('',#1278,10.);
#171=VECTOR('',#1279,10.);
#172=VECTOR('',#1282,10.);
#173=VECTOR('',#1285,10.);
#174=VECTOR('',#1288,10.);
#175=VECTOR('',#1293,10.);
#176=VECTOR('',#1294,10.);
#177=VECTOR('',#1297,10.);
#178=VECTOR('',#1302,10.);
#179=VECTOR('',#1307,10.);
#180=VECTOR('',#1310,10.);
#181=VECTOR('',#1313,10.);
#182=VECTOR('',#1314,10.);
#183=VECTOR('',#1315,10.);
#184=VECTOR('',#1316,10.);
#185=VECTOR('',#1317,10.);
#186=VECTOR('',#1324,10.);
#187=VECTOR('',#1327,10.);
#188=VECTOR('',#1328,10.);
#189=VECTOR('',#1331,10.);
#190=VECTOR('',#1334,10.);
#191=VECTOR('',#1337,10.);
#192=VECTOR('',#1338,10.);
#193=VECTOR('',#1341,10.);
#194=VECTOR('',#1346,10.);
#195=VECTOR('',#1347,10.);
#196=VECTOR('',#1350,10.);
#197=VECTOR('',#1351,10.);
#198=VECTOR('',#1354,10.);
#199=VECTOR('',#1359,10.);
#200=VECTOR('',#1362,10.);
#201=VECTOR('',#1363,10.);
#202=VECTOR('',#1366,10.);
#203=VECTOR('',#1367,10.);
#204=VECTOR('',#1370,10.);
#205=VECTOR('',#1375,10.);
#206=VECTOR('',#1376,10.);
#207=VECTOR('',#1379,10.);
#208=VECTOR('',#1384,10.);
#209=VECTOR('',#1387,10.);
#210=VECTOR('',#1390,10.);
#211=VECTOR('',#1391,10.);
#212=VECTOR('',#1392,10.);
#213=VECTOR('',#1393,10.);
#214=VECTOR('',#1394,10.);
#215=VECTOR('',#1395,10.);
#216=VECTOR('',#1400,10.);
#217=VECTOR('',#1403,10.);
#218=VECTOR('',#1406,10.);
#219=VECTOR('',#1407,10.);
#220=VECTOR('',#1408,10.);
#221=VECTOR('',#1411,10.);
#222=VECTOR('',#1414,10.);
#223=VECTOR('',#1417,10.);
#224=VECTOR('',#1422,10.);
#225=VECTOR('',#1425,10.);
#226=VECTOR('',#1428,10.);
#227=VECTOR('',#1429,10.);
#228=VECTOR('',#1434,10.);
#229=VECTOR('',#1437,10.);
#230=VECTOR('',#1438,10.);
#231=VECTOR('',#1445,10.);
#232=VECTOR('',#1448,10.);
#233=VECTOR('',#1449,10.);
#234=VECTOR('',#1452,10.);
#235=VECTOR('',#1455,10.);
#236=VECTOR('',#1460,10.);
#237=PLANE('',#1074);
#238=PLANE('',#1075);
#239=PLANE('',#1085);
#240=PLANE('',#1086);
#241=PLANE('',#1094);
#242=PLANE('',#1097);
#243=PLANE('',#1102);
#244=PLANE('',#1105);
#245=PLANE('',#1108);
#246=PLANE('',#1114);
#247=PLANE('',#1118);
#248=PLANE('',#1121);
#249=PLANE('',#1124);
#250=PLANE('',#1125);
#251=PLANE('',#1126);
#252=PLANE('',#1127);
#253=PLANE('',#1128);
#254=PLANE('',#1129);
#255=PLANE('',#1130);
#256=PLANE('',#1133);
#257=PLANE('',#1136);
#258=PLANE('',#1137);
#259=PLANE('',#1138);
#260=PLANE('',#1142);
#261=PLANE('',#1143);
#262=PLANE('',#1149);
#263=PLANE('',#1152);
#264=PLANE('',#1155);
#265=PLANE('',#1156);
#266=PLANE('',#1157);
#267=PLANE('',#1158);
#268=PLANE('',#1159);
#269=PLANE('',#1160);
#270=PLANE('',#1161);
#271=FACE_BOUND('',#335,.T.);
#272=FACE_BOUND('',#337,.T.);
#273=FACE_BOUND('',#340,.T.);
#274=FACE_BOUND('',#343,.T.);
#275=FACE_BOUND('',#376,.T.);
#276=FACE_BOUND('',#381,.T.);
#277=FACE_BOUND('',#389,.T.);
#278=FACE_BOUND('',#392,.T.);
#279=FACE_BOUND('',#395,.T.);
#280=FACE_OUTER_BOUND('',#334,.T.);
#281=FACE_OUTER_BOUND('',#336,.T.);
#282=FACE_OUTER_BOUND('',#338,.T.);
#283=FACE_OUTER_BOUND('',#339,.T.);
#284=FACE_OUTER_BOUND('',#341,.T.);
#285=FACE_OUTER_BOUND('',#342,.T.);
#286=FACE_OUTER_BOUND('',#344,.T.);
#287=FACE_OUTER_BOUND('',#345,.T.);
#288=FACE_OUTER_BOUND('',#346,.T.);
#289=FACE_OUTER_BOUND('',#347,.T.);
#290=FACE_OUTER_BOUND('',#348,.T.);
#291=FACE_OUTER_BOUND('',#349,.T.);
#292=FACE_OUTER_BOUND('',#350,.T.);
#293=FACE_OUTER_BOUND('',#351,.T.);
#294=FACE_OUTER_BOUND('',#352,.T.);
#295=FACE_OUTER_BOUND('',#353,.T.);
#296=FACE_OUTER_BOUND('',#354,.T.);
#297=FACE_OUTER_BOUND('',#355,.T.);
#298=FACE_OUTER_BOUND('',#356,.T.);
#299=FACE_OUTER_BOUND('',#357,.T.);
#300=FACE_OUTER_BOUND('',#358,.T.);
#301=FACE_OUTER_BOUND('',#359,.T.);
#302=FACE_OUTER_BOUND('',#360,.T.);
#303=FACE_OUTER_BOUND('',#361,.T.);
#304=FACE_OUTER_BOUND('',#362,.T.);
#305=FACE_OUTER_BOUND('',#363,.T.);
#306=FACE_OUTER_BOUND('',#364,.T.);
#307=FACE_OUTER_BOUND('',#365,.T.);
#308=FACE_OUTER_BOUND('',#366,.T.);
#309=FACE_OUTER_BOUND('',#367,.T.);
#310=FACE_OUTER_BOUND('',#368,.T.);
#311=FACE_OUTER_BOUND('',#369,.T.);
#312=FACE_OUTER_BOUND('',#370,.T.);
#313=FACE_OUTER_BOUND('',#371,.T.);
#314=FACE_OUTER_BOUND('',#372,.T.);
#315=FACE_OUTER_BOUND('',#373,.T.);
#316=FACE_OUTER_BOUND('',#374,.T.);
#317=FACE_OUTER_BOUND('',#375,.T.);
#318=FACE_OUTER_BOUND('',#377,.T.);
#319=FACE_OUTER_BOUND('',#378,.T.);
#320=FACE_OUTER_BOUND('',#379,.T.);
#321=FACE_OUTER_BOUND('',#380,.T.);
#322=FACE_OUTER_BOUND('',#382,.T.);
#323=FACE_OUTER_BOUND('',#383,.T.);
#324=FACE_OUTER_BOUND('',#384,.T.);
#325=FACE_OUTER_BOUND('',#385,.T.);
#326=FACE_OUTER_BOUND('',#386,.T.);
#327=FACE_OUTER_BOUND('',#387,.T.);
#328=FACE_OUTER_BOUND('',#388,.T.);
#329=FACE_OUTER_BOUND('',#390,.T.);
#330=FACE_OUTER_BOUND('',#391,.T.);
#331=FACE_OUTER_BOUND('',#393,.T.);
#332=FACE_OUTER_BOUND('',#394,.T.);
#333=FACE_OUTER_BOUND('',#396,.T.);
#334=EDGE_LOOP('',(#690));
#335=EDGE_LOOP('',(#691));
#336=EDGE_LOOP('',(#692));
#337=EDGE_LOOP('',(#693));
#338=EDGE_LOOP('',(#694,#695,#696,#697));
#339=EDGE_LOOP('',(#698,#699,#700,#701,#702,#703));
#340=EDGE_LOOP('',(#704,#705,#706,#707,#708,#709,#710,#711));
#341=EDGE_LOOP('',(#712,#713,#714,#715));
#342=EDGE_LOOP('',(#716,#717,#718,#719,#720,#721));
#343=EDGE_LOOP('',(#722));
#344=EDGE_LOOP('',(#723,#724,#725,#726,#727,#728,#729,#730,#731,#732,#733,
#734,#735,#736,#737,#738,#739,#740,#741,#742,#743,#744));
#345=EDGE_LOOP('',(#745,#746,#747,#748));
#346=EDGE_LOOP('',(#749,#750,#751,#752));
#347=EDGE_LOOP('',(#753,#754,#755,#756));
#348=EDGE_LOOP('',(#757,#758,#759,#760));
#349=EDGE_LOOP('',(#761,#762,#763,#764));
#350=EDGE_LOOP('',(#765,#766,#767,#768));
#351=EDGE_LOOP('',(#769,#770,#771,#772,#773,#774,#775));
#352=EDGE_LOOP('',(#776,#777,#778,#779));
#353=EDGE_LOOP('',(#780,#781,#782,#783));
#354=EDGE_LOOP('',(#784,#785,#786,#787));
#355=EDGE_LOOP('',(#788,#789,#790,#791));
#356=EDGE_LOOP('',(#792,#793,#794,#795));
#357=EDGE_LOOP('',(#796,#797,#798,#799));
#358=EDGE_LOOP('',(#800,#801,#802,#803,#804,#805,#806,#807,#808,#809));
#359=EDGE_LOOP('',(#810,#811,#812,#813));
#360=EDGE_LOOP('',(#814,#815,#816,#817,#818,#819,#820));
#361=EDGE_LOOP('',(#821,#822,#823,#824));
#362=EDGE_LOOP('',(#825,#826,#827,#828));
#363=EDGE_LOOP('',(#829,#830,#831,#832));
#364=EDGE_LOOP('',(#833,#834,#835,#836));
#365=EDGE_LOOP('',(#837,#838,#839,#840,#841,#842,#843,#844,#845));
#366=EDGE_LOOP('',(#846,#847,#848,#849));
#367=EDGE_LOOP('',(#850,#851,#852,#853));
#368=EDGE_LOOP('',(#854,#855,#856,#857));
#369=EDGE_LOOP('',(#858,#859,#860,#861,#862,#863,#864,#865,#866));
#370=EDGE_LOOP('',(#867,#868,#869,#870));
#371=EDGE_LOOP('',(#871,#872,#873,#874));
#372=EDGE_LOOP('',(#875,#876,#877,#878));
#373=EDGE_LOOP('',(#879,#880,#881,#882));
#374=EDGE_LOOP('',(#883,#884,#885,#886));
#375=EDGE_LOOP('',(#887,#888,#889,#890,#891,#892));
#376=EDGE_LOOP('',(#893));
#377=EDGE_LOOP('',(#894,#895,#896,#897,#898,#899,#900,#901,#902,#903,#904,
#905,#906,#907,#908,#909));
#378=EDGE_LOOP('',(#910,#911,#912,#913));
#379=EDGE_LOOP('',(#914,#915,#916,#917));
#380=EDGE_LOOP('',(#918,#919,#920,#921,#922,#923,#924,#925));
#381=EDGE_LOOP('',(#926,#927,#928,#929,#930,#931,#932,#933));
#382=EDGE_LOOP('',(#934,#935,#936,#937));
#383=EDGE_LOOP('',(#938,#939,#940,#941));
#384=EDGE_LOOP('',(#942,#943,#944,#945));
#385=EDGE_LOOP('',(#946,#947,#948,#949));
#386=EDGE_LOOP('',(#950,#951,#952,#953));
#387=EDGE_LOOP('',(#954,#955,#956,#957));
#388=EDGE_LOOP('',(#958,#959,#960,#961));
#389=EDGE_LOOP('',(#962,#963,#964,#965,#966,#967,#968,#969));
#390=EDGE_LOOP('',(#970,#971,#972,#973));
#391=EDGE_LOOP('',(#974,#975,#976,#977));
#392=EDGE_LOOP('',(#978));
#393=EDGE_LOOP('',(#979,#980,#981,#982));
#394=EDGE_LOOP('',(#983,#984,#985,#986));
#395=EDGE_LOOP('',(#987));
#396=EDGE_LOOP('',(#988,#989,#990,#991));
#397=CIRCLE('',#1069,0.75);
#398=CIRCLE('',#1070,0.75);
#399=CIRCLE('',#1072,0.75);
#400=CIRCLE('',#1073,0.75);
#401=CIRCLE('',#1076,0.5);
#402=CIRCLE('',#1077,0.5);
#403=CIRCLE('',#1078,0.5);
#404=CIRCLE('',#1079,0.5);
#405=CIRCLE('',#1080,0.5);
#406=CIRCLE('',#1081,0.5);
#407=CIRCLE('',#1083,0.2);
#408=CIRCLE('',#1084,0.2);
#409=CIRCLE('',#1087,0.5);
#410=CIRCLE('',#1088,0.2);
#411=CIRCLE('',#1089,0.2);
#412=CIRCLE('',#1090,0.2);
#413=CIRCLE('',#1091,0.5);
#414=CIRCLE('',#1093,0.2);
#415=CIRCLE('',#1096,0.2);
#416=CIRCLE('',#1099,0.2);
#417=CIRCLE('',#1101,0.5);
#418=CIRCLE('',#1104,0.5);
#419=CIRCLE('',#1107,0.5);
#420=CIRCLE('',#1110,0.5);
#421=CIRCLE('',#1112,0.5);
#422=CIRCLE('',#1113,0.5);
#423=CIRCLE('',#1116,0.5);
#424=CIRCLE('',#1117,0.5);
#425=CIRCLE('',#1120,0.5);
#426=CIRCLE('',#1123,0.5);
#427=CIRCLE('',#1132,0.5);
#428=CIRCLE('',#1135,0.5);
#429=CIRCLE('',#1140,1.);
#430=CIRCLE('',#1141,1.);
#431=CIRCLE('',#1144,1.);
#432=CIRCLE('',#1145,1.);
#433=CIRCLE('',#1146,1.);
#434=CIRCLE('',#1148,1.);
#435=CIRCLE('',#1151,1.);
#436=CIRCLE('',#1154,1.);
#437=VERTEX_POINT('',#1465);
#438=VERTEX_POINT('',#1467);
#439=VERTEX_POINT('',#1470);
#440=VERTEX_POINT('',#1472);
#441=VERTEX_POINT('',#1475);
#442=VERTEX_POINT('',#1476);
#443=VERTEX_POINT('',#1478);
#444=VERTEX_POINT('',#1480);
#445=VERTEX_POINT('',#1484);
#446=VERTEX_POINT('',#1486);
#447=VERTEX_POINT('',#1488);
#448=VERTEX_POINT('',#1490);
#449=VERTEX_POINT('',#1493);
#450=VERTEX_POINT('',#1494);
#451=VERTEX_POINT('',#1496);
#452=VERTEX_POINT('',#1498);
#453=VERTEX_POINT('',#1500);
#454=VERTEX_POINT('',#1502);
#455=VERTEX_POINT('',#1504);
#456=VERTEX_POINT('',#1506);
#457=VERTEX_POINT('',#1510);
#458=VERTEX_POINT('',#1511);
#459=VERTEX_POINT('',#1513);
#460=VERTEX_POINT('',#1515);
#461=VERTEX_POINT('',#1519);
#462=VERTEX_POINT('',#1521);
#463=VERTEX_POINT('',#1523);
#464=VERTEX_POINT('',#1525);
#465=VERTEX_POINT('',#1529);
#466=VERTEX_POINT('',#1531);
#467=VERTEX_POINT('',#1533);
#468=VERTEX_POINT('',#1535);
#469=VERTEX_POINT('',#1538);
#470=VERTEX_POINT('',#1540);
#471=VERTEX_POINT('',#1542);
#472=VERTEX_POINT('',#1544);
#473=VERTEX_POINT('',#1546);
#474=VERTEX_POINT('',#1548);
#475=VERTEX_POINT('',#1550);
#476=VERTEX_POINT('',#1552);
#477=VERTEX_POINT('',#1554);
#478=VERTEX_POINT('',#1556);
#479=VERTEX_POINT('',#1558);
#480=VERTEX_POINT('',#1560);
#481=VERTEX_POINT('',#1562);
#482=VERTEX_POINT('',#1566);
#483=VERTEX_POINT('',#1568);
#484=VERTEX_POINT('',#1572);
#485=VERTEX_POINT('',#1576);
#486=VERTEX_POINT('',#1578);
#487=VERTEX_POINT('',#1582);
#488=VERTEX_POINT('',#1586);
#489=VERTEX_POINT('',#1590);
#490=VERTEX_POINT('',#1592);
#491=VERTEX_POINT('',#1596);
#492=VERTEX_POINT('',#1598);
#493=VERTEX_POINT('',#1602);
#494=VERTEX_POINT('',#1604);
#495=VERTEX_POINT('',#1610);
#496=VERTEX_POINT('',#1611);
#497=VERTEX_POINT('',#1618);
#498=VERTEX_POINT('',#1622);
#499=VERTEX_POINT('',#1623);
#500=VERTEX_POINT('',#1625);
#501=VERTEX_POINT('',#1627);
#502=VERTEX_POINT('',#1631);
#503=VERTEX_POINT('',#1633);
#504=VERTEX_POINT('',#1636);
#505=VERTEX_POINT('',#1640);
#506=VERTEX_POINT('',#1642);
#507=VERTEX_POINT('',#1646);
#508=VERTEX_POINT('',#1650);
#509=VERTEX_POINT('',#1652);
#510=VERTEX_POINT('',#1656);
#511=VERTEX_POINT('',#1660);
#512=VERTEX_POINT('',#1664);
#513=VERTEX_POINT('',#1676);
#514=VERTEX_POINT('',#1680);
#515=VERTEX_POINT('',#1684);
#516=VERTEX_POINT('',#1688);
#517=VERTEX_POINT('',#1692);
#518=VERTEX_POINT('',#1700);
#519=VERTEX_POINT('',#1702);
#520=VERTEX_POINT('',#1704);
#521=VERTEX_POINT('',#1706);
#522=VERTEX_POINT('',#1708);
#523=VERTEX_POINT('',#1712);
#524=VERTEX_POINT('',#1713);
#525=VERTEX_POINT('',#1715);
#526=VERTEX_POINT('',#1717);
#527=VERTEX_POINT('',#1721);
#528=VERTEX_POINT('',#1723);
#529=VERTEX_POINT('',#1727);
#530=VERTEX_POINT('',#1729);
#531=VERTEX_POINT('',#1731);
#532=VERTEX_POINT('',#1733);
#533=VERTEX_POINT('',#1735);
#534=VERTEX_POINT('',#1739);
#535=VERTEX_POINT('',#1741);
#536=VERTEX_POINT('',#1745);
#537=VERTEX_POINT('',#1749);
#538=VERTEX_POINT('',#1753);
#539=EDGE_CURVE('',#437,#437,#397,.T.);
#540=EDGE_CURVE('',#438,#438,#398,.T.);
#541=EDGE_CURVE('',#439,#439,#399,.T.);
#542=EDGE_CURVE('',#440,#440,#400,.T.);
#543=EDGE_CURVE('',#441,#442,#15,.F.);
#544=EDGE_CURVE('',#442,#443,#16,.T.);
#545=EDGE_CURVE('',#443,#444,#17,.F.);
#546=EDGE_CURVE('',#444,#441,#18,.T.);
#547=EDGE_CURVE('',#445,#442,#19,.T.);
#548=EDGE_CURVE('',#445,#446,#401,.T.);
#549=EDGE_CURVE('',#447,#446,#20,.T.);
#550=EDGE_CURVE('',#447,#448,#402,.T.);
#551=EDGE_CURVE('',#443,#448,#21,.T.);
#552=EDGE_CURVE('',#449,#450,#403,.T.);
#553=EDGE_CURVE('',#451,#449,#22,.T.);
#554=EDGE_CURVE('',#452,#451,#404,.T.);
#555=EDGE_CURVE('',#453,#452,#23,.T.);
#556=EDGE_CURVE('',#454,#453,#405,.T.);
#557=EDGE_CURVE('',#455,#454,#24,.T.);
#558=EDGE_CURVE('',#456,#455,#406,.T.);
#559=EDGE_CURVE('',#450,#456,#25,.T.);
#560=EDGE_CURVE('',#457,#458,#407,.T.);
#561=EDGE_CURVE('',#458,#459,#26,.T.);
#562=EDGE_CURVE('',#459,#460,#408,.T.);
#563=EDGE_CURVE('',#460,#457,#27,.T.);
#564=EDGE_CURVE('',#461,#458,#28,.T.);
#565=EDGE_CURVE('',#462,#461,#29,.T.);
#566=EDGE_CURVE('',#462,#463,#30,.T.);
#567=EDGE_CURVE('',#463,#464,#31,.T.);
#568=EDGE_CURVE('',#464,#459,#32,.T.);
#569=EDGE_CURVE('',#444,#465,#33,.T.);
#570=EDGE_CURVE('',#465,#466,#34,.T.);
#571=EDGE_CURVE('',#467,#466,#409,.T.);
#572=EDGE_CURVE('',#467,#468,#35,.T.);
#573=EDGE_CURVE('',#461,#468,#410,.T.);
#574=EDGE_CURVE('',#457,#469,#36,.T.);
#575=EDGE_CURVE('',#469,#470,#37,.T.);
#576=EDGE_CURVE('',#470,#471,#38,.T.);
#577=EDGE_CURVE('',#471,#472,#39,.T.);
#578=EDGE_CURVE('',#472,#473,#40,.T.);
#579=EDGE_CURVE('',#473,#474,#41,.T.);
#580=EDGE_CURVE('',#474,#475,#42,.T.);
#581=EDGE_CURVE('',#476,#475,#411,.T.);
#582=EDGE_CURVE('',#476,#477,#43,.T.);
#583=EDGE_CURVE('',#478,#477,#412,.T.);
#584=EDGE_CURVE('',#478,#479,#44,.T.);
#585=EDGE_CURVE('',#480,#479,#413,.T.);
#586=EDGE_CURVE('',#480,#481,#45,.T.);
#587=EDGE_CURVE('',#481,#441,#46,.T.);
#588=EDGE_CURVE('',#475,#482,#47,.T.);
#589=EDGE_CURVE('',#482,#483,#414,.T.);
#590=EDGE_CURVE('',#483,#476,#48,.T.);
#591=EDGE_CURVE('',#484,#474,#49,.T.);
#592=EDGE_CURVE('',#484,#482,#50,.T.);
#593=EDGE_CURVE('',#477,#485,#51,.T.);
#594=EDGE_CURVE('',#485,#486,#415,.F.);
#595=EDGE_CURVE('',#486,#478,#52,.T.);
#596=EDGE_CURVE('',#486,#487,#53,.T.);
#597=EDGE_CURVE('',#479,#487,#54,.T.);
#598=EDGE_CURVE('',#468,#488,#55,.T.);
#599=EDGE_CURVE('',#488,#462,#416,.F.);
#600=EDGE_CURVE('',#447,#489,#56,.T.);
#601=EDGE_CURVE('',#489,#490,#417,.T.);
#602=EDGE_CURVE('',#490,#448,#57,.T.);
#603=EDGE_CURVE('',#491,#490,#58,.T.);
#604=EDGE_CURVE('',#492,#491,#59,.T.);
#605=EDGE_CURVE('',#465,#492,#60,.T.);
#606=EDGE_CURVE('',#445,#493,#61,.T.);
#607=EDGE_CURVE('',#493,#494,#418,.T.);
#608=EDGE_CURVE('',#494,#446,#62,.T.);
#609=EDGE_CURVE('',#489,#494,#63,.T.);
#610=EDGE_CURVE('',#495,#496,#419,.T.);
#611=EDGE_CURVE('',#495,#467,#64,.T.);
#612=EDGE_CURVE('',#466,#496,#65,.T.);
#613=EDGE_CURVE('',#488,#495,#66,.T.);
#614=EDGE_CURVE('',#497,#487,#420,.T.);
#615=EDGE_CURVE('',#497,#480,#67,.T.);
#616=EDGE_CURVE('',#498,#499,#421,.T.);
#617=EDGE_CURVE('',#499,#500,#68,.T.);
#618=EDGE_CURVE('',#500,#501,#422,.T.);
#619=EDGE_CURVE('',#501,#498,#69,.T.);
#620=EDGE_CURVE('',#502,#499,#70,.T.);
#621=EDGE_CURVE('',#503,#502,#71,.T.);
#622=EDGE_CURVE('',#503,#491,#72,.T.);
#623=EDGE_CURVE('',#493,#504,#73,.T.);
#624=EDGE_CURVE('',#504,#500,#74,.T.);
#625=EDGE_CURVE('',#505,#503,#423,.T.);
#626=EDGE_CURVE('',#502,#506,#424,.T.);
#627=EDGE_CURVE('',#506,#505,#75,.T.);
#628=EDGE_CURVE('',#507,#481,#76,.T.);
#629=EDGE_CURVE('',#504,#507,#77,.T.);
#630=EDGE_CURVE('',#508,#453,#78,.T.);
#631=EDGE_CURVE('',#509,#508,#425,.T.);
#632=EDGE_CURVE('',#509,#454,#79,.T.);
#633=EDGE_CURVE('',#510,#452,#80,.T.);
#634=EDGE_CURVE('',#508,#510,#81,.T.);
#635=EDGE_CURVE('',#511,#451,#82,.T.);
#636=EDGE_CURVE('',#510,#511,#426,.T.);
#637=EDGE_CURVE('',#512,#449,#83,.T.);
#638=EDGE_CURVE('',#511,#512,#84,.T.);
#639=EDGE_CURVE('',#496,#492,#85,.T.);
#640=EDGE_CURVE('',#463,#505,#86,.T.);
#641=EDGE_CURVE('',#507,#497,#87,.T.);
#642=EDGE_CURVE('',#464,#506,#88,.T.);
#643=EDGE_CURVE('',#513,#485,#89,.T.);
#644=EDGE_CURVE('',#513,#501,#90,.T.);
#645=EDGE_CURVE('',#514,#513,#91,.T.);
#646=EDGE_CURVE('',#498,#514,#92,.T.);
#647=EDGE_CURVE('',#515,#450,#93,.T.);
#648=EDGE_CURVE('',#512,#515,#427,.T.);
#649=EDGE_CURVE('',#516,#456,#94,.T.);
#650=EDGE_CURVE('',#515,#516,#95,.T.);
#651=EDGE_CURVE('',#517,#455,#96,.T.);
#652=EDGE_CURVE('',#516,#517,#428,.T.);
#653=EDGE_CURVE('',#517,#509,#97,.T.);
#654=EDGE_CURVE('',#483,#514,#98,.T.);
#655=EDGE_CURVE('',#518,#484,#99,.T.);
#656=EDGE_CURVE('',#519,#518,#100,.T.);
#657=EDGE_CURVE('',#519,#520,#101,.T.);
#658=EDGE_CURVE('',#521,#520,#102,.T.);
#659=EDGE_CURVE('',#522,#521,#103,.T.);
#660=EDGE_CURVE('',#460,#522,#104,.T.);
#661=EDGE_CURVE('',#523,#524,#429,.T.);
#662=EDGE_CURVE('',#524,#525,#105,.T.);
#663=EDGE_CURVE('',#525,#526,#430,.F.);
#664=EDGE_CURVE('',#526,#523,#106,.T.);
#665=EDGE_CURVE('',#527,#524,#107,.T.);
#666=EDGE_CURVE('',#528,#527,#108,.T.);
#667=EDGE_CURVE('',#528,#525,#109,.T.);
#668=EDGE_CURVE('',#523,#529,#110,.T.);
#669=EDGE_CURVE('',#530,#529,#431,.T.);
#670=EDGE_CURVE('',#530,#531,#111,.T.);
#671=EDGE_CURVE('',#532,#531,#432,.T.);
#672=EDGE_CURVE('',#532,#533,#112,.T.);
#673=EDGE_CURVE('',#527,#533,#433,.T.);
#674=EDGE_CURVE('',#529,#534,#113,.T.);
#675=EDGE_CURVE('',#534,#535,#434,.F.);
#676=EDGE_CURVE('',#535,#530,#114,.T.);
#677=EDGE_CURVE('',#535,#536,#115,.T.);
#678=EDGE_CURVE('',#531,#536,#116,.T.);
#679=EDGE_CURVE('',#536,#537,#435,.F.);
#680=EDGE_CURVE('',#537,#532,#117,.T.);
#681=EDGE_CURVE('',#537,#538,#118,.T.);
#682=EDGE_CURVE('',#533,#538,#119,.T.);
#683=EDGE_CURVE('',#538,#528,#436,.F.);
#684=EDGE_CURVE('',#526,#534,#120,.T.);
#685=EDGE_CURVE('',#472,#519,#121,.T.);
#686=EDGE_CURVE('',#520,#471,#122,.T.);
#687=EDGE_CURVE('',#521,#470,#123,.T.);
#688=EDGE_CURVE('',#522,#469,#124,.T.);
#689=EDGE_CURVE('',#518,#473,#125,.T.);
#690=ORIENTED_EDGE('',*,*,#539,.F.);
#691=ORIENTED_EDGE('',*,*,#540,.F.);
#692=ORIENTED_EDGE('',*,*,#541,.F.);
#693=ORIENTED_EDGE('',*,*,#542,.F.);
#694=ORIENTED_EDGE('',*,*,#543,.T.);
#695=ORIENTED_EDGE('',*,*,#544,.T.);
#696=ORIENTED_EDGE('',*,*,#545,.T.);
#697=ORIENTED_EDGE('',*,*,#546,.T.);
#698=ORIENTED_EDGE('',*,*,#544,.F.);
#699=ORIENTED_EDGE('',*,*,#547,.F.);
#700=ORIENTED_EDGE('',*,*,#548,.T.);
#701=ORIENTED_EDGE('',*,*,#549,.F.);
#702=ORIENTED_EDGE('',*,*,#550,.T.);
#703=ORIENTED_EDGE('',*,*,#551,.F.);
#704=ORIENTED_EDGE('',*,*,#552,.F.);
#705=ORIENTED_EDGE('',*,*,#553,.F.);
#706=ORIENTED_EDGE('',*,*,#554,.F.);
#707=ORIENTED_EDGE('',*,*,#555,.F.);
#708=ORIENTED_EDGE('',*,*,#556,.F.);
#709=ORIENTED_EDGE('',*,*,#557,.F.);
#710=ORIENTED_EDGE('',*,*,#558,.F.);
#711=ORIENTED_EDGE('',*,*,#559,.F.);
#712=ORIENTED_EDGE('',*,*,#560,.T.);
#713=ORIENTED_EDGE('',*,*,#561,.T.);
#714=ORIENTED_EDGE('',*,*,#562,.T.);
#715=ORIENTED_EDGE('',*,*,#563,.T.);
#716=ORIENTED_EDGE('',*,*,#561,.F.);
#717=ORIENTED_EDGE('',*,*,#564,.F.);
#718=ORIENTED_EDGE('',*,*,#565,.F.);
#719=ORIENTED_EDGE('',*,*,#566,.T.);
#720=ORIENTED_EDGE('',*,*,#567,.T.);
#721=ORIENTED_EDGE('',*,*,#568,.T.);
#722=ORIENTED_EDGE('',*,*,#539,.T.);
#723=ORIENTED_EDGE('',*,*,#569,.T.);
#724=ORIENTED_EDGE('',*,*,#570,.T.);
#725=ORIENTED_EDGE('',*,*,#571,.F.);
#726=ORIENTED_EDGE('',*,*,#572,.T.);
#727=ORIENTED_EDGE('',*,*,#573,.F.);
#728=ORIENTED_EDGE('',*,*,#564,.T.);
#729=ORIENTED_EDGE('',*,*,#560,.F.);
#730=ORIENTED_EDGE('',*,*,#574,.T.);
#731=ORIENTED_EDGE('',*,*,#575,.T.);
#732=ORIENTED_EDGE('',*,*,#576,.T.);
#733=ORIENTED_EDGE('',*,*,#577,.T.);
#734=ORIENTED_EDGE('',*,*,#578,.T.);
#735=ORIENTED_EDGE('',*,*,#579,.T.);
#736=ORIENTED_EDGE('',*,*,#580,.T.);
#737=ORIENTED_EDGE('',*,*,#581,.F.);
#738=ORIENTED_EDGE('',*,*,#582,.T.);
#739=ORIENTED_EDGE('',*,*,#583,.F.);
#740=ORIENTED_EDGE('',*,*,#584,.T.);
#741=ORIENTED_EDGE('',*,*,#585,.F.);
#742=ORIENTED_EDGE('',*,*,#586,.T.);
#743=ORIENTED_EDGE('',*,*,#587,.T.);
#744=ORIENTED_EDGE('',*,*,#546,.F.);
#745=ORIENTED_EDGE('',*,*,#581,.T.);
#746=ORIENTED_EDGE('',*,*,#588,.T.);
#747=ORIENTED_EDGE('',*,*,#589,.T.);
#748=ORIENTED_EDGE('',*,*,#590,.T.);
#749=ORIENTED_EDGE('',*,*,#588,.F.);
#750=ORIENTED_EDGE('',*,*,#580,.F.);
#751=ORIENTED_EDGE('',*,*,#591,.F.);
#752=ORIENTED_EDGE('',*,*,#592,.T.);
#753=ORIENTED_EDGE('',*,*,#583,.T.);
#754=ORIENTED_EDGE('',*,*,#593,.T.);
#755=ORIENTED_EDGE('',*,*,#594,.T.);
#756=ORIENTED_EDGE('',*,*,#595,.T.);
#757=ORIENTED_EDGE('',*,*,#595,.F.);
#758=ORIENTED_EDGE('',*,*,#596,.T.);
#759=ORIENTED_EDGE('',*,*,#597,.F.);
#760=ORIENTED_EDGE('',*,*,#584,.F.);
#761=ORIENTED_EDGE('',*,*,#573,.T.);
#762=ORIENTED_EDGE('',*,*,#598,.T.);
#763=ORIENTED_EDGE('',*,*,#599,.T.);
#764=ORIENTED_EDGE('',*,*,#565,.T.);
#765=ORIENTED_EDGE('',*,*,#550,.F.);
#766=ORIENTED_EDGE('',*,*,#600,.T.);
#767=ORIENTED_EDGE('',*,*,#601,.T.);
#768=ORIENTED_EDGE('',*,*,#602,.T.);
#769=ORIENTED_EDGE('',*,*,#602,.F.);
#770=ORIENTED_EDGE('',*,*,#603,.F.);
#771=ORIENTED_EDGE('',*,*,#604,.F.);
#772=ORIENTED_EDGE('',*,*,#605,.F.);
#773=ORIENTED_EDGE('',*,*,#569,.F.);
#774=ORIENTED_EDGE('',*,*,#545,.F.);
#775=ORIENTED_EDGE('',*,*,#551,.T.);
#776=ORIENTED_EDGE('',*,*,#548,.F.);
#777=ORIENTED_EDGE('',*,*,#606,.T.);
#778=ORIENTED_EDGE('',*,*,#607,.T.);
#779=ORIENTED_EDGE('',*,*,#608,.T.);
#780=ORIENTED_EDGE('',*,*,#600,.F.);
#781=ORIENTED_EDGE('',*,*,#549,.T.);
#782=ORIENTED_EDGE('',*,*,#608,.F.);
#783=ORIENTED_EDGE('',*,*,#609,.F.);
#784=ORIENTED_EDGE('',*,*,#610,.F.);
#785=ORIENTED_EDGE('',*,*,#611,.T.);
#786=ORIENTED_EDGE('',*,*,#571,.T.);
#787=ORIENTED_EDGE('',*,*,#612,.T.);
#788=ORIENTED_EDGE('',*,*,#598,.F.);
#789=ORIENTED_EDGE('',*,*,#572,.F.);
#790=ORIENTED_EDGE('',*,*,#611,.F.);
#791=ORIENTED_EDGE('',*,*,#613,.F.);
#792=ORIENTED_EDGE('',*,*,#614,.F.);
#793=ORIENTED_EDGE('',*,*,#615,.T.);
#794=ORIENTED_EDGE('',*,*,#585,.T.);
#795=ORIENTED_EDGE('',*,*,#597,.T.);
#796=ORIENTED_EDGE('',*,*,#616,.T.);
#797=ORIENTED_EDGE('',*,*,#617,.T.);
#798=ORIENTED_EDGE('',*,*,#618,.T.);
#799=ORIENTED_EDGE('',*,*,#619,.T.);
#800=ORIENTED_EDGE('',*,*,#617,.F.);
#801=ORIENTED_EDGE('',*,*,#620,.F.);
#802=ORIENTED_EDGE('',*,*,#621,.F.);
#803=ORIENTED_EDGE('',*,*,#622,.T.);
#804=ORIENTED_EDGE('',*,*,#603,.T.);
#805=ORIENTED_EDGE('',*,*,#601,.F.);
#806=ORIENTED_EDGE('',*,*,#609,.T.);
#807=ORIENTED_EDGE('',*,*,#607,.F.);
#808=ORIENTED_EDGE('',*,*,#623,.T.);
#809=ORIENTED_EDGE('',*,*,#624,.T.);
#810=ORIENTED_EDGE('',*,*,#625,.T.);
#811=ORIENTED_EDGE('',*,*,#621,.T.);
#812=ORIENTED_EDGE('',*,*,#626,.T.);
#813=ORIENTED_EDGE('',*,*,#627,.T.);
#814=ORIENTED_EDGE('',*,*,#606,.F.);
#815=ORIENTED_EDGE('',*,*,#547,.T.);
#816=ORIENTED_EDGE('',*,*,#543,.F.);
#817=ORIENTED_EDGE('',*,*,#587,.F.);
#818=ORIENTED_EDGE('',*,*,#628,.F.);
#819=ORIENTED_EDGE('',*,*,#629,.F.);
#820=ORIENTED_EDGE('',*,*,#623,.F.);
#821=ORIENTED_EDGE('',*,*,#556,.T.);
#822=ORIENTED_EDGE('',*,*,#630,.F.);
#823=ORIENTED_EDGE('',*,*,#631,.F.);
#824=ORIENTED_EDGE('',*,*,#632,.T.);
#825=ORIENTED_EDGE('',*,*,#555,.T.);
#826=ORIENTED_EDGE('',*,*,#633,.F.);
#827=ORIENTED_EDGE('',*,*,#634,.F.);
#828=ORIENTED_EDGE('',*,*,#630,.T.);
#829=ORIENTED_EDGE('',*,*,#554,.T.);
#830=ORIENTED_EDGE('',*,*,#635,.F.);
#831=ORIENTED_EDGE('',*,*,#636,.F.);
#832=ORIENTED_EDGE('',*,*,#633,.T.);
#833=ORIENTED_EDGE('',*,*,#553,.T.);
#834=ORIENTED_EDGE('',*,*,#637,.F.);
#835=ORIENTED_EDGE('',*,*,#638,.F.);
#836=ORIENTED_EDGE('',*,*,#635,.T.);
#837=ORIENTED_EDGE('',*,*,#610,.T.);
#838=ORIENTED_EDGE('',*,*,#639,.T.);
#839=ORIENTED_EDGE('',*,*,#604,.T.);
#840=ORIENTED_EDGE('',*,*,#622,.F.);
#841=ORIENTED_EDGE('',*,*,#625,.F.);
#842=ORIENTED_EDGE('',*,*,#640,.F.);
#843=ORIENTED_EDGE('',*,*,#566,.F.);
#844=ORIENTED_EDGE('',*,*,#599,.F.);
#845=ORIENTED_EDGE('',*,*,#613,.T.);
#846=ORIENTED_EDGE('',*,*,#615,.F.);
#847=ORIENTED_EDGE('',*,*,#641,.F.);
#848=ORIENTED_EDGE('',*,*,#628,.T.);
#849=ORIENTED_EDGE('',*,*,#586,.F.);
#850=ORIENTED_EDGE('',*,*,#612,.F.);
#851=ORIENTED_EDGE('',*,*,#570,.F.);
#852=ORIENTED_EDGE('',*,*,#605,.T.);
#853=ORIENTED_EDGE('',*,*,#639,.F.);
#854=ORIENTED_EDGE('',*,*,#627,.F.);
#855=ORIENTED_EDGE('',*,*,#642,.F.);
#856=ORIENTED_EDGE('',*,*,#567,.F.);
#857=ORIENTED_EDGE('',*,*,#640,.T.);
#858=ORIENTED_EDGE('',*,*,#614,.T.);
#859=ORIENTED_EDGE('',*,*,#596,.F.);
#860=ORIENTED_EDGE('',*,*,#594,.F.);
#861=ORIENTED_EDGE('',*,*,#643,.F.);
#862=ORIENTED_EDGE('',*,*,#644,.T.);
#863=ORIENTED_EDGE('',*,*,#618,.F.);
#864=ORIENTED_EDGE('',*,*,#624,.F.);
#865=ORIENTED_EDGE('',*,*,#629,.T.);
#866=ORIENTED_EDGE('',*,*,#641,.T.);
#867=ORIENTED_EDGE('',*,*,#619,.F.);
#868=ORIENTED_EDGE('',*,*,#644,.F.);
#869=ORIENTED_EDGE('',*,*,#645,.F.);
#870=ORIENTED_EDGE('',*,*,#646,.F.);
#871=ORIENTED_EDGE('',*,*,#552,.T.);
#872=ORIENTED_EDGE('',*,*,#647,.F.);
#873=ORIENTED_EDGE('',*,*,#648,.F.);
#874=ORIENTED_EDGE('',*,*,#637,.T.);
#875=ORIENTED_EDGE('',*,*,#559,.T.);
#876=ORIENTED_EDGE('',*,*,#649,.F.);
#877=ORIENTED_EDGE('',*,*,#650,.F.);
#878=ORIENTED_EDGE('',*,*,#647,.T.);
#879=ORIENTED_EDGE('',*,*,#558,.T.);
#880=ORIENTED_EDGE('',*,*,#651,.F.);
#881=ORIENTED_EDGE('',*,*,#652,.F.);
#882=ORIENTED_EDGE('',*,*,#649,.T.);
#883=ORIENTED_EDGE('',*,*,#557,.T.);
#884=ORIENTED_EDGE('',*,*,#632,.F.);
#885=ORIENTED_EDGE('',*,*,#653,.F.);
#886=ORIENTED_EDGE('',*,*,#651,.T.);
#887=ORIENTED_EDGE('',*,*,#590,.F.);
#888=ORIENTED_EDGE('',*,*,#654,.T.);
#889=ORIENTED_EDGE('',*,*,#645,.T.);
#890=ORIENTED_EDGE('',*,*,#643,.T.);
#891=ORIENTED_EDGE('',*,*,#593,.F.);
#892=ORIENTED_EDGE('',*,*,#582,.F.);
#893=ORIENTED_EDGE('',*,*,#541,.T.);
#894=ORIENTED_EDGE('',*,*,#562,.F.);
#895=ORIENTED_EDGE('',*,*,#568,.F.);
#896=ORIENTED_EDGE('',*,*,#642,.T.);
#897=ORIENTED_EDGE('',*,*,#626,.F.);
#898=ORIENTED_EDGE('',*,*,#620,.T.);
#899=ORIENTED_EDGE('',*,*,#616,.F.);
#900=ORIENTED_EDGE('',*,*,#646,.T.);
#901=ORIENTED_EDGE('',*,*,#654,.F.);
#902=ORIENTED_EDGE('',*,*,#589,.F.);
#903=ORIENTED_EDGE('',*,*,#592,.F.);
#904=ORIENTED_EDGE('',*,*,#655,.F.);
#905=ORIENTED_EDGE('',*,*,#656,.F.);
#906=ORIENTED_EDGE('',*,*,#657,.T.);
#907=ORIENTED_EDGE('',*,*,#658,.F.);
#908=ORIENTED_EDGE('',*,*,#659,.F.);
#909=ORIENTED_EDGE('',*,*,#660,.F.);
#910=ORIENTED_EDGE('',*,*,#661,.T.);
#911=ORIENTED_EDGE('',*,*,#662,.T.);
#912=ORIENTED_EDGE('',*,*,#663,.T.);
#913=ORIENTED_EDGE('',*,*,#664,.T.);
#914=ORIENTED_EDGE('',*,*,#662,.F.);
#915=ORIENTED_EDGE('',*,*,#665,.F.);
#916=ORIENTED_EDGE('',*,*,#666,.F.);
#917=ORIENTED_EDGE('',*,*,#667,.T.);
#918=ORIENTED_EDGE('',*,*,#661,.F.);
#919=ORIENTED_EDGE('',*,*,#668,.T.);
#920=ORIENTED_EDGE('',*,*,#669,.F.);
#921=ORIENTED_EDGE('',*,*,#670,.T.);
#922=ORIENTED_EDGE('',*,*,#671,.F.);
#923=ORIENTED_EDGE('',*,*,#672,.T.);
#924=ORIENTED_EDGE('',*,*,#673,.F.);
#925=ORIENTED_EDGE('',*,*,#665,.T.);
#926=ORIENTED_EDGE('',*,*,#631,.T.);
#927=ORIENTED_EDGE('',*,*,#634,.T.);
#928=ORIENTED_EDGE('',*,*,#636,.T.);
#929=ORIENTED_EDGE('',*,*,#638,.T.);
#930=ORIENTED_EDGE('',*,*,#648,.T.);
#931=ORIENTED_EDGE('',*,*,#650,.T.);
#932=ORIENTED_EDGE('',*,*,#652,.T.);
#933=ORIENTED_EDGE('',*,*,#653,.T.);
#934=ORIENTED_EDGE('',*,*,#669,.T.);
#935=ORIENTED_EDGE('',*,*,#674,.T.);
#936=ORIENTED_EDGE('',*,*,#675,.T.);
#937=ORIENTED_EDGE('',*,*,#676,.T.);
#938=ORIENTED_EDGE('',*,*,#676,.F.);
#939=ORIENTED_EDGE('',*,*,#677,.T.);
#940=ORIENTED_EDGE('',*,*,#678,.F.);
#941=ORIENTED_EDGE('',*,*,#670,.F.);
#942=ORIENTED_EDGE('',*,*,#671,.T.);
#943=ORIENTED_EDGE('',*,*,#678,.T.);
#944=ORIENTED_EDGE('',*,*,#679,.T.);
#945=ORIENTED_EDGE('',*,*,#680,.T.);
#946=ORIENTED_EDGE('',*,*,#680,.F.);
#947=ORIENTED_EDGE('',*,*,#681,.T.);
#948=ORIENTED_EDGE('',*,*,#682,.F.);
#949=ORIENTED_EDGE('',*,*,#672,.F.);
#950=ORIENTED_EDGE('',*,*,#673,.T.);
#951=ORIENTED_EDGE('',*,*,#682,.T.);
#952=ORIENTED_EDGE('',*,*,#683,.T.);
#953=ORIENTED_EDGE('',*,*,#666,.T.);
#954=ORIENTED_EDGE('',*,*,#664,.F.);
#955=ORIENTED_EDGE('',*,*,#684,.T.);
#956=ORIENTED_EDGE('',*,*,#674,.F.);
#957=ORIENTED_EDGE('',*,*,#668,.F.);
#958=ORIENTED_EDGE('',*,*,#657,.F.);
#959=ORIENTED_EDGE('',*,*,#685,.F.);
#960=ORIENTED_EDGE('',*,*,#577,.F.);
#961=ORIENTED_EDGE('',*,*,#686,.F.);
#962=ORIENTED_EDGE('',*,*,#667,.F.);
#963=ORIENTED_EDGE('',*,*,#683,.F.);
#964=ORIENTED_EDGE('',*,*,#681,.F.);
#965=ORIENTED_EDGE('',*,*,#679,.F.);
#966=ORIENTED_EDGE('',*,*,#677,.F.);
#967=ORIENTED_EDGE('',*,*,#675,.F.);
#968=ORIENTED_EDGE('',*,*,#684,.F.);
#969=ORIENTED_EDGE('',*,*,#663,.F.);
#970=ORIENTED_EDGE('',*,*,#686,.T.);
#971=ORIENTED_EDGE('',*,*,#576,.F.);
#972=ORIENTED_EDGE('',*,*,#687,.F.);
#973=ORIENTED_EDGE('',*,*,#658,.T.);
#974=ORIENTED_EDGE('',*,*,#659,.T.);
#975=ORIENTED_EDGE('',*,*,#687,.T.);
#976=ORIENTED_EDGE('',*,*,#575,.F.);
#977=ORIENTED_EDGE('',*,*,#688,.F.);
#978=ORIENTED_EDGE('',*,*,#540,.T.);
#979=ORIENTED_EDGE('',*,*,#563,.F.);
#980=ORIENTED_EDGE('',*,*,#660,.T.);
#981=ORIENTED_EDGE('',*,*,#688,.T.);
#982=ORIENTED_EDGE('',*,*,#574,.F.);
#983=ORIENTED_EDGE('',*,*,#655,.T.);
#984=ORIENTED_EDGE('',*,*,#591,.T.);
#985=ORIENTED_EDGE('',*,*,#579,.F.);
#986=ORIENTED_EDGE('',*,*,#689,.F.);
#987=ORIENTED_EDGE('',*,*,#542,.T.);
#988=ORIENTED_EDGE('',*,*,#685,.T.);
#989=ORIENTED_EDGE('',*,*,#656,.T.);
#990=ORIENTED_EDGE('',*,*,#689,.T.);
#991=ORIENTED_EDGE('',*,*,#578,.F.);
#992=CYLINDRICAL_SURFACE('',#1068,0.75);
#993=CYLINDRICAL_SURFACE('',#1071,0.75);
#994=CYLINDRICAL_SURFACE('',#1082,0.2);
#995=CYLINDRICAL_SURFACE('',#1092,0.2);
#996=CYLINDRICAL_SURFACE('',#1095,0.2);
#997=CYLINDRICAL_SURFACE('',#1098,0.2);
#998=CYLINDRICAL_SURFACE('',#1100,0.5);
#999=CYLINDRICAL_SURFACE('',#1103,0.5);
#1000=CYLINDRICAL_SURFACE('',#1106,0.5);
#1001=CYLINDRICAL_SURFACE('',#1109,0.5);
#1002=CYLINDRICAL_SURFACE('',#1111,0.5);
#1003=CYLINDRICAL_SURFACE('',#1115,0.5);
#1004=CYLINDRICAL_SURFACE('',#1119,0.5);
#1005=CYLINDRICAL_SURFACE('',#1122,0.5);
#1006=CYLINDRICAL_SURFACE('',#1131,0.5);
#1007=CYLINDRICAL_SURFACE('',#1134,0.5);
#1008=CYLINDRICAL_SURFACE('',#1139,1.);
#1009=CYLINDRICAL_SURFACE('',#1147,1.);
#1010=CYLINDRICAL_SURFACE('',#1150,1.);
#1011=CYLINDRICAL_SURFACE('',#1153,1.);
#1012=ADVANCED_FACE('',(#280,#271),#992,.F.);
#1013=ADVANCED_FACE('',(#281,#272),#993,.F.);
#1014=ADVANCED_FACE('',(#282),#237,.T.);
#1015=ADVANCED_FACE('',(#283,#273),#238,.F.);
#1016=ADVANCED_FACE('',(#284),#994,.T.);
#1017=ADVANCED_FACE('',(#285,#274),#239,.T.);
#1018=ADVANCED_FACE('',(#286),#240,.T.);
#1019=ADVANCED_FACE('',(#287),#995,.T.);
#1020=ADVANCED_FACE('',(#288),#241,.T.);
#1021=ADVANCED_FACE('',(#289),#996,.T.);
#1022=ADVANCED_FACE('',(#290),#242,.F.);
#1023=ADVANCED_FACE('',(#291),#997,.T.);
#1024=ADVANCED_FACE('',(#292),#998,.F.);
#1025=ADVANCED_FACE('',(#293),#243,.F.);
#1026=ADVANCED_FACE('',(#294),#999,.F.);
#1027=ADVANCED_FACE('',(#295),#244,.F.);
#1028=ADVANCED_FACE('',(#296),#1000,.F.);
#1029=ADVANCED_FACE('',(#297),#245,.F.);
#1030=ADVANCED_FACE('',(#298),#1001,.F.);
#1031=ADVANCED_FACE('',(#299),#1002,.F.);
#1032=ADVANCED_FACE('',(#300),#246,.F.);
#1033=ADVANCED_FACE('',(#301),#1003,.F.);
#1034=ADVANCED_FACE('',(#302),#247,.F.);
#1035=ADVANCED_FACE('',(#303),#1004,.F.);
#1036=ADVANCED_FACE('',(#304),#248,.F.);
#1037=ADVANCED_FACE('',(#305),#1005,.F.);
#1038=ADVANCED_FACE('',(#306),#249,.F.);
#1039=ADVANCED_FACE('',(#307),#250,.F.);
#1040=ADVANCED_FACE('',(#308),#251,.F.);
#1041=ADVANCED_FACE('',(#309),#252,.F.);
#1042=ADVANCED_FACE('',(#310),#253,.F.);
#1043=ADVANCED_FACE('',(#311),#254,.F.);
#1044=ADVANCED_FACE('',(#312),#255,.F.);
#1045=ADVANCED_FACE('',(#313),#1006,.F.);
#1046=ADVANCED_FACE('',(#314),#256,.F.);
#1047=ADVANCED_FACE('',(#315),#1007,.F.);
#1048=ADVANCED_FACE('',(#316),#257,.F.);
#1049=ADVANCED_FACE('',(#317,#275),#258,.T.);
#1050=ADVANCED_FACE('',(#318),#259,.T.);
#1051=ADVANCED_FACE('',(#319),#1008,.T.);
#1052=ADVANCED_FACE('',(#320),#260,.T.);
#1053=ADVANCED_FACE('',(#321,#276),#261,.T.);
#1054=ADVANCED_FACE('',(#322),#1009,.T.);
#1055=ADVANCED_FACE('',(#323),#262,.T.);
#1056=ADVANCED_FACE('',(#324),#1010,.T.);
#1057=ADVANCED_FACE('',(#325),#263,.T.);
#1058=ADVANCED_FACE('',(#326),#1011,.T.);
#1059=ADVANCED_FACE('',(#327),#264,.T.);
#1060=ADVANCED_FACE('',(#328,#277),#265,.F.);
#1061=ADVANCED_FACE('',(#329),#266,.T.);
#1062=ADVANCED_FACE('',(#330,#278),#267,.T.);
#1063=ADVANCED_FACE('',(#331),#268,.T.);
#1064=ADVANCED_FACE('',(#332,#279),#269,.T.);
#1065=ADVANCED_FACE('',(#333),#270,.T.);
#1066=CLOSED_SHELL('',(#1012,#1013,#1014,#1015,#1016,#1017,#1018,#1019,
#1020,#1021,#1022,#1023,#1024,#1025,#1026,#1027,#1028,#1029,#1030,#1031,
#1032,#1033,#1034,#1035,#1036,#1037,#1038,#1039,#1040,#1041,#1042,#1043,
#1044,#1045,#1046,#1047,#1048,#1049,#1050,#1051,#1052,#1053,#1054,#1055,
#1056,#1057,#1058,#1059,#1060,#1061,#1062,#1063,#1064,#1065));
#1067=AXIS2_PLACEMENT_3D('placement',#1463,#1162,#1163);
#1068=AXIS2_PLACEMENT_3D('',#1464,#1164,#1165);
#1069=AXIS2_PLACEMENT_3D('',#1466,#1166,#1167);
#1070=AXIS2_PLACEMENT_3D('',#1468,#1168,#1169);
#1071=AXIS2_PLACEMENT_3D('',#1469,#1170,#1171);
#1072=AXIS2_PLACEMENT_3D('',#1471,#1172,#1173);
#1073=AXIS2_PLACEMENT_3D('',#1473,#1174,#1175);
#1074=AXIS2_PLACEMENT_3D('',#1474,#1176,#1177);
#1075=AXIS2_PLACEMENT_3D('',#1483,#1182,#1183);
#1076=AXIS2_PLACEMENT_3D('',#1487,#1185,#1186);
#1077=AXIS2_PLACEMENT_3D('',#1491,#1188,#1189);
#1078=AXIS2_PLACEMENT_3D('',#1495,#1191,#1192);
#1079=AXIS2_PLACEMENT_3D('',#1499,#1194,#1195);
#1080=AXIS2_PLACEMENT_3D('',#1503,#1197,#1198);
#1081=AXIS2_PLACEMENT_3D('',#1507,#1200,#1201);
#1082=AXIS2_PLACEMENT_3D('',#1509,#1203,#1204);
#1083=AXIS2_PLACEMENT_3D('',#1512,#1205,#1206);
#1084=AXIS2_PLACEMENT_3D('',#1516,#1208,#1209);
#1085=AXIS2_PLACEMENT_3D('',#1518,#1211,#1212);
#1086=AXIS2_PLACEMENT_3D('',#1528,#1218,#1219);
#1087=AXIS2_PLACEMENT_3D('',#1534,#1222,#1223);
#1088=AXIS2_PLACEMENT_3D('',#1537,#1225,#1226);
#1089=AXIS2_PLACEMENT_3D('',#1553,#1234,#1235);
#1090=AXIS2_PLACEMENT_3D('',#1557,#1237,#1238);
#1091=AXIS2_PLACEMENT_3D('',#1561,#1240,#1241);
#1092=AXIS2_PLACEMENT_3D('',#1565,#1244,#1245);
#1093=AXIS2_PLACEMENT_3D('',#1569,#1247,#1248);
#1094=AXIS2_PLACEMENT_3D('',#1571,#1250,#1251);
#1095=AXIS2_PLACEMENT_3D('',#1575,#1254,#1255);
#1096=AXIS2_PLACEMENT_3D('',#1579,#1257,#1258);
#1097=AXIS2_PLACEMENT_3D('',#1581,#1260,#1261);
#1098=AXIS2_PLACEMENT_3D('',#1585,#1264,#1265);
#1099=AXIS2_PLACEMENT_3D('',#1588,#1267,#1268);
#1100=AXIS2_PLACEMENT_3D('',#1589,#1269,#1270);
#1101=AXIS2_PLACEMENT_3D('',#1593,#1272,#1273);
#1102=AXIS2_PLACEMENT_3D('',#1595,#1275,#1276);
#1103=AXIS2_PLACEMENT_3D('',#1601,#1280,#1281);
#1104=AXIS2_PLACEMENT_3D('',#1605,#1283,#1284);
#1105=AXIS2_PLACEMENT_3D('',#1607,#1286,#1287);
#1106=AXIS2_PLACEMENT_3D('',#1609,#1289,#1290);
#1107=AXIS2_PLACEMENT_3D('',#1612,#1291,#1292);
#1108=AXIS2_PLACEMENT_3D('',#1615,#1295,#1296);
#1109=AXIS2_PLACEMENT_3D('',#1617,#1298,#1299);
#1110=AXIS2_PLACEMENT_3D('',#1619,#1300,#1301);
#1111=AXIS2_PLACEMENT_3D('',#1621,#1303,#1304);
#1112=AXIS2_PLACEMENT_3D('',#1624,#1305,#1306);
#1113=AXIS2_PLACEMENT_3D('',#1628,#1308,#1309);
#1114=AXIS2_PLACEMENT_3D('',#1630,#1311,#1312);
#1115=AXIS2_PLACEMENT_3D('',#1639,#1318,#1319);
#1116=AXIS2_PLACEMENT_3D('',#1641,#1320,#1321);
#1117=AXIS2_PLACEMENT_3D('',#1643,#1322,#1323);
#1118=AXIS2_PLACEMENT_3D('',#1645,#1325,#1326);
#1119=AXIS2_PLACEMENT_3D('',#1649,#1329,#1330);
#1120=AXIS2_PLACEMENT_3D('',#1653,#1332,#1333);
#1121=AXIS2_PLACEMENT_3D('',#1655,#1335,#1336);
#1122=AXIS2_PLACEMENT_3D('',#1659,#1339,#1340);
#1123=AXIS2_PLACEMENT_3D('',#1662,#1342,#1343);
#1124=AXIS2_PLACEMENT_3D('',#1663,#1344,#1345);
#1125=AXIS2_PLACEMENT_3D('',#1667,#1348,#1349);
#1126=AXIS2_PLACEMENT_3D('',#1670,#1352,#1353);
#1127=AXIS2_PLACEMENT_3D('',#1672,#1355,#1356);
#1128=AXIS2_PLACEMENT_3D('',#1673,#1357,#1358);
#1129=AXIS2_PLACEMENT_3D('',#1675,#1360,#1361);
#1130=AXIS2_PLACEMENT_3D('',#1679,#1364,#1365);
#1131=AXIS2_PLACEMENT_3D('',#1683,#1368,#1369);
#1132=AXIS2_PLACEMENT_3D('',#1686,#1371,#1372);
#1133=AXIS2_PLACEMENT_3D('',#1687,#1373,#1374);
#1134=AXIS2_PLACEMENT_3D('',#1691,#1377,#1378);
#1135=AXIS2_PLACEMENT_3D('',#1694,#1380,#1381);
#1136=AXIS2_PLACEMENT_3D('',#1695,#1382,#1383);
#1137=AXIS2_PLACEMENT_3D('',#1697,#1385,#1386);
#1138=AXIS2_PLACEMENT_3D('',#1699,#1388,#1389);
#1139=AXIS2_PLACEMENT_3D('',#1711,#1396,#1397);
#1140=AXIS2_PLACEMENT_3D('',#1714,#1398,#1399);
#1141=AXIS2_PLACEMENT_3D('',#1718,#1401,#1402);
#1142=AXIS2_PLACEMENT_3D('',#1720,#1404,#1405);
#1143=AXIS2_PLACEMENT_3D('',#1726,#1409,#1410);
#1144=AXIS2_PLACEMENT_3D('',#1730,#1412,#1413);
#1145=AXIS2_PLACEMENT_3D('',#1734,#1415,#1416);
#1146=AXIS2_PLACEMENT_3D('',#1737,#1418,#1419);
#1147=AXIS2_PLACEMENT_3D('',#1738,#1420,#1421);
#1148=AXIS2_PLACEMENT_3D('',#1742,#1423,#1424);
#1149=AXIS2_PLACEMENT_3D('',#1744,#1426,#1427);
#1150=AXIS2_PLACEMENT_3D('',#1748,#1430,#1431);
#1151=AXIS2_PLACEMENT_3D('',#1750,#1432,#1433);
#1152=AXIS2_PLACEMENT_3D('',#1752,#1435,#1436);
#1153=AXIS2_PLACEMENT_3D('',#1756,#1439,#1440);
#1154=AXIS2_PLACEMENT_3D('',#1757,#1441,#1442);
#1155=AXIS2_PLACEMENT_3D('',#1758,#1443,#1444);
#1156=AXIS2_PLACEMENT_3D('',#1760,#1446,#1447);
#1157=AXIS2_PLACEMENT_3D('',#1763,#1450,#1451);
#1158=AXIS2_PLACEMENT_3D('',#1765,#1453,#1454);
#1159=AXIS2_PLACEMENT_3D('',#1767,#1456,#1457);
#1160=AXIS2_PLACEMENT_3D('',#1768,#1458,#1459);
#1161=AXIS2_PLACEMENT_3D('',#1770,#1461,#1462);
#1162=DIRECTION('axis',(0.,0.,1.));
#1163=DIRECTION('refdir',(1.,0.,0.));
#1164=DIRECTION('center_axis',(0.,0.,-1.));
#1165=DIRECTION('ref_axis',(-1.,0.,0.));
#1166=DIRECTION('center_axis',(0.,0.,1.));
#1167=DIRECTION('ref_axis',(-1.,0.,0.));
#1168=DIRECTION('center_axis',(-8.47498492080273E-17,0.,-1.));
#1169=DIRECTION('ref_axis',(-1.,0.,0.));
#1170=DIRECTION('center_axis',(0.,0.,-1.));
#1171=DIRECTION('ref_axis',(-1.,0.,0.));
#1172=DIRECTION('center_axis',(0.,0.,1.));
#1173=DIRECTION('ref_axis',(-1.,0.,0.));
#1174=DIRECTION('center_axis',(0.,0.,-1.));
#1175=DIRECTION('ref_axis',(-1.,0.,0.));
#1176=DIRECTION('center_axis',(0.,0.566528822887065,-0.824041924199368));
#1177=DIRECTION('ref_axis',(-1.,0.,0.));
#1178=DIRECTION('',(1.94653259043097E-16,0.824041924199368,0.566528822887065));
#1179=DIRECTION('',(-1.,0.,0.));
#1180=DIRECTION('',(0.,-0.824041924199368,-0.566528822887065));
#1181=DIRECTION('',(1.,0.,0.));
#1182=DIRECTION('center_axis',(0.,0.,1.));
#1183=DIRECTION('ref_axis',(1.,0.,0.));
#1184=DIRECTION('',(2.36217664813863E-16,1.,0.));
#1185=DIRECTION('center_axis',(0.,0.,-1.));
#1186=DIRECTION('ref_axis',(0.707106781186546,-0.707106781186549,0.));
#1187=DIRECTION('',(1.,0.,0.));
#1188=DIRECTION('center_axis',(0.,0.,-1.));
#1189=DIRECTION('ref_axis',(-0.707106781186549,-0.707106781186546,0.));
#1190=DIRECTION('',(0.,-1.,0.));
#1191=DIRECTION('center_axis',(0.,0.,-1.));
#1192=DIRECTION('ref_axis',(6.98373562594932E-11,1.,0.));
#1193=DIRECTION('',(1.12881527623371E-16,-1.,0.));
#1194=DIRECTION('center_axis',(0.,0.,-1.));
#1195=DIRECTION('ref_axis',(-1.,1.2806078233991E-10,0.));
#1196=DIRECTION('',(1.,2.45683324827559E-16,0.));
#1197=DIRECTION('center_axis',(0.,0.,-1.));
#1198=DIRECTION('ref_axis',(1.12881527623371E-16,-1.,0.));
#1199=DIRECTION('',(-1.12881527623371E-16,1.,0.));
#1200=DIRECTION('center_axis',(0.,0.,-1.));
#1201=DIRECTION('ref_axis',(1.,-1.16414542811592E-10,0.));
#1202=DIRECTION('',(-1.,-1.12881527623371E-16,0.));
#1203=DIRECTION('center_axis',(0.,1.,0.));
#1204=DIRECTION('ref_axis',(-0.707106781186548,0.,-0.707106781186548));
#1205=DIRECTION('center_axis',(0.,-1.,0.));
#1206=DIRECTION('ref_axis',(-0.707106781186548,0.,-0.707106781186548));
#1207=DIRECTION('',(0.,-1.,0.));
#1208=DIRECTION('center_axis',(0.,1.,0.));
#1209=DIRECTION('ref_axis',(-0.707106781186548,0.,-0.707106781186548));
#1210=DIRECTION('',(0.,1.,0.));
#1211=DIRECTION('center_axis',(0.,0.,-1.));
#1212=DIRECTION('ref_axis',(-1.,0.,0.));
#1213=DIRECTION('',(-1.,0.,0.));
#1214=DIRECTION('',(0.,1.,0.));
#1215=DIRECTION('',(1.,0.,0.));
#1216=DIRECTION('',(0.,-1.,0.));
#1217=DIRECTION('',(-1.,0.,0.));
#1218=DIRECTION('center_axis',(0.,1.,0.));
#1219=DIRECTION('ref_axis',(0.,0.,1.));
#1220=DIRECTION('',(0.,0.,-1.));
#1221=DIRECTION('',(-1.,0.,0.));
#1222=DIRECTION('center_axis',(0.,1.,0.));
#1223=DIRECTION('ref_axis',(-0.707106781186549,0.,0.707106781186546));
#1224=DIRECTION('',(0.,0.,-1.));
#1225=DIRECTION('center_axis',(0.,-1.,0.));
#1226=DIRECTION('ref_axis',(0.707106781186548,0.,-0.707106781186548));
#1227=DIRECTION('',(0.,0.,1.));
#1228=DIRECTION('',(1.,0.,-8.47498492080273E-17));
#1229=DIRECTION('',(2.96059473233375E-15,0.,1.));
#1230=DIRECTION('',(1.,0.,0.));
#1231=DIRECTION('',(0.,0.,-1.));
#1232=DIRECTION('',(1.,0.,0.));
#1233=DIRECTION('',(0.,0.,-1.));
#1234=DIRECTION('center_axis',(0.,-1.,0.));
#1235=DIRECTION('ref_axis',(0.707106781186548,0.,-0.707106781186548));
#1236=DIRECTION('',(-1.,0.,0.));
#1237=DIRECTION('center_axis',(0.,-1.,0.));
#1238=DIRECTION('ref_axis',(-0.707106781186548,0.,-0.707106781186548));
#1239=DIRECTION('',(0.,0.,1.));
#1240=DIRECTION('center_axis',(0.,1.,0.));
#1241=DIRECTION('ref_axis',(0.707106781186549,0.,0.707106781186546));
#1242=DIRECTION('',(-1.,0.,0.));
#1243=DIRECTION('',(0.,0.,1.));
#1244=DIRECTION('center_axis',(0.,1.,0.));
#1245=DIRECTION('ref_axis',(0.707106781186548,0.,-0.707106781186548));
#1246=DIRECTION('',(0.,-1.,0.));
#1247=DIRECTION('center_axis',(0.,1.,0.));
#1248=DIRECTION('ref_axis',(0.707106781186548,0.,-0.707106781186548));
#1249=DIRECTION('',(0.,1.,0.));
#1250=DIRECTION('center_axis',(1.,0.,0.));
#1251=DIRECTION('ref_axis',(0.,0.,-1.));
#1252=DIRECTION('',(0.,1.,0.));
#1253=DIRECTION('',(0.,0.,-1.));
#1254=DIRECTION('center_axis',(-3.08395284618099E-16,1.,0.));
#1255=DIRECTION('ref_axis',(-0.707106781186548,0.,-0.707106781186548));
#1256=DIRECTION('',(3.08395284618099E-16,-1.,0.));
#1257=DIRECTION('center_axis',(0.,-1.,0.));
#1258=DIRECTION('ref_axis',(-0.707106781186548,0.,-0.707106781186548));
#1259=DIRECTION('',(-3.08395284618099E-16,1.,0.));
#1260=DIRECTION('center_axis',(1.,3.08395284618099E-16,0.));
#1261=DIRECTION('ref_axis',(-3.5527136788005E-16,1.,0.));
#1262=DIRECTION('',(0.,0.,1.));
#1263=DIRECTION('',(3.08395284618099E-16,-1.,0.));
#1264=DIRECTION('center_axis',(0.,-1.,0.));
#1265=DIRECTION('ref_axis',(0.707106781186548,0.,-0.707106781186548));
#1266=DIRECTION('',(0.,-1.,0.));
#1267=DIRECTION('center_axis',(0.,-1.,0.));
#1268=DIRECTION('ref_axis',(0.707106781186548,0.,-0.707106781186548));
#1269=DIRECTION('center_axis',(0.,0.,1.));
#1270=DIRECTION('ref_axis',(-0.707106781186549,-0.707106781186546,0.));
#1271=DIRECTION('',(0.,0.,-1.));
#1272=DIRECTION('center_axis',(0.,0.,-1.));
#1273=DIRECTION('ref_axis',(-0.707106781186549,-0.707106781186546,0.));
#1274=DIRECTION('',(0.,0.,1.));
#1275=DIRECTION('center_axis',(-1.,0.,0.));
#1276=DIRECTION('ref_axis',(0.,-1.,0.));
#1277=DIRECTION('',(0.,-1.,0.));
#1278=DIRECTION('',(0.,0.,-1.));
#1279=DIRECTION('',(0.,-1.,0.));
#1280=DIRECTION('center_axis',(0.,0.,1.));
#1281=DIRECTION('ref_axis',(0.707106781186546,-0.707106781186549,0.));
#1282=DIRECTION('',(0.,0.,-1.));
#1283=DIRECTION('center_axis',(0.,0.,-1.));
#1284=DIRECTION('ref_axis',(0.707106781186546,-0.707106781186549,0.));
#1285=DIRECTION('',(0.,0.,1.));
#1286=DIRECTION('center_axis',(0.,-1.,0.));
#1287=DIRECTION('ref_axis',(1.,0.,0.));
#1288=DIRECTION('',(1.,0.,0.));
#1289=DIRECTION('center_axis',(0.,-1.,0.));
#1290=DIRECTION('ref_axis',(-0.707106781186549,0.,0.707106781186546));
#1291=DIRECTION('center_axis',(0.,1.,0.));
#1292=DIRECTION('ref_axis',(-0.707106781186549,0.,0.707106781186546));
#1293=DIRECTION('',(0.,1.,0.));
#1294=DIRECTION('',(0.,-1.,0.));
#1295=DIRECTION('center_axis',(-1.,0.,0.));
#1296=DIRECTION('ref_axis',(0.,-1.,0.));
#1297=DIRECTION('',(0.,0.,1.));
#1298=DIRECTION('center_axis',(-3.08395284618099E-16,1.,0.));
#1299=DIRECTION('ref_axis',(0.707106781186549,0.,0.707106781186546));
#1300=DIRECTION('center_axis',(0.,1.,0.));
#1301=DIRECTION('ref_axis',(0.707106781186549,0.,0.707106781186546));
#1302=DIRECTION('',(-3.08395284618099E-16,1.,0.));
#1303=DIRECTION('center_axis',(1.46081976924363E-16,1.,0.));
#1304=DIRECTION('ref_axis',(0.707106781186549,0.,0.707106781186546));
#1305=DIRECTION('center_axis',(0.,-1.,0.));
#1306=DIRECTION('ref_axis',(0.707106781186549,0.,0.707106781186546));
#1307=DIRECTION('',(1.46081976924363E-16,1.,0.));
#1308=DIRECTION('center_axis',(0.,1.,0.));
#1309=DIRECTION('ref_axis',(0.707106781186549,0.,0.707106781186546));
#1310=DIRECTION('',(-1.46081976924363E-16,-1.,0.));
#1311=DIRECTION('center_axis',(0.,0.,1.));
#1312=DIRECTION('ref_axis',(1.,0.,0.));
#1313=DIRECTION('',(1.,0.,0.));
#1314=DIRECTION('',(0.,-1.,0.));
#1315=DIRECTION('',(1.,0.,0.));
#1316=DIRECTION('',(2.36217664813863E-16,1.,0.));
#1317=DIRECTION('',(1.,0.,0.));
#1318=DIRECTION('center_axis',(0.,-1.,0.));
#1319=DIRECTION('ref_axis',(-0.707106781186549,0.,0.707106781186546));
#1320=DIRECTION('center_axis',(0.,1.,0.));
#1321=DIRECTION('ref_axis',(-0.707106781186549,0.,0.707106781186546));
#1322=DIRECTION('center_axis',(0.,-1.,0.));
#1323=DIRECTION('ref_axis',(-0.707106781186549,0.,0.707106781186546));
#1324=DIRECTION('',(0.,1.,0.));
#1325=DIRECTION('center_axis',(1.,-2.36217664813863E-16,0.));
#1326=DIRECTION('ref_axis',(1.77635683940025E-16,1.,0.));
#1327=DIRECTION('',(2.36217664813863E-16,1.,0.));
#1328=DIRECTION('',(0.,0.,1.));
#1329=DIRECTION('center_axis',(0.,0.,-1.));
#1330=DIRECTION('ref_axis',(1.12881527623371E-16,-1.,0.));
#1331=DIRECTION('',(0.,0.,-1.));
#1332=DIRECTION('center_axis',(0.,0.,-1.));
#1333=DIRECTION('ref_axis',(1.12881527623371E-16,-1.,0.));
#1334=DIRECTION('',(0.,0.,-1.));
#1335=DIRECTION('center_axis',(-2.45683324827559E-16,1.,0.));
#1336=DIRECTION('ref_axis',(1.,2.66453525910038E-16,0.));
#1337=DIRECTION('',(0.,0.,-1.));
#1338=DIRECTION('',(1.,2.45683324827559E-16,0.));
#1339=DIRECTION('center_axis',(0.,0.,-1.));
#1340=DIRECTION('ref_axis',(-1.,1.2806078233991E-10,0.));
#1341=DIRECTION('',(0.,0.,-1.));
#1342=DIRECTION('center_axis',(0.,0.,-1.));
#1343=DIRECTION('ref_axis',(-1.,1.2806078233991E-10,0.));
#1344=DIRECTION('center_axis',(1.,1.12881527623371E-16,0.));
#1345=DIRECTION('ref_axis',(1.77635683940025E-16,-1.,0.));
#1346=DIRECTION('',(0.,0.,-1.));
#1347=DIRECTION('',(1.12881527623371E-16,-1.,0.));
#1348=DIRECTION('center_axis',(0.,-1.,0.));
#1349=DIRECTION('ref_axis',(1.,0.,0.));
#1350=DIRECTION('',(1.,0.,0.));
#1351=DIRECTION('',(0.,0.,1.));
#1352=DIRECTION('center_axis',(0.,0.,1.));
#1353=DIRECTION('ref_axis',(1.,0.,0.));
#1354=DIRECTION('',(1.,0.,0.));
#1355=DIRECTION('center_axis',(0.,0.,1.));
#1356=DIRECTION('ref_axis',(1.,0.,0.));
#1357=DIRECTION('center_axis',(-1.,0.,0.));
#1358=DIRECTION('ref_axis',(0.,-1.,0.));
#1359=DIRECTION('',(0.,0.,1.));
#1360=DIRECTION('center_axis',(0.,-1.,0.));
#1361=DIRECTION('ref_axis',(1.,0.,0.));
#1362=DIRECTION('',(1.,0.,0.));
#1363=DIRECTION('',(0.,0.,1.));
#1364=DIRECTION('center_axis',(1.,-1.46081976924363E-16,0.));
#1365=DIRECTION('ref_axis',(1.77635683940025E-16,1.,0.));
#1366=DIRECTION('',(1.46081976924363E-16,1.,0.));
#1367=DIRECTION('',(0.,0.,-1.));
#1368=DIRECTION('center_axis',(0.,0.,-1.));
#1369=DIRECTION('ref_axis',(6.98373562594932E-11,1.,0.));
#1370=DIRECTION('',(0.,0.,-1.));
#1371=DIRECTION('center_axis',(0.,0.,-1.));
#1372=DIRECTION('ref_axis',(6.98373562594932E-11,1.,0.));
#1373=DIRECTION('center_axis',(1.12881527623371E-16,-1.,0.));
#1374=DIRECTION('ref_axis',(-1.,-1.11022302462516E-16,0.));
#1375=DIRECTION('',(0.,0.,-1.));
#1376=DIRECTION('',(-1.,-1.12881527623371E-16,0.));
#1377=DIRECTION('center_axis',(0.,0.,-1.));
#1378=DIRECTION('ref_axis',(1.,-1.16414542811592E-10,0.));
#1379=DIRECTION('',(0.,0.,-1.));
#1380=DIRECTION('center_axis',(0.,0.,-1.));
#1381=DIRECTION('ref_axis',(1.,-1.16414542811592E-10,0.));
#1382=DIRECTION('center_axis',(-1.,-1.12881527623371E-16,0.));
#1383=DIRECTION('ref_axis',(-1.77635683940025E-16,1.,0.));
#1384=DIRECTION('',(-1.12881527623371E-16,1.,0.));
#1385=DIRECTION('center_axis',(0.,0.,-1.));
#1386=DIRECTION('ref_axis',(-1.,0.,0.));
#1387=DIRECTION('',(-1.,0.,0.));
#1388=DIRECTION('center_axis',(0.,-1.,0.));
#1389=DIRECTION('ref_axis',(0.,0.,-1.));
#1390=DIRECTION('',(1.,0.,0.));
#1391=DIRECTION('',(0.,0.,-1.));
#1392=DIRECTION('',(-1.,0.,0.));
#1393=DIRECTION('',(2.96059473233375E-15,0.,1.));
#1394=DIRECTION('',(1.,0.,-8.47498492080273E-17));
#1395=DIRECTION('',(0.,0.,1.));
#1396=DIRECTION('center_axis',(0.,0.,-1.));
#1397=DIRECTION('ref_axis',(-0.707106781186548,-0.707106781186547,0.));
#1398=DIRECTION('center_axis',(0.,0.,-1.));
#1399=DIRECTION('ref_axis',(-0.707106781186548,-0.707106781186547,0.));
#1400=DIRECTION('',(0.,0.,-1.));
#1401=DIRECTION('center_axis',(0.,0.,-1.));
#1402=DIRECTION('ref_axis',(-0.707106781186548,-0.707106781186547,0.));
#1403=DIRECTION('',(0.,0.,1.));
#1404=DIRECTION('center_axis',(-1.,7.11681426041767E-17,0.));
#1405=DIRECTION('ref_axis',(0.,1.,0.));
#1406=DIRECTION('',(-7.11681426041767E-17,-1.,0.));
#1407=DIRECTION('',(0.,0.,1.));
#1408=DIRECTION('',(-7.11681426041767E-17,-1.,0.));
#1409=DIRECTION('center_axis',(0.,0.,1.));
#1410=DIRECTION('ref_axis',(1.,0.,0.));
#1411=DIRECTION('',(1.,1.12113132945226E-16,0.));
#1412=DIRECTION('center_axis',(0.,0.,-1.));
#1413=DIRECTION('ref_axis',(0.707106781186548,-0.707106781186547,0.));
#1414=DIRECTION('',(0.,1.,0.));
#1415=DIRECTION('center_axis',(0.,0.,-1.));
#1416=DIRECTION('ref_axis',(0.707106781186548,0.707106781186548,0.));
#1417=DIRECTION('',(-1.,-2.18166096542061E-16,0.));
#1418=DIRECTION('center_axis',(0.,0.,-1.));
#1419=DIRECTION('ref_axis',(-0.707106781186548,0.707106781186548,0.));
#1420=DIRECTION('center_axis',(0.,0.,-1.));
#1421=DIRECTION('ref_axis',(0.707106781186548,-0.707106781186547,0.));
#1422=DIRECTION('',(0.,0.,-1.));
#1423=DIRECTION('center_axis',(0.,0.,-1.));
#1424=DIRECTION('ref_axis',(0.707106781186548,-0.707106781186547,0.));
#1425=DIRECTION('',(0.,0.,1.));
#1426=DIRECTION('center_axis',(1.,0.,0.));
#1427=DIRECTION('ref_axis',(0.,-1.,0.));
#1428=DIRECTION('',(0.,1.,0.));
#1429=DIRECTION('',(0.,0.,-1.));
#1430=DIRECTION('center_axis',(0.,0.,-1.));
#1431=DIRECTION('ref_axis',(0.707106781186548,0.707106781186548,0.));
#1432=DIRECTION('center_axis',(0.,0.,-1.));
#1433=DIRECTION('ref_axis',(0.707106781186548,0.707106781186548,0.));
#1434=DIRECTION('',(0.,0.,1.));
#1435=DIRECTION('center_axis',(-2.18166096542061E-16,1.,0.));
#1436=DIRECTION('ref_axis',(1.,1.77635683940025E-16,0.));
#1437=DIRECTION('',(-1.,-2.18166096542061E-16,0.));
#1438=DIRECTION('',(0.,0.,-1.));
#1439=DIRECTION('center_axis',(0.,0.,-1.));
#1440=DIRECTION('ref_axis',(-0.707106781186548,0.707106781186548,0.));
#1441=DIRECTION('center_axis',(0.,0.,-1.));
#1442=DIRECTION('ref_axis',(-0.707106781186548,0.707106781186548,0.));
#1443=DIRECTION('center_axis',(1.12113132945226E-16,-1.,0.));
#1444=DIRECTION('ref_axis',(-1.,-1.11022302462516E-16,0.));
#1445=DIRECTION('',(1.,1.12113132945226E-16,0.));
#1446=DIRECTION('center_axis',(0.,0.,-1.));
#1447=DIRECTION('ref_axis',(-1.,0.,0.));
#1448=DIRECTION('',(0.,-1.,0.));
#1449=DIRECTION('',(0.,1.,0.));
#1450=DIRECTION('center_axis',(-1.,0.,2.96059473233375E-15));
#1451=DIRECTION('ref_axis',(3.01980662698043E-15,0.,1.));
#1452=DIRECTION('',(0.,1.,0.));
#1453=DIRECTION('center_axis',(8.47498492080273E-17,0.,1.));
#1454=DIRECTION('ref_axis',(1.,0.,-8.88178419700125E-17));
#1455=DIRECTION('',(0.,1.,0.));
#1456=DIRECTION('center_axis',(-1.,0.,0.));
#1457=DIRECTION('ref_axis',(0.,0.,1.));
#1458=DIRECTION('center_axis',(0.,0.,1.));
#1459=DIRECTION('ref_axis',(1.,0.,0.));
#1460=DIRECTION('',(0.,1.,0.));
#1461=DIRECTION('center_axis',(1.,0.,0.));
#1462=DIRECTION('ref_axis',(0.,0.,-1.));
#1463=CARTESIAN_POINT('',(0.,0.,0.));
#1464=CARTESIAN_POINT('Origin',(-13.55,2.,-1.5));
#1465=CARTESIAN_POINT('',(-12.8,2.,-3.));
#1466=CARTESIAN_POINT('Origin',(-13.55,2.,-3.));
#1467=CARTESIAN_POINT('',(-12.8,2.,-1.5));
#1468=CARTESIAN_POINT('Origin',(-13.55,2.,-1.5));
#1469=CARTESIAN_POINT('Origin',(13.55,2.,-1.5));
#1470=CARTESIAN_POINT('',(14.3,2.,-3.));
#1471=CARTESIAN_POINT('Origin',(13.55,2.,-3.));
#1472=CARTESIAN_POINT('',(14.3,2.,-1.5));
#1473=CARTESIAN_POINT('Origin',(13.55,2.,-1.5));
#1474=CARTESIAN_POINT('Origin',(4.44089209850063E-15,5.2,-1.025));
#1475=CARTESIAN_POINT('',(11.1,5.6,-0.750000000000001));
#1476=CARTESIAN_POINT('',(11.1,4.8,-1.3));
#1477=CARTESIAN_POINT('',(11.1,3.47745358090185,-2.20925066312998));
#1478=CARTESIAN_POINT('',(-11.1,4.8,-1.3));
#1479=CARTESIAN_POINT('',(4.44089209850063E-15,4.8,-1.3));
#1480=CARTESIAN_POINT('',(-11.1,5.6,-0.750000000000001));
#1481=CARTESIAN_POINT('',(-11.1,5.07320954907162,-1.11216843501326));
#1482=CARTESIAN_POINT('',(4.44089209850063E-15,5.6,-0.750000000000001));
#1483=CARTESIAN_POINT('Origin',(4.44089209850063E-15,3.25,-1.3));
#1484=CARTESIAN_POINT('',(11.1,1.4,-1.3));
#1485=CARTESIAN_POINT('',(11.1,0.899999999999998,-1.3));
#1486=CARTESIAN_POINT('',(10.6,0.899999999999998,-1.3));
#1487=CARTESIAN_POINT('Origin',(10.6,1.4,-1.3));
#1488=CARTESIAN_POINT('',(-10.6,0.899999999999998,-1.3));
#1489=CARTESIAN_POINT('',(-11.1,0.899999999999998,-1.3));
#1490=CARTESIAN_POINT('',(-11.1,1.4,-1.3));
#1491=CARTESIAN_POINT('Origin',(-10.6,1.4,-1.3));
#1492=CARTESIAN_POINT('',(-11.1,5.6,-1.3));
#1493=CARTESIAN_POINT('',(10.95,1.50000000005821,-1.3));
#1494=CARTESIAN_POINT('',(10.4499999999651,1.,-1.3));
#1495=CARTESIAN_POINT('Origin',(10.45,1.5,-1.3));
#1496=CARTESIAN_POINT('',(10.95,3.39999999993597,-1.3));
#1497=CARTESIAN_POINT('',(10.95,3.32499999996799,-1.3));
#1498=CARTESIAN_POINT('',(10.4499999999651,3.9,-1.3));
#1499=CARTESIAN_POINT('Origin',(10.45,3.4,-1.3));
#1500=CARTESIAN_POINT('',(-10.45,3.9,-1.3));
#1501=CARTESIAN_POINT('',(-5.225,3.9,-1.3));
#1502=CARTESIAN_POINT('',(-10.95,3.39999999993597,-1.3));
#1503=CARTESIAN_POINT('Origin',(-10.45,3.4,-1.3));
#1504=CARTESIAN_POINT('',(-10.95,1.50000000005821,-1.3));
#1505=CARTESIAN_POINT('',(-10.95,2.3750000000291,-1.3));
#1506=CARTESIAN_POINT('',(-10.45,0.999999999999999,-1.3));
#1507=CARTESIAN_POINT('Origin',(-10.45,1.5,-1.3));
#1508=CARTESIAN_POINT('',(5.22499999998254,1.,-1.3));
#1509=CARTESIAN_POINT('Origin',(-15.,0.,-2.8));
#1510=CARTESIAN_POINT('',(-15.2,5.6,-2.8));
#1511=CARTESIAN_POINT('',(-15.,5.6,-3.));
#1512=CARTESIAN_POINT('Origin',(-15.,5.6,-2.8));
#1513=CARTESIAN_POINT('',(-15.,0.,-3.));
#1514=CARTESIAN_POINT('',(-15.,0.,-3.));
#1515=CARTESIAN_POINT('',(-15.2,0.,-2.8));
#1516=CARTESIAN_POINT('Origin',(-15.,0.,-2.8));
#1517=CARTESIAN_POINT('',(-15.2,0.,-2.8));
#1518=CARTESIAN_POINT('Origin',(15.2,0.,-3.));
#1519=CARTESIAN_POINT('',(-12.6,5.6,-3.));
#1520=CARTESIAN_POINT('',(15.2,5.6,-3.));
#1521=CARTESIAN_POINT('',(-12.6,3.8,-3.));
#1522=CARTESIAN_POINT('',(-12.6,2.8,-3.));
#1523=CARTESIAN_POINT('',(-12.1,3.8,-3.));
#1524=CARTESIAN_POINT('',(1.4,3.8,-3.));
#1525=CARTESIAN_POINT('',(-12.1,1.38777878078145E-15,-3.));
#1526=CARTESIAN_POINT('',(-12.1,1.9,-3.));
#1527=CARTESIAN_POINT('',(15.2,0.,-3.));
#1528=CARTESIAN_POINT('Origin',(4.44089209850063E-15,5.6,-1.64708083832335));
#1529=CARTESIAN_POINT('',(-11.1,5.6,-1.8));
#1530=CARTESIAN_POINT('',(-11.1,5.6,-1.89854041916168));
#1531=CARTESIAN_POINT('',(-11.9,5.6,-1.8));
#1532=CARTESIAN_POINT('',(4.44089209850063E-15,5.6,-1.8));
#1533=CARTESIAN_POINT('',(-12.4,5.6,-2.3));
#1534=CARTESIAN_POINT('Origin',(-11.9,5.6,-2.3));
#1535=CARTESIAN_POINT('',(-12.4,5.6,-2.8));
#1536=CARTESIAN_POINT('',(-12.4,5.6,-2.32354041916168));
#1537=CARTESIAN_POINT('Origin',(-12.6,5.6,-2.8));
#1538=CARTESIAN_POINT('',(-15.2,5.6,-1.5));
#1539=CARTESIAN_POINT('',(-15.2,5.6,-3.));
#1540=CARTESIAN_POINT('',(-11.925,5.6,-1.5));
#1541=CARTESIAN_POINT('',(-15.2,5.6,-1.5));
#1542=CARTESIAN_POINT('',(-11.925,5.6,-0.5));
#1543=CARTESIAN_POINT('',(-11.925,5.6,-1.5));
#1544=CARTESIAN_POINT('',(11.925,5.6,-0.5));
#1545=CARTESIAN_POINT('',(4.44089209850063E-15,5.6,-0.5));
#1546=CARTESIAN_POINT('',(11.925,5.6,-1.5));
#1547=CARTESIAN_POINT('',(11.925,5.6,0.));
#1548=CARTESIAN_POINT('',(15.2,5.6,-1.5));
#1549=CARTESIAN_POINT('',(11.925,5.6,-1.5));
#1550=CARTESIAN_POINT('',(15.2,5.6,-2.8));
#1551=CARTESIAN_POINT('',(15.2,5.6,-1.5));
#1552=CARTESIAN_POINT('',(15.,5.6,-3.));
#1553=CARTESIAN_POINT('Origin',(15.,5.6,-2.8));
#1554=CARTESIAN_POINT('',(12.6,5.6,-3.));
#1555=CARTESIAN_POINT('',(15.2,5.6,-3.));
#1556=CARTESIAN_POINT('',(12.4,5.6,-2.8));
#1557=CARTESIAN_POINT('Origin',(12.6,5.6,-2.8));
#1558=CARTESIAN_POINT('',(12.4,5.6,-2.3));
#1559=CARTESIAN_POINT('',(12.4,5.6,-2.32354041916168));
#1560=CARTESIAN_POINT('',(11.9,5.6,-1.8));
#1561=CARTESIAN_POINT('Origin',(11.9,5.6,-2.3));
#1562=CARTESIAN_POINT('',(11.1,5.6,-1.8));
#1563=CARTESIAN_POINT('',(4.44089209850063E-15,5.6,-1.8));
#1564=CARTESIAN_POINT('',(11.1,5.6,-1.89854041916168));
#1565=CARTESIAN_POINT('Origin',(15.,0.,-2.8));
#1566=CARTESIAN_POINT('',(15.2,0.,-2.8));
#1567=CARTESIAN_POINT('',(15.2,0.,-2.8));
#1568=CARTESIAN_POINT('',(15.,0.,-3.));
#1569=CARTESIAN_POINT('Origin',(15.,0.,-2.8));
#1570=CARTESIAN_POINT('',(15.,0.,-3.));
#1571=CARTESIAN_POINT('Origin',(15.2,0.,-1.5));
#1572=CARTESIAN_POINT('',(15.2,0.,-1.5));
#1573=CARTESIAN_POINT('',(15.2,0.,-1.5));
#1574=CARTESIAN_POINT('',(15.2,0.,-1.5));
#1575=CARTESIAN_POINT('Origin',(12.6,1.9,-2.8));
#1576=CARTESIAN_POINT('',(12.6,3.79999999999999,-3.));
#1577=CARTESIAN_POINT('',(12.6,1.9,-3.));
#1578=CARTESIAN_POINT('',(12.4,3.79999999999999,-2.8));
#1579=CARTESIAN_POINT('Origin',(12.6,3.79999999999999,-2.8));
#1580=CARTESIAN_POINT('',(12.4,1.9,-2.8));
#1581=CARTESIAN_POINT('Origin',(12.4,3.79999999999999,-3.));
#1582=CARTESIAN_POINT('',(12.4,3.79999999999999,-2.3));
#1583=CARTESIAN_POINT('',(12.4,3.79999999999999,-3.));
#1584=CARTESIAN_POINT('',(12.4,4.25,-2.3));
#1585=CARTESIAN_POINT('Origin',(-12.6,2.8,-2.8));
#1586=CARTESIAN_POINT('',(-12.4,3.8,-2.8));
#1587=CARTESIAN_POINT('',(-12.4,2.8,-2.8));
#1588=CARTESIAN_POINT('Origin',(-12.6,3.8,-2.8));
#1589=CARTESIAN_POINT('Origin',(-10.6,1.4,-2.15));
#1590=CARTESIAN_POINT('',(-10.6,0.899999999999998,-2.15));
#1591=CARTESIAN_POINT('',(-10.6,0.899999999999998,-2.15));
#1592=CARTESIAN_POINT('',(-11.1,1.4,-2.15));
#1593=CARTESIAN_POINT('Origin',(-10.6,1.4,-2.15));
#1594=CARTESIAN_POINT('',(-11.1,1.4,-2.15));
#1595=CARTESIAN_POINT('Origin',(-11.1,5.6,-2.15));
#1596=CARTESIAN_POINT('',(-11.1,3.8,-2.15));
#1597=CARTESIAN_POINT('',(-11.1,4.21875,-2.15));
#1598=CARTESIAN_POINT('',(-11.1,3.8,-1.8));
#1599=CARTESIAN_POINT('',(-11.1,3.8,-2.575));
#1600=CARTESIAN_POINT('',(-11.1,5.15,-1.8));
#1601=CARTESIAN_POINT('Origin',(10.6,1.4,-2.15));
#1602=CARTESIAN_POINT('',(11.1,1.4,-2.15));
#1603=CARTESIAN_POINT('',(11.1,1.4,-2.15));
#1604=CARTESIAN_POINT('',(10.6,0.899999999999998,-2.15));
#1605=CARTESIAN_POINT('Origin',(10.6,1.4,-2.15));
#1606=CARTESIAN_POINT('',(10.6,0.899999999999998,-2.15));
#1607=CARTESIAN_POINT('Origin',(-11.1,0.899999999999998,-2.15));
#1608=CARTESIAN_POINT('',(-5.55,0.899999999999998,-2.15));
#1609=CARTESIAN_POINT('Origin',(-11.9,5.15,-2.3));
#1610=CARTESIAN_POINT('',(-12.4,3.8,-2.3));
#1611=CARTESIAN_POINT('',(-11.9,3.8,-1.8));
#1612=CARTESIAN_POINT('Origin',(-11.9,3.8,-2.3));
#1613=CARTESIAN_POINT('',(-12.4,5.15,-2.3));
#1614=CARTESIAN_POINT('',(-11.9,5.15,-1.8));
#1615=CARTESIAN_POINT('Origin',(-12.4,5.6,-3.));
#1616=CARTESIAN_POINT('',(-12.4,3.8,-3.));
#1617=CARTESIAN_POINT('Origin',(11.9,4.25,-2.3));
#1618=CARTESIAN_POINT('',(11.9,3.8,-1.8));
#1619=CARTESIAN_POINT('Origin',(11.9,3.79999999999999,-2.3));
#1620=CARTESIAN_POINT('',(11.9,4.25,-1.8));
#1621=CARTESIAN_POINT('Origin',(11.6,1.41875,-2.65));
#1622=CARTESIAN_POINT('',(12.1,0.,-2.65));
#1623=CARTESIAN_POINT('',(11.6,0.,-2.15));
#1624=CARTESIAN_POINT('Origin',(11.6,-1.66533453693773E-15,-2.65));
#1625=CARTESIAN_POINT('',(11.6,3.8,-2.15));
#1626=CARTESIAN_POINT('',(11.6,1.41875,-2.15));
#1627=CARTESIAN_POINT('',(12.1,3.79999999999999,-2.65));
#1628=CARTESIAN_POINT('Origin',(11.6,3.79999999999999,-2.65));
#1629=CARTESIAN_POINT('',(12.1,1.41875,-2.65));
#1630=CARTESIAN_POINT('Origin',(4.65636301446406E-15,2.8375,-2.15));
#1631=CARTESIAN_POINT('',(-11.6,0.,-2.15));
#1632=CARTESIAN_POINT('',(4.88352267543739E-15,0.,-2.15));
#1633=CARTESIAN_POINT('',(-11.6,3.8,-2.15));
#1634=CARTESIAN_POINT('',(-11.6,3.31875,-2.15));
#1635=CARTESIAN_POINT('',(-6.2,3.8,-2.15));
#1636=CARTESIAN_POINT('',(11.1,3.8,-2.15));
#1637=CARTESIAN_POINT('',(11.1,1.86875,-2.15));
#1638=CARTESIAN_POINT('',(-6.2,3.8,-2.15));
#1639=CARTESIAN_POINT('Origin',(-11.6,3.31875,-2.65));
#1640=CARTESIAN_POINT('',(-12.1,3.8,-2.65));
#1641=CARTESIAN_POINT('Origin',(-11.6,3.8,-2.65));
#1642=CARTESIAN_POINT('',(-12.1,0.,-2.65));
#1643=CARTESIAN_POINT('Origin',(-11.6,0.,-2.65));
#1644=CARTESIAN_POINT('',(-12.1,3.31875,-2.65));
#1645=CARTESIAN_POINT('Origin',(11.1,0.899999999999998,-2.15));
#1646=CARTESIAN_POINT('',(11.1,3.8,-1.8));
#1647=CARTESIAN_POINT('',(11.1,2.8,-1.8));
#1648=CARTESIAN_POINT('',(11.1,3.79999999999999,-2.575));
#1649=CARTESIAN_POINT('Origin',(-10.45,3.4,0.));
#1650=CARTESIAN_POINT('',(-10.45,3.9,0.));
#1651=CARTESIAN_POINT('',(-10.45,3.9,0.));
#1652=CARTESIAN_POINT('',(-10.95,3.39999999993597,0.));
#1653=CARTESIAN_POINT('Origin',(-10.45,3.4,0.));
#1654=CARTESIAN_POINT('',(-10.95,3.39999999993597,0.));
#1655=CARTESIAN_POINT('Origin',(-10.45,3.9,0.));
#1656=CARTESIAN_POINT('',(10.4499999999651,3.9,0.));
#1657=CARTESIAN_POINT('',(10.4499999999651,3.9,0.));
#1658=CARTESIAN_POINT('',(-11.1875,3.9,0.));
#1659=CARTESIAN_POINT('Origin',(10.45,3.4,0.));
#1660=CARTESIAN_POINT('',(10.95,3.39999999993597,0.));
#1661=CARTESIAN_POINT('',(10.95,3.39999999993597,0.));
#1662=CARTESIAN_POINT('Origin',(10.45,3.4,0.));
#1663=CARTESIAN_POINT('Origin',(10.95,3.39999999993597,0.));
#1664=CARTESIAN_POINT('',(10.95,1.50000000005821,0.));
#1665=CARTESIAN_POINT('',(10.95,1.50000000005821,0.));
#1666=CARTESIAN_POINT('',(10.95,1.69999999996799,0.));
#1667=CARTESIAN_POINT('Origin',(-12.4,3.8,-3.));
#1668=CARTESIAN_POINT('',(-12.4,3.8,-1.8));
#1669=CARTESIAN_POINT('',(-12.1,3.8,-3.));
#1670=CARTESIAN_POINT('Origin',(4.44089209850063E-15,4.7,-1.8));
#1671=CARTESIAN_POINT('',(-12.4,3.8,-1.8));
#1672=CARTESIAN_POINT('Origin',(4.44089209850063E-15,4.7,-1.8));
#1673=CARTESIAN_POINT('Origin',(-12.1,3.8,-3.));
#1674=CARTESIAN_POINT('',(-12.1,0.,-2.32354041916168));
#1675=CARTESIAN_POINT('Origin',(12.1,3.79999999999999,-3.));
#1676=CARTESIAN_POINT('',(12.1,3.79999999999999,-3.));
#1677=CARTESIAN_POINT('',(13.65,3.79999999999999,-3.));
#1678=CARTESIAN_POINT('',(12.1,3.79999999999999,-3.));
#1679=CARTESIAN_POINT('Origin',(12.1,-3.33066907387547E-15,-3.));
#1680=CARTESIAN_POINT('',(12.1,-3.05768910012345E-15,-3.));
#1681=CARTESIAN_POINT('',(12.1,-1.43890747270497E-15,-3.));
#1682=CARTESIAN_POINT('',(12.1,0.,-2.32354041916168));
#1683=CARTESIAN_POINT('Origin',(10.45,1.5,0.));
#1684=CARTESIAN_POINT('',(10.4499999999651,1.,0.));
#1685=CARTESIAN_POINT('',(10.4499999999651,1.,0.));
#1686=CARTESIAN_POINT('Origin',(10.45,1.5,0.));
#1687=CARTESIAN_POINT('Origin',(10.4499999999651,1.,0.));
#1688=CARTESIAN_POINT('',(-10.45,0.999999999999999,0.));
#1689=CARTESIAN_POINT('',(-10.45,0.999999999999999,0.));
#1690=CARTESIAN_POINT('',(-0.737500000017457,1.,0.));
#1691=CARTESIAN_POINT('Origin',(-10.45,1.5,0.));
#1692=CARTESIAN_POINT('',(-10.95,1.50000000005821,0.));
#1693=CARTESIAN_POINT('',(-10.95,1.50000000005821,0.));
#1694=CARTESIAN_POINT('Origin',(-10.45,1.5,0.));
#1695=CARTESIAN_POINT('Origin',(-10.95,1.50000000005821,0.));
#1696=CARTESIAN_POINT('',(-10.95,0.750000000029103,0.));
#1697=CARTESIAN_POINT('Origin',(15.2,0.,-3.));
#1698=CARTESIAN_POINT('',(15.2,0.,-3.));
#1699=CARTESIAN_POINT('Origin',(5.11068233641071E-15,0.,-1.64708083832335));
#1700=CARTESIAN_POINT('',(11.925,0.,-1.5));
#1701=CARTESIAN_POINT('',(11.925,0.,-1.5));
#1702=CARTESIAN_POINT('',(11.925,0.,-0.5));
#1703=CARTESIAN_POINT('',(11.925,0.,0.));
#1704=CARTESIAN_POINT('',(-11.925,0.,-0.5));
#1705=CARTESIAN_POINT('',(4.77578721745567E-15,0.,-0.5));
#1706=CARTESIAN_POINT('',(-11.925,0.,-1.5));
#1707=CARTESIAN_POINT('',(-11.925,0.,-1.5));
#1708=CARTESIAN_POINT('',(-15.2,0.,-1.5));
#1709=CARTESIAN_POINT('',(-15.2,0.,-1.5));
#1710=CARTESIAN_POINT('',(-15.2,0.,-3.));
#1711=CARTESIAN_POINT('Origin',(-10.45,1.5,0.));
#1712=CARTESIAN_POINT('',(-10.45,0.499999999999999,0.));
#1713=CARTESIAN_POINT('',(-11.45,1.5,0.));
#1714=CARTESIAN_POINT('Origin',(-10.45,1.5,0.));
#1715=CARTESIAN_POINT('',(-11.45,1.5,-0.5));
#1716=CARTESIAN_POINT('',(-11.45,1.5,0.));
#1717=CARTESIAN_POINT('',(-10.45,0.499999999999999,-0.5));
#1718=CARTESIAN_POINT('Origin',(-10.45,1.5,-0.5));
#1719=CARTESIAN_POINT('',(-10.45,0.499999999999999,0.));
#1720=CARTESIAN_POINT('Origin',(-11.45,0.499999999999999,0.));
#1721=CARTESIAN_POINT('',(-11.45,3.4,0.));
#1722=CARTESIAN_POINT('',(-11.45,0.249999999999999,0.));
#1723=CARTESIAN_POINT('',(-11.45,3.4,-0.5));
#1724=CARTESIAN_POINT('',(-11.45,3.4,0.));
#1725=CARTESIAN_POINT('',(-11.45,1.65,-0.5));
#1726=CARTESIAN_POINT('Origin',(-11.925,0.,0.));
#1727=CARTESIAN_POINT('',(10.45,0.500000000000001,0.));
#1728=CARTESIAN_POINT('',(-0.237499999999997,0.5,0.));
#1729=CARTESIAN_POINT('',(11.45,1.5,0.));
#1730=CARTESIAN_POINT('Origin',(10.45,1.5,0.));
#1731=CARTESIAN_POINT('',(11.45,3.4,0.));
#1732=CARTESIAN_POINT('',(11.45,2.2,0.));
#1733=CARTESIAN_POINT('',(10.45,4.4,0.));
#1734=CARTESIAN_POINT('Origin',(10.45,3.4,0.));
#1735=CARTESIAN_POINT('',(-10.45,4.4,0.));
#1736=CARTESIAN_POINT('',(-11.6875,4.4,0.));
#1737=CARTESIAN_POINT('Origin',(-10.45,3.4,0.));
#1738=CARTESIAN_POINT('Origin',(10.45,1.5,0.));
#1739=CARTESIAN_POINT('',(10.45,0.500000000000001,-0.5));
#1740=CARTESIAN_POINT('',(10.45,0.500000000000001,0.));
#1741=CARTESIAN_POINT('',(11.45,1.5,-0.5));
#1742=CARTESIAN_POINT('Origin',(10.45,1.5,-0.5));
#1743=CARTESIAN_POINT('',(11.45,1.5,0.));
#1744=CARTESIAN_POINT('Origin',(11.45,4.4,0.));
#1745=CARTESIAN_POINT('',(11.45,3.4,-0.5));
#1746=CARTESIAN_POINT('',(11.45,3.6,-0.5));
#1747=CARTESIAN_POINT('',(11.45,3.4,0.));
#1748=CARTESIAN_POINT('Origin',(10.45,3.4,0.));
#1749=CARTESIAN_POINT('',(10.45,4.4,-0.5));
#1750=CARTESIAN_POINT('Origin',(10.45,3.4,-0.5));
#1751=CARTESIAN_POINT('',(10.45,4.4,0.));
#1752=CARTESIAN_POINT('Origin',(-11.45,4.4,0.));
#1753=CARTESIAN_POINT('',(-10.45,4.4,-0.5));
#1754=CARTESIAN_POINT('',(-5.725,4.4,-0.5));
#1755=CARTESIAN_POINT('',(-10.45,4.4,0.));
#1756=CARTESIAN_POINT('Origin',(-10.45,3.4,0.));
#1757=CARTESIAN_POINT('Origin',(-10.45,3.4,-0.5));
#1758=CARTESIAN_POINT('Origin',(11.45,0.500000000000001,0.));
#1759=CARTESIAN_POINT('',(5.725,0.5,-0.5));
#1760=CARTESIAN_POINT('Origin',(4.44089209850063E-15,2.8,-0.5));
#1761=CARTESIAN_POINT('',(11.925,1.4,-0.5));
#1762=CARTESIAN_POINT('',(-11.925,1.4,-0.5));
#1763=CARTESIAN_POINT('Origin',(-11.925,0.,-1.5));
#1764=CARTESIAN_POINT('',(-11.925,0.,-1.5));
#1765=CARTESIAN_POINT('Origin',(-15.2,0.,-1.5));
#1766=CARTESIAN_POINT('',(-15.2,0.,-1.5));
#1767=CARTESIAN_POINT('Origin',(-15.2,0.,-3.));
#1768=CARTESIAN_POINT('Origin',(11.925,0.,-1.5));
#1769=CARTESIAN_POINT('',(11.925,0.,-1.5));
#1770=CARTESIAN_POINT('Origin',(11.925,0.,0.));
#1771=UNCERTAINTY_MEASURE_WITH_UNIT(LENGTH_MEASURE(0.01),#1775,
'DISTANCE_ACCURACY_VALUE',
'Maximum model space distance between geometric entities at asserted c
onnectivities');
#1772=UNCERTAINTY_MEASURE_WITH_UNIT(LENGTH_MEASURE(1.E-6),#1775,
'DISTANCE_ACCURACY_VALUE',
'Maximum model space distance between geometric entities at asserted c
onnectivities');
#1773=(
GEOMETRIC_REPRESENTATION_CONTEXT(3)
GLOBAL_UNCERTAINTY_ASSIGNED_CONTEXT((#1771))
GLOBAL_UNIT_ASSIGNED_CONTEXT((#1775,#1778,#1776))
REPRESENTATION_CONTEXT('','3D')
);
#1774=(
GEOMETRIC_REPRESENTATION_CONTEXT(3)
GLOBAL_UNCERTAINTY_ASSIGNED_CONTEXT((#1772))
GLOBAL_UNIT_ASSIGNED_CONTEXT((#1775,#1778,#1776))
REPRESENTATION_CONTEXT('','3D')
);
#1775=(
LENGTH_UNIT()
NAMED_UNIT(*)
SI_UNIT(.MILLI.,.METRE.)
);
#1776=(
NAMED_UNIT(*)
SI_UNIT($,.STERADIAN.)
SOLID_ANGLE_UNIT()
);
#1777=DIMENSIONAL_EXPONENTS(0.,0.,0.,0.,0.,0.,0.);
#1778=(
CONVERSION_BASED_UNIT('degree',#1780)
NAMED_UNIT(#1777)
PLANE_ANGLE_UNIT()
);
#1779=(
NAMED_UNIT(*)
PLANE_ANGLE_UNIT()
SI_UNIT($,.RADIAN.)
);
#1780=PLANE_ANGLE_MEASURE_WITH_UNIT(PLANE_ANGLE_MEASURE(0.01745329252),
#1779);
#1781=SHAPE_DEFINITION_REPRESENTATION(#1782,#1783);
#1782=PRODUCT_DEFINITION_SHAPE('',$,#1785);
#1783=SHAPE_REPRESENTATION('',(#1067),#1773);
#1784=PRODUCT_DEFINITION_CONTEXT('part definition',#1789,'design');
#1785=PRODUCT_DEFINITION('iPod 4th Generation Dock Connector Bezel',
'iPod 4th Generation Dock Connector Bezel',#1786,#1784);
#1786=PRODUCT_DEFINITION_FORMATION('',$,#1791);
#1787=PRODUCT_RELATED_PRODUCT_CATEGORY(
'iPod 4th Generation Dock Connector Bezel',
'iPod 4th Generation Dock Connector Bezel',(#1791));
#1788=APPLICATION_PROTOCOL_DEFINITION('international standard',
'automotive_design',2009,#1789);
#1789=APPLICATION_CONTEXT(
'Core Data for Automotive Mechanical Design Process');
#1790=PRODUCT_CONTEXT('part definition',#1789,'mechanical');
#1791=PRODUCT('iPod 4th Generation Dock Connector Bezel',
'iPod 4th Generation Dock Connector Bezel',$,(#1790));
#1792=PRESENTATION_STYLE_ASSIGNMENT((#1793));
#1793=SURFACE_STYLE_USAGE(.BOTH.,#1794);
#1794=SURFACE_SIDE_STYLE('',(#1795));
#1795=SURFACE_STYLE_FILL_AREA(#1796);
#1796=FILL_AREA_STYLE('',(#1797));
#1797=FILL_AREA_STYLE_COLOUR('',#1798);
#1798=COLOUR_RGB('',0.92156862745098,0.92156862745098,0.92156862745098);
ENDSEC;
END-ISO-10303-21;
